%TF.GenerationSoftware,KiCad,Pcbnew,7.0.2-0*%
%TF.CreationDate,2023-09-13T20:52:30-05:00*%
%TF.ProjectId,CowPi-mk4a,436f7750-692d-46d6-9b34-612e6b696361,mk4a*%
%TF.SameCoordinates,Original*%
%TF.FileFunction,Copper,L2,Bot*%
%TF.FilePolarity,Positive*%
%FSLAX46Y46*%
G04 Gerber Fmt 4.6, Leading zero omitted, Abs format (unit mm)*
G04 Created by KiCad (PCBNEW 7.0.2-0) date 2023-09-13 20:52:30*
%MOMM*%
%LPD*%
G01*
G04 APERTURE LIST*
%TA.AperFunction,ComponentPad*%
%ADD10C,4.000000*%
%TD*%
%TA.AperFunction,ComponentPad*%
%ADD11C,1.800000*%
%TD*%
%TA.AperFunction,ViaPad*%
%ADD12C,0.800000*%
%TD*%
%TA.AperFunction,Conductor*%
%ADD13C,0.250000*%
%TD*%
%TA.AperFunction,Conductor*%
%ADD14C,1.000000*%
%TD*%
G04 APERTURE END LIST*
%TA.AperFunction,EtchedComponent*%
%TO.C,G\u002A\u002A\u002A*%
G36*
X92421410Y-71282747D02*
G01*
X92595773Y-71427463D01*
X92743782Y-71652289D01*
X92828748Y-71896507D01*
X92861513Y-72182631D01*
X92837118Y-72471346D01*
X92759637Y-72741205D01*
X92633138Y-72970759D01*
X92461693Y-73138559D01*
X92437481Y-73153992D01*
X92225341Y-73231601D01*
X91997714Y-73229652D01*
X91783746Y-73147747D01*
X91767105Y-73136944D01*
X91614563Y-72985870D01*
X91490512Y-72771226D01*
X91406487Y-72518224D01*
X91374020Y-72252078D01*
X91378904Y-72111704D01*
X91432428Y-71829350D01*
X91535928Y-71593683D01*
X91678499Y-71409475D01*
X91849237Y-71281504D01*
X92037238Y-71214542D01*
X92231597Y-71213365D01*
X92421410Y-71282747D01*
G37*
%TD.AperFunction*%
%TA.AperFunction,EtchedComponent*%
G36*
X87763947Y-67883116D02*
G01*
X88055564Y-67920266D01*
X88288175Y-67984256D01*
X88445488Y-68053070D01*
X88709861Y-68211951D01*
X88891481Y-68396800D01*
X88996178Y-68614597D01*
X89029781Y-68872325D01*
X89028625Y-68914773D01*
X88973061Y-69154383D01*
X88840601Y-69351527D01*
X88640216Y-69496432D01*
X88380876Y-69579325D01*
X88167155Y-69592585D01*
X87854050Y-69545546D01*
X87537859Y-69428049D01*
X87516271Y-69417207D01*
X87255976Y-69244629D01*
X87011151Y-69011975D01*
X86799793Y-68741953D01*
X86639893Y-68457274D01*
X86549448Y-68180646D01*
X86518096Y-68013529D01*
X86876158Y-67933868D01*
X87123861Y-67893625D01*
X87443366Y-67873878D01*
X87763947Y-67883116D01*
G37*
%TD.AperFunction*%
%TA.AperFunction,EtchedComponent*%
G36*
X101885525Y-67895931D02*
G01*
X102208280Y-67909883D01*
X102446762Y-67940680D01*
X102606579Y-67989849D01*
X102693340Y-68058912D01*
X102712655Y-68149396D01*
X102710744Y-68160859D01*
X102678107Y-68266379D01*
X102616644Y-68420177D01*
X102537805Y-68593195D01*
X102442458Y-68764351D01*
X102209613Y-69060351D01*
X101925083Y-69303540D01*
X101605988Y-69480622D01*
X101269447Y-69578301D01*
X101066016Y-69597787D01*
X100783444Y-69568649D01*
X100549948Y-69463808D01*
X100360663Y-69281675D01*
X100318339Y-69221213D01*
X100220154Y-68993317D01*
X100208144Y-68762437D01*
X100278124Y-68537895D01*
X100425908Y-68329013D01*
X100647311Y-68145112D01*
X100938147Y-67995516D01*
X101053346Y-67953882D01*
X101178586Y-67922772D01*
X101324902Y-67904468D01*
X101516136Y-67896107D01*
X101776131Y-67894821D01*
X101885525Y-67895931D01*
G37*
%TD.AperFunction*%
%TA.AperFunction,EtchedComponent*%
G36*
X91772317Y-76991184D02*
G01*
X92081048Y-77063272D01*
X92391771Y-77206691D01*
X92684104Y-77408074D01*
X92937669Y-77654054D01*
X93132086Y-77931263D01*
X93228962Y-78159436D01*
X93275097Y-78398427D01*
X93265245Y-78618030D01*
X93202339Y-78802729D01*
X93089312Y-78937007D01*
X92929095Y-79005347D01*
X92846706Y-79016476D01*
X92679016Y-79014272D01*
X92528683Y-78964353D01*
X92372987Y-78856776D01*
X92189208Y-78681600D01*
X92141274Y-78632821D01*
X91948781Y-78458493D01*
X91750808Y-78323424D01*
X91504921Y-78197602D01*
X91412589Y-78153318D01*
X91185873Y-78021198D01*
X91036982Y-77885936D01*
X90955327Y-77735760D01*
X90930319Y-77558902D01*
X90932775Y-77511649D01*
X90990152Y-77317917D01*
X91107822Y-77149579D01*
X91264698Y-77039393D01*
X91344879Y-77015991D01*
X91510621Y-76991840D01*
X91690408Y-76985640D01*
X91772317Y-76991184D01*
G37*
%TD.AperFunction*%
%TA.AperFunction,EtchedComponent*%
G36*
X97835036Y-76996633D02*
G01*
X97980018Y-77038007D01*
X98156911Y-77154704D01*
X98263920Y-77332079D01*
X98299854Y-77568666D01*
X98298803Y-77619595D01*
X98277081Y-77763212D01*
X98217667Y-77881836D01*
X98107954Y-77988915D01*
X97935338Y-78097896D01*
X97687213Y-78222226D01*
X97662910Y-78233757D01*
X97437674Y-78355587D01*
X97258509Y-78490546D01*
X97084658Y-78668844D01*
X96941566Y-78816446D01*
X96805216Y-78929931D01*
X96700766Y-78987717D01*
X96635558Y-79006265D01*
X96527622Y-79028105D01*
X96432695Y-79022345D01*
X96299966Y-78989171D01*
X96224448Y-78962593D01*
X96086020Y-78860995D01*
X96007276Y-78699346D01*
X95982336Y-78467994D01*
X95987531Y-78365828D01*
X96063822Y-78068575D01*
X96231608Y-77777664D01*
X96491445Y-77492034D01*
X96520074Y-77465911D01*
X96844947Y-77220257D01*
X97177118Y-77058419D01*
X97509507Y-76983008D01*
X97835036Y-76996633D01*
G37*
%TD.AperFunction*%
%TA.AperFunction,EtchedComponent*%
G36*
X71706332Y-67078982D02*
G01*
X71830874Y-67079007D01*
X72624397Y-67079605D01*
X73383627Y-67080925D01*
X74103255Y-67082929D01*
X74777970Y-67085577D01*
X75402464Y-67088829D01*
X75971425Y-67092646D01*
X76479544Y-67096989D01*
X76921512Y-67101817D01*
X77292019Y-67107092D01*
X77585755Y-67112774D01*
X77797410Y-67118824D01*
X77921674Y-67125202D01*
X78158781Y-67149010D01*
X78754345Y-67253016D01*
X79295362Y-67420164D01*
X79797030Y-67657146D01*
X80274545Y-67970652D01*
X80743107Y-68367373D01*
X80801027Y-68422696D01*
X80967829Y-68589748D01*
X81150873Y-68781918D01*
X81340129Y-68987685D01*
X81525567Y-69195525D01*
X81697157Y-69393914D01*
X81844871Y-69571330D01*
X81958677Y-69716248D01*
X82028547Y-69817147D01*
X82044450Y-69862502D01*
X82009113Y-69893600D01*
X81914279Y-69974754D01*
X81777805Y-70090469D01*
X81615852Y-70227002D01*
X81224003Y-70556488D01*
X80814600Y-70117389D01*
X80526972Y-69829232D01*
X80133501Y-69504373D01*
X79737408Y-69260061D01*
X79329322Y-69089816D01*
X79169252Y-69041592D01*
X78997220Y-69001862D01*
X78810897Y-68974726D01*
X78584152Y-68956504D01*
X78290852Y-68943513D01*
X77633128Y-68920754D01*
X77696521Y-69193023D01*
X77697127Y-69195628D01*
X77721135Y-69298763D01*
X77763706Y-69481661D01*
X77822496Y-69734252D01*
X77895160Y-70046464D01*
X77979356Y-70408227D01*
X78072738Y-70809469D01*
X78172964Y-71240121D01*
X78277689Y-71690110D01*
X78366408Y-72068507D01*
X78480642Y-72548300D01*
X78594671Y-73019696D01*
X78705101Y-73469028D01*
X78808541Y-73882631D01*
X78901596Y-74246839D01*
X78980874Y-74547987D01*
X79042983Y-74772409D01*
X79254678Y-75481708D01*
X79509489Y-76268229D01*
X79762180Y-76971491D01*
X80014971Y-77596570D01*
X80270079Y-78148548D01*
X80529723Y-78632501D01*
X80796121Y-79053510D01*
X81071491Y-79416653D01*
X81130952Y-79492305D01*
X81244606Y-79689853D01*
X81316066Y-79926507D01*
X81346101Y-80069913D01*
X81370409Y-80193288D01*
X81380342Y-80253991D01*
X81367487Y-80258602D01*
X81278165Y-80266123D01*
X81113078Y-80272105D01*
X80883239Y-80276375D01*
X80599664Y-80278758D01*
X80273365Y-80279079D01*
X79915356Y-80277166D01*
X78448741Y-80264927D01*
X78340079Y-79894124D01*
X78313325Y-79801785D01*
X78215549Y-79448752D01*
X78106707Y-79033017D01*
X77986066Y-78551433D01*
X77852893Y-78000859D01*
X77706456Y-77378148D01*
X77546020Y-76680156D01*
X77370854Y-75903740D01*
X77180224Y-75045754D01*
X76973396Y-74103054D01*
X76749638Y-73072497D01*
X76745938Y-73055381D01*
X76616322Y-72455394D01*
X76492486Y-71881601D01*
X76375813Y-71340441D01*
X76267686Y-70838357D01*
X76169489Y-70381788D01*
X76082604Y-69977176D01*
X76008415Y-69630962D01*
X75948304Y-69349586D01*
X75903656Y-69139491D01*
X75875852Y-69007116D01*
X75866277Y-68958902D01*
X75843476Y-68954930D01*
X75738552Y-68949649D01*
X75556918Y-68944845D01*
X75307926Y-68940641D01*
X75000927Y-68937159D01*
X74645273Y-68934520D01*
X74250315Y-68932848D01*
X73825406Y-68932263D01*
X73619542Y-68932321D01*
X73154568Y-68933073D01*
X72771790Y-68934880D01*
X72463659Y-68937981D01*
X72222626Y-68942610D01*
X72041141Y-68949005D01*
X71911656Y-68957401D01*
X71826621Y-68968036D01*
X71778488Y-68981146D01*
X71759706Y-68996967D01*
X71758396Y-69013600D01*
X71774692Y-69108950D01*
X71815138Y-69267368D01*
X71875053Y-69471456D01*
X71949760Y-69703810D01*
X72107814Y-70190365D01*
X72343066Y-70969095D01*
X72577155Y-71810963D01*
X72812016Y-72723302D01*
X73049585Y-73713445D01*
X73291795Y-74788722D01*
X73393204Y-75256161D01*
X73497651Y-75750827D01*
X73583424Y-76176451D01*
X73652435Y-76544531D01*
X73706594Y-76866566D01*
X73747813Y-77154054D01*
X73778003Y-77418496D01*
X73799076Y-77671390D01*
X73812942Y-77924234D01*
X73814754Y-77967738D01*
X73822982Y-78231683D01*
X73821632Y-78433883D01*
X73808800Y-78601224D01*
X73782581Y-78760593D01*
X73741070Y-78938876D01*
X73730926Y-78977643D01*
X73665419Y-79190710D01*
X73590036Y-79390595D01*
X73519135Y-79538506D01*
X73466424Y-79623659D01*
X73213422Y-79938871D01*
X72911870Y-80191502D01*
X72575679Y-80371596D01*
X72218762Y-80469197D01*
X72143657Y-80480163D01*
X71991222Y-80500807D01*
X71874647Y-80510336D01*
X71761936Y-80508952D01*
X71621091Y-80496858D01*
X71420116Y-80474256D01*
X71235798Y-80448396D01*
X70781417Y-80341639D01*
X70335704Y-80171630D01*
X69890500Y-79933628D01*
X69437644Y-79622894D01*
X68968975Y-79234687D01*
X68476334Y-78764267D01*
X68062120Y-78345352D01*
X68453159Y-77978659D01*
X68844197Y-77611966D01*
X69342415Y-78089322D01*
X69478571Y-78217142D01*
X69783951Y-78479277D01*
X70056276Y-78671949D01*
X70307083Y-78801599D01*
X70547908Y-78874667D01*
X70790285Y-78897591D01*
X70907951Y-78893191D01*
X71132173Y-78848688D01*
X71303004Y-78750835D01*
X71424568Y-78592962D01*
X71500987Y-78368393D01*
X71536385Y-78070458D01*
X71534883Y-77692482D01*
X71526303Y-77540288D01*
X71502872Y-77254231D01*
X71472224Y-76974170D01*
X71438749Y-76743452D01*
X71433197Y-76713811D01*
X71405981Y-76580965D01*
X71361018Y-76369770D01*
X71300218Y-76088808D01*
X71225495Y-75746661D01*
X71138761Y-75351909D01*
X71041928Y-74913135D01*
X70936910Y-74438921D01*
X70825618Y-73937847D01*
X70709965Y-73418497D01*
X70591863Y-72889450D01*
X70473225Y-72359289D01*
X70355963Y-71836596D01*
X70241990Y-71329952D01*
X70133217Y-70847939D01*
X70031559Y-70399139D01*
X69938926Y-69992133D01*
X69857231Y-69635502D01*
X69788388Y-69337829D01*
X69693955Y-68932263D01*
X66412569Y-68932263D01*
X66388992Y-68827975D01*
X66332569Y-68576879D01*
X66252758Y-68216050D01*
X66182300Y-67890678D01*
X66123494Y-67611736D01*
X66078642Y-67390197D01*
X66050044Y-67237035D01*
X66040000Y-67163223D01*
X66040443Y-67157316D01*
X66046244Y-67145287D01*
X66062635Y-67134544D01*
X66094444Y-67125015D01*
X66146503Y-67116629D01*
X66223640Y-67109313D01*
X66330687Y-67102997D01*
X66472473Y-67097607D01*
X66653829Y-67093074D01*
X66879584Y-67089323D01*
X67154569Y-67086285D01*
X67483614Y-67083886D01*
X67871549Y-67082056D01*
X68323203Y-67080721D01*
X68843408Y-67079812D01*
X69436994Y-67079255D01*
X70108789Y-67078979D01*
X70863625Y-67078912D01*
X71706332Y-67078982D01*
G37*
%TD.AperFunction*%
%TA.AperFunction,EtchedComponent*%
G36*
X104599167Y-67606164D02*
G01*
X104542217Y-67824963D01*
X104472891Y-68062095D01*
X104397733Y-68294036D01*
X104323287Y-68497258D01*
X104152335Y-68899414D01*
X103940987Y-69315459D01*
X103711019Y-69676453D01*
X103449132Y-70002862D01*
X103142026Y-70315156D01*
X102972887Y-70463904D01*
X102560308Y-70752305D01*
X102123465Y-70953837D01*
X101653277Y-71072108D01*
X101140663Y-71110730D01*
X100710073Y-71110730D01*
X100710854Y-71261369D01*
X100713254Y-71356713D01*
X100722169Y-71546943D01*
X100736725Y-71798274D01*
X100755948Y-72097904D01*
X100766030Y-72245352D01*
X100778863Y-72433033D01*
X100804497Y-72790862D01*
X100831873Y-73158590D01*
X100860019Y-73523416D01*
X100887960Y-73872541D01*
X100914721Y-74193165D01*
X100939328Y-74472486D01*
X100960807Y-74697705D01*
X100978182Y-74856021D01*
X100990481Y-74934635D01*
X100995818Y-74953701D01*
X101034448Y-75083524D01*
X101093193Y-75273795D01*
X101165052Y-75502036D01*
X101243028Y-75745767D01*
X101252857Y-75776310D01*
X101425031Y-76341785D01*
X101555589Y-76840374D01*
X101646941Y-77286004D01*
X101701495Y-77692600D01*
X101721661Y-78074088D01*
X101715421Y-78269677D01*
X101709847Y-78444395D01*
X101665268Y-78830544D01*
X101528643Y-79411723D01*
X101311289Y-79949103D01*
X101012876Y-80443054D01*
X100633075Y-80893945D01*
X100171557Y-81302146D01*
X99627992Y-81668025D01*
X99002050Y-81991952D01*
X98293402Y-82274297D01*
X98162439Y-82317657D01*
X97736856Y-82435336D01*
X97247623Y-82542265D01*
X96716090Y-82634577D01*
X96163609Y-82708406D01*
X95611533Y-82759887D01*
X95051278Y-82785974D01*
X94305340Y-82783375D01*
X93543514Y-82742888D01*
X92791753Y-82666646D01*
X92076013Y-82556785D01*
X91422249Y-82415437D01*
X91096196Y-82322527D01*
X90558654Y-82127873D01*
X90037636Y-81890064D01*
X89548378Y-81617900D01*
X89106113Y-81320181D01*
X88726076Y-81005706D01*
X88423502Y-80683276D01*
X88134756Y-80288829D01*
X87895000Y-79871676D01*
X87723172Y-79444564D01*
X87613738Y-78989833D01*
X87561167Y-78489823D01*
X87560532Y-78202336D01*
X87943084Y-78202336D01*
X87945323Y-78477907D01*
X87951686Y-78694667D01*
X87964701Y-78862241D01*
X87986938Y-79002801D01*
X88020968Y-79138520D01*
X88069362Y-79291570D01*
X88243056Y-79715572D01*
X88529328Y-80196297D01*
X88894491Y-80633965D01*
X89336068Y-81027158D01*
X89851578Y-81374456D01*
X90438544Y-81674441D01*
X91094486Y-81925692D01*
X91816926Y-82126791D01*
X92603385Y-82276319D01*
X93451384Y-82372857D01*
X93458905Y-82373451D01*
X94366981Y-82415412D01*
X95282658Y-82401331D01*
X96177869Y-82332485D01*
X97024545Y-82210152D01*
X97700603Y-82060417D01*
X98393061Y-81844438D01*
X99020410Y-81578479D01*
X99579648Y-81264779D01*
X100067774Y-80905578D01*
X100481786Y-80503114D01*
X100818683Y-80059626D01*
X101075463Y-79577354D01*
X101249126Y-79058537D01*
X101274703Y-78935003D01*
X101313165Y-78622178D01*
X101329554Y-78269677D01*
X101323913Y-77909939D01*
X101296288Y-77575402D01*
X101246723Y-77298504D01*
X101181909Y-77084445D01*
X101053760Y-76757048D01*
X100895695Y-76424769D01*
X100723318Y-76119620D01*
X100552229Y-75873610D01*
X100525068Y-75840341D01*
X100174310Y-75485535D01*
X99761707Y-75184201D01*
X99307418Y-74949003D01*
X98831602Y-74792606D01*
X98653648Y-74758287D01*
X98453286Y-74737989D01*
X98212648Y-74732109D01*
X97905876Y-74739156D01*
X97669576Y-74750703D01*
X97459775Y-74768622D01*
X97253334Y-74796656D01*
X97027103Y-74838546D01*
X96757930Y-74898033D01*
X96422664Y-74978859D01*
X96350949Y-74996491D01*
X96034646Y-75072018D01*
X95779109Y-75127339D01*
X95560477Y-75166233D01*
X95354887Y-75192483D01*
X95138479Y-75209871D01*
X94887390Y-75222178D01*
X94592859Y-75230374D01*
X94315390Y-75227810D01*
X94052375Y-75211172D01*
X93783187Y-75177878D01*
X93487198Y-75125343D01*
X93143781Y-75050983D01*
X92732307Y-74952214D01*
X92139064Y-74824345D01*
X91551811Y-74744516D01*
X91020101Y-74728328D01*
X90536503Y-74777148D01*
X90093591Y-74892340D01*
X89683934Y-75075269D01*
X89300104Y-75327298D01*
X88934673Y-75649793D01*
X88695574Y-75909110D01*
X88431061Y-76272135D01*
X88220802Y-76672434D01*
X88049148Y-77136278D01*
X88019275Y-77236301D01*
X87985065Y-77376275D01*
X87962531Y-77520853D01*
X87949483Y-77692047D01*
X87943731Y-77911870D01*
X87943084Y-78202336D01*
X87560532Y-78202336D01*
X87559924Y-77926875D01*
X87561894Y-77877148D01*
X87578705Y-77585868D01*
X87605936Y-77316748D01*
X87647367Y-77051664D01*
X87706775Y-76772491D01*
X87787942Y-76461101D01*
X87894645Y-76099371D01*
X88030665Y-75669175D01*
X88055801Y-75590691D01*
X88133978Y-75338407D01*
X88202850Y-75104455D01*
X88255726Y-74912029D01*
X88285915Y-74784328D01*
X88291524Y-74748310D01*
X88307374Y-74608048D01*
X88327192Y-74394655D01*
X88349896Y-74121463D01*
X88374403Y-73801807D01*
X88399633Y-73449018D01*
X88424503Y-73076431D01*
X88435449Y-72907428D01*
X88459672Y-72540877D01*
X88482869Y-72199405D01*
X88504086Y-71896500D01*
X88522369Y-71645651D01*
X88536764Y-71460344D01*
X88546317Y-71354070D01*
X88572948Y-71110730D01*
X88124387Y-71110730D01*
X87918185Y-71105046D01*
X87417432Y-71037061D01*
X86955388Y-70889753D01*
X86525727Y-70660024D01*
X86122124Y-70344770D01*
X85738253Y-69940891D01*
X85608960Y-69769870D01*
X85430942Y-69493607D01*
X85249061Y-69173571D01*
X85076593Y-68834731D01*
X84926812Y-68502056D01*
X84812993Y-68200514D01*
X84766981Y-68051568D01*
X84709765Y-67841149D01*
X84660893Y-67634960D01*
X84624904Y-67454152D01*
X84621293Y-67428038D01*
X84989960Y-67428038D01*
X85085333Y-67797760D01*
X85125736Y-67946859D01*
X85328476Y-68539243D01*
X85581275Y-69072148D01*
X85880067Y-69540639D01*
X86220787Y-69939784D01*
X86599371Y-70264652D01*
X87011753Y-70510309D01*
X87453868Y-70671822D01*
X87551320Y-70694666D01*
X87744075Y-70723609D01*
X87963451Y-70732655D01*
X88241825Y-70723948D01*
X88386552Y-70715325D01*
X88589313Y-70699964D01*
X88751022Y-70683820D01*
X88845895Y-70669227D01*
X88963286Y-70640271D01*
X88835023Y-72602051D01*
X88800185Y-73122010D01*
X88766707Y-73586925D01*
X88735254Y-73977373D01*
X88704619Y-74302643D01*
X88673593Y-74572026D01*
X88640968Y-74794811D01*
X88605534Y-74980289D01*
X88566084Y-75137751D01*
X88521409Y-75276485D01*
X88470300Y-75405783D01*
X88442467Y-75471904D01*
X88404604Y-75567868D01*
X88394111Y-75604713D01*
X88404326Y-75596799D01*
X88467696Y-75540360D01*
X88575222Y-75441678D01*
X88711278Y-75315023D01*
X88874400Y-75169584D01*
X89305228Y-74853931D01*
X89760312Y-74619489D01*
X90249589Y-74462720D01*
X90782997Y-74380086D01*
X91370474Y-74368046D01*
X91434874Y-74370492D01*
X91654848Y-74382289D01*
X91853452Y-74400819D01*
X92052820Y-74429708D01*
X92275088Y-74472583D01*
X92542390Y-74533068D01*
X92876861Y-74614790D01*
X93780693Y-74840003D01*
X94615000Y-74839679D01*
X94757157Y-74839313D01*
X95014141Y-74835641D01*
X95239080Y-74825805D01*
X95449301Y-74807109D01*
X95662135Y-74776860D01*
X95894909Y-74732360D01*
X96164953Y-74670914D01*
X96489596Y-74589828D01*
X96886168Y-74486405D01*
X97071569Y-74437554D01*
X96723941Y-74314343D01*
X96347305Y-74155376D01*
X95918921Y-73894257D01*
X95534929Y-73558452D01*
X95353919Y-73361033D01*
X95066093Y-72974280D01*
X94851023Y-72564598D01*
X94741853Y-72234221D01*
X96400507Y-72234221D01*
X96406958Y-72397867D01*
X96458242Y-72674165D01*
X96567159Y-72899245D01*
X96741453Y-73092606D01*
X96838720Y-73169664D01*
X96961236Y-73226485D01*
X97107945Y-73239188D01*
X97179950Y-73236987D01*
X97329451Y-73219170D01*
X97440151Y-73173442D01*
X97551171Y-73086309D01*
X97624462Y-73012690D01*
X97757575Y-72810388D01*
X97833502Y-72560107D01*
X97858268Y-72245352D01*
X97856352Y-72093195D01*
X97841180Y-71923334D01*
X97805034Y-71785203D01*
X97740902Y-71642797D01*
X97666898Y-71515867D01*
X97502256Y-71331711D01*
X97308651Y-71232813D01*
X97080990Y-71215880D01*
X97075658Y-71216397D01*
X96846688Y-71282685D01*
X96659091Y-71425987D01*
X96518464Y-71637927D01*
X96430404Y-71910131D01*
X96400507Y-72234221D01*
X94741853Y-72234221D01*
X94703656Y-72118628D01*
X94618941Y-71623008D01*
X94591825Y-71064380D01*
X94597127Y-70826015D01*
X94665148Y-70211848D01*
X94811584Y-69647078D01*
X95036472Y-69131608D01*
X95339851Y-68665342D01*
X95721760Y-68248185D01*
X95919744Y-68076490D01*
X96034096Y-67999305D01*
X98902409Y-67999305D01*
X98919944Y-68030255D01*
X98988865Y-68110835D01*
X99092170Y-68216013D01*
X99300907Y-68443936D01*
X99568896Y-68815037D01*
X99818189Y-69249154D01*
X100039333Y-69729378D01*
X100222878Y-70238800D01*
X100348412Y-70641506D01*
X100577874Y-70690716D01*
X100732531Y-70715214D01*
X101007183Y-70733656D01*
X101303442Y-70731531D01*
X101583829Y-70709522D01*
X101810863Y-70668309D01*
X101941850Y-70629033D01*
X102376937Y-70437042D01*
X102781346Y-70160707D01*
X103151052Y-69803737D01*
X103482027Y-69369844D01*
X103770246Y-68862737D01*
X103781546Y-68839444D01*
X103889882Y-68596973D01*
X103994406Y-68332344D01*
X104088034Y-68066786D01*
X104163682Y-67821529D01*
X104214265Y-67617802D01*
X104232701Y-67476835D01*
X104202034Y-67403748D01*
X104092319Y-67299621D01*
X103913229Y-67183037D01*
X103675537Y-67060861D01*
X103390018Y-66939956D01*
X102916982Y-66796868D01*
X102362161Y-66715662D01*
X101787871Y-66715407D01*
X101205957Y-66795205D01*
X100628264Y-66954161D01*
X100066636Y-67191378D01*
X99957418Y-67249515D01*
X99771240Y-67358697D01*
X99570849Y-67485255D01*
X99484470Y-67543032D01*
X99371865Y-67618351D01*
X99189908Y-67747144D01*
X99040600Y-67860793D01*
X98939560Y-67948460D01*
X98902409Y-67999305D01*
X96034096Y-67999305D01*
X96292554Y-67824851D01*
X96683706Y-67656926D01*
X97108513Y-67566961D01*
X97582288Y-67549204D01*
X97711481Y-67553333D01*
X97879172Y-67557169D01*
X97971976Y-67554468D01*
X98001330Y-67543032D01*
X97978665Y-67520662D01*
X97915417Y-67485161D01*
X97803823Y-67432375D01*
X97577575Y-67344728D01*
X97296354Y-67250689D01*
X96981665Y-67156583D01*
X96655016Y-67068735D01*
X96337912Y-66993469D01*
X96051861Y-66937110D01*
X96048727Y-66936579D01*
X95663428Y-66885793D01*
X95221737Y-66851402D01*
X94753071Y-66833958D01*
X94286850Y-66834013D01*
X93852492Y-66852120D01*
X93479416Y-66888831D01*
X93094040Y-66950690D01*
X92296224Y-67137647D01*
X91554146Y-67396765D01*
X90865053Y-67728931D01*
X90367700Y-68005511D01*
X90150656Y-67825595D01*
X90009837Y-67712775D01*
X89463468Y-67341481D01*
X88888165Y-67048958D01*
X88297017Y-66842151D01*
X88000589Y-66779072D01*
X87602464Y-66731502D01*
X87184622Y-66713982D01*
X86782395Y-66727800D01*
X86431114Y-66774241D01*
X86239024Y-66822903D01*
X85983727Y-66907395D01*
X85716543Y-67011995D01*
X85462897Y-67125936D01*
X85248213Y-67238452D01*
X85097918Y-67338777D01*
X84989960Y-67428038D01*
X84621293Y-67428038D01*
X84606337Y-67319875D01*
X84609729Y-67253281D01*
X84611781Y-67250198D01*
X84679911Y-67187456D01*
X84808572Y-67095326D01*
X84977571Y-66986368D01*
X85166718Y-66873144D01*
X85355818Y-66768214D01*
X85524679Y-66684138D01*
X85843957Y-66553641D01*
X86189934Y-66452150D01*
X86562830Y-66386959D01*
X86994215Y-66350909D01*
X87078017Y-66347263D01*
X87721739Y-66362831D01*
X88330599Y-66459650D01*
X88914089Y-66640570D01*
X89481700Y-66908440D01*
X90042924Y-67266110D01*
X90430337Y-67544674D01*
X90636002Y-67424146D01*
X90743715Y-67354406D01*
X90810215Y-67284522D01*
X90814681Y-67218593D01*
X90788156Y-67119694D01*
X90744516Y-66865624D01*
X90715433Y-66563768D01*
X90701735Y-66241843D01*
X90704253Y-65927564D01*
X90723814Y-65648648D01*
X90761249Y-65432810D01*
X90805245Y-65282080D01*
X90895901Y-65058606D01*
X91002547Y-64911909D01*
X91134167Y-64831547D01*
X91299748Y-64807081D01*
X91478162Y-64839642D01*
X91701438Y-64950058D01*
X91936382Y-65128741D01*
X92172905Y-65365448D01*
X92400921Y-65649939D01*
X92610342Y-65971969D01*
X92791079Y-66321298D01*
X92822748Y-66389486D01*
X92895107Y-66524160D01*
X92952715Y-66588884D01*
X93005966Y-66596994D01*
X93187474Y-66556749D01*
X93474888Y-66517930D01*
X93819393Y-66489818D01*
X94202345Y-66472428D01*
X94605100Y-66465778D01*
X95009011Y-66469883D01*
X95395436Y-66484759D01*
X95745730Y-66510422D01*
X96041247Y-66546889D01*
X96263344Y-66594176D01*
X96308760Y-66586138D01*
X96369395Y-66512146D01*
X96442544Y-66357881D01*
X96584554Y-66069297D01*
X96786666Y-65744636D01*
X97016460Y-65438741D01*
X97249331Y-65187311D01*
X97258866Y-65178402D01*
X97522087Y-64966794D01*
X97759749Y-64843843D01*
X97970301Y-64808685D01*
X98152192Y-64860453D01*
X98303870Y-64998283D01*
X98423784Y-65221309D01*
X98510383Y-65528666D01*
X98562115Y-65919489D01*
X98568380Y-66067333D01*
X98555774Y-66406658D01*
X98511709Y-66793900D01*
X98484033Y-66989279D01*
X98461631Y-67163653D01*
X98448924Y-67283448D01*
X98448109Y-67330143D01*
X98459373Y-67337008D01*
X98530485Y-67378508D01*
X98641649Y-67442510D01*
X98686731Y-67467956D01*
X98784715Y-67513404D01*
X98850823Y-67513751D01*
X98919751Y-67472770D01*
X98959217Y-67443856D01*
X99292702Y-67212692D01*
X99627161Y-67002123D01*
X99939425Y-66826091D01*
X100206324Y-66698539D01*
X100468621Y-66593948D01*
X100757183Y-66496321D01*
X101031006Y-66429208D01*
X101316791Y-66387682D01*
X101641241Y-66366812D01*
X102031058Y-66361668D01*
X102346721Y-66365832D01*
X102651222Y-66381582D01*
X102909330Y-66413213D01*
X103145835Y-66465084D01*
X103385532Y-66541558D01*
X103653212Y-66646994D01*
X103754509Y-66692246D01*
X103958852Y-66797405D01*
X104163303Y-66917592D01*
X104351245Y-67041533D01*
X104506061Y-67157955D01*
X104611136Y-67255585D01*
X104649854Y-67323151D01*
X104637199Y-67429224D01*
X104626965Y-67476835D01*
X104599167Y-67606164D01*
G37*
%TD.AperFunction*%
%TD*%
D10*
%TO.P,H4,1*%
%TO.N,N/C*%
X225720656Y-63442701D03*
%TD*%
%TO.P,H1,1*%
%TO.N,N/C*%
X50460656Y-128212701D03*
%TD*%
%TO.P,H3,1*%
%TO.N,N/C*%
X50460656Y-63442701D03*
%TD*%
D11*
%TO.P,U44,1,GND*%
%TO.N,/GND*%
X89830648Y-101272168D03*
%TO.P,U44,2,VCC*%
%TO.N,/3V3*%
X92370653Y-101272168D03*
%TO.P,U44,3,SCL*%
%TO.N,/GP05_I2C_SCL*%
X94910659Y-101272168D03*
%TO.P,U44,4,SDA*%
%TO.N,/GP04_I2C_SDA*%
X97450664Y-101272168D03*
%TD*%
D10*
%TO.P,H2,1*%
%TO.N,N/C*%
X225720656Y-128212701D03*
%TD*%
D12*
%TO.N,/Row1*%
X111760000Y-85090000D03*
X165100000Y-64770000D03*
%TO.N,/Col1*%
X175690706Y-98932485D03*
X175690706Y-82932485D03*
X175690706Y-114932485D03*
X111760000Y-99060000D03*
X175690706Y-66932485D03*
%TO.N,/Col2*%
X191690706Y-66932485D03*
X111760000Y-101600000D03*
X191690706Y-114932485D03*
X191690706Y-98932485D03*
X191690706Y-82932485D03*
%TO.N,/Col3*%
X207690706Y-82932485D03*
X207690706Y-114932485D03*
X207690706Y-66932485D03*
X111760000Y-104140000D03*
X207690706Y-98932485D03*
%TO.N,/Row4*%
X111760000Y-87630000D03*
X165100000Y-81280000D03*
%TO.N,/Row7*%
X111760000Y-92710000D03*
X165100000Y-96520000D03*
%TO.N,/Row\u002A*%
X111760000Y-95250000D03*
X165100000Y-113030000D03*
%TO.N,/ColA*%
X223690706Y-114932485D03*
X111760000Y-106680000D03*
X223690706Y-82932485D03*
X223690706Y-66932485D03*
X223690706Y-98932485D03*
%TO.N,/GND*%
X210820000Y-125730000D03*
X152400000Y-125730000D03*
X160020000Y-73660000D03*
X159047184Y-108899954D03*
X68580000Y-113030000D03*
X55880000Y-113030000D03*
X50800000Y-83820000D03*
X155206641Y-114569328D03*
X210820000Y-67310000D03*
X92710000Y-92710000D03*
X135890000Y-78740000D03*
%TO.N,/RightLED*%
X158750000Y-90170000D03*
X76200000Y-91440000D03*
%TD*%
D13*
%TO.N,/Row1*%
X165100000Y-64770000D02*
X138212102Y-64770000D01*
X112658026Y-82921975D02*
X116840000Y-78740000D01*
X116840000Y-78740000D02*
X125575923Y-70004077D01*
X138212102Y-64770015D02*
G75*
G03*
X125575923Y-70004077I-2J-17870285D01*
G01*
X112658036Y-82921985D02*
G75*
G03*
X111760000Y-85090000I2167964J-2168015D01*
G01*
D14*
%TO.N,/Col1*%
X175690706Y-82932485D02*
X175690706Y-98932485D01*
D13*
X174151609Y-115570000D02*
X163830000Y-115570000D01*
X163830000Y-115570000D02*
X148668502Y-100408502D01*
D14*
X175690706Y-98932485D02*
X175690706Y-114932485D01*
X175690706Y-66932485D02*
X175690706Y-82932485D01*
D13*
X145412931Y-99060000D02*
X111760000Y-99060000D01*
X148668492Y-100408512D02*
G75*
G03*
X145412931Y-99060000I-3255592J-3255588D01*
G01*
X174151609Y-115570009D02*
G75*
G03*
X175690705Y-114932484I-9J2176609D01*
G01*
%TO.N,/Col2*%
X163010881Y-116019501D02*
X149860690Y-102869310D01*
D14*
X191690706Y-98932485D02*
X191690706Y-114932485D01*
X191690706Y-82932485D02*
X191690706Y-98932485D01*
D13*
X189066418Y-116019501D02*
X163010881Y-116019501D01*
X146796305Y-101600000D02*
X111760000Y-101600000D01*
D14*
X191690706Y-66932485D02*
X191690706Y-82932485D01*
D13*
X149860689Y-102869311D02*
G75*
G03*
X146796305Y-101600000I-3064389J-3064389D01*
G01*
X189066418Y-116019514D02*
G75*
G03*
X191690706Y-114932485I-18J3711314D01*
G01*
%TO.N,/Col3*%
X162324692Y-116469002D02*
X151582845Y-105727155D01*
D14*
X207690706Y-82932485D02*
X207690706Y-98932485D01*
X207690706Y-98932485D02*
X207690706Y-114932485D01*
D13*
X147751114Y-104140000D02*
X147320000Y-104140000D01*
X148251114Y-104140000D02*
X147320000Y-104140000D01*
X204470000Y-116469002D02*
X162324692Y-116469002D01*
D14*
X207690706Y-66932485D02*
X207690706Y-82932485D01*
D13*
X147320000Y-104140000D02*
X111760000Y-104140000D01*
X207690706Y-114932485D02*
X207345091Y-115278100D01*
X204470000Y-116468999D02*
G75*
G03*
X207345091Y-115278100I0J4065999D01*
G01*
X151582841Y-105727159D02*
G75*
G03*
X147751114Y-104140000I-3831741J-3831741D01*
G01*
%TO.N,/Row4*%
X123498153Y-81280000D02*
X165100000Y-81280000D01*
X111760000Y-87630000D02*
X114300000Y-85090000D01*
X123498153Y-81279981D02*
G75*
G03*
X114300000Y-85090000I47J-13008219D01*
G01*
%TO.N,/Row7*%
X111760000Y-92710000D02*
X155901847Y-92710000D01*
X165099986Y-96520014D02*
G75*
G03*
X155901847Y-92710000I-9198186J-9198186D01*
G01*
%TO.N,/Row\u002A*%
X143510000Y-95250000D02*
X111760000Y-95250000D01*
X165100000Y-113030000D02*
X150014077Y-97944077D01*
X150014087Y-97944067D02*
G75*
G03*
X143510000Y-95250000I-6504087J-6504133D01*
G01*
D14*
%TO.N,/ColA*%
X223690706Y-98932485D02*
X223690706Y-82932485D01*
D13*
X149860000Y-106680000D02*
X111760000Y-106680000D01*
X161368503Y-116918503D02*
X152028026Y-107578026D01*
X223690706Y-114932485D02*
X223115146Y-115508045D01*
X219710000Y-116918503D02*
X161368503Y-116918503D01*
D14*
X223690706Y-114932485D02*
X223690706Y-98932485D01*
X223690706Y-82932485D02*
X223690706Y-66932485D01*
D13*
X219710000Y-116918502D02*
G75*
G03*
X223115145Y-115508044I0J4815602D01*
G01*
X152028015Y-107578037D02*
G75*
G03*
X149860000Y-106680000I-2168015J-2167963D01*
G01*
%TO.N,/RightLED*%
X158750000Y-90170000D02*
X79266051Y-90170000D01*
X79266051Y-90169980D02*
G75*
G03*
X76200000Y-91440000I49J-4336120D01*
G01*
%TD*%
%TA.AperFunction,Conductor*%
%TO.N,/GND*%
G36*
X223102702Y-60960117D02*
G01*
X223530392Y-60978791D01*
X223541129Y-60979731D01*
X223962874Y-61035254D01*
X223973512Y-61037129D01*
X224320815Y-61114125D01*
X224382002Y-61147852D01*
X224415244Y-61209308D01*
X224409983Y-61278979D01*
X224367890Y-61334746D01*
X224366860Y-61335503D01*
X224126783Y-61509929D01*
X224123626Y-61512223D01*
X224120791Y-61514884D01*
X224120784Y-61514891D01*
X223897103Y-61724942D01*
X223897096Y-61724949D01*
X223894266Y-61727607D01*
X223891791Y-61730598D01*
X223891787Y-61730603D01*
X223696192Y-61967035D01*
X223696182Y-61967047D01*
X223693709Y-61970038D01*
X223691627Y-61973317D01*
X223691618Y-61973331D01*
X223527204Y-62232407D01*
X223527197Y-62232418D01*
X223525119Y-62235694D01*
X223523466Y-62239205D01*
X223523463Y-62239212D01*
X223392809Y-62516866D01*
X223391153Y-62520386D01*
X223389951Y-62524083D01*
X223389949Y-62524090D01*
X223295836Y-62813740D01*
X223293925Y-62819622D01*
X223293196Y-62823442D01*
X223293194Y-62823451D01*
X223235697Y-63124859D01*
X223235694Y-63124875D01*
X223234968Y-63128686D01*
X223215212Y-63442701D01*
X223234968Y-63756716D01*
X223235695Y-63760528D01*
X223235697Y-63760542D01*
X223278677Y-63985848D01*
X223293925Y-64065780D01*
X223295129Y-64069487D01*
X223295130Y-64069489D01*
X223389574Y-64360158D01*
X223391153Y-64365016D01*
X223446829Y-64483333D01*
X223493137Y-64581744D01*
X223525119Y-64649708D01*
X223527201Y-64652989D01*
X223527204Y-64652994D01*
X223691618Y-64912070D01*
X223691622Y-64912076D01*
X223693709Y-64915364D01*
X223696188Y-64918361D01*
X223696192Y-64918366D01*
X223764585Y-65001038D01*
X223894266Y-65157795D01*
X224123626Y-65373179D01*
X224126781Y-65375471D01*
X224126782Y-65375472D01*
X224144782Y-65388550D01*
X224378172Y-65558117D01*
X224381579Y-65559990D01*
X224648729Y-65706858D01*
X224653890Y-65709695D01*
X224946431Y-65825520D01*
X225251183Y-65903767D01*
X225563338Y-65943201D01*
X225567233Y-65943201D01*
X225874079Y-65943201D01*
X225877974Y-65943201D01*
X226190129Y-65903767D01*
X226494881Y-65825520D01*
X226787422Y-65709695D01*
X227063140Y-65558117D01*
X227317686Y-65373179D01*
X227547046Y-65157795D01*
X227747603Y-64915364D01*
X227762685Y-64891597D01*
X227815224Y-64845542D01*
X227884324Y-64835202D01*
X227948045Y-64863861D01*
X227986157Y-64922422D01*
X227988443Y-64931200D01*
X228022868Y-65086479D01*
X228024746Y-65097133D01*
X228080266Y-65518851D01*
X228081209Y-65529627D01*
X228099882Y-65957297D01*
X228100000Y-65962706D01*
X228100000Y-125807293D01*
X228099882Y-125812702D01*
X228081209Y-126240372D01*
X228080266Y-126251148D01*
X228024746Y-126672866D01*
X228022868Y-126683519D01*
X228007272Y-126753869D01*
X227973544Y-126815059D01*
X227912089Y-126848301D01*
X227842417Y-126843040D01*
X227786650Y-126800947D01*
X227781514Y-126793474D01*
X227749692Y-126743331D01*
X227747603Y-126740038D01*
X227700840Y-126683512D01*
X227672253Y-126648956D01*
X227547046Y-126497607D01*
X227317686Y-126282223D01*
X227260110Y-126240392D01*
X227066289Y-126099573D01*
X227066290Y-126099573D01*
X227063140Y-126097285D01*
X227059737Y-126095414D01*
X227059732Y-126095411D01*
X226790839Y-125947585D01*
X226790832Y-125947581D01*
X226787422Y-125945707D01*
X226783796Y-125944271D01*
X226783791Y-125944269D01*
X226498503Y-125831316D01*
X226498502Y-125831315D01*
X226494881Y-125829882D01*
X226491111Y-125828914D01*
X226491108Y-125828913D01*
X226193912Y-125752606D01*
X226193907Y-125752605D01*
X226190129Y-125751635D01*
X226186258Y-125751146D01*
X226186253Y-125751145D01*
X225881840Y-125712689D01*
X225881833Y-125712688D01*
X225877974Y-125712201D01*
X225563338Y-125712201D01*
X225559479Y-125712688D01*
X225559471Y-125712689D01*
X225255058Y-125751145D01*
X225255050Y-125751146D01*
X225251183Y-125751635D01*
X225247407Y-125752604D01*
X225247399Y-125752606D01*
X224950203Y-125828913D01*
X224950195Y-125828915D01*
X224946431Y-125829882D01*
X224942814Y-125831313D01*
X224942808Y-125831316D01*
X224657520Y-125944269D01*
X224657509Y-125944273D01*
X224653890Y-125945707D01*
X224650485Y-125947578D01*
X224650472Y-125947585D01*
X224381579Y-126095411D01*
X224381567Y-126095418D01*
X224378172Y-126097285D01*
X224375028Y-126099568D01*
X224375022Y-126099573D01*
X224126782Y-126279929D01*
X224126771Y-126279937D01*
X224123626Y-126282223D01*
X224120791Y-126284884D01*
X224120784Y-126284891D01*
X223897103Y-126494942D01*
X223897096Y-126494949D01*
X223894266Y-126497607D01*
X223891791Y-126500598D01*
X223891787Y-126500603D01*
X223696192Y-126737035D01*
X223696182Y-126737047D01*
X223693709Y-126740038D01*
X223691627Y-126743317D01*
X223691618Y-126743331D01*
X223527204Y-127002407D01*
X223527197Y-127002418D01*
X223525119Y-127005694D01*
X223523466Y-127009205D01*
X223523463Y-127009212D01*
X223407665Y-127255296D01*
X223391153Y-127290386D01*
X223293925Y-127589622D01*
X223293196Y-127593442D01*
X223293194Y-127593451D01*
X223235697Y-127894859D01*
X223235694Y-127894875D01*
X223234968Y-127898686D01*
X223215212Y-128212701D01*
X223234968Y-128526716D01*
X223235695Y-128530528D01*
X223235697Y-128530542D01*
X223293194Y-128831950D01*
X223293925Y-128835780D01*
X223295129Y-128839487D01*
X223295130Y-128839489D01*
X223295834Y-128841657D01*
X223391153Y-129135016D01*
X223525119Y-129419708D01*
X223527201Y-129422989D01*
X223527204Y-129422994D01*
X223691618Y-129682070D01*
X223691622Y-129682076D01*
X223693709Y-129685364D01*
X223894266Y-129927795D01*
X224123626Y-130143179D01*
X224378172Y-130328117D01*
X224381584Y-130329993D01*
X224381586Y-130329994D01*
X224489941Y-130389563D01*
X224539205Y-130439109D01*
X224553862Y-130507424D01*
X224529259Y-130572819D01*
X224473206Y-130614530D01*
X224467492Y-130616486D01*
X224399260Y-130638000D01*
X224388811Y-130640800D01*
X223973520Y-130732868D01*
X223962866Y-130734746D01*
X223541148Y-130790266D01*
X223530372Y-130791209D01*
X223102703Y-130809882D01*
X223097294Y-130810000D01*
X52762706Y-130810000D01*
X52757297Y-130809882D01*
X52329627Y-130791209D01*
X52318851Y-130790266D01*
X51897133Y-130734746D01*
X51886479Y-130732868D01*
X51623652Y-130674600D01*
X51562462Y-130640872D01*
X51529221Y-130579416D01*
X51534482Y-130509745D01*
X51576575Y-130453978D01*
X51590745Y-130444882D01*
X51803140Y-130328117D01*
X52057686Y-130143179D01*
X52287046Y-129927795D01*
X52487603Y-129685364D01*
X52656193Y-129419708D01*
X52790159Y-129135016D01*
X52887387Y-128835780D01*
X52946344Y-128526716D01*
X52966100Y-128212701D01*
X52946344Y-127898686D01*
X52887387Y-127589622D01*
X52790159Y-127290386D01*
X52656193Y-127005694D01*
X52526257Y-126800947D01*
X52489693Y-126743331D01*
X52489688Y-126743324D01*
X52487603Y-126740038D01*
X52440840Y-126683512D01*
X52412253Y-126648956D01*
X52287046Y-126497607D01*
X52057686Y-126282223D01*
X52000110Y-126240392D01*
X51806289Y-126099573D01*
X51806290Y-126099573D01*
X51803140Y-126097285D01*
X51799737Y-126095414D01*
X51799732Y-126095411D01*
X51530839Y-125947585D01*
X51530832Y-125947581D01*
X51527422Y-125945707D01*
X51523796Y-125944271D01*
X51523791Y-125944269D01*
X51238503Y-125831316D01*
X51238502Y-125831315D01*
X51234881Y-125829882D01*
X51231111Y-125828914D01*
X51231108Y-125828913D01*
X50933912Y-125752606D01*
X50933907Y-125752605D01*
X50930129Y-125751635D01*
X50926258Y-125751146D01*
X50926253Y-125751145D01*
X50621840Y-125712689D01*
X50621833Y-125712688D01*
X50617974Y-125712201D01*
X50303338Y-125712201D01*
X50299479Y-125712688D01*
X50299471Y-125712689D01*
X49995058Y-125751145D01*
X49995050Y-125751146D01*
X49991183Y-125751635D01*
X49987407Y-125752604D01*
X49987399Y-125752606D01*
X49690203Y-125828913D01*
X49690195Y-125828915D01*
X49686431Y-125829882D01*
X49682814Y-125831313D01*
X49682808Y-125831316D01*
X49397520Y-125944269D01*
X49397509Y-125944273D01*
X49393890Y-125945707D01*
X49390485Y-125947578D01*
X49390472Y-125947585D01*
X49121579Y-126095411D01*
X49121567Y-126095418D01*
X49118172Y-126097285D01*
X49115028Y-126099568D01*
X49115022Y-126099573D01*
X48866782Y-126279929D01*
X48866771Y-126279937D01*
X48863626Y-126282223D01*
X48860791Y-126284884D01*
X48860784Y-126284891D01*
X48637103Y-126494942D01*
X48637096Y-126494949D01*
X48634266Y-126497607D01*
X48631791Y-126500598D01*
X48631787Y-126500603D01*
X48436192Y-126737035D01*
X48436182Y-126737047D01*
X48433709Y-126740038D01*
X48431627Y-126743317D01*
X48431618Y-126743331D01*
X48267204Y-127002407D01*
X48267197Y-127002418D01*
X48265119Y-127005694D01*
X48263465Y-127009206D01*
X48263456Y-127009225D01*
X48181165Y-127184101D01*
X48134810Y-127236379D01*
X48067550Y-127255296D01*
X48000740Y-127234846D01*
X47955591Y-127181523D01*
X47950706Y-127168591D01*
X47931999Y-127109259D01*
X47929202Y-127098823D01*
X47837129Y-126683512D01*
X47835253Y-126672866D01*
X47779731Y-126251129D01*
X47778791Y-126240392D01*
X47760118Y-125812702D01*
X47760000Y-125807293D01*
X47760000Y-121737707D01*
X55880270Y-121737707D01*
X55920980Y-121902879D01*
X55920981Y-121902880D01*
X56000038Y-122053509D01*
X56112845Y-122180843D01*
X56112846Y-122180844D01*
X56252846Y-122277479D01*
X56313169Y-122300356D01*
X56411908Y-122337803D01*
X56538410Y-122353163D01*
X56542160Y-122353163D01*
X56619406Y-122353163D01*
X56623156Y-122353163D01*
X56749658Y-122337803D01*
X56908719Y-122277479D01*
X57048721Y-122180843D01*
X57161528Y-122053509D01*
X57240585Y-121902880D01*
X57281296Y-121737708D01*
X57281296Y-121737707D01*
X58880270Y-121737707D01*
X58920980Y-121902879D01*
X58920981Y-121902880D01*
X59000038Y-122053509D01*
X59112845Y-122180843D01*
X59112846Y-122180844D01*
X59252846Y-122277479D01*
X59313170Y-122300356D01*
X59411908Y-122337803D01*
X59538410Y-122353163D01*
X59542160Y-122353163D01*
X59619406Y-122353163D01*
X59623156Y-122353163D01*
X59749658Y-122337803D01*
X59908719Y-122277479D01*
X60048721Y-122180843D01*
X60161528Y-122053509D01*
X60240585Y-121902880D01*
X60281296Y-121737708D01*
X60281296Y-121737707D01*
X67310270Y-121737707D01*
X67350980Y-121902879D01*
X67350981Y-121902880D01*
X67430038Y-122053509D01*
X67542845Y-122180843D01*
X67542846Y-122180844D01*
X67682846Y-122277479D01*
X67743170Y-122300356D01*
X67841908Y-122337803D01*
X67968410Y-122353163D01*
X67972160Y-122353163D01*
X68049406Y-122353163D01*
X68053156Y-122353163D01*
X68179658Y-122337803D01*
X68338719Y-122277479D01*
X68478721Y-122180843D01*
X68591528Y-122053509D01*
X68670585Y-121902880D01*
X68711296Y-121737708D01*
X68711296Y-121737707D01*
X70310270Y-121737707D01*
X70350980Y-121902879D01*
X70350981Y-121902880D01*
X70430038Y-122053509D01*
X70542845Y-122180843D01*
X70542846Y-122180844D01*
X70682846Y-122277479D01*
X70743170Y-122300356D01*
X70841908Y-122337803D01*
X70968410Y-122353163D01*
X70972160Y-122353163D01*
X71049406Y-122353163D01*
X71053156Y-122353163D01*
X71179658Y-122337803D01*
X71338719Y-122277479D01*
X71478721Y-122180843D01*
X71591528Y-122053509D01*
X71670585Y-121902880D01*
X71711296Y-121737708D01*
X71711296Y-121567592D01*
X71670585Y-121402420D01*
X71591528Y-121251791D01*
X71478721Y-121124457D01*
X71478720Y-121124456D01*
X71478719Y-121124455D01*
X71338719Y-121027820D01*
X71179658Y-120967497D01*
X71056875Y-120952588D01*
X71056865Y-120952587D01*
X71053156Y-120952137D01*
X70968410Y-120952137D01*
X70964701Y-120952587D01*
X70964690Y-120952588D01*
X70841907Y-120967497D01*
X70682846Y-121027820D01*
X70542846Y-121124455D01*
X70490323Y-121183741D01*
X70430038Y-121251791D01*
X70402826Y-121303637D01*
X70350980Y-121402420D01*
X70310270Y-121567592D01*
X70310270Y-121737707D01*
X68711296Y-121737707D01*
X68711296Y-121567592D01*
X68670585Y-121402420D01*
X68591528Y-121251791D01*
X68478721Y-121124457D01*
X68478720Y-121124456D01*
X68478719Y-121124455D01*
X68338719Y-121027820D01*
X68179658Y-120967497D01*
X68056875Y-120952588D01*
X68056865Y-120952587D01*
X68053156Y-120952137D01*
X67968410Y-120952137D01*
X67964701Y-120952587D01*
X67964690Y-120952588D01*
X67841907Y-120967497D01*
X67682846Y-121027820D01*
X67542846Y-121124455D01*
X67490323Y-121183741D01*
X67430038Y-121251791D01*
X67402826Y-121303637D01*
X67350980Y-121402420D01*
X67310270Y-121567592D01*
X67310270Y-121737707D01*
X60281296Y-121737707D01*
X60281296Y-121567592D01*
X60240585Y-121402420D01*
X60161528Y-121251791D01*
X60048721Y-121124457D01*
X60048720Y-121124456D01*
X60048719Y-121124455D01*
X59908719Y-121027820D01*
X59749658Y-120967497D01*
X59626875Y-120952588D01*
X59626865Y-120952587D01*
X59623156Y-120952137D01*
X59538410Y-120952137D01*
X59534701Y-120952587D01*
X59534690Y-120952588D01*
X59411907Y-120967497D01*
X59252846Y-121027820D01*
X59112846Y-121124455D01*
X59060323Y-121183741D01*
X59000038Y-121251791D01*
X58972826Y-121303637D01*
X58920980Y-121402420D01*
X58880270Y-121567592D01*
X58880270Y-121737707D01*
X57281296Y-121737707D01*
X57281296Y-121567592D01*
X57240585Y-121402420D01*
X57161528Y-121251791D01*
X57048721Y-121124457D01*
X57048720Y-121124456D01*
X57048719Y-121124455D01*
X56908719Y-121027820D01*
X56749658Y-120967497D01*
X56626875Y-120952588D01*
X56626865Y-120952587D01*
X56623156Y-120952137D01*
X56538410Y-120952137D01*
X56534701Y-120952587D01*
X56534690Y-120952588D01*
X56411907Y-120967497D01*
X56252846Y-121027820D01*
X56112846Y-121124455D01*
X56060323Y-121183741D01*
X56000038Y-121251791D01*
X55972826Y-121303637D01*
X55920980Y-121402420D01*
X55880270Y-121567592D01*
X55880270Y-121737707D01*
X47760000Y-121737707D01*
X47760000Y-106680000D01*
X110854540Y-106680000D01*
X110874326Y-106868257D01*
X110932820Y-107048284D01*
X111027466Y-107212216D01*
X111154129Y-107352889D01*
X111307269Y-107464151D01*
X111480197Y-107541144D01*
X111665352Y-107580500D01*
X111665354Y-107580500D01*
X111854648Y-107580500D01*
X112039803Y-107541144D01*
X112068059Y-107528562D01*
X112091605Y-107520791D01*
X112102400Y-107518394D01*
X112122746Y-107510703D01*
X112644388Y-107313511D01*
X112688234Y-107305500D01*
X125089372Y-107305500D01*
X125156411Y-107325185D01*
X125202166Y-107377989D01*
X125212110Y-107447147D01*
X125183085Y-107510703D01*
X125172344Y-107521650D01*
X125077683Y-107606882D01*
X124966416Y-107760028D01*
X124889422Y-107932959D01*
X124850066Y-108118114D01*
X124850066Y-108307413D01*
X124889422Y-108492568D01*
X124966417Y-108665501D01*
X125077680Y-108818643D01*
X125218355Y-108945307D01*
X125382291Y-109039955D01*
X125562318Y-109098449D01*
X125562319Y-109098449D01*
X125562322Y-109098450D01*
X125703389Y-109113277D01*
X125706631Y-109113277D01*
X125794529Y-109113277D01*
X125797771Y-109113277D01*
X125938838Y-109098450D01*
X126118869Y-109039955D01*
X126282804Y-108945307D01*
X126423478Y-108818644D01*
X126534743Y-108665501D01*
X126611736Y-108492571D01*
X126651093Y-108307412D01*
X126651093Y-108118116D01*
X126651093Y-108118114D01*
X126611737Y-107932959D01*
X126534742Y-107760026D01*
X126423479Y-107606884D01*
X126328816Y-107521650D01*
X126292167Y-107462164D01*
X126293497Y-107392307D01*
X126332384Y-107334258D01*
X126396481Y-107306448D01*
X126411788Y-107305500D01*
X145409372Y-107305500D01*
X145476411Y-107325185D01*
X145522166Y-107377989D01*
X145532110Y-107447147D01*
X145503085Y-107510703D01*
X145492344Y-107521650D01*
X145397683Y-107606882D01*
X145286416Y-107760028D01*
X145209422Y-107932959D01*
X145170067Y-108118114D01*
X145170067Y-108307413D01*
X145209422Y-108492568D01*
X145286417Y-108665501D01*
X145397680Y-108818643D01*
X145538355Y-108945307D01*
X145702291Y-109039955D01*
X145882318Y-109098449D01*
X145882319Y-109098449D01*
X145882322Y-109098450D01*
X146023389Y-109113277D01*
X146026631Y-109113277D01*
X146114529Y-109113277D01*
X146117771Y-109113277D01*
X146258838Y-109098450D01*
X146438869Y-109039955D01*
X146602804Y-108945307D01*
X146743478Y-108818644D01*
X146854743Y-108665501D01*
X146931736Y-108492571D01*
X146971093Y-108307412D01*
X146971093Y-108118116D01*
X146971093Y-108118114D01*
X146931737Y-107932959D01*
X146854742Y-107760026D01*
X146743479Y-107606884D01*
X146648816Y-107521650D01*
X146612167Y-107462164D01*
X146613497Y-107392307D01*
X146652384Y-107334258D01*
X146716481Y-107306448D01*
X146731788Y-107305500D01*
X149784051Y-107305500D01*
X149856519Y-107305500D01*
X149863472Y-107305695D01*
X150126309Y-107320456D01*
X150140110Y-107322011D01*
X150321838Y-107352888D01*
X150396201Y-107365523D01*
X150409758Y-107368617D01*
X150442289Y-107377989D01*
X150659377Y-107440532D01*
X150672480Y-107445117D01*
X150873935Y-107528564D01*
X150912479Y-107544530D01*
X150925007Y-107550564D01*
X151152345Y-107676211D01*
X151164117Y-107683607D01*
X151271816Y-107760026D01*
X151375964Y-107833924D01*
X151386834Y-107842592D01*
X151487952Y-107932959D01*
X151583322Y-108018188D01*
X151588357Y-108022948D01*
X151639429Y-108074021D01*
X151650220Y-108084812D01*
X151650229Y-108084819D01*
X160867699Y-117302290D01*
X160880599Y-117318391D01*
X160882716Y-117320379D01*
X160882717Y-117320380D01*
X160931726Y-117366403D01*
X160934523Y-117369114D01*
X160954032Y-117388623D01*
X160957212Y-117391090D01*
X160966074Y-117398658D01*
X160997920Y-117428564D01*
X160997921Y-117428565D01*
X161015473Y-117438214D01*
X161031741Y-117448900D01*
X161047567Y-117461176D01*
X161087649Y-117478520D01*
X161098136Y-117483658D01*
X161136410Y-117504700D01*
X161144913Y-117506882D01*
X161155811Y-117509681D01*
X161174216Y-117515981D01*
X161192607Y-117523940D01*
X161235753Y-117530773D01*
X161247171Y-117533138D01*
X161289484Y-117544003D01*
X161309519Y-117544003D01*
X161328918Y-117545530D01*
X161348699Y-117548663D01*
X161392177Y-117544553D01*
X161403847Y-117544003D01*
X219749334Y-117544003D01*
X219749350Y-117544003D01*
X219749355Y-117544002D01*
X219749366Y-117544002D01*
X219921337Y-117544002D01*
X219923782Y-117544002D01*
X220350027Y-117510456D01*
X220772326Y-117443570D01*
X221188075Y-117343757D01*
X221594712Y-117211633D01*
X221989728Y-117048012D01*
X222370690Y-116853902D01*
X222735247Y-116630501D01*
X223081153Y-116379186D01*
X223406274Y-116101506D01*
X223476642Y-116031137D01*
X223513301Y-116005804D01*
X223646362Y-115945746D01*
X223703653Y-115934927D01*
X223741642Y-115936854D01*
X223741642Y-115936853D01*
X223741644Y-115936854D01*
X223942777Y-115906041D01*
X223957949Y-115900422D01*
X224133593Y-115835371D01*
X224276454Y-115746325D01*
X224306274Y-115727739D01*
X224306274Y-115727738D01*
X224306277Y-115727737D01*
X224453759Y-115587544D01*
X224570001Y-115420534D01*
X224650246Y-115233543D01*
X224691206Y-115034226D01*
X224691206Y-98881743D01*
X224691206Y-98881742D01*
X224691206Y-82881743D01*
X224691206Y-66881743D01*
X224675780Y-66730047D01*
X224614865Y-66535897D01*
X224516115Y-66357983D01*
X224383572Y-66203590D01*
X224226376Y-66081910D01*
X224222663Y-66079036D01*
X224039978Y-65989425D01*
X223969313Y-65971129D01*
X223842991Y-65938422D01*
X223822207Y-65937368D01*
X223639768Y-65928115D01*
X223438634Y-65958928D01*
X223247819Y-66029598D01*
X223075137Y-66137230D01*
X223005329Y-66203589D01*
X222927653Y-66277426D01*
X222919271Y-66289469D01*
X222811411Y-66444435D01*
X222731166Y-66631426D01*
X222718292Y-66694072D01*
X222691677Y-66823589D01*
X222690206Y-66830745D01*
X222690206Y-114921862D01*
X222679227Y-114972875D01*
X222622714Y-115098081D01*
X222593466Y-115138490D01*
X222407340Y-115309043D01*
X222399053Y-115315997D01*
X222117634Y-115531937D01*
X222108774Y-115538141D01*
X221965168Y-115629629D01*
X221809613Y-115728728D01*
X221800252Y-115734133D01*
X221485619Y-115897920D01*
X221475815Y-115902492D01*
X221148100Y-116038236D01*
X221137935Y-116041936D01*
X220799644Y-116148599D01*
X220789195Y-116151399D01*
X220442886Y-116228174D01*
X220432232Y-116230052D01*
X220080561Y-116276350D01*
X220069785Y-116277293D01*
X219998139Y-116280421D01*
X219712672Y-116292885D01*
X219707278Y-116293003D01*
X207475333Y-116293003D01*
X207408294Y-116273318D01*
X207362539Y-116220514D01*
X207352595Y-116151356D01*
X207381620Y-116087800D01*
X207394801Y-116074713D01*
X207445816Y-116031142D01*
X207496442Y-115987902D01*
X207531827Y-115966705D01*
X207598712Y-115940562D01*
X207650130Y-115932213D01*
X207741642Y-115936854D01*
X207741642Y-115936853D01*
X207741643Y-115936854D01*
X207942777Y-115906041D01*
X207957949Y-115900422D01*
X208133593Y-115835371D01*
X208276454Y-115746325D01*
X208306274Y-115727739D01*
X208306274Y-115727738D01*
X208306277Y-115727737D01*
X208453759Y-115587544D01*
X208570001Y-115420534D01*
X208650246Y-115233543D01*
X208691206Y-115034226D01*
X208691206Y-98881743D01*
X208691206Y-98881742D01*
X208691206Y-82881743D01*
X208691206Y-82881742D01*
X208691206Y-66881743D01*
X208675780Y-66730047D01*
X208614865Y-66535897D01*
X208516115Y-66357983D01*
X208383572Y-66203590D01*
X208226376Y-66081910D01*
X208222663Y-66079036D01*
X208039978Y-65989425D01*
X207969313Y-65971129D01*
X207842991Y-65938422D01*
X207822207Y-65937368D01*
X207639768Y-65928115D01*
X207438634Y-65958928D01*
X207247819Y-66029598D01*
X207075137Y-66137230D01*
X207005329Y-66203589D01*
X206927653Y-66277426D01*
X206919271Y-66289469D01*
X206811411Y-66444435D01*
X206731166Y-66631426D01*
X206718292Y-66694072D01*
X206691677Y-66823589D01*
X206690206Y-66830745D01*
X206690206Y-114972257D01*
X206670521Y-115039296D01*
X206640072Y-115071855D01*
X206386327Y-115260044D01*
X206376210Y-115266804D01*
X206097067Y-115434116D01*
X206086335Y-115439853D01*
X205792126Y-115579003D01*
X205780883Y-115583660D01*
X205474453Y-115693302D01*
X205462808Y-115696834D01*
X205147116Y-115775910D01*
X205135182Y-115778284D01*
X204813256Y-115826037D01*
X204801146Y-115827230D01*
X204637133Y-115835288D01*
X204472956Y-115843353D01*
X204466902Y-115843502D01*
X192494919Y-115843502D01*
X192427880Y-115823817D01*
X192382125Y-115771013D01*
X192372181Y-115701855D01*
X192401206Y-115638299D01*
X192409486Y-115629629D01*
X192411774Y-115627453D01*
X192453759Y-115587544D01*
X192570001Y-115420534D01*
X192650246Y-115233543D01*
X192691206Y-115034226D01*
X192691206Y-98881743D01*
X192691206Y-82881743D01*
X192691206Y-66881743D01*
X192675780Y-66730047D01*
X192614865Y-66535897D01*
X192516115Y-66357983D01*
X192383572Y-66203590D01*
X192226376Y-66081910D01*
X192222663Y-66079036D01*
X192039978Y-65989425D01*
X191969313Y-65971129D01*
X191842991Y-65938422D01*
X191822207Y-65937368D01*
X191639768Y-65928115D01*
X191438634Y-65958928D01*
X191247819Y-66029598D01*
X191075137Y-66137230D01*
X191005329Y-66203589D01*
X190927653Y-66277426D01*
X190919271Y-66289469D01*
X190811411Y-66444435D01*
X190731166Y-66631426D01*
X190718292Y-66694072D01*
X190691677Y-66823589D01*
X190690206Y-66830745D01*
X190690206Y-114858006D01*
X190670521Y-114925045D01*
X190629955Y-114964364D01*
X190526270Y-115026511D01*
X190515538Y-115032247D01*
X190252812Y-115156509D01*
X190241570Y-115161166D01*
X189967918Y-115259082D01*
X189956273Y-115262615D01*
X189674334Y-115333238D01*
X189662399Y-115335612D01*
X189374904Y-115378259D01*
X189362794Y-115379452D01*
X189069713Y-115393852D01*
X189063628Y-115394001D01*
X176769345Y-115394001D01*
X176702306Y-115374316D01*
X176656551Y-115321512D01*
X176646607Y-115252354D01*
X176647883Y-115245040D01*
X176650246Y-115233543D01*
X176691206Y-115034226D01*
X176691206Y-98881743D01*
X176691206Y-82881743D01*
X176691206Y-66881743D01*
X176675780Y-66730047D01*
X176614865Y-66535897D01*
X176516115Y-66357983D01*
X176383572Y-66203590D01*
X176226376Y-66081910D01*
X176222663Y-66079036D01*
X176039978Y-65989425D01*
X175969313Y-65971129D01*
X175842991Y-65938422D01*
X175822207Y-65937368D01*
X175639768Y-65928115D01*
X175438634Y-65958928D01*
X175247819Y-66029598D01*
X175075137Y-66137230D01*
X175005329Y-66203589D01*
X174927653Y-66277426D01*
X174919271Y-66289469D01*
X174811411Y-66444435D01*
X174731166Y-66631426D01*
X174718292Y-66694072D01*
X174691677Y-66823589D01*
X174690206Y-66830745D01*
X174690206Y-114756243D01*
X174670521Y-114823282D01*
X174617717Y-114869037D01*
X174606068Y-114873661D01*
X174580124Y-114882468D01*
X174560758Y-114889042D01*
X174545092Y-114893239D01*
X174362036Y-114929652D01*
X174345955Y-114931769D01*
X174155801Y-114944234D01*
X174147690Y-114944500D01*
X164140452Y-114944500D01*
X164073413Y-114924815D01*
X164052771Y-114908181D01*
X156585118Y-107440528D01*
X149082973Y-99938382D01*
X149082911Y-99938333D01*
X149082811Y-99938240D01*
X148967214Y-99822642D01*
X148967213Y-99822641D01*
X148965499Y-99820927D01*
X148963660Y-99819356D01*
X148963651Y-99819348D01*
X148654873Y-99555627D01*
X148654868Y-99555623D01*
X148653018Y-99554043D01*
X148479926Y-99428284D01*
X148322538Y-99313934D01*
X148322531Y-99313929D01*
X148320561Y-99312498D01*
X148318471Y-99311217D01*
X147972253Y-99099052D01*
X147972242Y-99099045D01*
X147970178Y-99097781D01*
X147968021Y-99096682D01*
X147968014Y-99096678D01*
X147606201Y-98912324D01*
X147606196Y-98912322D01*
X147604028Y-98911217D01*
X147601771Y-98910282D01*
X147226629Y-98754891D01*
X147226613Y-98754885D01*
X147224370Y-98753956D01*
X147156299Y-98731838D01*
X146835850Y-98627716D01*
X146835836Y-98627712D01*
X146833543Y-98626967D01*
X146831199Y-98626404D01*
X146831184Y-98626400D01*
X146436326Y-98531601D01*
X146436313Y-98531598D01*
X146433958Y-98531033D01*
X146431555Y-98530652D01*
X146431543Y-98530650D01*
X146030477Y-98467126D01*
X146028078Y-98466746D01*
X146022599Y-98466314D01*
X145620838Y-98434692D01*
X145620825Y-98434691D01*
X145618405Y-98434501D01*
X145615984Y-98434500D01*
X145615960Y-98434500D01*
X145491951Y-98434500D01*
X145491950Y-98434500D01*
X112688236Y-98434500D01*
X112644390Y-98426489D01*
X112533811Y-98384688D01*
X112119435Y-98228045D01*
X112103691Y-98222093D01*
X112103665Y-98222084D01*
X112102393Y-98221603D01*
X112065045Y-98209380D01*
X112053187Y-98204813D01*
X112039805Y-98198856D01*
X111854648Y-98159500D01*
X111854646Y-98159500D01*
X111665354Y-98159500D01*
X111665352Y-98159500D01*
X111480197Y-98198855D01*
X111307269Y-98275848D01*
X111154129Y-98387110D01*
X111027466Y-98527783D01*
X110932820Y-98691715D01*
X110874326Y-98871742D01*
X110854540Y-99059999D01*
X110874326Y-99248257D01*
X110932820Y-99428284D01*
X111027466Y-99592216D01*
X111154129Y-99732889D01*
X111307269Y-99844151D01*
X111480197Y-99921144D01*
X111665352Y-99960500D01*
X111665354Y-99960500D01*
X111854648Y-99960500D01*
X112039803Y-99921144D01*
X112068059Y-99908562D01*
X112091605Y-99900791D01*
X112102400Y-99898394D01*
X112302638Y-99822700D01*
X112644388Y-99693511D01*
X112688234Y-99685500D01*
X145410219Y-99685500D01*
X145415628Y-99685618D01*
X145435789Y-99686498D01*
X145754293Y-99700406D01*
X145765031Y-99701346D01*
X146098438Y-99745242D01*
X146109065Y-99747115D01*
X146437382Y-99819903D01*
X146447808Y-99822696D01*
X146768522Y-99923819D01*
X146778672Y-99927513D01*
X147024625Y-100029391D01*
X147089341Y-100056198D01*
X147099145Y-100060770D01*
X147397401Y-100216034D01*
X147406769Y-100221442D01*
X147690369Y-100402115D01*
X147699228Y-100408318D01*
X147966018Y-100613034D01*
X147974298Y-100619983D01*
X148224420Y-100849179D01*
X148228326Y-100852918D01*
X148253239Y-100877830D01*
X148354405Y-100978996D01*
X148387890Y-101040319D01*
X148382906Y-101110011D01*
X148341034Y-101165944D01*
X148275570Y-101190361D01*
X148228406Y-101184608D01*
X148145785Y-101157763D01*
X148145780Y-101157761D01*
X148143470Y-101157011D01*
X148059689Y-101136896D01*
X147766901Y-101066604D01*
X147766898Y-101066603D01*
X147764543Y-101066038D01*
X147762159Y-101065660D01*
X147762142Y-101065657D01*
X147382065Y-101005459D01*
X147382061Y-101005458D01*
X147379646Y-101005076D01*
X147377220Y-101004885D01*
X147377211Y-101004884D01*
X146993587Y-100974692D01*
X146993572Y-100974691D01*
X146991153Y-100974501D01*
X146988731Y-100974500D01*
X146988707Y-100974500D01*
X146875325Y-100974500D01*
X146875324Y-100974500D01*
X112688236Y-100974500D01*
X112644390Y-100966489D01*
X112338343Y-100850797D01*
X112119435Y-100768045D01*
X112103691Y-100762093D01*
X112103665Y-100762084D01*
X112102393Y-100761603D01*
X112065045Y-100749380D01*
X112053187Y-100744813D01*
X112039805Y-100738856D01*
X111854648Y-100699500D01*
X111854646Y-100699500D01*
X111665354Y-100699500D01*
X111665352Y-100699500D01*
X111480197Y-100738855D01*
X111307269Y-100815848D01*
X111154129Y-100927110D01*
X111027466Y-101067783D01*
X110932820Y-101231715D01*
X110874326Y-101411742D01*
X110854540Y-101599999D01*
X110874326Y-101788257D01*
X110932820Y-101968284D01*
X111027466Y-102132216D01*
X111154129Y-102272889D01*
X111307269Y-102384151D01*
X111480197Y-102461144D01*
X111665352Y-102500500D01*
X111665354Y-102500500D01*
X111854648Y-102500500D01*
X112039803Y-102461144D01*
X112068059Y-102448562D01*
X112091605Y-102440791D01*
X112102400Y-102438394D01*
X112139105Y-102424519D01*
X112644388Y-102233511D01*
X112688234Y-102225500D01*
X146720355Y-102225500D01*
X146793598Y-102225500D01*
X146799006Y-102225617D01*
X147114109Y-102239375D01*
X147124844Y-102240315D01*
X147434858Y-102281129D01*
X147445496Y-102283004D01*
X147750783Y-102350686D01*
X147761209Y-102353480D01*
X148059435Y-102447510D01*
X148069570Y-102451199D01*
X148358462Y-102570862D01*
X148368253Y-102575428D01*
X148645615Y-102719814D01*
X148654956Y-102725207D01*
X148901820Y-102882477D01*
X148918666Y-102893209D01*
X148927527Y-102899413D01*
X149175604Y-103089769D01*
X149183857Y-103096693D01*
X149414506Y-103308045D01*
X149416454Y-103309830D01*
X149420338Y-103313548D01*
X149472099Y-103365310D01*
X149486327Y-103379538D01*
X149486330Y-103379540D01*
X149693913Y-103587123D01*
X149727398Y-103648446D01*
X149722414Y-103718138D01*
X149680542Y-103774071D01*
X149615078Y-103798488D01*
X149571297Y-103793781D01*
X149249016Y-103699150D01*
X149249007Y-103699147D01*
X149246883Y-103698524D01*
X149244723Y-103698054D01*
X149244707Y-103698050D01*
X148827152Y-103607216D01*
X148827142Y-103607214D01*
X148824999Y-103606748D01*
X148822831Y-103606436D01*
X148822824Y-103606435D01*
X148514889Y-103562159D01*
X148498624Y-103556719D01*
X148498374Y-103557697D01*
X148330134Y-103514500D01*
X148330133Y-103514500D01*
X147399019Y-103514500D01*
X112688236Y-103514500D01*
X112644390Y-103506489D01*
X112119435Y-103308045D01*
X112103691Y-103302093D01*
X112103665Y-103302084D01*
X112102393Y-103301603D01*
X112065045Y-103289380D01*
X112053187Y-103284813D01*
X112039805Y-103278856D01*
X111854648Y-103239500D01*
X111854646Y-103239500D01*
X111665354Y-103239500D01*
X111665352Y-103239500D01*
X111480197Y-103278855D01*
X111307269Y-103355848D01*
X111154129Y-103467110D01*
X111027466Y-103607783D01*
X110932820Y-103771715D01*
X110874326Y-103951742D01*
X110854540Y-104140000D01*
X110874326Y-104328257D01*
X110932820Y-104508284D01*
X111027466Y-104672216D01*
X111154129Y-104812889D01*
X111307269Y-104924151D01*
X111480197Y-105001144D01*
X111665352Y-105040500D01*
X111665354Y-105040500D01*
X111854648Y-105040500D01*
X112039803Y-105001144D01*
X112042130Y-105000108D01*
X112068059Y-104988562D01*
X112091605Y-104980791D01*
X112102400Y-104978394D01*
X112317735Y-104896993D01*
X112626490Y-104780277D01*
X112644388Y-104773510D01*
X112688234Y-104765500D01*
X147240981Y-104765500D01*
X147675163Y-104765500D01*
X147748687Y-104765500D01*
X147753555Y-104765596D01*
X148122345Y-104780086D01*
X148132019Y-104780847D01*
X148446065Y-104818018D01*
X148496121Y-104823943D01*
X148505737Y-104825466D01*
X148647295Y-104853623D01*
X148865341Y-104896996D01*
X148874777Y-104899261D01*
X149227651Y-104998783D01*
X149236911Y-105001791D01*
X149580890Y-105128692D01*
X149589885Y-105132418D01*
X149922847Y-105285916D01*
X149931511Y-105290332D01*
X150251401Y-105469480D01*
X150259702Y-105474567D01*
X150564540Y-105678252D01*
X150572418Y-105683975D01*
X150860340Y-105910956D01*
X150867743Y-105917279D01*
X150921120Y-105966620D01*
X150956987Y-106026581D01*
X150954743Y-106096415D01*
X150915100Y-106153949D01*
X150850644Y-106180917D01*
X150804855Y-106177451D01*
X150662358Y-106139268D01*
X150662354Y-106139267D01*
X150659760Y-106138572D01*
X150657111Y-106138104D01*
X150657107Y-106138104D01*
X150344963Y-106083063D01*
X150344943Y-106083060D01*
X150342304Y-106082595D01*
X150339622Y-106082360D01*
X150339612Y-106082359D01*
X150023877Y-106054736D01*
X150023871Y-106054735D01*
X150021177Y-106054500D01*
X150018468Y-106054500D01*
X112688236Y-106054500D01*
X112644390Y-106046489D01*
X112119435Y-105848045D01*
X112103691Y-105842093D01*
X112103665Y-105842084D01*
X112102393Y-105841603D01*
X112065045Y-105829380D01*
X112053187Y-105824813D01*
X112039805Y-105818856D01*
X111854648Y-105779500D01*
X111854646Y-105779500D01*
X111665354Y-105779500D01*
X111665352Y-105779500D01*
X111480197Y-105818855D01*
X111307269Y-105895848D01*
X111154129Y-106007110D01*
X111027466Y-106147783D01*
X110932820Y-106311715D01*
X110874326Y-106491742D01*
X110854540Y-106680000D01*
X47760000Y-106680000D01*
X47760000Y-101272167D01*
X88425849Y-101272167D01*
X88445009Y-101503385D01*
X88501967Y-101728307D01*
X88595164Y-101940777D01*
X88679459Y-102069801D01*
X89325864Y-101423397D01*
X89331316Y-101449631D01*
X89397711Y-101577768D01*
X89496216Y-101683241D01*
X89619523Y-101758226D01*
X89680935Y-101775432D01*
X89031847Y-102424519D01*
X89062298Y-102448219D01*
X89266348Y-102558645D01*
X89485788Y-102633979D01*
X89714641Y-102672168D01*
X89946655Y-102672168D01*
X90175507Y-102633979D01*
X90394944Y-102558646D01*
X90599001Y-102448216D01*
X90629446Y-102424519D01*
X89983209Y-101778282D01*
X90105991Y-101724950D01*
X90217940Y-101633873D01*
X90301165Y-101515970D01*
X90334423Y-101422390D01*
X90981834Y-102069802D01*
X90996542Y-102047291D01*
X91049688Y-102001933D01*
X91118919Y-101992509D01*
X91182255Y-102022010D01*
X91204159Y-102047289D01*
X91218868Y-102069802D01*
X91261674Y-102135321D01*
X91418869Y-102306081D01*
X91602027Y-102448638D01*
X91806150Y-102559104D01*
X91915910Y-102596785D01*
X92025668Y-102634465D01*
X92025670Y-102634465D01*
X92025672Y-102634466D01*
X92254604Y-102672668D01*
X92254605Y-102672668D01*
X92486701Y-102672668D01*
X92486702Y-102672668D01*
X92715634Y-102634466D01*
X92935156Y-102559104D01*
X93139279Y-102448638D01*
X93322437Y-102306081D01*
X93479632Y-102135321D01*
X93536848Y-102047744D01*
X93589993Y-102002389D01*
X93659224Y-101992965D01*
X93722560Y-102022467D01*
X93744462Y-102047743D01*
X93801680Y-102135321D01*
X93958875Y-102306081D01*
X94142033Y-102448638D01*
X94346156Y-102559104D01*
X94455917Y-102596784D01*
X94565674Y-102634465D01*
X94565676Y-102634465D01*
X94565678Y-102634466D01*
X94794610Y-102672668D01*
X94794611Y-102672668D01*
X95026707Y-102672668D01*
X95026708Y-102672668D01*
X95255640Y-102634466D01*
X95475162Y-102559104D01*
X95679285Y-102448638D01*
X95862443Y-102306081D01*
X96019638Y-102135321D01*
X96076854Y-102047745D01*
X96129998Y-102002390D01*
X96199229Y-101992966D01*
X96262565Y-102022467D01*
X96284467Y-102047743D01*
X96341685Y-102135321D01*
X96498880Y-102306081D01*
X96682038Y-102448638D01*
X96886161Y-102559104D01*
X96995922Y-102596784D01*
X97105679Y-102634465D01*
X97105681Y-102634465D01*
X97105683Y-102634466D01*
X97334615Y-102672668D01*
X97334616Y-102672668D01*
X97566712Y-102672668D01*
X97566713Y-102672668D01*
X97795645Y-102634466D01*
X98015167Y-102559104D01*
X98219290Y-102448638D01*
X98402448Y-102306081D01*
X98559643Y-102135321D01*
X98686588Y-101941017D01*
X98779821Y-101728468D01*
X98836798Y-101503473D01*
X98855964Y-101272168D01*
X98836798Y-101040863D01*
X98779821Y-100815868D01*
X98686588Y-100603319D01*
X98559643Y-100409015D01*
X98402448Y-100238255D01*
X98219290Y-100095698D01*
X98015167Y-99985232D01*
X98015163Y-99985230D01*
X98015162Y-99985230D01*
X97795648Y-99909870D01*
X97623946Y-99881218D01*
X97566713Y-99871668D01*
X97334615Y-99871668D01*
X97288828Y-99879308D01*
X97105679Y-99909870D01*
X96886165Y-99985230D01*
X96682036Y-100095699D01*
X96498879Y-100238255D01*
X96341682Y-100409018D01*
X96284469Y-100496589D01*
X96231323Y-100541946D01*
X96162091Y-100551369D01*
X96098756Y-100521867D01*
X96076852Y-100496588D01*
X96062442Y-100474532D01*
X96019638Y-100409015D01*
X95862443Y-100238255D01*
X95679285Y-100095698D01*
X95475162Y-99985232D01*
X95475158Y-99985230D01*
X95475157Y-99985230D01*
X95255643Y-99909870D01*
X95083941Y-99881218D01*
X95026708Y-99871668D01*
X94794610Y-99871668D01*
X94748823Y-99879308D01*
X94565674Y-99909870D01*
X94346160Y-99985230D01*
X94142031Y-100095699D01*
X93958874Y-100238255D01*
X93813249Y-100396447D01*
X93801680Y-100409015D01*
X93744463Y-100496591D01*
X93691318Y-100541946D01*
X93622087Y-100551370D01*
X93558751Y-100521868D01*
X93536849Y-100496592D01*
X93479632Y-100409015D01*
X93322437Y-100238255D01*
X93139279Y-100095698D01*
X92935156Y-99985232D01*
X92935152Y-99985230D01*
X92935151Y-99985230D01*
X92715637Y-99909870D01*
X92543935Y-99881218D01*
X92486702Y-99871668D01*
X92254604Y-99871668D01*
X92208817Y-99879308D01*
X92025668Y-99909870D01*
X91806154Y-99985230D01*
X91602025Y-100095699D01*
X91418868Y-100238255D01*
X91273243Y-100396447D01*
X91261674Y-100409015D01*
X91204162Y-100497045D01*
X91204161Y-100497046D01*
X91151014Y-100542402D01*
X91081783Y-100551826D01*
X91018447Y-100522324D01*
X90996543Y-100497045D01*
X90981834Y-100474532D01*
X90335431Y-101120936D01*
X90329980Y-101094705D01*
X90263585Y-100966568D01*
X90165080Y-100861095D01*
X90041773Y-100786110D01*
X89980360Y-100768903D01*
X90629447Y-100119816D01*
X90629447Y-100119815D01*
X90598997Y-100096116D01*
X90394947Y-99985690D01*
X90175507Y-99910356D01*
X89946655Y-99872168D01*
X89714641Y-99872168D01*
X89485788Y-99910356D01*
X89266351Y-99985689D01*
X89062293Y-100096120D01*
X89031848Y-100119814D01*
X89031848Y-100119815D01*
X89678086Y-100766053D01*
X89555305Y-100819386D01*
X89443356Y-100910463D01*
X89360131Y-101028366D01*
X89326872Y-101121945D01*
X88679460Y-100474533D01*
X88595164Y-100603558D01*
X88501967Y-100816028D01*
X88445009Y-101040950D01*
X88425849Y-101272167D01*
X47760000Y-101272167D01*
X47760000Y-95250000D01*
X110854540Y-95250000D01*
X110874326Y-95438257D01*
X110932820Y-95618284D01*
X111027466Y-95782216D01*
X111154129Y-95922889D01*
X111307269Y-96034151D01*
X111480197Y-96111144D01*
X111665352Y-96150500D01*
X111665354Y-96150500D01*
X111854648Y-96150500D01*
X112039803Y-96111144D01*
X112068059Y-96098562D01*
X112091605Y-96090791D01*
X112102400Y-96088394D01*
X112227399Y-96041142D01*
X112615972Y-95894253D01*
X112644388Y-95883510D01*
X112688234Y-95875500D01*
X143434051Y-95875500D01*
X143507959Y-95875500D01*
X143512016Y-95875566D01*
X144066635Y-95893722D01*
X144074714Y-95894252D01*
X144624942Y-95948444D01*
X144632933Y-95949496D01*
X145178466Y-96039564D01*
X145186369Y-96041136D01*
X145724829Y-96166686D01*
X145732633Y-96168777D01*
X146261722Y-96329274D01*
X146269393Y-96331878D01*
X146786832Y-96526627D01*
X146794289Y-96529716D01*
X147297905Y-96757900D01*
X147305171Y-96761484D01*
X147792751Y-97022100D01*
X147799778Y-97026157D01*
X148269268Y-97318103D01*
X148276015Y-97322611D01*
X148725408Y-97644639D01*
X148731846Y-97649579D01*
X149159210Y-98000306D01*
X149165310Y-98005655D01*
X149570003Y-98384688D01*
X149572917Y-98387509D01*
X149619909Y-98434499D01*
X164001341Y-112815932D01*
X164026681Y-112852600D01*
X164265051Y-113380719D01*
X164265655Y-113381911D01*
X164265681Y-113381965D01*
X164266452Y-113383485D01*
X164271917Y-113396719D01*
X164280422Y-113411451D01*
X164283632Y-113417378D01*
X164286942Y-113423907D01*
X164291804Y-113431164D01*
X164367465Y-113562214D01*
X164494129Y-113702889D01*
X164647269Y-113814151D01*
X164820197Y-113891144D01*
X165005352Y-113930500D01*
X165005354Y-113930500D01*
X165194648Y-113930500D01*
X165318084Y-113904262D01*
X165379803Y-113891144D01*
X165552730Y-113814151D01*
X165705871Y-113702888D01*
X165832533Y-113562216D01*
X165927179Y-113398284D01*
X165985674Y-113218256D01*
X166005460Y-113030000D01*
X165985674Y-112841744D01*
X165927179Y-112661716D01*
X165927179Y-112661715D01*
X165832533Y-112497783D01*
X165705870Y-112357110D01*
X165552732Y-112245849D01*
X165487243Y-112216692D01*
X165471106Y-112208026D01*
X165450719Y-112195051D01*
X164922598Y-111956680D01*
X164885930Y-111931340D01*
X150494056Y-97539466D01*
X150494033Y-97539424D01*
X150456380Y-97501771D01*
X150246482Y-97291874D01*
X150245093Y-97290644D01*
X150245083Y-97290634D01*
X149803494Y-96899422D01*
X149803481Y-96899411D01*
X149802106Y-96898193D01*
X149751860Y-96858828D01*
X149336232Y-96533206D01*
X149336223Y-96533199D01*
X149334770Y-96532061D01*
X149333260Y-96531018D01*
X149333240Y-96531004D01*
X148847711Y-96195871D01*
X148847709Y-96195869D01*
X148846181Y-96194815D01*
X148844601Y-96193860D01*
X148844592Y-96193854D01*
X148339723Y-95888651D01*
X148339712Y-95888644D01*
X148338121Y-95887683D01*
X147812444Y-95611788D01*
X147628560Y-95529029D01*
X147272767Y-95368900D01*
X147272764Y-95368898D01*
X147271067Y-95368135D01*
X147269337Y-95367479D01*
X147269318Y-95367471D01*
X146717733Y-95158284D01*
X146717711Y-95158276D01*
X146715967Y-95157615D01*
X146714176Y-95157056D01*
X146714156Y-95157050D01*
X146150974Y-94981556D01*
X146150960Y-94981552D01*
X146149169Y-94980994D01*
X145817162Y-94899162D01*
X145574560Y-94839366D01*
X145574549Y-94839363D01*
X145572741Y-94838918D01*
X145570910Y-94838582D01*
X145570894Y-94838579D01*
X144990627Y-94732242D01*
X144990614Y-94732240D01*
X144988786Y-94731905D01*
X144986945Y-94731681D01*
X144986929Y-94731679D01*
X144401287Y-94660569D01*
X144401262Y-94660566D01*
X144399436Y-94660345D01*
X144397589Y-94660233D01*
X144397575Y-94660232D01*
X143808718Y-94624613D01*
X143808698Y-94624612D01*
X143806840Y-94624500D01*
X143804954Y-94624500D01*
X112688236Y-94624500D01*
X112644390Y-94616489D01*
X112119435Y-94418045D01*
X112103691Y-94412093D01*
X112103665Y-94412084D01*
X112102393Y-94411603D01*
X112065045Y-94399380D01*
X112053187Y-94394813D01*
X112039805Y-94388856D01*
X111854648Y-94349500D01*
X111854646Y-94349500D01*
X111665354Y-94349500D01*
X111665352Y-94349500D01*
X111480197Y-94388855D01*
X111307269Y-94465848D01*
X111154129Y-94577110D01*
X111027466Y-94717783D01*
X110932820Y-94881715D01*
X110874326Y-95061742D01*
X110854540Y-95250000D01*
X47760000Y-95250000D01*
X47760000Y-92710000D01*
X110854540Y-92710000D01*
X110874326Y-92898257D01*
X110932820Y-93078284D01*
X111027466Y-93242216D01*
X111154129Y-93382889D01*
X111307269Y-93494151D01*
X111480197Y-93571144D01*
X111665352Y-93610500D01*
X111665354Y-93610500D01*
X111854648Y-93610500D01*
X112039803Y-93571144D01*
X112068059Y-93558562D01*
X112091605Y-93550791D01*
X112102400Y-93548394D01*
X112486125Y-93403338D01*
X112644388Y-93343511D01*
X112688234Y-93335500D01*
X155825895Y-93335500D01*
X155900241Y-93335500D01*
X155903411Y-93335541D01*
X156546701Y-93352388D01*
X156553101Y-93352723D01*
X157192974Y-93403085D01*
X157199385Y-93403759D01*
X157835708Y-93487534D01*
X157842075Y-93488542D01*
X158473187Y-93605514D01*
X158479466Y-93606849D01*
X159103566Y-93756684D01*
X159109801Y-93758354D01*
X159725203Y-93940646D01*
X159731356Y-93942646D01*
X160336313Y-94156874D01*
X160342371Y-94159198D01*
X160935335Y-94404814D01*
X160941240Y-94407443D01*
X161471456Y-94660345D01*
X161520511Y-94683743D01*
X161526295Y-94686690D01*
X162090325Y-94992934D01*
X162095920Y-94996164D01*
X162643144Y-95331504D01*
X162648574Y-95335030D01*
X163177512Y-95698561D01*
X163182761Y-95702374D01*
X163408469Y-95875566D01*
X163691911Y-96093059D01*
X163696956Y-96097144D01*
X163971634Y-96331742D01*
X164103477Y-96444346D01*
X164140673Y-96499698D01*
X164246573Y-96819882D01*
X164252566Y-96836971D01*
X164252855Y-96837750D01*
X164253767Y-96839758D01*
X164253777Y-96839782D01*
X164262429Y-96858828D01*
X164267461Y-96871790D01*
X164272820Y-96888284D01*
X164367466Y-97052216D01*
X164494129Y-97192889D01*
X164647269Y-97304151D01*
X164820197Y-97381144D01*
X165005352Y-97420500D01*
X165005354Y-97420500D01*
X165194648Y-97420500D01*
X165318084Y-97394262D01*
X165379803Y-97381144D01*
X165552730Y-97304151D01*
X165705871Y-97192888D01*
X165832533Y-97052216D01*
X165927179Y-96888284D01*
X165985674Y-96708256D01*
X166005460Y-96520000D01*
X165985674Y-96331744D01*
X165927179Y-96151716D01*
X165927179Y-96151715D01*
X165832533Y-95987783D01*
X165705870Y-95847110D01*
X165552732Y-95735849D01*
X165437445Y-95684520D01*
X165379803Y-95658856D01*
X165365497Y-95655815D01*
X165354164Y-95653406D01*
X165346147Y-95651420D01*
X165072554Y-95573907D01*
X165009994Y-95556182D01*
X164960826Y-95529030D01*
X164759219Y-95347502D01*
X164321355Y-94992926D01*
X164205567Y-94899162D01*
X164205558Y-94899155D01*
X164204323Y-94898155D01*
X163877006Y-94660345D01*
X163627986Y-94479421D01*
X163627982Y-94479418D01*
X163626670Y-94478465D01*
X163402576Y-94332936D01*
X163029210Y-94090469D01*
X163029189Y-94090456D01*
X163027843Y-94089582D01*
X162409486Y-93732572D01*
X161773291Y-93408414D01*
X161771815Y-93407757D01*
X161771807Y-93407753D01*
X161122460Y-93118643D01*
X161122437Y-93118633D01*
X161121003Y-93117995D01*
X161119517Y-93117424D01*
X161119506Y-93117420D01*
X160455933Y-92862697D01*
X160455932Y-92862696D01*
X160454409Y-92862112D01*
X160452852Y-92861606D01*
X159776884Y-92641969D01*
X159776861Y-92641962D01*
X159775337Y-92641467D01*
X159773784Y-92641051D01*
X159773771Y-92641047D01*
X159087227Y-92457085D01*
X159087197Y-92457077D01*
X159085649Y-92456663D01*
X159084067Y-92456326D01*
X159084039Y-92456320D01*
X158388845Y-92308551D01*
X158388821Y-92308546D01*
X158387233Y-92308209D01*
X157682006Y-92196510D01*
X157680448Y-92196346D01*
X157680416Y-92196342D01*
X156973493Y-92122039D01*
X156973472Y-92122037D01*
X156971899Y-92121872D01*
X156970318Y-92121789D01*
X156970291Y-92121787D01*
X156260463Y-92084585D01*
X156260460Y-92084584D01*
X156258859Y-92084501D01*
X156257290Y-92084500D01*
X156257253Y-92084500D01*
X155980866Y-92084500D01*
X112688236Y-92084500D01*
X112644390Y-92076489D01*
X112119435Y-91878045D01*
X112103691Y-91872093D01*
X112103665Y-91872084D01*
X112102393Y-91871603D01*
X112065045Y-91859380D01*
X112053187Y-91854813D01*
X112039805Y-91848856D01*
X111854648Y-91809500D01*
X111854646Y-91809500D01*
X111665354Y-91809500D01*
X111665352Y-91809500D01*
X111480197Y-91848855D01*
X111307269Y-91925848D01*
X111154129Y-92037110D01*
X111027466Y-92177783D01*
X110932820Y-92341715D01*
X110874326Y-92521742D01*
X110854540Y-92710000D01*
X47760000Y-92710000D01*
X47760000Y-91439999D01*
X75294540Y-91439999D01*
X75314326Y-91628257D01*
X75372820Y-91808284D01*
X75467466Y-91972216D01*
X75594129Y-92112889D01*
X75747269Y-92224151D01*
X75920197Y-92301144D01*
X76105352Y-92340500D01*
X76105354Y-92340500D01*
X76294648Y-92340500D01*
X76418083Y-92314262D01*
X76479803Y-92301144D01*
X76652730Y-92224151D01*
X76805871Y-92112888D01*
X76932533Y-91972216D01*
X77017210Y-91825548D01*
X77023379Y-91815966D01*
X77027353Y-91808284D01*
X77221403Y-91433148D01*
X77264913Y-91385541D01*
X77406228Y-91295514D01*
X77415574Y-91290119D01*
X77693108Y-91145641D01*
X77702899Y-91141075D01*
X77991981Y-91021332D01*
X78002117Y-91017643D01*
X78300558Y-90923543D01*
X78310964Y-90920755D01*
X78616453Y-90853026D01*
X78627071Y-90851154D01*
X78937312Y-90810307D01*
X78948048Y-90809367D01*
X79262897Y-90795618D01*
X79268308Y-90795500D01*
X157821766Y-90795500D01*
X157865611Y-90803510D01*
X158407599Y-91008394D01*
X158435533Y-91017536D01*
X158444962Y-91020622D01*
X158456825Y-91025190D01*
X158470197Y-91031144D01*
X158470198Y-91031144D01*
X158470200Y-91031145D01*
X158655352Y-91070500D01*
X158655354Y-91070500D01*
X158844648Y-91070500D01*
X158968083Y-91044262D01*
X159029803Y-91031144D01*
X159202730Y-90954151D01*
X159355871Y-90842888D01*
X159482533Y-90702216D01*
X159577179Y-90538284D01*
X159635674Y-90358256D01*
X159655460Y-90170000D01*
X159635674Y-89981744D01*
X159605332Y-89888363D01*
X159577179Y-89801715D01*
X159482533Y-89637783D01*
X159355870Y-89497110D01*
X159202730Y-89385848D01*
X159029802Y-89308855D01*
X158844648Y-89269500D01*
X158844646Y-89269500D01*
X158655354Y-89269500D01*
X158655352Y-89269500D01*
X158470196Y-89308855D01*
X158441937Y-89321437D01*
X158418400Y-89329205D01*
X158407596Y-89331605D01*
X157865609Y-89536489D01*
X157821763Y-89544500D01*
X79357261Y-89544500D01*
X79357253Y-89544499D01*
X79317426Y-89544499D01*
X79317357Y-89544479D01*
X79073549Y-89544481D01*
X79073524Y-89544481D01*
X79071104Y-89544482D01*
X79068684Y-89544672D01*
X79068670Y-89544673D01*
X78684859Y-89574884D01*
X78684844Y-89574885D01*
X78682427Y-89575076D01*
X78680027Y-89575455D01*
X78680011Y-89575458D01*
X78299744Y-89635690D01*
X78299731Y-89635692D01*
X78297348Y-89636070D01*
X78295022Y-89636628D01*
X78294994Y-89636634D01*
X77920600Y-89726521D01*
X77920584Y-89726525D01*
X77918241Y-89727088D01*
X77915954Y-89727830D01*
X77915933Y-89727837D01*
X77549755Y-89846819D01*
X77549745Y-89846822D01*
X77547445Y-89847570D01*
X77545226Y-89848489D01*
X77545202Y-89848498D01*
X77189489Y-89995842D01*
X77189466Y-89995852D01*
X77187244Y-89996773D01*
X77185089Y-89997870D01*
X77185076Y-89997877D01*
X76842022Y-90172673D01*
X76842004Y-90172682D01*
X76839859Y-90173776D01*
X76837805Y-90175034D01*
X76837783Y-90175047D01*
X76509515Y-90376212D01*
X76509494Y-90376225D01*
X76507433Y-90377489D01*
X76497113Y-90384986D01*
X76462795Y-90402516D01*
X75936843Y-90574596D01*
X75924073Y-90578032D01*
X75920196Y-90578856D01*
X75915958Y-90580743D01*
X75904107Y-90585307D01*
X75901688Y-90586099D01*
X75895537Y-90588239D01*
X75884625Y-90592037D01*
X75884610Y-90592043D01*
X75883760Y-90592339D01*
X75882972Y-90592630D01*
X75880961Y-90593541D01*
X75880933Y-90593553D01*
X75812725Y-90624469D01*
X75796753Y-90633817D01*
X75747268Y-90655849D01*
X75594129Y-90767111D01*
X75467466Y-90907783D01*
X75372820Y-91071715D01*
X75314326Y-91251742D01*
X75294540Y-91439999D01*
X47760000Y-91439999D01*
X47760000Y-87629999D01*
X110854540Y-87629999D01*
X110874326Y-87818257D01*
X110932820Y-87998284D01*
X111027466Y-88162216D01*
X111154129Y-88302889D01*
X111307269Y-88414151D01*
X111480197Y-88491144D01*
X111665352Y-88530500D01*
X111665354Y-88530500D01*
X111854648Y-88530500D01*
X111978084Y-88504262D01*
X112039803Y-88491144D01*
X112212730Y-88414151D01*
X112365871Y-88302888D01*
X112492533Y-88162216D01*
X112587179Y-87998284D01*
X112587180Y-87998279D01*
X112590411Y-87992684D01*
X112592073Y-87989160D01*
X112591296Y-87988809D01*
X112594946Y-87980721D01*
X112594948Y-87980719D01*
X112833317Y-87452597D01*
X112858652Y-87415936D01*
X114741183Y-85533406D01*
X114743431Y-85531215D01*
X115210213Y-85088257D01*
X115214994Y-85083953D01*
X115703056Y-84667109D01*
X115708030Y-84663080D01*
X116217268Y-84272327D01*
X116222469Y-84268549D01*
X116751426Y-83905007D01*
X116756831Y-83901497D01*
X117304087Y-83566137D01*
X117309649Y-83562926D01*
X117873710Y-83256665D01*
X117879463Y-83253733D01*
X118458765Y-82977419D01*
X118464642Y-82974802D01*
X119057619Y-82729182D01*
X119063644Y-82726868D01*
X119668664Y-82512619D01*
X119674797Y-82510626D01*
X120290205Y-82328333D01*
X120296426Y-82326666D01*
X120920491Y-82176839D01*
X120926839Y-82175489D01*
X121557927Y-82058522D01*
X121564282Y-82057516D01*
X122200616Y-81973740D01*
X122207019Y-81973066D01*
X122846899Y-81922704D01*
X122853295Y-81922369D01*
X123495863Y-81905541D01*
X123499034Y-81905500D01*
X123574105Y-81905500D01*
X164171766Y-81905500D01*
X164215611Y-81913510D01*
X164757599Y-82118394D01*
X164785533Y-82127536D01*
X164794962Y-82130622D01*
X164806825Y-82135190D01*
X164820197Y-82141144D01*
X164820198Y-82141144D01*
X164820200Y-82141145D01*
X165005352Y-82180500D01*
X165005354Y-82180500D01*
X165194648Y-82180500D01*
X165318083Y-82154262D01*
X165379803Y-82141144D01*
X165552730Y-82064151D01*
X165560471Y-82058527D01*
X165705870Y-81952889D01*
X165832533Y-81812216D01*
X165927179Y-81648284D01*
X165951065Y-81574770D01*
X165985674Y-81468256D01*
X166005460Y-81280000D01*
X165985674Y-81091744D01*
X165953838Y-80993762D01*
X165927179Y-80911715D01*
X165832533Y-80747783D01*
X165705870Y-80607110D01*
X165552730Y-80495848D01*
X165379802Y-80418855D01*
X165194648Y-80379500D01*
X165194646Y-80379500D01*
X165005354Y-80379500D01*
X165005352Y-80379500D01*
X164820196Y-80418855D01*
X164791937Y-80431437D01*
X164768400Y-80439205D01*
X164757596Y-80441605D01*
X164215609Y-80646489D01*
X164171763Y-80654500D01*
X123549532Y-80654500D01*
X123549467Y-80654481D01*
X123142746Y-80654481D01*
X123142708Y-80654481D01*
X123141141Y-80654482D01*
X123139540Y-80654565D01*
X123139536Y-80654566D01*
X122429707Y-80691768D01*
X122429677Y-80691770D01*
X122428100Y-80691853D01*
X122426529Y-80692018D01*
X122426505Y-80692020D01*
X121719581Y-80766323D01*
X121719544Y-80766327D01*
X121717992Y-80766491D01*
X121716405Y-80766742D01*
X121716400Y-80766743D01*
X121014391Y-80877932D01*
X121014385Y-80877933D01*
X121012763Y-80878190D01*
X121011181Y-80878526D01*
X121011150Y-80878532D01*
X120315956Y-81026302D01*
X120315919Y-81026310D01*
X120314347Y-81026645D01*
X120312807Y-81027057D01*
X120312768Y-81027067D01*
X119626222Y-81211029D01*
X119626198Y-81211035D01*
X119624657Y-81211449D01*
X119623143Y-81211940D01*
X119623109Y-81211951D01*
X118947141Y-81431588D01*
X118947126Y-81431593D01*
X118945585Y-81432094D01*
X118944073Y-81432674D01*
X118944060Y-81432679D01*
X118280486Y-81687402D01*
X118280461Y-81687412D01*
X118278990Y-81687977D01*
X118277568Y-81688609D01*
X118277532Y-81688625D01*
X117628184Y-81977735D01*
X117628161Y-81977745D01*
X117626701Y-81978396D01*
X117625258Y-81979130D01*
X117625248Y-81979136D01*
X116991949Y-82301819D01*
X116990505Y-82302555D01*
X116989096Y-82303367D01*
X116989095Y-82303369D01*
X116373556Y-82658752D01*
X116373541Y-82658760D01*
X116372147Y-82659566D01*
X116370816Y-82660429D01*
X116370779Y-82660453D01*
X115774684Y-83047563D01*
X115774652Y-83047584D01*
X115773320Y-83048450D01*
X115772024Y-83049390D01*
X115772003Y-83049406D01*
X115196967Y-83467194D01*
X115196948Y-83467208D01*
X115195666Y-83468140D01*
X115194448Y-83469125D01*
X115194421Y-83469147D01*
X114642023Y-83916472D01*
X114642011Y-83916482D01*
X114640769Y-83917488D01*
X114639591Y-83918548D01*
X114639566Y-83918570D01*
X114111348Y-84394179D01*
X114111319Y-84394206D01*
X114110149Y-84395260D01*
X114109022Y-84396386D01*
X114109023Y-84396386D01*
X113899351Y-84606057D01*
X113899349Y-84606059D01*
X111974070Y-86531337D01*
X111937402Y-86556677D01*
X111410539Y-86794482D01*
X111410524Y-86794488D01*
X111409277Y-86795052D01*
X111408074Y-86795661D01*
X111408034Y-86795681D01*
X111362768Y-86818628D01*
X111346199Y-86828515D01*
X111307270Y-86845848D01*
X111154129Y-86957111D01*
X111027466Y-87097783D01*
X110932820Y-87261715D01*
X110874326Y-87441742D01*
X110854540Y-87629999D01*
X47760000Y-87629999D01*
X47760000Y-85090000D01*
X110854540Y-85090000D01*
X110874326Y-85278257D01*
X110932820Y-85458284D01*
X111027466Y-85622216D01*
X111154129Y-85762889D01*
X111307269Y-85874151D01*
X111480197Y-85951144D01*
X111665352Y-85990500D01*
X111665354Y-85990500D01*
X111854648Y-85990500D01*
X111978083Y-85964262D01*
X112039803Y-85951144D01*
X112212730Y-85874151D01*
X112365871Y-85762888D01*
X112492533Y-85622216D01*
X112587179Y-85458284D01*
X112645674Y-85278256D01*
X112665460Y-85090000D01*
X112645674Y-84901744D01*
X112618414Y-84817849D01*
X112613570Y-84796911D01*
X112612620Y-84790200D01*
X112611958Y-84785522D01*
X112504360Y-84416100D01*
X112504260Y-84347103D01*
X112520533Y-84290617D01*
X112525114Y-84277525D01*
X112624532Y-84037514D01*
X112630564Y-84024992D01*
X112756217Y-83797643D01*
X112763602Y-83785890D01*
X112913933Y-83574023D01*
X112922585Y-83563173D01*
X113098202Y-83366662D01*
X113102959Y-83361632D01*
X113168242Y-83296351D01*
X113168249Y-83296340D01*
X117310120Y-79154471D01*
X117310121Y-79154468D01*
X117320910Y-79143680D01*
X117320912Y-79143676D01*
X124638387Y-71826201D01*
X124699709Y-71792718D01*
X124769401Y-71797702D01*
X124825334Y-71839574D01*
X124849751Y-71905038D01*
X124850067Y-71913884D01*
X124850067Y-72107515D01*
X124889422Y-72292670D01*
X124966417Y-72465603D01*
X125077680Y-72618745D01*
X125218355Y-72745409D01*
X125382291Y-72840057D01*
X125562318Y-72898551D01*
X125562319Y-72898551D01*
X125562322Y-72898552D01*
X125703389Y-72913379D01*
X125706631Y-72913379D01*
X125794529Y-72913379D01*
X125797771Y-72913379D01*
X125938838Y-72898552D01*
X126118869Y-72840057D01*
X126282804Y-72745409D01*
X126423478Y-72618746D01*
X126534743Y-72465603D01*
X126611736Y-72292673D01*
X126615746Y-72273810D01*
X126651093Y-72107515D01*
X145170067Y-72107515D01*
X145209422Y-72292670D01*
X145286417Y-72465603D01*
X145397680Y-72618745D01*
X145538355Y-72745409D01*
X145702291Y-72840057D01*
X145882318Y-72898551D01*
X145882319Y-72898551D01*
X145882322Y-72898552D01*
X146023389Y-72913379D01*
X146026631Y-72913379D01*
X146114529Y-72913379D01*
X146117771Y-72913379D01*
X146258838Y-72898552D01*
X146438869Y-72840057D01*
X146602804Y-72745409D01*
X146743478Y-72618746D01*
X146854743Y-72465603D01*
X146931736Y-72292673D01*
X146935746Y-72273810D01*
X146971093Y-72107515D01*
X146971093Y-71918216D01*
X146931737Y-71733061D01*
X146875411Y-71606551D01*
X146854743Y-71560130D01*
X146854399Y-71559656D01*
X146743479Y-71406986D01*
X146602804Y-71280322D01*
X146438868Y-71185674D01*
X146258841Y-71127180D01*
X146120991Y-71112691D01*
X146120982Y-71112690D01*
X146117771Y-71112353D01*
X146023389Y-71112353D01*
X146020178Y-71112690D01*
X146020168Y-71112691D01*
X145882318Y-71127180D01*
X145702291Y-71185674D01*
X145538356Y-71280322D01*
X145397683Y-71406984D01*
X145286416Y-71560130D01*
X145209422Y-71733061D01*
X145170067Y-71918216D01*
X145170067Y-72107515D01*
X126651093Y-72107515D01*
X126651093Y-71918216D01*
X126611737Y-71733061D01*
X126555411Y-71606551D01*
X126534743Y-71560130D01*
X126534399Y-71559656D01*
X126423479Y-71406986D01*
X126282804Y-71280322D01*
X126118868Y-71185674D01*
X125938841Y-71127180D01*
X125800991Y-71112691D01*
X125800982Y-71112690D01*
X125797771Y-71112353D01*
X125703389Y-71112353D01*
X125700181Y-71112690D01*
X125700165Y-71112691D01*
X125659240Y-71116993D01*
X125590510Y-71104423D01*
X125539487Y-71056691D01*
X125522369Y-70988951D01*
X125544592Y-70922709D01*
X125558593Y-70905996D01*
X126017221Y-70447368D01*
X126019159Y-70445473D01*
X126592362Y-69898161D01*
X126596513Y-69894378D01*
X127193192Y-69375157D01*
X127197571Y-69371520D01*
X127817584Y-68880416D01*
X127822122Y-68876989D01*
X128464171Y-68415031D01*
X128468841Y-68411832D01*
X129131529Y-67980026D01*
X129136339Y-67977048D01*
X129818286Y-67576294D01*
X129823241Y-67573534D01*
X130522962Y-67204706D01*
X130528020Y-67202188D01*
X131244004Y-66866080D01*
X131249207Y-66863782D01*
X131979967Y-66561093D01*
X131985258Y-66559044D01*
X132729203Y-66290431D01*
X132734548Y-66288639D01*
X133490137Y-66054660D01*
X133495631Y-66053098D01*
X134261124Y-65854290D01*
X134266699Y-65852979D01*
X134269264Y-65852438D01*
X135040609Y-65689725D01*
X135046215Y-65688677D01*
X135826789Y-65561347D01*
X135832460Y-65560555D01*
X136618160Y-65469402D01*
X136623788Y-65468881D01*
X137412815Y-65414113D01*
X137418531Y-65413849D01*
X138211322Y-65395533D01*
X138214187Y-65395500D01*
X138288051Y-65395500D01*
X164171766Y-65395500D01*
X164215611Y-65403510D01*
X164757599Y-65608394D01*
X164785533Y-65617536D01*
X164794962Y-65620622D01*
X164806825Y-65625190D01*
X164820197Y-65631144D01*
X164820198Y-65631144D01*
X164820200Y-65631145D01*
X165005352Y-65670500D01*
X165005354Y-65670500D01*
X165194648Y-65670500D01*
X165318084Y-65644262D01*
X165379803Y-65631144D01*
X165552730Y-65554151D01*
X165601288Y-65518872D01*
X165705870Y-65442889D01*
X165776132Y-65364856D01*
X165832533Y-65302216D01*
X165927179Y-65138284D01*
X165985674Y-64958256D01*
X166005460Y-64770000D01*
X165985674Y-64581744D01*
X165933557Y-64421345D01*
X165927179Y-64401715D01*
X165832533Y-64237783D01*
X165705870Y-64097110D01*
X165552730Y-63985848D01*
X165379802Y-63908855D01*
X165194648Y-63869500D01*
X165194646Y-63869500D01*
X165005354Y-63869500D01*
X165005352Y-63869500D01*
X164820196Y-63908855D01*
X164791937Y-63921437D01*
X164768400Y-63929205D01*
X164757596Y-63931605D01*
X164215609Y-64136489D01*
X164171763Y-64144500D01*
X138172752Y-64144500D01*
X138172673Y-64144509D01*
X138172515Y-64144514D01*
X137808523Y-64144514D01*
X137807192Y-64144572D01*
X137807150Y-64144573D01*
X137003476Y-64179663D01*
X137003455Y-64179664D01*
X137002135Y-64179722D01*
X137000811Y-64179837D01*
X137000793Y-64179839D01*
X136199407Y-64249951D01*
X136199398Y-64249951D01*
X136198049Y-64250070D01*
X136196701Y-64250247D01*
X136196696Y-64250248D01*
X135399159Y-64355245D01*
X135399127Y-64355249D01*
X135397797Y-64355425D01*
X135396483Y-64355656D01*
X135396442Y-64355663D01*
X134604230Y-64495351D01*
X134604192Y-64495358D01*
X134602902Y-64495586D01*
X134601636Y-64495866D01*
X134601594Y-64495875D01*
X133892877Y-64652994D01*
X133814878Y-64670286D01*
X133813611Y-64670625D01*
X133813572Y-64670635D01*
X133036502Y-64878850D01*
X133036478Y-64878856D01*
X133035224Y-64879193D01*
X133033993Y-64879581D01*
X133033966Y-64879589D01*
X132266701Y-65121507D01*
X132266685Y-65121512D01*
X132265424Y-65121910D01*
X132264176Y-65122364D01*
X132264159Y-65122370D01*
X131508221Y-65397507D01*
X131508172Y-65397525D01*
X131506944Y-65397973D01*
X131505722Y-65398479D01*
X131505689Y-65398492D01*
X130762476Y-65706340D01*
X130762435Y-65706358D01*
X130761228Y-65706858D01*
X130760028Y-65707417D01*
X130760002Y-65707429D01*
X130030935Y-66047398D01*
X130030923Y-66047403D01*
X130029694Y-66047977D01*
X130028513Y-66048591D01*
X130028474Y-66048611D01*
X129314944Y-66420050D01*
X129314919Y-66420063D01*
X129313737Y-66420679D01*
X129312597Y-66421336D01*
X129312559Y-66421358D01*
X128615874Y-66823589D01*
X128615854Y-66823601D01*
X128614718Y-66824257D01*
X128613608Y-66824964D01*
X128613600Y-66824969D01*
X127935111Y-67257213D01*
X127935084Y-67257230D01*
X127933968Y-67257942D01*
X127932886Y-67258699D01*
X127932848Y-67258725D01*
X127273891Y-67720130D01*
X127273855Y-67720155D01*
X127272783Y-67720907D01*
X127271720Y-67721722D01*
X127271710Y-67721730D01*
X126633499Y-68211444D01*
X126633475Y-68211462D01*
X126632421Y-68212272D01*
X126631425Y-68213107D01*
X126631391Y-68213135D01*
X126015105Y-68730259D01*
X126015068Y-68730290D01*
X126014102Y-68731102D01*
X126013150Y-68731974D01*
X126013131Y-68731991D01*
X125419989Y-69275503D01*
X125419974Y-69275516D01*
X125419002Y-69276408D01*
X125418067Y-69277342D01*
X125418044Y-69277365D01*
X125275106Y-69420304D01*
X125133629Y-69561781D01*
X125079924Y-69615485D01*
X125079922Y-69615487D01*
X120758229Y-73937180D01*
X116436138Y-78259270D01*
X116436137Y-78259271D01*
X112188083Y-82507326D01*
X112188066Y-82507343D01*
X112187906Y-82507504D01*
X112187859Y-82507563D01*
X112187755Y-82507673D01*
X112101775Y-82593652D01*
X112100044Y-82595714D01*
X112100042Y-82595717D01*
X111896297Y-82838525D01*
X111896283Y-82838542D01*
X111894568Y-82840587D01*
X111893030Y-82842782D01*
X111893018Y-82842799D01*
X111711219Y-83102430D01*
X111711210Y-83102444D01*
X111709671Y-83104642D01*
X111708332Y-83106959D01*
X111708325Y-83106972D01*
X111549843Y-83381465D01*
X111549832Y-83381485D01*
X111548492Y-83383807D01*
X111547353Y-83386248D01*
X111547347Y-83386261D01*
X111413403Y-83673501D01*
X111413397Y-83673515D01*
X111412258Y-83675958D01*
X111411335Y-83678492D01*
X111411332Y-83678501D01*
X111302929Y-83976330D01*
X111302923Y-83976347D01*
X111302005Y-83978871D01*
X111301309Y-83981466D01*
X111301304Y-83981484D01*
X111263738Y-84121676D01*
X111252113Y-84150241D01*
X110955991Y-84678180D01*
X110955137Y-84679784D01*
X110942289Y-84704375D01*
X110941857Y-84705246D01*
X110943371Y-84701972D01*
X110937354Y-84713862D01*
X110932821Y-84721713D01*
X110920480Y-84759694D01*
X110918143Y-84766251D01*
X110910896Y-84784915D01*
X110907327Y-84800175D01*
X110874326Y-84901744D01*
X110854540Y-85090000D01*
X47760000Y-85090000D01*
X47760000Y-67161491D01*
X65538223Y-67161491D01*
X65539021Y-67173217D01*
X65539273Y-67184022D01*
X65538546Y-67218777D01*
X65538548Y-67218784D01*
X65538548Y-67218790D01*
X65540122Y-67224596D01*
X65544151Y-67248599D01*
X65545619Y-67270168D01*
X65550144Y-67286576D01*
X65555219Y-67313762D01*
X65556192Y-67319796D01*
X65558940Y-67339991D01*
X65560754Y-67346346D01*
X65563405Y-67357599D01*
X65576552Y-67428008D01*
X65579321Y-67442840D01*
X65580335Y-67451185D01*
X65587343Y-67485803D01*
X65593825Y-67520515D01*
X65596012Y-67528622D01*
X65597453Y-67535738D01*
X65624582Y-67669737D01*
X65625203Y-67674398D01*
X65626374Y-67679952D01*
X65633340Y-67712996D01*
X65633859Y-67715559D01*
X65641173Y-67751686D01*
X65642450Y-67756214D01*
X65683705Y-67951903D01*
X65684160Y-67955146D01*
X65685560Y-67961615D01*
X65685561Y-67961616D01*
X65685855Y-67962973D01*
X65692811Y-67995095D01*
X65701314Y-68035433D01*
X65702229Y-68038588D01*
X65754441Y-68279703D01*
X65754826Y-68282356D01*
X65760525Y-68308117D01*
X65763806Y-68322950D01*
X65766128Y-68333671D01*
X65772661Y-68363840D01*
X65773416Y-68366401D01*
X65834475Y-68642454D01*
X65834778Y-68644479D01*
X65844071Y-68685831D01*
X65853213Y-68727166D01*
X65853796Y-68729116D01*
X65890965Y-68894523D01*
X65891086Y-68895321D01*
X65900728Y-68937971D01*
X65908332Y-68971811D01*
X65908335Y-68971824D01*
X65908517Y-68972632D01*
X65908617Y-68972897D01*
X65908652Y-68973028D01*
X65909000Y-68974563D01*
X65912069Y-69001979D01*
X65912069Y-69004224D01*
X65926776Y-69054317D01*
X65928744Y-69061896D01*
X65932283Y-69077547D01*
X65932284Y-69077549D01*
X65936195Y-69087781D01*
X65939345Y-69097120D01*
X65952614Y-69142313D01*
X65952616Y-69142316D01*
X65955566Y-69146907D01*
X65956611Y-69148532D01*
X65968119Y-69171291D01*
X65970759Y-69178198D01*
X65999293Y-69215674D01*
X66004950Y-69223751D01*
X66030425Y-69263390D01*
X66036014Y-69268233D01*
X66053471Y-69286831D01*
X66057945Y-69292707D01*
X66076977Y-69306714D01*
X66095886Y-69320630D01*
X66103589Y-69326786D01*
X66139197Y-69357641D01*
X66145913Y-69360708D01*
X66167906Y-69373636D01*
X66173857Y-69378016D01*
X66173858Y-69378016D01*
X66173859Y-69378017D01*
X66218154Y-69394128D01*
X66227240Y-69397848D01*
X66270112Y-69417428D01*
X66277432Y-69418480D01*
X66302165Y-69424686D01*
X66309111Y-69427213D01*
X66356135Y-69430190D01*
X66365929Y-69431203D01*
X66376770Y-69432763D01*
X66392807Y-69432763D01*
X66400646Y-69433011D01*
X66452745Y-69436311D01*
X66454940Y-69435815D01*
X66482282Y-69432763D01*
X69198037Y-69432763D01*
X69265076Y-69452448D01*
X69310831Y-69505252D01*
X69318848Y-69528823D01*
X69369498Y-69747829D01*
X69451085Y-70103989D01*
X69543336Y-70509316D01*
X69644920Y-70957787D01*
X69753860Y-71440544D01*
X69867261Y-71944640D01*
X69984807Y-72468596D01*
X70103650Y-72999675D01*
X70221403Y-73527160D01*
X70336638Y-74044630D01*
X70448211Y-74546963D01*
X70552997Y-75020130D01*
X70649983Y-75459595D01*
X70736552Y-75853596D01*
X70811072Y-76194813D01*
X70871712Y-76475036D01*
X70916043Y-76683263D01*
X70917875Y-76692205D01*
X70942031Y-76810113D01*
X70944486Y-76823224D01*
X70945263Y-76827919D01*
X70975336Y-77035190D01*
X70975885Y-77039506D01*
X71004413Y-77300194D01*
X71004735Y-77303560D01*
X71026825Y-77573238D01*
X71027042Y-77576382D01*
X71034255Y-77704337D01*
X71034451Y-77710823D01*
X71035736Y-78034232D01*
X71034871Y-78049355D01*
X71011737Y-78244068D01*
X71005992Y-78269387D01*
X70994711Y-78302536D01*
X70954478Y-78359659D01*
X70901464Y-78384214D01*
X70859176Y-78392608D01*
X70839666Y-78394894D01*
X70812725Y-78395901D01*
X70796417Y-78395437D01*
X70657506Y-78382299D01*
X70633179Y-78377508D01*
X70507081Y-78339248D01*
X70486143Y-78330743D01*
X70324626Y-78247251D01*
X70309957Y-78238329D01*
X70115850Y-78100997D01*
X70096906Y-78087594D01*
X70087760Y-78080458D01*
X69815099Y-77846410D01*
X69810994Y-77842725D01*
X69810607Y-77842362D01*
X69686823Y-77726156D01*
X69620238Y-77662359D01*
X69202507Y-77262119D01*
X69197843Y-77257404D01*
X69185139Y-77243857D01*
X69160062Y-77217115D01*
X69160061Y-77217114D01*
X69160060Y-77217113D01*
X69122094Y-77194769D01*
X69112817Y-77188737D01*
X69076985Y-77163091D01*
X69069889Y-77160616D01*
X69067096Y-77159641D01*
X69045049Y-77149430D01*
X69036025Y-77144119D01*
X69036022Y-77144117D01*
X68993287Y-77133372D01*
X68982690Y-77130199D01*
X68969719Y-77125675D01*
X68941092Y-77115690D01*
X68939386Y-77115604D01*
X68930631Y-77115166D01*
X68906601Y-77111578D01*
X68896448Y-77109025D01*
X68852429Y-77110756D01*
X68841359Y-77110697D01*
X68813960Y-77109325D01*
X68797349Y-77108494D01*
X68797348Y-77108494D01*
X68797347Y-77108494D01*
X68787155Y-77110940D01*
X68763094Y-77114267D01*
X68752636Y-77114678D01*
X68710891Y-77128738D01*
X68700257Y-77131799D01*
X68657401Y-77142086D01*
X68648316Y-77147302D01*
X68626166Y-77157274D01*
X68616242Y-77160616D01*
X68580138Y-77185876D01*
X68570797Y-77191809D01*
X68532586Y-77213747D01*
X68494355Y-77253648D01*
X68489643Y-77258310D01*
X68369245Y-77371213D01*
X68136914Y-77589080D01*
X68136913Y-77589082D01*
X68085912Y-77636908D01*
X67779109Y-77924608D01*
X67766947Y-77933359D01*
X67716127Y-77983607D01*
X67713770Y-77985876D01*
X67693371Y-78005007D01*
X67684360Y-78015017D01*
X67659045Y-78040048D01*
X67649854Y-78056657D01*
X67638194Y-78074068D01*
X67626335Y-78088892D01*
X67612829Y-78121833D01*
X67606596Y-78134826D01*
X67589357Y-78165978D01*
X67585218Y-78184501D01*
X67578936Y-78204492D01*
X67571735Y-78222054D01*
X67568056Y-78257464D01*
X67565737Y-78271682D01*
X67558844Y-78302536D01*
X67557973Y-78306434D01*
X67559026Y-78322422D01*
X67559220Y-78325373D01*
X67558824Y-78346331D01*
X67556862Y-78365210D01*
X67563309Y-78400223D01*
X67565091Y-78414523D01*
X67567431Y-78450046D01*
X67573960Y-78467858D01*
X67579484Y-78488076D01*
X67582887Y-78506554D01*
X67582924Y-78506753D01*
X67598486Y-78537565D01*
X67598972Y-78538527D01*
X67604712Y-78551752D01*
X67613328Y-78575256D01*
X67616964Y-78585175D01*
X67624888Y-78595885D01*
X67628254Y-78600435D01*
X67639253Y-78618283D01*
X67647806Y-78635218D01*
X67672154Y-78661184D01*
X67680788Y-78671535D01*
X67700419Y-78691389D01*
X67702696Y-78693753D01*
X67712208Y-78703896D01*
X67743776Y-78737561D01*
X67751606Y-78745910D01*
X67763431Y-78755115D01*
X68095367Y-79090819D01*
X68104701Y-79101402D01*
X68104794Y-79101520D01*
X68104796Y-79101522D01*
X68104797Y-79101523D01*
X68124195Y-79120046D01*
X68126734Y-79122541D01*
X68145607Y-79141629D01*
X68145716Y-79141711D01*
X68156474Y-79150869D01*
X68607010Y-79581084D01*
X68613231Y-79587469D01*
X68622136Y-79597295D01*
X68629133Y-79603091D01*
X68632742Y-79606081D01*
X68639265Y-79611884D01*
X68649217Y-79621386D01*
X68659981Y-79629063D01*
X68667079Y-79634522D01*
X69105762Y-79997891D01*
X69110656Y-80002167D01*
X69124949Y-80015328D01*
X69131178Y-80019602D01*
X69140121Y-80026352D01*
X69145939Y-80031171D01*
X69145943Y-80031174D01*
X69162519Y-80041313D01*
X69167956Y-80044838D01*
X69559934Y-80313798D01*
X69599002Y-80340605D01*
X69602271Y-80342928D01*
X69622968Y-80358137D01*
X69624095Y-80358739D01*
X69635788Y-80365847D01*
X69636845Y-80366572D01*
X69659918Y-80377962D01*
X69663454Y-80379780D01*
X70092956Y-80609388D01*
X70096121Y-80611080D01*
X70126502Y-80627963D01*
X70128497Y-80628872D01*
X70161156Y-80640725D01*
X70600843Y-80808436D01*
X70618304Y-80815280D01*
X70632091Y-80820684D01*
X70632093Y-80820684D01*
X70634235Y-80821524D01*
X70636487Y-80822031D01*
X70636494Y-80822034D01*
X70669173Y-80829396D01*
X71105685Y-80931954D01*
X71111840Y-80933569D01*
X71130807Y-80939068D01*
X71137977Y-80940074D01*
X71149114Y-80942158D01*
X71156173Y-80943817D01*
X71175878Y-80945554D01*
X71182154Y-80946271D01*
X71314845Y-80964887D01*
X71328423Y-80967600D01*
X71355698Y-80970667D01*
X71359064Y-80971092D01*
X71386028Y-80974875D01*
X71386220Y-80974902D01*
X71400031Y-80975652D01*
X71419600Y-80977852D01*
X71528985Y-80990154D01*
X71542181Y-80992423D01*
X71542599Y-80992458D01*
X71542604Y-80992460D01*
X71570170Y-80994826D01*
X71573218Y-80995128D01*
X71600731Y-80998223D01*
X71600737Y-80998222D01*
X71601157Y-80998270D01*
X71614535Y-80998636D01*
X71697542Y-81005763D01*
X71706017Y-81006789D01*
X71719994Y-81008975D01*
X71732868Y-81009132D01*
X71741955Y-81009577D01*
X71754784Y-81010680D01*
X71768891Y-81009872D01*
X71777452Y-81009679D01*
X71853246Y-81010610D01*
X71859246Y-81010831D01*
X71879743Y-81012089D01*
X71879744Y-81012088D01*
X71879746Y-81012089D01*
X71886191Y-81011562D01*
X71897814Y-81011158D01*
X71904298Y-81011238D01*
X71924634Y-81008567D01*
X71930638Y-81007928D01*
X72004062Y-81001926D01*
X72015148Y-81001519D01*
X72022916Y-81001584D01*
X72041990Y-80999000D01*
X72048496Y-80998294D01*
X72067678Y-80996727D01*
X72075245Y-80994999D01*
X72086181Y-80993015D01*
X72169770Y-80981694D01*
X72175725Y-80981287D01*
X72180539Y-80980584D01*
X72180544Y-80980584D01*
X72213401Y-80975786D01*
X72229803Y-80973565D01*
X72251124Y-80970678D01*
X72256954Y-80969426D01*
X72284690Y-80965376D01*
X72287056Y-80965056D01*
X72316248Y-80961415D01*
X72316255Y-80961412D01*
X72317995Y-80961196D01*
X72324815Y-80959771D01*
X72326491Y-80959274D01*
X72326496Y-80959274D01*
X72354672Y-80950933D01*
X72356927Y-80950290D01*
X72646188Y-80871189D01*
X72671030Y-80867050D01*
X72679202Y-80866532D01*
X72722755Y-80850682D01*
X72732421Y-80847609D01*
X72742228Y-80844928D01*
X72757667Y-80838221D01*
X72764636Y-80835443D01*
X72780461Y-80829686D01*
X72789430Y-80824881D01*
X72798559Y-80820462D01*
X72841063Y-80802003D01*
X72847351Y-80796756D01*
X72868228Y-80782669D01*
X73086619Y-80665679D01*
X73112224Y-80655443D01*
X73114238Y-80654888D01*
X73145385Y-80635595D01*
X73158748Y-80627318D01*
X73165484Y-80623431D01*
X73179765Y-80615783D01*
X73188464Y-80609378D01*
X73196662Y-80603834D01*
X73205844Y-80598148D01*
X73218265Y-80587740D01*
X73224357Y-80582954D01*
X73266541Y-80551901D01*
X73267805Y-80550238D01*
X73286843Y-80530287D01*
X73479229Y-80369113D01*
X73502317Y-80353932D01*
X73502609Y-80353658D01*
X73502613Y-80353657D01*
X73542825Y-80316069D01*
X73547826Y-80311644D01*
X73562279Y-80299538D01*
X73567719Y-80293466D01*
X73575375Y-80285647D01*
X73581335Y-80280077D01*
X73593130Y-80265380D01*
X73597457Y-80260279D01*
X73634189Y-80219288D01*
X73634190Y-80219284D01*
X73634461Y-80218983D01*
X73649156Y-80195578D01*
X73852713Y-79941968D01*
X73854304Y-79940030D01*
X73874288Y-79916165D01*
X73878247Y-79910564D01*
X73882279Y-79903739D01*
X73894080Y-79883756D01*
X73895401Y-79881575D01*
X73938857Y-79811373D01*
X73941245Y-79807664D01*
X73944607Y-79802642D01*
X73954988Y-79787131D01*
X73955959Y-79785103D01*
X73962364Y-79773399D01*
X73962521Y-79773143D01*
X73963541Y-79771498D01*
X73973423Y-79748852D01*
X73975257Y-79744844D01*
X74033753Y-79622813D01*
X74036934Y-79616630D01*
X74045707Y-79600703D01*
X74048813Y-79592463D01*
X74053019Y-79582619D01*
X74056837Y-79574657D01*
X74062283Y-79557304D01*
X74064566Y-79550694D01*
X74066964Y-79544337D01*
X74124853Y-79390837D01*
X74128739Y-79381668D01*
X74133299Y-79372011D01*
X74138107Y-79356369D01*
X74140586Y-79349120D01*
X74146355Y-79333826D01*
X74148663Y-79323393D01*
X74151192Y-79313809D01*
X74200106Y-79154711D01*
X74204349Y-79143036D01*
X74206062Y-79138974D01*
X74211777Y-79117129D01*
X74213209Y-79112096D01*
X74213921Y-79109780D01*
X74219847Y-79090508D01*
X74219848Y-79090499D01*
X74220045Y-79089860D01*
X74221273Y-79083545D01*
X74226627Y-79060551D01*
X74227402Y-79057416D01*
X74234330Y-79030941D01*
X74234330Y-79030934D01*
X74234390Y-79030708D01*
X74236723Y-79017188D01*
X74264582Y-78897534D01*
X74267100Y-78888344D01*
X74270631Y-78877166D01*
X74273114Y-78862067D01*
X74274689Y-78854131D01*
X74278160Y-78839226D01*
X74279167Y-78827531D01*
X74280348Y-78818100D01*
X74299809Y-78699802D01*
X74301129Y-78692985D01*
X74305098Y-78675185D01*
X74305768Y-78666448D01*
X74307047Y-78655812D01*
X74308473Y-78647149D01*
X74308841Y-78628903D01*
X74309179Y-78621948D01*
X74309461Y-78618283D01*
X74318924Y-78494868D01*
X74319942Y-78485902D01*
X74321882Y-78473023D01*
X74321975Y-78459045D01*
X74322335Y-78450392D01*
X74322468Y-78448660D01*
X74323404Y-78436456D01*
X74322541Y-78423472D01*
X74322272Y-78414435D01*
X74323251Y-78267818D01*
X74324019Y-78254850D01*
X74324354Y-78251870D01*
X74323605Y-78227859D01*
X74323549Y-78223245D01*
X74323710Y-78199226D01*
X74323303Y-78196257D01*
X74322216Y-78183293D01*
X74320603Y-78131547D01*
X74316300Y-77993510D01*
X74316511Y-77987508D01*
X74316057Y-77976623D01*
X74314930Y-77949564D01*
X74314693Y-77941967D01*
X74314856Y-77936315D01*
X74314152Y-77923479D01*
X74314025Y-77920527D01*
X74314023Y-77920468D01*
X74313896Y-77916362D01*
X74313895Y-77916359D01*
X74313756Y-77911868D01*
X74313296Y-77907868D01*
X74312873Y-77900152D01*
X74311519Y-77867638D01*
X74311517Y-77867632D01*
X74311354Y-77863696D01*
X74310470Y-77856339D01*
X74310279Y-77852849D01*
X74300783Y-77679690D01*
X74300818Y-77665521D01*
X74300820Y-77665504D01*
X74298582Y-77638646D01*
X74298340Y-77635140D01*
X74296991Y-77610529D01*
X74296865Y-77608238D01*
X74296861Y-77608218D01*
X74294874Y-77594162D01*
X74279687Y-77411899D01*
X74279313Y-77398000D01*
X74279334Y-77397293D01*
X74276348Y-77371151D01*
X74275982Y-77367434D01*
X74275980Y-77367415D01*
X74273802Y-77341259D01*
X74273644Y-77340576D01*
X74271291Y-77326855D01*
X74268552Y-77302864D01*
X74249126Y-77132708D01*
X74248327Y-77118589D01*
X74248327Y-77118457D01*
X74247785Y-77114678D01*
X74244515Y-77091874D01*
X74244065Y-77088378D01*
X74241022Y-77061715D01*
X74240986Y-77061579D01*
X74238188Y-77047741D01*
X74207288Y-76832229D01*
X74206250Y-76819762D01*
X74206100Y-76818871D01*
X74206100Y-76818862D01*
X74201409Y-76790972D01*
X74200950Y-76788021D01*
X74200102Y-76782105D01*
X74196947Y-76760096D01*
X74196944Y-76760087D01*
X74196816Y-76759191D01*
X74194012Y-76746992D01*
X74193985Y-76746830D01*
X74152437Y-76499776D01*
X74151386Y-76489754D01*
X74150559Y-76485345D01*
X74145226Y-76456901D01*
X74140067Y-76426221D01*
X74139687Y-76423960D01*
X74137215Y-76414170D01*
X74082804Y-76123963D01*
X74081890Y-76116429D01*
X74081133Y-76112673D01*
X74081133Y-76112670D01*
X74074729Y-76080897D01*
X74068756Y-76049034D01*
X74068755Y-76049033D01*
X74068052Y-76045279D01*
X74066075Y-76037951D01*
X74060987Y-76012702D01*
X73996542Y-75692917D01*
X73995837Y-75687604D01*
X73993636Y-75677182D01*
X73987820Y-75649636D01*
X73981215Y-75616859D01*
X73981214Y-75616856D01*
X73980176Y-75611705D01*
X73978724Y-75606558D01*
X73891781Y-75194794D01*
X73891321Y-75191512D01*
X73889916Y-75185036D01*
X73889916Y-75185033D01*
X73882592Y-75151273D01*
X73875511Y-75117735D01*
X73875510Y-75117734D01*
X73874150Y-75111289D01*
X73873228Y-75108111D01*
X73789862Y-74723846D01*
X73789187Y-74719253D01*
X73780490Y-74680645D01*
X73772117Y-74642044D01*
X73770792Y-74637592D01*
X73546706Y-73642776D01*
X73545489Y-73635086D01*
X73537075Y-73600016D01*
X73529169Y-73564918D01*
X73526868Y-73557479D01*
X73457979Y-73270362D01*
X73307919Y-72644941D01*
X73306372Y-72636051D01*
X73305638Y-72633201D01*
X73305638Y-72633196D01*
X73299538Y-72609502D01*
X73297745Y-72602535D01*
X73289665Y-72568860D01*
X73286863Y-72560265D01*
X73273286Y-72507523D01*
X73071480Y-71723592D01*
X73069532Y-71713461D01*
X73065726Y-71699776D01*
X73060652Y-71681528D01*
X73052928Y-71651520D01*
X73052927Y-71651519D01*
X73052390Y-71649430D01*
X73049014Y-71639673D01*
X72835373Y-70871348D01*
X72832939Y-70859971D01*
X72831190Y-70854183D01*
X72824177Y-70830970D01*
X72823438Y-70828424D01*
X72815681Y-70800523D01*
X72815677Y-70800515D01*
X72815303Y-70799168D01*
X72811272Y-70788249D01*
X72597969Y-70082174D01*
X72595440Y-70071483D01*
X72594890Y-70069790D01*
X72594889Y-70069783D01*
X72585798Y-70041799D01*
X72585050Y-70039409D01*
X72584659Y-70038114D01*
X72576576Y-70011357D01*
X72576574Y-70011353D01*
X72576061Y-70009654D01*
X72572036Y-69999433D01*
X72523810Y-69850974D01*
X72442231Y-69599845D01*
X72440242Y-69530006D01*
X72476326Y-69470176D01*
X72539029Y-69439352D01*
X72558866Y-69437547D01*
X72774502Y-69435377D01*
X72775505Y-69435367D01*
X73156098Y-69433570D01*
X73619726Y-69432820D01*
X73825307Y-69432763D01*
X74248957Y-69433346D01*
X74642218Y-69435011D01*
X74996225Y-69437638D01*
X75300948Y-69441094D01*
X75358050Y-69442057D01*
X75424742Y-69462869D01*
X75469600Y-69516437D01*
X75477216Y-69540132D01*
X75511498Y-69700605D01*
X75511514Y-69700700D01*
X75511524Y-69700827D01*
X75511603Y-69701199D01*
X75511605Y-69701206D01*
X75513898Y-69711907D01*
X75518562Y-69733669D01*
X75526438Y-69770534D01*
X75526485Y-69770663D01*
X75526506Y-69770747D01*
X75584878Y-70043146D01*
X75585723Y-70047088D01*
X75585736Y-70047162D01*
X75585743Y-70047255D01*
X75585801Y-70047527D01*
X75585805Y-70047547D01*
X75591800Y-70075464D01*
X75593296Y-70082429D01*
X75600646Y-70116730D01*
X75602542Y-70125574D01*
X75602615Y-70125826D01*
X75672635Y-70451904D01*
X75672646Y-70451967D01*
X75672651Y-70452028D01*
X75672689Y-70452208D01*
X75672691Y-70452215D01*
X75675427Y-70464934D01*
X75679861Y-70485551D01*
X75687660Y-70521870D01*
X75687684Y-70521935D01*
X75687697Y-70521987D01*
X75770854Y-70908626D01*
X75770863Y-70908676D01*
X75770867Y-70908730D01*
X75770898Y-70908877D01*
X75770901Y-70908890D01*
X75776195Y-70933471D01*
X75777827Y-70941047D01*
X75785903Y-70978595D01*
X75785920Y-70978642D01*
X75785933Y-70978693D01*
X75877149Y-71402249D01*
X75877169Y-71402389D01*
X75879009Y-71410928D01*
X75879010Y-71410929D01*
X75879417Y-71412817D01*
X75885903Y-71442901D01*
X75895964Y-71489617D01*
X75896004Y-71489752D01*
X75995688Y-71952113D01*
X75995694Y-71952152D01*
X75995698Y-71952195D01*
X75995723Y-71952312D01*
X75995727Y-71952333D01*
X76003038Y-71986203D01*
X76008465Y-72011377D01*
X76010773Y-72022079D01*
X76010786Y-72022115D01*
X76010797Y-72022158D01*
X76119537Y-72526008D01*
X76119545Y-72526052D01*
X76119548Y-72526088D01*
X76119572Y-72526202D01*
X76119573Y-72526204D01*
X76121655Y-72535840D01*
X76126728Y-72559324D01*
X76133455Y-72590495D01*
X76136536Y-72604768D01*
X76136570Y-72604884D01*
X76249166Y-73126090D01*
X76249172Y-73126122D01*
X76249174Y-73126142D01*
X76249190Y-73126216D01*
X76249194Y-73126237D01*
X76252897Y-73143369D01*
X76252924Y-73143519D01*
X76252938Y-73143709D01*
X76253055Y-73144250D01*
X76253058Y-73144264D01*
X76259934Y-73175929D01*
X76263494Y-73192410D01*
X76264283Y-73196059D01*
X76264290Y-73196078D01*
X76264299Y-73196114D01*
X76267882Y-73212687D01*
X76267886Y-73212704D01*
X76268002Y-73213239D01*
X76268065Y-73213412D01*
X76268103Y-73213558D01*
X76476750Y-74174520D01*
X76476818Y-74174895D01*
X76476852Y-74175345D01*
X76477132Y-74176624D01*
X76477133Y-74176626D01*
X76484392Y-74209712D01*
X76493566Y-74251963D01*
X76493941Y-74253238D01*
X76681964Y-75110225D01*
X76682200Y-75111830D01*
X76691509Y-75153731D01*
X76700674Y-75195499D01*
X76701132Y-75197044D01*
X76872813Y-75969744D01*
X76873110Y-75971718D01*
X76876655Y-75987428D01*
X76881297Y-76008007D01*
X76882479Y-76013243D01*
X76891645Y-76054500D01*
X76892214Y-76056399D01*
X77048243Y-76747983D01*
X77048616Y-76750406D01*
X77058041Y-76791412D01*
X77067246Y-76832214D01*
X77067954Y-76834543D01*
X77209026Y-77448288D01*
X77209498Y-77451267D01*
X77211050Y-77457869D01*
X77211051Y-77457872D01*
X77218971Y-77491551D01*
X77224509Y-77515643D01*
X77228212Y-77531755D01*
X77229102Y-77534637D01*
X77355913Y-78073885D01*
X77356525Y-78077615D01*
X77366050Y-78116993D01*
X77375314Y-78156385D01*
X77376448Y-78159982D01*
X77489693Y-78628167D01*
X77490500Y-78632867D01*
X77498912Y-78666448D01*
X77500074Y-78671085D01*
X77507024Y-78699817D01*
X77509334Y-78709364D01*
X77510796Y-78713888D01*
X77611166Y-79114555D01*
X77612252Y-79120539D01*
X77613913Y-79126882D01*
X77621845Y-79157180D01*
X77628384Y-79183282D01*
X77631069Y-79193999D01*
X77632997Y-79199778D01*
X77721179Y-79536603D01*
X77722681Y-79544337D01*
X77732246Y-79578873D01*
X77734499Y-79587476D01*
X77740099Y-79608868D01*
X77741355Y-79613663D01*
X77743949Y-79621127D01*
X77820051Y-79895905D01*
X77821419Y-79902494D01*
X77831772Y-79938226D01*
X77836272Y-79954475D01*
X77840538Y-79969875D01*
X77840539Y-79969878D01*
X77841703Y-79974079D01*
X77843990Y-79980396D01*
X77847188Y-79991434D01*
X77847581Y-79993256D01*
X77850247Y-80002353D01*
X77859566Y-80034155D01*
X77869272Y-80067651D01*
X77871429Y-80075097D01*
X77872074Y-80076837D01*
X77967879Y-80403765D01*
X77987051Y-80471135D01*
X78002922Y-80496291D01*
X78010871Y-80511003D01*
X78023216Y-80538072D01*
X78039478Y-80556860D01*
X78050592Y-80571846D01*
X78063847Y-80592854D01*
X78063848Y-80592855D01*
X78074869Y-80602567D01*
X78086158Y-80612515D01*
X78097933Y-80624393D01*
X78107629Y-80635595D01*
X78117410Y-80646894D01*
X78138303Y-80660337D01*
X78153187Y-80671581D01*
X78171828Y-80688008D01*
X78198781Y-80700589D01*
X78213415Y-80708665D01*
X78231966Y-80720601D01*
X78238444Y-80724769D01*
X78262276Y-80731780D01*
X78279726Y-80738376D01*
X78302240Y-80748886D01*
X78331652Y-80753365D01*
X78347977Y-80756993D01*
X78376512Y-80765389D01*
X78446572Y-80765426D01*
X78446573Y-80765426D01*
X79867387Y-80777282D01*
X79869233Y-80777427D01*
X79876881Y-80777467D01*
X79876883Y-80777468D01*
X79910236Y-80777645D01*
X79912155Y-80777656D01*
X79912889Y-80777662D01*
X79946977Y-80777947D01*
X79946982Y-80777946D01*
X79954629Y-80778010D01*
X79956434Y-80777892D01*
X80228015Y-80779343D01*
X80231760Y-80779620D01*
X80238056Y-80779613D01*
X80238058Y-80779614D01*
X80272297Y-80779580D01*
X80312795Y-80779797D01*
X80316539Y-80779536D01*
X80557813Y-80779299D01*
X80562157Y-80779590D01*
X80568067Y-80779540D01*
X80568072Y-80779541D01*
X80601094Y-80779263D01*
X80601945Y-80779256D01*
X80602005Y-80779255D01*
X80635955Y-80779223D01*
X80635962Y-80779221D01*
X80641853Y-80779216D01*
X80646205Y-80778884D01*
X80845976Y-80777206D01*
X80851817Y-80777544D01*
X80856733Y-80777452D01*
X80856743Y-80777454D01*
X80888685Y-80776860D01*
X80889988Y-80776836D01*
X80891662Y-80776821D01*
X80923242Y-80776557D01*
X80923245Y-80776556D01*
X80928183Y-80776515D01*
X80934003Y-80776018D01*
X81083253Y-80773245D01*
X81092812Y-80773667D01*
X81095421Y-80773572D01*
X81095426Y-80773573D01*
X81123818Y-80772543D01*
X81126764Y-80772437D01*
X81128915Y-80772397D01*
X81158168Y-80771854D01*
X81158171Y-80771853D01*
X81160778Y-80771805D01*
X81170316Y-80770858D01*
X81266618Y-80767369D01*
X81278389Y-80767502D01*
X81284486Y-80767862D01*
X81305335Y-80766105D01*
X81311176Y-80765754D01*
X81332064Y-80764998D01*
X81338072Y-80763910D01*
X81349748Y-80762366D01*
X81357091Y-80761748D01*
X81377898Y-80761748D01*
X81397202Y-80763375D01*
X81431702Y-80756323D01*
X81444494Y-80754485D01*
X81445151Y-80754333D01*
X81445154Y-80754333D01*
X81472430Y-80748037D01*
X81475329Y-80747407D01*
X81500137Y-80742337D01*
X81511482Y-80740020D01*
X81511528Y-80740249D01*
X81517485Y-80738705D01*
X81532182Y-80736301D01*
X81532184Y-80736299D01*
X81535092Y-80735824D01*
X81548069Y-80731272D01*
X81550143Y-80730105D01*
X81550149Y-80730104D01*
X81567047Y-80720598D01*
X81579074Y-80715106D01*
X81603788Y-80702012D01*
X81608137Y-80699815D01*
X81661914Y-80673986D01*
X81661915Y-80673984D01*
X81665562Y-80672233D01*
X81675346Y-80665390D01*
X81678237Y-80662570D01*
X81678240Y-80662569D01*
X81720975Y-80620895D01*
X81724477Y-80617612D01*
X81768834Y-80577646D01*
X81768836Y-80577641D01*
X81771835Y-80574940D01*
X81779302Y-80565609D01*
X81781280Y-80562091D01*
X81781282Y-80562090D01*
X81810548Y-80510060D01*
X81812992Y-80505911D01*
X81844282Y-80455084D01*
X81844282Y-80455081D01*
X81846394Y-80451652D01*
X81850937Y-80440580D01*
X81851842Y-80436653D01*
X81851844Y-80436652D01*
X81865261Y-80378506D01*
X81866449Y-80373785D01*
X81868416Y-80366572D01*
X81882144Y-80316231D01*
X81882143Y-80316226D01*
X81883204Y-80312339D01*
X81884442Y-80300439D01*
X81884205Y-80296418D01*
X81884206Y-80296415D01*
X81880698Y-80236844D01*
X81880510Y-80232011D01*
X81880054Y-80208497D01*
X81879492Y-80205062D01*
X81878078Y-80192331D01*
X81875748Y-80152742D01*
X81871778Y-80141675D01*
X81866837Y-80123785D01*
X81863420Y-80106443D01*
X81862708Y-80102493D01*
X81858560Y-80077142D01*
X81858559Y-80077141D01*
X81858559Y-80077136D01*
X81858174Y-80075915D01*
X81854796Y-80062675D01*
X81845073Y-80013330D01*
X81844204Y-80006618D01*
X81836575Y-79970191D01*
X81836513Y-79969875D01*
X81830240Y-79938038D01*
X81830238Y-79938034D01*
X81829400Y-79933778D01*
X81827585Y-79927272D01*
X81809514Y-79840992D01*
X81808289Y-79834195D01*
X81805547Y-79816099D01*
X81803037Y-79807789D01*
X81800380Y-79797376D01*
X81798599Y-79788869D01*
X81792321Y-79771632D01*
X81790146Y-79765096D01*
X81741812Y-79605031D01*
X81737064Y-79580795D01*
X81736181Y-79571390D01*
X81729238Y-79553972D01*
X81719484Y-79529499D01*
X81715965Y-79519431D01*
X81715811Y-79518922D01*
X81713390Y-79510903D01*
X81711558Y-79506972D01*
X81705761Y-79494530D01*
X81702971Y-79488070D01*
X81698147Y-79475968D01*
X81696284Y-79471293D01*
X81691835Y-79463561D01*
X81686923Y-79454104D01*
X81667879Y-79413232D01*
X81661643Y-79406146D01*
X81647251Y-79386066D01*
X81609412Y-79320296D01*
X81609122Y-79319568D01*
X81600428Y-79304501D01*
X81600428Y-79304499D01*
X81564374Y-79242013D01*
X81546926Y-79211685D01*
X81546768Y-79211410D01*
X81524713Y-79183350D01*
X81469827Y-79113338D01*
X81469248Y-79112784D01*
X81467685Y-79110795D01*
X81210899Y-78772159D01*
X81204925Y-78763548D01*
X81193764Y-78745910D01*
X80964635Y-78383799D01*
X80960176Y-78376160D01*
X80719886Y-77928281D01*
X80716607Y-77921705D01*
X80626230Y-77726156D01*
X80475652Y-77400348D01*
X80473260Y-77394823D01*
X80462943Y-77369313D01*
X80230787Y-76795256D01*
X80229050Y-76790707D01*
X80228994Y-76790550D01*
X79983829Y-76108237D01*
X79982581Y-76104581D01*
X79733048Y-75334349D01*
X79732191Y-75331595D01*
X79578979Y-74818248D01*
X79524369Y-74635275D01*
X79523687Y-74632902D01*
X79464076Y-74417504D01*
X79386057Y-74121138D01*
X79293792Y-73760022D01*
X79190896Y-73348591D01*
X79080935Y-72901171D01*
X78967321Y-72431492D01*
X78853503Y-71953448D01*
X78765008Y-71576003D01*
X78667014Y-71154936D01*
X78548160Y-70644238D01*
X78548156Y-70644228D01*
X78545265Y-70631807D01*
X78470769Y-70311709D01*
X78466662Y-70294059D01*
X78458714Y-70259909D01*
X78458713Y-70259906D01*
X78439636Y-70177940D01*
X78369413Y-69876212D01*
X78369409Y-69876204D01*
X78368333Y-69871582D01*
X78315102Y-69642860D01*
X78310597Y-69623501D01*
X78309823Y-69620177D01*
X78307716Y-69611124D01*
X78305765Y-69602740D01*
X78309740Y-69532986D01*
X78350796Y-69476452D01*
X78415900Y-69451089D01*
X78431985Y-69450754D01*
X78534789Y-69455308D01*
X78550802Y-69456018D01*
X78555222Y-69456292D01*
X78750771Y-69472006D01*
X78758662Y-69472898D01*
X78899635Y-69493429D01*
X78909639Y-69495309D01*
X79036658Y-69524643D01*
X79044504Y-69526729D01*
X79154247Y-69559791D01*
X79166206Y-69564074D01*
X79499236Y-69703007D01*
X79516584Y-69711905D01*
X79631954Y-69783066D01*
X79834157Y-69907786D01*
X79848007Y-69917704D01*
X80185146Y-70196054D01*
X80193961Y-70204074D01*
X80221668Y-70231832D01*
X80441647Y-70452215D01*
X80452862Y-70463450D01*
X80455787Y-70466482D01*
X80755792Y-70788249D01*
X80847022Y-70886096D01*
X80851221Y-70890838D01*
X80887240Y-70933674D01*
X80923364Y-70957655D01*
X80932509Y-70964348D01*
X80950337Y-70978693D01*
X80966298Y-70991536D01*
X80976621Y-70995803D01*
X80997834Y-71007091D01*
X81007146Y-71013273D01*
X81048566Y-71026105D01*
X81059230Y-71029951D01*
X81099304Y-71046517D01*
X81110412Y-71047703D01*
X81133940Y-71052555D01*
X81144622Y-71055865D01*
X81187975Y-71056507D01*
X81199279Y-71057193D01*
X81242413Y-71061800D01*
X81253416Y-71059806D01*
X81277356Y-71057835D01*
X81288529Y-71058001D01*
X81330322Y-71046399D01*
X81341334Y-71043879D01*
X81384030Y-71036145D01*
X81394014Y-71031137D01*
X81416445Y-71022494D01*
X81427208Y-71019507D01*
X81464024Y-70996610D01*
X81473925Y-70991065D01*
X81512682Y-70971630D01*
X81553617Y-70933462D01*
X81558366Y-70929257D01*
X81566154Y-70922709D01*
X81903939Y-70638682D01*
X81904588Y-70638212D01*
X81938334Y-70609762D01*
X81938334Y-70609761D01*
X81965361Y-70587037D01*
X81965362Y-70587034D01*
X81971861Y-70581571D01*
X81972420Y-70581025D01*
X82066908Y-70501368D01*
X82068305Y-70500349D01*
X82100827Y-70472774D01*
X82108281Y-70466490D01*
X82127774Y-70450057D01*
X82127778Y-70450052D01*
X82133670Y-70445085D01*
X82134906Y-70443879D01*
X82169638Y-70414430D01*
X82204936Y-70384499D01*
X82207146Y-70382877D01*
X82238833Y-70355761D01*
X82256624Y-70340676D01*
X82265265Y-70333350D01*
X82265266Y-70333348D01*
X82270639Y-70328793D01*
X82272586Y-70326875D01*
X82303893Y-70300085D01*
X82310095Y-70295436D01*
X82312888Y-70292977D01*
X82312892Y-70292975D01*
X82337158Y-70271618D01*
X82355997Y-70255497D01*
X82364182Y-70249076D01*
X82394862Y-70227043D01*
X82430683Y-70181111D01*
X82434121Y-70176899D01*
X82473758Y-70130440D01*
X82482322Y-70116203D01*
X82483368Y-70113558D01*
X82483371Y-70113555D01*
X82504812Y-70059363D01*
X82506895Y-70054416D01*
X82530694Y-70001229D01*
X82530694Y-70001224D01*
X82531852Y-69998638D01*
X82536062Y-69982551D01*
X82536320Y-69979728D01*
X82536321Y-69979726D01*
X82541622Y-69921726D01*
X82542231Y-69916355D01*
X82550082Y-69858618D01*
X82550081Y-69858613D01*
X82550464Y-69855798D01*
X82549972Y-69839189D01*
X82547763Y-69827970D01*
X82538169Y-69779254D01*
X82537236Y-69773899D01*
X82536842Y-69771301D01*
X82528506Y-69716323D01*
X82527900Y-69715023D01*
X82519805Y-69697651D01*
X82510141Y-69667134D01*
X82508516Y-69658059D01*
X82493915Y-69628800D01*
X82490270Y-69620177D01*
X82474461Y-69589815D01*
X82466596Y-69574055D01*
X82460402Y-69561642D01*
X82460399Y-69561637D01*
X82459178Y-69559191D01*
X82454344Y-69551177D01*
X82439249Y-69522183D01*
X82424067Y-69506390D01*
X82411518Y-69491050D01*
X82384866Y-69452562D01*
X82379389Y-69443906D01*
X82374419Y-69435284D01*
X82372439Y-69432763D01*
X82363884Y-69421869D01*
X82359477Y-69415897D01*
X82349772Y-69401881D01*
X82343004Y-69394593D01*
X82336342Y-69386797D01*
X82260550Y-69290285D01*
X82252460Y-69278675D01*
X82252412Y-69278597D01*
X82235234Y-69257966D01*
X82233004Y-69255209D01*
X82216387Y-69234049D01*
X82216309Y-69233975D01*
X82206661Y-69223646D01*
X82106605Y-69103472D01*
X82100616Y-69095299D01*
X82094113Y-69087781D01*
X82078766Y-69070037D01*
X82058887Y-69046160D01*
X82058886Y-69046159D01*
X82057419Y-69044397D01*
X82050346Y-69037178D01*
X82044023Y-69029867D01*
X81930167Y-68898229D01*
X81925030Y-68891462D01*
X81922863Y-68889033D01*
X81922861Y-68889030D01*
X81901582Y-68865180D01*
X81880698Y-68841034D01*
X81880694Y-68841030D01*
X81878566Y-68838570D01*
X81872505Y-68832590D01*
X81740163Y-68684259D01*
X81734999Y-68677670D01*
X81711088Y-68651673D01*
X81687539Y-68625279D01*
X81681476Y-68619478D01*
X81679135Y-68616933D01*
X81545782Y-68471946D01*
X81539804Y-68464567D01*
X81530809Y-68455124D01*
X81516290Y-68439881D01*
X81495016Y-68416751D01*
X81495014Y-68416749D01*
X81493213Y-68414791D01*
X81486244Y-68408337D01*
X81362454Y-68278375D01*
X81355948Y-68271544D01*
X81348042Y-68262186D01*
X81327201Y-68241314D01*
X81325159Y-68239221D01*
X81305546Y-68218629D01*
X81305541Y-68218625D01*
X81304819Y-68217867D01*
X81295665Y-68209731D01*
X81181501Y-68095396D01*
X81173361Y-68086209D01*
X81172615Y-68085497D01*
X81172614Y-68085495D01*
X81152025Y-68065829D01*
X81150013Y-68063861D01*
X81129904Y-68043722D01*
X81129903Y-68043721D01*
X81129173Y-68042990D01*
X81119793Y-68035042D01*
X81116568Y-68031962D01*
X81107543Y-68023341D01*
X81100415Y-68015945D01*
X81098927Y-68014267D01*
X81093839Y-68008529D01*
X81093837Y-68008527D01*
X81093836Y-68008526D01*
X81080791Y-67997481D01*
X81075268Y-67992514D01*
X81062919Y-67980718D01*
X81061977Y-67980046D01*
X81054860Y-67974968D01*
X81046751Y-67968660D01*
X80602973Y-67592923D01*
X80601018Y-67591232D01*
X80579157Y-67571913D01*
X80577909Y-67570810D01*
X80572032Y-67566419D01*
X80545829Y-67549999D01*
X80543618Y-67548580D01*
X80081468Y-67245161D01*
X84104147Y-67245161D01*
X84105111Y-67252725D01*
X84106102Y-67269055D01*
X84105920Y-67302959D01*
X84105762Y-67308595D01*
X84104664Y-67330168D01*
X84105159Y-67335542D01*
X84105679Y-67347571D01*
X84105650Y-67352965D01*
X84108605Y-67374340D01*
X84109250Y-67379938D01*
X84114777Y-67439905D01*
X84120872Y-67463054D01*
X84125537Y-67496786D01*
X84126527Y-67507121D01*
X84127044Y-67516745D01*
X84130433Y-67533770D01*
X84131650Y-67540994D01*
X84134023Y-67558162D01*
X84134025Y-67558168D01*
X84136693Y-67567442D01*
X84139139Y-67577511D01*
X84163520Y-67700003D01*
X84165404Y-67713057D01*
X84165630Y-67715559D01*
X84171278Y-67739391D01*
X84172227Y-67743745D01*
X84177010Y-67767776D01*
X84177841Y-67770129D01*
X84181567Y-67782799D01*
X84214824Y-67923110D01*
X84217233Y-67936517D01*
X84217406Y-67937923D01*
X84224119Y-67962611D01*
X84225120Y-67966547D01*
X84231013Y-67991413D01*
X84231527Y-67992715D01*
X84235823Y-68005656D01*
X84270317Y-68132513D01*
X84275104Y-68150116D01*
X84277925Y-68163275D01*
X84278212Y-68165089D01*
X84285638Y-68189128D01*
X84286818Y-68193193D01*
X84293410Y-68217440D01*
X84294136Y-68219117D01*
X84298802Y-68231746D01*
X84327274Y-68323911D01*
X84329859Y-68333671D01*
X84332096Y-68343765D01*
X84337978Y-68359347D01*
X84340441Y-68366531D01*
X84345356Y-68382440D01*
X84349786Y-68391792D01*
X84353734Y-68401088D01*
X84449656Y-68655217D01*
X84452806Y-68664703D01*
X84455738Y-68674889D01*
X84462473Y-68689847D01*
X84465414Y-68696962D01*
X84471201Y-68712294D01*
X84475840Y-68720712D01*
X84476317Y-68721577D01*
X84480780Y-68730512D01*
X84574186Y-68937971D01*
X84608023Y-69013125D01*
X84612336Y-69024063D01*
X84614310Y-69029862D01*
X84614312Y-69029867D01*
X84623785Y-69048478D01*
X84626343Y-69053814D01*
X84634913Y-69072849D01*
X84634915Y-69072852D01*
X84638189Y-69078008D01*
X84644019Y-69088231D01*
X84648697Y-69097422D01*
X84789294Y-69373646D01*
X84794210Y-69384584D01*
X84796233Y-69389741D01*
X84806821Y-69408370D01*
X84809522Y-69413387D01*
X84818591Y-69431205D01*
X84819256Y-69432510D01*
X84822452Y-69437048D01*
X84828873Y-69447173D01*
X84982348Y-69717229D01*
X84987267Y-69726835D01*
X84990831Y-69734612D01*
X84990833Y-69734616D01*
X84994527Y-69740349D01*
X85000814Y-69750106D01*
X85004382Y-69755997D01*
X85013492Y-69772027D01*
X85018742Y-69778797D01*
X85024983Y-69787614D01*
X85176755Y-70023147D01*
X85181070Y-70030370D01*
X85188125Y-70043146D01*
X85195599Y-70053033D01*
X85200914Y-70060640D01*
X85207630Y-70071063D01*
X85217204Y-70082084D01*
X85222504Y-70088621D01*
X85333309Y-70235186D01*
X85335517Y-70238201D01*
X85350807Y-70259746D01*
X85351211Y-70260171D01*
X85360248Y-70270820D01*
X85360596Y-70271280D01*
X85379346Y-70289854D01*
X85381923Y-70292484D01*
X85626918Y-70550248D01*
X85698575Y-70625640D01*
X85700334Y-70628104D01*
X85760224Y-70690501D01*
X85784846Y-70716408D01*
X85812950Y-70738360D01*
X85827026Y-70749466D01*
X85864581Y-70779097D01*
X85880956Y-70792016D01*
X85883573Y-70793524D01*
X86154216Y-71004923D01*
X86165751Y-71016594D01*
X86171339Y-71020701D01*
X86171340Y-71020702D01*
X86221968Y-71057911D01*
X86224845Y-71060093D01*
X86245843Y-71076494D01*
X86246132Y-71076660D01*
X86257909Y-71084326D01*
X86258167Y-71084516D01*
X86281654Y-71097074D01*
X86284818Y-71098826D01*
X86345351Y-71133510D01*
X86360695Y-71139335D01*
X86651303Y-71294715D01*
X86668710Y-71306986D01*
X86672291Y-71308722D01*
X86725960Y-71334742D01*
X86730290Y-71336947D01*
X86750968Y-71348004D01*
X86754282Y-71349207D01*
X86766064Y-71354185D01*
X86769252Y-71355731D01*
X86791600Y-71362856D01*
X86796225Y-71364432D01*
X86852256Y-71384771D01*
X86852257Y-71384771D01*
X86855998Y-71386129D01*
X86876925Y-71390058D01*
X87042666Y-71442900D01*
X87189213Y-71489622D01*
X87204798Y-71496883D01*
X87270943Y-71515741D01*
X87274593Y-71516843D01*
X87299511Y-71524787D01*
X87300308Y-71524920D01*
X87313843Y-71527972D01*
X87314626Y-71528195D01*
X87340518Y-71531710D01*
X87344287Y-71532280D01*
X87405787Y-71542574D01*
X87405789Y-71542573D01*
X87412149Y-71543638D01*
X87429330Y-71543767D01*
X87839905Y-71599509D01*
X87844174Y-71600166D01*
X87868608Y-71604370D01*
X87870844Y-71604431D01*
X87884120Y-71605512D01*
X87886326Y-71605812D01*
X87889100Y-71605790D01*
X87891771Y-71606551D01*
X87895124Y-71607007D01*
X87895058Y-71607488D01*
X87956292Y-71624944D01*
X88002463Y-71677385D01*
X88013751Y-71738800D01*
X88008087Y-71816513D01*
X88007844Y-71818213D01*
X88004862Y-71860767D01*
X88001754Y-71903408D01*
X88001754Y-71905138D01*
X87986666Y-72120550D01*
X87986485Y-72121831D01*
X87983545Y-72165104D01*
X87980536Y-72208061D01*
X87980539Y-72209348D01*
X87963309Y-72462990D01*
X87963152Y-72464117D01*
X87960284Y-72507522D01*
X87957353Y-72550677D01*
X87957358Y-72551799D01*
X87938388Y-72838850D01*
X87938363Y-72839091D01*
X87938309Y-72839355D01*
X87938257Y-72840155D01*
X87938257Y-72840157D01*
X87936007Y-72874902D01*
X87933130Y-72918428D01*
X87933135Y-72919236D01*
X87925074Y-73043697D01*
X87918001Y-73149653D01*
X87900320Y-73414544D01*
X87875265Y-73764878D01*
X87850987Y-74081541D01*
X87829244Y-74343194D01*
X87828615Y-74350758D01*
X87809478Y-74556807D01*
X87809472Y-74556861D01*
X87795758Y-74678226D01*
X87795726Y-74678512D01*
X87793187Y-74693092D01*
X87771238Y-74785935D01*
X87770132Y-74790262D01*
X87729450Y-74938315D01*
X87721436Y-74967481D01*
X87654865Y-75193616D01*
X87629173Y-75276526D01*
X87578534Y-75439945D01*
X87578427Y-75440290D01*
X87567260Y-75475156D01*
X87566429Y-75477243D01*
X87553737Y-75517379D01*
X87540878Y-75557532D01*
X87540350Y-75559718D01*
X87429061Y-75911697D01*
X87425325Y-75921389D01*
X87424722Y-75923430D01*
X87424723Y-75923430D01*
X87415969Y-75953106D01*
X87406638Y-75982618D01*
X87406632Y-75982653D01*
X87405989Y-75984683D01*
X87403678Y-75994770D01*
X87317695Y-76286254D01*
X87313092Y-76299176D01*
X87312656Y-76300213D01*
X87306136Y-76325221D01*
X87305082Y-76329012D01*
X87297761Y-76353832D01*
X87297599Y-76354955D01*
X87294876Y-76368421D01*
X87230139Y-76616776D01*
X87226528Y-76628297D01*
X87224688Y-76633298D01*
X87220184Y-76654462D01*
X87218893Y-76659917D01*
X87213427Y-76680888D01*
X87212829Y-76686200D01*
X87210893Y-76698122D01*
X87163562Y-76920540D01*
X87160823Y-76931105D01*
X87158398Y-76939005D01*
X87155504Y-76957521D01*
X87154277Y-76964171D01*
X87150376Y-76982505D01*
X87149824Y-76990742D01*
X87148615Y-77001595D01*
X87115711Y-77212118D01*
X87113539Y-77222869D01*
X87111584Y-77230735D01*
X87111582Y-77230745D01*
X87111583Y-77230745D01*
X87109682Y-77249520D01*
X87108829Y-77256150D01*
X87105911Y-77274828D01*
X87105811Y-77282960D01*
X87105190Y-77293917D01*
X87083882Y-77504503D01*
X87082030Y-77516705D01*
X87081099Y-77521287D01*
X87079811Y-77543591D01*
X87079388Y-77548919D01*
X87077143Y-77571105D01*
X87077339Y-77575765D01*
X87077242Y-77588097D01*
X87064473Y-77809363D01*
X87063301Y-77819082D01*
X87063203Y-77821565D01*
X87061963Y-77852849D01*
X87060223Y-77882996D01*
X87059345Y-77891815D01*
X87059395Y-77914937D01*
X87059298Y-77920104D01*
X87058398Y-77942836D01*
X87058835Y-77947052D01*
X87059493Y-77959535D01*
X87060639Y-78478365D01*
X87060549Y-78483351D01*
X87059666Y-78506550D01*
X87060060Y-78510293D01*
X87060738Y-78522961D01*
X87060746Y-78526725D01*
X87064105Y-78549724D01*
X87064726Y-78554675D01*
X87115680Y-79039295D01*
X87119022Y-79074989D01*
X87127814Y-79109780D01*
X87143418Y-79174619D01*
X87215826Y-79475496D01*
X87216036Y-79477687D01*
X87236793Y-79562618D01*
X87245146Y-79597329D01*
X87258438Y-79630370D01*
X87290828Y-79711707D01*
X87291921Y-79713599D01*
X87425179Y-80044840D01*
X87430336Y-80057658D01*
X87443569Y-80090900D01*
X87461671Y-80122131D01*
X87555642Y-80285631D01*
X87695758Y-80529421D01*
X87697674Y-80532882D01*
X87708276Y-80552803D01*
X87709755Y-80555581D01*
X87710542Y-80556655D01*
X87717987Y-80568098D01*
X87718561Y-80569095D01*
X87718660Y-80569268D01*
X87734488Y-80589477D01*
X87736921Y-80592691D01*
X88015732Y-80973565D01*
X88017243Y-80975675D01*
X88020681Y-80980584D01*
X88035001Y-81001037D01*
X88039623Y-81006604D01*
X88061234Y-81028682D01*
X88063039Y-81030565D01*
X88234801Y-81213599D01*
X88358196Y-81345092D01*
X88381301Y-81370563D01*
X88383414Y-81372548D01*
X88385603Y-81374297D01*
X88385607Y-81374302D01*
X88410288Y-81394031D01*
X88776446Y-81697021D01*
X88780536Y-81700560D01*
X88796922Y-81715381D01*
X88801020Y-81718139D01*
X88810818Y-81725464D01*
X88814614Y-81728605D01*
X88814616Y-81728606D01*
X88814617Y-81728607D01*
X88833425Y-81740099D01*
X88838019Y-81743046D01*
X89188734Y-81979136D01*
X89253867Y-82022981D01*
X89259711Y-82027167D01*
X89273783Y-82037875D01*
X89273786Y-82037877D01*
X89273788Y-82037878D01*
X89281907Y-82042394D01*
X89290872Y-82047892D01*
X89298582Y-82053082D01*
X89314542Y-82060785D01*
X89320890Y-82064079D01*
X89777048Y-82317831D01*
X89783762Y-82321850D01*
X89797249Y-82330514D01*
X89807234Y-82335071D01*
X89816020Y-82339512D01*
X89825612Y-82344848D01*
X89840566Y-82350559D01*
X89847814Y-82353593D01*
X90333195Y-82575136D01*
X90340089Y-82578545D01*
X90354579Y-82586278D01*
X90354583Y-82586280D01*
X90364533Y-82589883D01*
X90373794Y-82593667D01*
X90383400Y-82598052D01*
X90399159Y-82602675D01*
X90406472Y-82605069D01*
X90904352Y-82785361D01*
X90912719Y-82788741D01*
X90924608Y-82794056D01*
X90938060Y-82797888D01*
X90946291Y-82800548D01*
X90959445Y-82805312D01*
X90972181Y-82807954D01*
X90980960Y-82810113D01*
X91261617Y-82890087D01*
X91270798Y-82893096D01*
X91281491Y-82897069D01*
X91296744Y-82900366D01*
X91304513Y-82902311D01*
X91319518Y-82906587D01*
X91330795Y-82908116D01*
X91340332Y-82909790D01*
X91653189Y-82977432D01*
X91945154Y-83040557D01*
X91955008Y-83043115D01*
X91964695Y-83046060D01*
X91972289Y-83047225D01*
X91981365Y-83048619D01*
X91988740Y-83049980D01*
X92005236Y-83053547D01*
X92015347Y-83054256D01*
X92025453Y-83055385D01*
X92543876Y-83134959D01*
X92687525Y-83157008D01*
X92698658Y-83159243D01*
X92705636Y-83160980D01*
X92725374Y-83162981D01*
X92731636Y-83163779D01*
X92751203Y-83166783D01*
X92758374Y-83166851D01*
X92769708Y-83167477D01*
X93463536Y-83237843D01*
X93475156Y-83239582D01*
X93481204Y-83240783D01*
X93502026Y-83241889D01*
X93507883Y-83242341D01*
X93528629Y-83244446D01*
X93534802Y-83244188D01*
X93546538Y-83244254D01*
X94249708Y-83281624D01*
X94261188Y-83282773D01*
X94267797Y-83283747D01*
X94288092Y-83283817D01*
X94294220Y-83283990D01*
X94314527Y-83285070D01*
X94321189Y-83284470D01*
X94332722Y-83283973D01*
X95020554Y-83286369D01*
X95032019Y-83286942D01*
X95038797Y-83287597D01*
X95038799Y-83287596D01*
X95038801Y-83287597D01*
X95049152Y-83287114D01*
X95058951Y-83286657D01*
X95065120Y-83286524D01*
X95085333Y-83286596D01*
X95091334Y-83285754D01*
X95092077Y-83285650D01*
X95103529Y-83284582D01*
X95604730Y-83261245D01*
X95616670Y-83261264D01*
X95622359Y-83261549D01*
X95643613Y-83259566D01*
X95649294Y-83259169D01*
X95670573Y-83258180D01*
X95676163Y-83257108D01*
X95687972Y-83255429D01*
X96178047Y-83209730D01*
X96190772Y-83209201D01*
X96194419Y-83209238D01*
X96217623Y-83206136D01*
X96222436Y-83205590D01*
X96245723Y-83203420D01*
X96249260Y-83202570D01*
X96261788Y-83200235D01*
X96750267Y-83134957D01*
X96763052Y-83133920D01*
X96766459Y-83133821D01*
X96789748Y-83129775D01*
X96794486Y-83129048D01*
X96817867Y-83125925D01*
X96821126Y-83125002D01*
X96833651Y-83122151D01*
X97302608Y-83040707D01*
X97314843Y-83039204D01*
X97319518Y-83038866D01*
X97341298Y-83034105D01*
X97346550Y-83033076D01*
X97354944Y-83031617D01*
X97368534Y-83029258D01*
X97370478Y-83028624D01*
X97372988Y-83027808D01*
X97384899Y-83024575D01*
X97816792Y-82930178D01*
X97827548Y-82928320D01*
X97835741Y-82927275D01*
X97835743Y-82927274D01*
X97835746Y-82927274D01*
X97853832Y-82922272D01*
X97860390Y-82920649D01*
X97878698Y-82916649D01*
X97886414Y-82913761D01*
X97896803Y-82910389D01*
X98267875Y-82807783D01*
X98279091Y-82805236D01*
X98285765Y-82804044D01*
X98304954Y-82797690D01*
X98310832Y-82795905D01*
X98330332Y-82790514D01*
X98336555Y-82787789D01*
X98347283Y-82783675D01*
X98425991Y-82757617D01*
X98435901Y-82754788D01*
X98445396Y-82752502D01*
X98461431Y-82746112D01*
X98468318Y-82743603D01*
X98484697Y-82738181D01*
X98493431Y-82733825D01*
X98502865Y-82729604D01*
X98503907Y-82729189D01*
X99174410Y-82462040D01*
X99179550Y-82460124D01*
X99179839Y-82460023D01*
X99200289Y-82452911D01*
X99204778Y-82450587D01*
X99215866Y-82445524D01*
X99220557Y-82443656D01*
X99239620Y-82432691D01*
X99244372Y-82430096D01*
X99850333Y-82116510D01*
X99853287Y-82115033D01*
X99877771Y-82103217D01*
X99877778Y-82103211D01*
X99877855Y-82103175D01*
X99889743Y-82096130D01*
X99889812Y-82096080D01*
X99889819Y-82096077D01*
X99911919Y-82080287D01*
X99914661Y-82078385D01*
X100448719Y-81718905D01*
X100476330Y-81700762D01*
X100476332Y-81700759D01*
X100478662Y-81699229D01*
X100480727Y-81697361D01*
X100480732Y-81697358D01*
X100505293Y-81675144D01*
X100898302Y-81327537D01*
X100900274Y-81326237D01*
X100912361Y-81315463D01*
X100912365Y-81315462D01*
X100965545Y-81268063D01*
X100991479Y-81245126D01*
X100991480Y-81245124D01*
X100992191Y-81244496D01*
X100992802Y-81243769D01*
X100992807Y-81243766D01*
X101015251Y-81217120D01*
X101015682Y-81216613D01*
X101025784Y-81204710D01*
X101061211Y-81162977D01*
X101061211Y-81162975D01*
X101071732Y-81150582D01*
X101072978Y-81148586D01*
X101340641Y-80830823D01*
X101346733Y-80825320D01*
X101365831Y-80802003D01*
X101397915Y-80762829D01*
X101418734Y-80738115D01*
X101418734Y-80738113D01*
X101420966Y-80735465D01*
X101439464Y-80704845D01*
X101458692Y-80673986D01*
X101475719Y-80646661D01*
X101475720Y-80646656D01*
X101482184Y-80636283D01*
X101485435Y-80628749D01*
X101695928Y-80280328D01*
X101701960Y-80272842D01*
X101707638Y-80263085D01*
X101707641Y-80263084D01*
X101741815Y-80204374D01*
X101758192Y-80177268D01*
X101758193Y-80177263D01*
X101759750Y-80174688D01*
X101760728Y-80172732D01*
X101773745Y-80140549D01*
X101804622Y-80067651D01*
X101806998Y-80058332D01*
X101807271Y-80057658D01*
X101960229Y-79679488D01*
X101963439Y-79673908D01*
X101984704Y-79619676D01*
X101993641Y-79596882D01*
X102006050Y-79566204D01*
X102006050Y-79566201D01*
X102007056Y-79563716D01*
X102015248Y-79528871D01*
X102035033Y-79448559D01*
X102035633Y-79442153D01*
X102040451Y-79421657D01*
X102150577Y-78953200D01*
X102151353Y-78950081D01*
X102158360Y-78923506D01*
X102158361Y-78923495D01*
X102158442Y-78923189D01*
X102160650Y-78910549D01*
X102160677Y-78910238D01*
X102160679Y-78910232D01*
X102163098Y-78882836D01*
X102163429Y-78879595D01*
X102204903Y-78520334D01*
X102205973Y-78513003D01*
X102206452Y-78510293D01*
X102208951Y-78496135D01*
X102209265Y-78486287D01*
X102210021Y-78476007D01*
X102210034Y-78475890D01*
X102211150Y-78466231D01*
X102210672Y-78449095D01*
X102210687Y-78441695D01*
X102210881Y-78435621D01*
X102213126Y-78365240D01*
X102215921Y-78347791D01*
X102215921Y-78279632D01*
X102215984Y-78275681D01*
X102216456Y-78260875D01*
X102217694Y-78222057D01*
X102221327Y-78108184D01*
X102221766Y-78100997D01*
X102221905Y-78099464D01*
X102223353Y-78083417D01*
X102222860Y-78074100D01*
X102222750Y-78063588D01*
X102223048Y-78054266D01*
X102221089Y-78036679D01*
X102220506Y-78029569D01*
X102202321Y-77685576D01*
X102202155Y-77677890D01*
X102202310Y-77661524D01*
X102200896Y-77650988D01*
X102199967Y-77641042D01*
X102199407Y-77630431D01*
X102196226Y-77614382D01*
X102194962Y-77606766D01*
X102193916Y-77598973D01*
X102146068Y-77242353D01*
X102145187Y-77233242D01*
X102144434Y-77220564D01*
X102141558Y-77206537D01*
X102140138Y-77198152D01*
X102138235Y-77183966D01*
X102134776Y-77171764D01*
X102132604Y-77162857D01*
X102051470Y-76767071D01*
X102049738Y-76756179D01*
X102049709Y-76755924D01*
X102048833Y-76748221D01*
X102044031Y-76729885D01*
X102042510Y-76723365D01*
X102042451Y-76723077D01*
X102038704Y-76704794D01*
X102035987Y-76697236D01*
X102032730Y-76686730D01*
X101917387Y-76246246D01*
X101914789Y-76233706D01*
X101914671Y-76232942D01*
X101914257Y-76230249D01*
X101910459Y-76217778D01*
X101907406Y-76207748D01*
X101906072Y-76203035D01*
X101903919Y-76194813D01*
X101900138Y-76180370D01*
X101898780Y-76177148D01*
X101894421Y-76165102D01*
X101878457Y-76112670D01*
X101743221Y-75668515D01*
X101741226Y-75660066D01*
X101740057Y-75656435D01*
X101730514Y-75626780D01*
X101721228Y-75596280D01*
X101721227Y-75596279D01*
X101720263Y-75593111D01*
X101717103Y-75585060D01*
X101642052Y-75350469D01*
X101571016Y-75124840D01*
X101538687Y-75020130D01*
X101513427Y-74938316D01*
X101482512Y-74834423D01*
X101478861Y-74818259D01*
X101474876Y-74792782D01*
X101474135Y-74787216D01*
X101458709Y-74646661D01*
X101437739Y-74426771D01*
X101413368Y-74150118D01*
X101411100Y-74122951D01*
X101386804Y-73831856D01*
X101358981Y-73484209D01*
X101330963Y-73121047D01*
X101303675Y-72754508D01*
X101278127Y-72397867D01*
X101266819Y-72232486D01*
X101266530Y-72224028D01*
X101266530Y-72173391D01*
X101265449Y-72169711D01*
X101260716Y-72143237D01*
X101260226Y-72136077D01*
X101255352Y-72064787D01*
X101236302Y-71767864D01*
X101233981Y-71727803D01*
X101249756Y-71659746D01*
X101299826Y-71611015D01*
X101348454Y-71596992D01*
X101610362Y-71577259D01*
X101626303Y-71578112D01*
X101633471Y-71577366D01*
X101633475Y-71577367D01*
X101696288Y-71570834D01*
X101699699Y-71570528D01*
X101726578Y-71568504D01*
X101726607Y-71568497D01*
X101740619Y-71566224D01*
X101740652Y-71566221D01*
X101766791Y-71559645D01*
X101770089Y-71558864D01*
X101831782Y-71545199D01*
X101831786Y-71545196D01*
X101838827Y-71543637D01*
X101853681Y-71537788D01*
X102171735Y-71457785D01*
X102194404Y-71454934D01*
X102197477Y-71454019D01*
X102200257Y-71453190D01*
X102253456Y-71437348D01*
X102258589Y-71435938D01*
X102280275Y-71430484D01*
X102284551Y-71428729D01*
X102296201Y-71424618D01*
X102300622Y-71423302D01*
X102320958Y-71413919D01*
X102325782Y-71411819D01*
X102379970Y-71389594D01*
X102379972Y-71389592D01*
X102382818Y-71388425D01*
X102402245Y-71376418D01*
X102698549Y-71239722D01*
X102716837Y-71233926D01*
X102776005Y-71204073D01*
X102779920Y-71202183D01*
X102783427Y-71200564D01*
X102802477Y-71191777D01*
X102804245Y-71190630D01*
X102815825Y-71183981D01*
X102817715Y-71183029D01*
X102838117Y-71168766D01*
X102841658Y-71166383D01*
X102892902Y-71133173D01*
X102892903Y-71133170D01*
X102897301Y-71130321D01*
X102911521Y-71117455D01*
X103251612Y-70879725D01*
X103254756Y-70877601D01*
X103276531Y-70863381D01*
X103277297Y-70862706D01*
X103288141Y-70854191D01*
X103288976Y-70853608D01*
X103307962Y-70835817D01*
X103310793Y-70833248D01*
X103456046Y-70705506D01*
X103462773Y-70699997D01*
X103473784Y-70691611D01*
X103483017Y-70682220D01*
X103489531Y-70676058D01*
X103499434Y-70667351D01*
X103508425Y-70656817D01*
X103514284Y-70650424D01*
X103796818Y-70363119D01*
X103800521Y-70359509D01*
X103804710Y-70355592D01*
X103817110Y-70343998D01*
X103819784Y-70340664D01*
X103828097Y-70331312D01*
X103831091Y-70328268D01*
X103844545Y-70309977D01*
X103847705Y-70305865D01*
X103890823Y-70252124D01*
X104094802Y-69997889D01*
X104097436Y-69994718D01*
X104113908Y-69975556D01*
X104114843Y-69974087D01*
X104122703Y-69963115D01*
X104123804Y-69961744D01*
X104136661Y-69939967D01*
X104138800Y-69936479D01*
X104355470Y-69596360D01*
X104358578Y-69591717D01*
X104370998Y-69574055D01*
X104373451Y-69569226D01*
X104379430Y-69558749D01*
X104382344Y-69554176D01*
X104391224Y-69534523D01*
X104393672Y-69529419D01*
X104484752Y-69350125D01*
X104587991Y-69146897D01*
X104592479Y-69138823D01*
X104598941Y-69128160D01*
X104604629Y-69114776D01*
X104608179Y-69107154D01*
X104614774Y-69094176D01*
X104618783Y-69082361D01*
X104622083Y-69073716D01*
X104772654Y-68719506D01*
X104777582Y-68709252D01*
X104780932Y-68703032D01*
X104787798Y-68684284D01*
X104790093Y-68678482D01*
X104797903Y-68660113D01*
X104799712Y-68653288D01*
X104803130Y-68642433D01*
X104856409Y-68496993D01*
X104861519Y-68485034D01*
X104862824Y-68482375D01*
X104870231Y-68459512D01*
X104871725Y-68455183D01*
X104880006Y-68432581D01*
X104880624Y-68429654D01*
X104883977Y-68417091D01*
X104938044Y-68250238D01*
X104943153Y-68237083D01*
X104943237Y-68236899D01*
X104950757Y-68211172D01*
X104951807Y-68207768D01*
X104960051Y-68182329D01*
X104960050Y-68182329D01*
X104960053Y-68182323D01*
X104960086Y-68182129D01*
X104963269Y-68168371D01*
X105012696Y-67999306D01*
X105017379Y-67986111D01*
X105017561Y-67985680D01*
X105022454Y-67966878D01*
X105024237Y-67960029D01*
X105025211Y-67956502D01*
X105032654Y-67931046D01*
X105032719Y-67930586D01*
X105035474Y-67916857D01*
X105075665Y-67762442D01*
X105079379Y-67750633D01*
X105080969Y-67746339D01*
X105083268Y-67735643D01*
X105085675Y-67724442D01*
X105086907Y-67719254D01*
X105092544Y-67697599D01*
X105092544Y-67697598D01*
X105092546Y-67697591D01*
X105093057Y-67693031D01*
X105095048Y-67680829D01*
X105111439Y-67604568D01*
X105113690Y-67595706D01*
X105114372Y-67593383D01*
X105127465Y-67548796D01*
X105127465Y-67548793D01*
X105127654Y-67548150D01*
X105129652Y-67532962D01*
X105128883Y-67532871D01*
X105130042Y-67523158D01*
X105130734Y-67517353D01*
X105132627Y-67505998D01*
X105134045Y-67499405D01*
X105135439Y-67479207D01*
X105136017Y-67473071D01*
X105144062Y-67405638D01*
X105145500Y-67396505D01*
X105154847Y-67348846D01*
X105150185Y-67298303D01*
X105149700Y-67289935D01*
X105148479Y-67239172D01*
X105147343Y-67235622D01*
X105141972Y-67209234D01*
X105141631Y-67205532D01*
X105122917Y-67158345D01*
X105120086Y-67150433D01*
X105104621Y-67102095D01*
X105077385Y-67061876D01*
X105072479Y-67054013D01*
X105065075Y-67041093D01*
X105058157Y-67027024D01*
X105045739Y-66997128D01*
X105003032Y-66944242D01*
X104961256Y-66890763D01*
X104961255Y-66890762D01*
X104961254Y-66890761D01*
X104934950Y-66871901D01*
X104922801Y-66861968D01*
X104855645Y-66799570D01*
X104852177Y-66796220D01*
X104835487Y-66779457D01*
X104832827Y-66777457D01*
X104822951Y-66769193D01*
X104820513Y-66766927D01*
X104801072Y-66753459D01*
X104797161Y-66750636D01*
X104791408Y-66746310D01*
X104672289Y-66656732D01*
X104664526Y-66650386D01*
X104656671Y-66643416D01*
X104642873Y-66634317D01*
X104636643Y-66629926D01*
X104623446Y-66620002D01*
X104623444Y-66620001D01*
X104623439Y-66619997D01*
X104614243Y-66614949D01*
X104605649Y-66609768D01*
X104462654Y-66515469D01*
X104453506Y-66508819D01*
X104447805Y-66504263D01*
X104430817Y-66494276D01*
X104425400Y-66490901D01*
X104414824Y-66483927D01*
X104408958Y-66480059D01*
X104402358Y-66476950D01*
X104392368Y-66471675D01*
X104235837Y-66379658D01*
X104226824Y-66373820D01*
X104219703Y-66368757D01*
X104203460Y-66360398D01*
X104197361Y-66357040D01*
X104181627Y-66347790D01*
X104173552Y-66344484D01*
X104163803Y-66339990D01*
X104124615Y-66319823D01*
X104007870Y-66259744D01*
X103998447Y-66254359D01*
X103991337Y-66249873D01*
X103974374Y-66242294D01*
X103968224Y-66239341D01*
X103951699Y-66230837D01*
X103943737Y-66228088D01*
X103933641Y-66224098D01*
X103924790Y-66220144D01*
X103885285Y-66202496D01*
X103874469Y-66197014D01*
X103869946Y-66194436D01*
X103849663Y-66186446D01*
X103844537Y-66184292D01*
X103824673Y-66175418D01*
X103822547Y-66174812D01*
X103819649Y-66173987D01*
X103808172Y-66170103D01*
X103591165Y-66084628D01*
X103582497Y-66080825D01*
X103571764Y-66075619D01*
X103571762Y-66075618D01*
X103557408Y-66071038D01*
X103549669Y-66068282D01*
X103535652Y-66062761D01*
X103524019Y-66060007D01*
X103514904Y-66057477D01*
X103312822Y-65993004D01*
X103306986Y-65990981D01*
X103288020Y-65983871D01*
X103281405Y-65982420D01*
X103270293Y-65979436D01*
X103263856Y-65977382D01*
X103243903Y-65974038D01*
X103237838Y-65972865D01*
X103031460Y-65927602D01*
X103025579Y-65926161D01*
X103005741Y-65920783D01*
X102999339Y-65919998D01*
X102987871Y-65918042D01*
X102981589Y-65916664D01*
X102975047Y-65916184D01*
X102961067Y-65915160D01*
X102955069Y-65914573D01*
X102734598Y-65887554D01*
X102725728Y-65886139D01*
X102712827Y-65883599D01*
X102698989Y-65882883D01*
X102690313Y-65882128D01*
X102676567Y-65880443D01*
X102663426Y-65880717D01*
X102654441Y-65880578D01*
X102405132Y-65867683D01*
X102392286Y-65866345D01*
X102389122Y-65865847D01*
X102365350Y-65865533D01*
X102360596Y-65865379D01*
X102338253Y-65864224D01*
X102336823Y-65864151D01*
X102336822Y-65864151D01*
X102333624Y-65864443D01*
X102320716Y-65864945D01*
X102074052Y-65861691D01*
X102060654Y-65860733D01*
X102032694Y-65861102D01*
X102029426Y-65861102D01*
X102001463Y-65860733D01*
X101988061Y-65861691D01*
X101663315Y-65865976D01*
X101651960Y-65865606D01*
X101644842Y-65865046D01*
X101644840Y-65865046D01*
X101644839Y-65865046D01*
X101625011Y-65866321D01*
X101618700Y-65866565D01*
X101598839Y-65866827D01*
X101591789Y-65867936D01*
X101580494Y-65869184D01*
X101304221Y-65886955D01*
X101296454Y-65887210D01*
X101280248Y-65887236D01*
X101269570Y-65888787D01*
X101259714Y-65889818D01*
X101248938Y-65890511D01*
X101233066Y-65893845D01*
X101225411Y-65895203D01*
X100973489Y-65931808D01*
X100967741Y-65932507D01*
X100946633Y-65934573D01*
X100941003Y-65935953D01*
X100929334Y-65938225D01*
X100923612Y-65939056D01*
X100903256Y-65945066D01*
X100897667Y-65946574D01*
X100655321Y-66005972D01*
X100648428Y-66007455D01*
X100630694Y-66010746D01*
X100622194Y-66013621D01*
X100611996Y-66016590D01*
X100603271Y-66018729D01*
X100586558Y-66025465D01*
X100579947Y-66027914D01*
X100334736Y-66110875D01*
X100324071Y-66113958D01*
X100316496Y-66115785D01*
X100298666Y-66122893D01*
X100292494Y-66125165D01*
X100274310Y-66131318D01*
X100267343Y-66134848D01*
X100257231Y-66139415D01*
X100043110Y-66224796D01*
X100034193Y-66227963D01*
X100022811Y-66231522D01*
X100009210Y-66238021D01*
X100001687Y-66241314D01*
X99987692Y-66246895D01*
X99977344Y-66252850D01*
X99968967Y-66257253D01*
X99744839Y-66364365D01*
X99736279Y-66368067D01*
X99724833Y-66372513D01*
X99722515Y-66373820D01*
X99711998Y-66379747D01*
X99704597Y-66383597D01*
X99691309Y-66389947D01*
X99681097Y-66396764D01*
X99673153Y-66401645D01*
X99407023Y-66551669D01*
X99396606Y-66556911D01*
X99390803Y-66559497D01*
X99373348Y-66570485D01*
X99368193Y-66573559D01*
X99350191Y-66583709D01*
X99345146Y-66587593D01*
X99335575Y-66594267D01*
X99233659Y-66658431D01*
X99166439Y-66677491D01*
X99099586Y-66657182D01*
X99054325Y-66603955D01*
X99044389Y-66539477D01*
X99044404Y-66539346D01*
X99050712Y-66483910D01*
X99051911Y-66475789D01*
X99054600Y-66461013D01*
X99055046Y-66448995D01*
X99055756Y-66439591D01*
X99057112Y-66427677D01*
X99056948Y-66422131D01*
X99056670Y-66412701D01*
X99056701Y-66404443D01*
X99057240Y-66389946D01*
X99067800Y-66105675D01*
X99068340Y-66097847D01*
X99069947Y-66081910D01*
X99069481Y-66070949D01*
X99069456Y-66061103D01*
X99069864Y-66050140D01*
X99068170Y-66034175D01*
X99067595Y-66026415D01*
X99062873Y-65914992D01*
X99062771Y-65908361D01*
X99062985Y-65889304D01*
X99062985Y-65889302D01*
X99061946Y-65881459D01*
X99060985Y-65870430D01*
X99060651Y-65862532D01*
X99058862Y-65852979D01*
X99057139Y-65843779D01*
X99056091Y-65837222D01*
X99018444Y-65552808D01*
X99018447Y-65552668D01*
X99015999Y-65534212D01*
X99016000Y-65534210D01*
X99006546Y-65462924D01*
X99001880Y-65427672D01*
X99001852Y-65427432D01*
X98992849Y-65395497D01*
X98972659Y-65323776D01*
X98972658Y-65323774D01*
X98967762Y-65306382D01*
X98967700Y-65306242D01*
X98962281Y-65287008D01*
X98923349Y-65148833D01*
X98918965Y-65123247D01*
X98918594Y-65117541D01*
X98918561Y-65117026D01*
X98901986Y-65071697D01*
X98899098Y-65062758D01*
X98895819Y-65051119D01*
X98895816Y-65051112D01*
X98889777Y-65037495D01*
X98886668Y-65029800D01*
X98881559Y-65015827D01*
X98881558Y-65015823D01*
X98875827Y-65005165D01*
X98871707Y-64996752D01*
X98852134Y-64952616D01*
X98848093Y-64947848D01*
X98833483Y-64926409D01*
X98757789Y-64785628D01*
X98753029Y-64775749D01*
X98741846Y-64749648D01*
X98735581Y-64735025D01*
X98700540Y-64692602D01*
X98696400Y-64687302D01*
X98663724Y-64643058D01*
X98628430Y-64616279D01*
X98619991Y-64609266D01*
X98547721Y-64543595D01*
X98536242Y-64530141D01*
X98484373Y-64485945D01*
X98481404Y-64483333D01*
X98462293Y-64465967D01*
X98461358Y-64465335D01*
X98450414Y-64457012D01*
X98422016Y-64432815D01*
X98406246Y-64425771D01*
X98387336Y-64415256D01*
X98377760Y-64408777D01*
X98373041Y-64405584D01*
X98337504Y-64394232D01*
X98324679Y-64389338D01*
X98323629Y-64388869D01*
X98298803Y-64381803D01*
X98295017Y-64380660D01*
X98230102Y-64359924D01*
X98212607Y-64357271D01*
X98189276Y-64350631D01*
X98181478Y-64347214D01*
X98103846Y-64326317D01*
X98069440Y-64316524D01*
X98061610Y-64314947D01*
X98030905Y-64306682D01*
X98008118Y-64307198D01*
X97988691Y-64306111D01*
X97966094Y-64303054D01*
X97934652Y-64307842D01*
X97926706Y-64308535D01*
X97891424Y-64314426D01*
X97811956Y-64326527D01*
X97803821Y-64329052D01*
X97713215Y-64344182D01*
X97698869Y-64345727D01*
X97668567Y-64347214D01*
X97663349Y-64347470D01*
X97643490Y-64354374D01*
X97603168Y-64368393D01*
X97600073Y-64369423D01*
X97539331Y-64388764D01*
X97509855Y-64408666D01*
X97497446Y-64416031D01*
X97355810Y-64489303D01*
X97329370Y-64499349D01*
X97329134Y-64499408D01*
X97282506Y-64527001D01*
X97276338Y-64530418D01*
X97260316Y-64538707D01*
X97253009Y-64543925D01*
X97244110Y-64549721D01*
X97236397Y-64554285D01*
X97222363Y-64565567D01*
X97216750Y-64569821D01*
X97172631Y-64601334D01*
X97172480Y-64601528D01*
X97152597Y-64621653D01*
X96961935Y-64774930D01*
X96955146Y-64780015D01*
X96943324Y-64788254D01*
X96934133Y-64796841D01*
X96927186Y-64802865D01*
X96916613Y-64811365D01*
X96907240Y-64820104D01*
X96897452Y-64830671D01*
X96891153Y-64836999D01*
X96881474Y-64846044D01*
X96872862Y-64856770D01*
X96867152Y-64863387D01*
X96841023Y-64891600D01*
X96657763Y-65089464D01*
X96654328Y-65093028D01*
X96637796Y-65109505D01*
X96635582Y-65112453D01*
X96627433Y-65122212D01*
X96624933Y-65124911D01*
X96611687Y-65144095D01*
X96608792Y-65148114D01*
X96396875Y-65430211D01*
X96392605Y-65435580D01*
X96380690Y-65449736D01*
X96376209Y-65456934D01*
X96370094Y-65465862D01*
X96364995Y-65472649D01*
X96356089Y-65488895D01*
X96352627Y-65494815D01*
X96166811Y-65793297D01*
X96163883Y-65797782D01*
X96151285Y-65816193D01*
X96149200Y-65820431D01*
X96143228Y-65831179D01*
X96140743Y-65835171D01*
X96131769Y-65855590D01*
X96129509Y-65860446D01*
X96078887Y-65963317D01*
X96031625Y-66014776D01*
X95964045Y-66032515D01*
X95952440Y-66031633D01*
X95835917Y-66017253D01*
X95824547Y-66015310D01*
X95817997Y-66013873D01*
X95797773Y-66012392D01*
X95791655Y-66011791D01*
X95771497Y-66009304D01*
X95764808Y-66009438D01*
X95753276Y-66009132D01*
X95465703Y-65988064D01*
X95452425Y-65986366D01*
X95450465Y-65986007D01*
X95425532Y-65985047D01*
X95421248Y-65984808D01*
X95396297Y-65982980D01*
X95394285Y-65983121D01*
X95380904Y-65983328D01*
X95064017Y-65971129D01*
X95049901Y-65969774D01*
X95049897Y-65969773D01*
X95022930Y-65969498D01*
X95019430Y-65969412D01*
X94992491Y-65968375D01*
X94992459Y-65968379D01*
X94978312Y-65969044D01*
X94646482Y-65965672D01*
X94632975Y-65964749D01*
X94605170Y-65965207D01*
X94601877Y-65965218D01*
X94574038Y-65964936D01*
X94560542Y-65965944D01*
X94229686Y-65971407D01*
X94215599Y-65970838D01*
X94215537Y-65970832D01*
X94215399Y-65970818D01*
X94188653Y-65972033D01*
X94185078Y-65972144D01*
X94158284Y-65972586D01*
X94158089Y-65972618D01*
X94144065Y-65974057D01*
X93830022Y-65988319D01*
X93816799Y-65988214D01*
X93814368Y-65988064D01*
X93789924Y-65990059D01*
X93785468Y-65990342D01*
X93760922Y-65991456D01*
X93758521Y-65991914D01*
X93745417Y-65993691D01*
X93462212Y-66016800D01*
X93451079Y-66017207D01*
X93443371Y-66017141D01*
X93424230Y-66019726D01*
X93417730Y-66020430D01*
X93398497Y-66022000D01*
X93391003Y-66023709D01*
X93380035Y-66025696D01*
X93299892Y-66036520D01*
X93230821Y-66025986D01*
X93178410Y-65979781D01*
X93173163Y-65970617D01*
X93061133Y-65754086D01*
X93058759Y-65749241D01*
X93049437Y-65729116D01*
X93046809Y-65725074D01*
X93040633Y-65714461D01*
X93038421Y-65710186D01*
X93035674Y-65706340D01*
X93025515Y-65692117D01*
X93022497Y-65687691D01*
X92827935Y-65388510D01*
X92825102Y-65383937D01*
X92820110Y-65375472D01*
X92813851Y-65364859D01*
X92813849Y-65364856D01*
X92810822Y-65361079D01*
X92803628Y-65351133D01*
X92800985Y-65347068D01*
X92786382Y-65330399D01*
X92782902Y-65326245D01*
X92569986Y-65060594D01*
X92567447Y-65057315D01*
X92552257Y-65037007D01*
X92552255Y-65037005D01*
X92552253Y-65037002D01*
X92551099Y-65035847D01*
X92542069Y-65025763D01*
X92541057Y-65024500D01*
X92522528Y-65007157D01*
X92519554Y-65004278D01*
X92430709Y-64915364D01*
X92291716Y-64776262D01*
X92267856Y-64752036D01*
X92267853Y-64752034D01*
X92266578Y-64750739D01*
X92265126Y-64749651D01*
X92265123Y-64749648D01*
X92237821Y-64729193D01*
X92137630Y-64652994D01*
X92063710Y-64596774D01*
X92045689Y-64579336D01*
X91997287Y-64546076D01*
X91992453Y-64542581D01*
X91975923Y-64530010D01*
X91970490Y-64526990D01*
X91960515Y-64520809D01*
X91955391Y-64517287D01*
X91936790Y-64508089D01*
X91931507Y-64505316D01*
X91880169Y-64476775D01*
X91856531Y-64468399D01*
X91741991Y-64411756D01*
X91726037Y-64402320D01*
X91705410Y-64387937D01*
X91677485Y-64378580D01*
X91673734Y-64377033D01*
X91667938Y-64375135D01*
X91667936Y-64375134D01*
X91635506Y-64364514D01*
X91603238Y-64353702D01*
X91603233Y-64353701D01*
X91597473Y-64351771D01*
X91593553Y-64350775D01*
X91565532Y-64341599D01*
X91540392Y-64340823D01*
X91521958Y-64338867D01*
X91420718Y-64320390D01*
X91408514Y-64317519D01*
X91369756Y-64306303D01*
X91310799Y-64306532D01*
X91305647Y-64306445D01*
X91246711Y-64304222D01*
X91207597Y-64314122D01*
X91195299Y-64316580D01*
X91069345Y-64335191D01*
X91066032Y-64335635D01*
X91002930Y-64343228D01*
X90970076Y-64357325D01*
X90956587Y-64362209D01*
X90922323Y-64372415D01*
X90868966Y-64406999D01*
X90866140Y-64408777D01*
X90750882Y-64479149D01*
X90747211Y-64481305D01*
X90693887Y-64511399D01*
X90667346Y-64538691D01*
X90657477Y-64547797D01*
X90628138Y-64572060D01*
X90593845Y-64622808D01*
X90591402Y-64626293D01*
X90525165Y-64717405D01*
X90510031Y-64734619D01*
X90499870Y-64744218D01*
X90479417Y-64779272D01*
X90472620Y-64789685D01*
X90470021Y-64793259D01*
X90459483Y-64813217D01*
X90456937Y-64817800D01*
X90445566Y-64837290D01*
X90443908Y-64841377D01*
X90438660Y-64852653D01*
X90419708Y-64888546D01*
X90416928Y-64902247D01*
X90410311Y-64924195D01*
X90346322Y-65081932D01*
X90344296Y-65086644D01*
X90334823Y-65107476D01*
X90333668Y-65111435D01*
X90329545Y-65123292D01*
X90327997Y-65127106D01*
X90325728Y-65136276D01*
X90322799Y-65148114D01*
X90322505Y-65149301D01*
X90321169Y-65154256D01*
X90283475Y-65283396D01*
X90282361Y-65287008D01*
X90274228Y-65312010D01*
X90274107Y-65312710D01*
X90270966Y-65326255D01*
X90270765Y-65326940D01*
X90267069Y-65352944D01*
X90266480Y-65356680D01*
X90232872Y-65550454D01*
X90231900Y-65555450D01*
X90227043Y-65577927D01*
X90226761Y-65581951D01*
X90225245Y-65594428D01*
X90224559Y-65598384D01*
X90223893Y-65621361D01*
X90223641Y-65626441D01*
X90206745Y-65867359D01*
X90205643Y-65877307D01*
X90204055Y-65887757D01*
X90203923Y-65904200D01*
X90203624Y-65911868D01*
X90202474Y-65928266D01*
X90203242Y-65938797D01*
X90203566Y-65948799D01*
X90201480Y-66209011D01*
X90200862Y-66220417D01*
X90200165Y-66227350D01*
X90201015Y-66247344D01*
X90201123Y-66253597D01*
X90200963Y-66273629D01*
X90201901Y-66280545D01*
X90202913Y-66291932D01*
X90213906Y-66550311D01*
X90197089Y-66618127D01*
X90146278Y-66666085D01*
X90077604Y-66678959D01*
X90023375Y-66660151D01*
X89754158Y-66488578D01*
X89725207Y-66469455D01*
X89723199Y-66468347D01*
X89691585Y-66454054D01*
X89128294Y-66188223D01*
X89101333Y-66175417D01*
X89096508Y-66173125D01*
X89096505Y-66173124D01*
X89095922Y-66172847D01*
X89061366Y-66162228D01*
X88564655Y-66008216D01*
X88564554Y-66008167D01*
X88472355Y-65979597D01*
X88471836Y-65979436D01*
X88444655Y-65971008D01*
X88444662Y-65971010D01*
X88444778Y-65971041D01*
X88452209Y-65973016D01*
X88452459Y-65971943D01*
X88444610Y-65970996D01*
X88444632Y-65971001D01*
X88444620Y-65970999D01*
X88444597Y-65970995D01*
X88444554Y-65970982D01*
X88444589Y-65970991D01*
X88437734Y-65967634D01*
X88437292Y-65969494D01*
X88444289Y-65970930D01*
X88444554Y-65970982D01*
X88444501Y-65970973D01*
X88440435Y-65970327D01*
X88440431Y-65970326D01*
X88408088Y-65965183D01*
X88321594Y-65951413D01*
X88321485Y-65951411D01*
X87802613Y-65868902D01*
X87767319Y-65862953D01*
X87731423Y-65862419D01*
X87113582Y-65847476D01*
X87104291Y-65846901D01*
X87092026Y-65845679D01*
X87077366Y-65846316D01*
X87068998Y-65846397D01*
X87054330Y-65846043D01*
X87042098Y-65847501D01*
X87032817Y-65848255D01*
X87004588Y-65849483D01*
X86991840Y-65849381D01*
X86988208Y-65849165D01*
X86964954Y-65851108D01*
X86960027Y-65851421D01*
X86936698Y-65852437D01*
X86933111Y-65853113D01*
X86920490Y-65854824D01*
X86537692Y-65886814D01*
X86531122Y-65887188D01*
X86511904Y-65887770D01*
X86504234Y-65889111D01*
X86493225Y-65890530D01*
X86485473Y-65891178D01*
X86466736Y-65895489D01*
X86460290Y-65896793D01*
X86113148Y-65957482D01*
X86109411Y-65958077D01*
X86083397Y-65961810D01*
X86082704Y-65962014D01*
X86069190Y-65965167D01*
X86068481Y-65965290D01*
X86043507Y-65973452D01*
X86039895Y-65974571D01*
X85715105Y-66069847D01*
X85710308Y-66071150D01*
X85687733Y-66076800D01*
X85684275Y-66078213D01*
X85672306Y-66082402D01*
X85668725Y-66083453D01*
X85647537Y-66093122D01*
X85642973Y-66095095D01*
X85355223Y-66212706D01*
X85347218Y-66215661D01*
X85333650Y-66220144D01*
X85322280Y-66225805D01*
X85313945Y-66229577D01*
X85302181Y-66234386D01*
X85289842Y-66241629D01*
X85282340Y-66245691D01*
X85160209Y-66306499D01*
X85149083Y-66311374D01*
X85144282Y-66313202D01*
X85125128Y-66323830D01*
X85120239Y-66326402D01*
X85100693Y-66336134D01*
X85096481Y-66339045D01*
X85086155Y-66345456D01*
X84953936Y-66418823D01*
X84941688Y-66424764D01*
X84940374Y-66425314D01*
X84918430Y-66438450D01*
X84914909Y-66440480D01*
X84892572Y-66452874D01*
X84891446Y-66453730D01*
X84880162Y-66461357D01*
X84749877Y-66539346D01*
X84737878Y-66545664D01*
X84736455Y-66546316D01*
X84715087Y-66560092D01*
X84711590Y-66562265D01*
X84689793Y-66575313D01*
X84688581Y-66576298D01*
X84677599Y-66584261D01*
X84655637Y-66598421D01*
X84562059Y-66658753D01*
X84551985Y-66664597D01*
X84546289Y-66667552D01*
X84529568Y-66679525D01*
X84524577Y-66682917D01*
X84507278Y-66694071D01*
X84502431Y-66698283D01*
X84493292Y-66705500D01*
X84392627Y-66777584D01*
X84392558Y-66777631D01*
X84367195Y-66795039D01*
X84367168Y-66795063D01*
X84365558Y-66796167D01*
X84360824Y-66800017D01*
X84352613Y-66807887D01*
X84337188Y-66822672D01*
X84318813Y-66839593D01*
X84296594Y-66855862D01*
X84289694Y-66859816D01*
X84288958Y-66860412D01*
X84286831Y-66862788D01*
X84286830Y-66862789D01*
X84282773Y-66867322D01*
X84258939Y-66893951D01*
X84250551Y-66902459D01*
X84246398Y-66906283D01*
X84234685Y-66920656D01*
X84228028Y-66928179D01*
X84198810Y-66958621D01*
X84195979Y-66964069D01*
X84182089Y-66985200D01*
X84178330Y-66989813D01*
X84162162Y-67028253D01*
X84157889Y-67037358D01*
X84130003Y-67091013D01*
X84127749Y-67097836D01*
X84126939Y-67102896D01*
X84123307Y-67115599D01*
X84119804Y-67146586D01*
X84119029Y-67152263D01*
X84117253Y-67163352D01*
X84116495Y-67167605D01*
X84111697Y-67192068D01*
X84111592Y-67194135D01*
X84110192Y-67207425D01*
X84104147Y-67245161D01*
X80081468Y-67245161D01*
X80072507Y-67239278D01*
X80042515Y-67219451D01*
X80010030Y-67204230D01*
X79509599Y-66967833D01*
X79501654Y-66964069D01*
X79477306Y-66952534D01*
X79477303Y-66952533D01*
X79477039Y-66952408D01*
X79442311Y-66941722D01*
X78905951Y-66776013D01*
X78872824Y-66765193D01*
X78870886Y-66764726D01*
X78861629Y-66763262D01*
X78836485Y-66759285D01*
X78266411Y-66659730D01*
X78257939Y-66657943D01*
X78244409Y-66654591D01*
X78238762Y-66654024D01*
X78231409Y-66653286D01*
X78222488Y-66652060D01*
X78216243Y-66650970D01*
X78209614Y-66649812D01*
X78195673Y-66649392D01*
X78187025Y-66648828D01*
X78000911Y-66630141D01*
X77989394Y-66628435D01*
X77983085Y-66627195D01*
X77968217Y-66626431D01*
X77962530Y-66626139D01*
X77956510Y-66625683D01*
X77948339Y-66624862D01*
X77936058Y-66623630D01*
X77936056Y-66623630D01*
X77929640Y-66623904D01*
X77917993Y-66623854D01*
X77860554Y-66620905D01*
X77848753Y-66619586D01*
X77818797Y-66618730D01*
X77815989Y-66618618D01*
X77786048Y-66617082D01*
X77774181Y-66617455D01*
X77641798Y-66613670D01*
X77636474Y-66613162D01*
X77631229Y-66613060D01*
X77631227Y-66613060D01*
X77597792Y-66612413D01*
X77592086Y-66612249D01*
X77559034Y-66611305D01*
X77553670Y-66611559D01*
X77344713Y-66607516D01*
X77341652Y-66607246D01*
X77300403Y-66606660D01*
X77259138Y-66605862D01*
X77256086Y-66606029D01*
X76972248Y-66601988D01*
X76970244Y-66601819D01*
X76927874Y-66601356D01*
X76885375Y-66600751D01*
X76883360Y-66600870D01*
X76528885Y-66596997D01*
X76527423Y-66596879D01*
X76484234Y-66596510D01*
X76441371Y-66596042D01*
X76439928Y-66596131D01*
X76019800Y-66592540D01*
X76018662Y-66592450D01*
X75975190Y-66592159D01*
X75941016Y-66591867D01*
X75941002Y-66591867D01*
X75939905Y-66591858D01*
X75939529Y-66591908D01*
X75939205Y-66591917D01*
X75441437Y-66588578D01*
X75441174Y-66588567D01*
X75440868Y-66588522D01*
X75439962Y-66588517D01*
X75439956Y-66588517D01*
X75405385Y-66588337D01*
X75361832Y-66588045D01*
X75360909Y-66588105D01*
X74824814Y-66585313D01*
X74824026Y-66585253D01*
X74780495Y-66585081D01*
X74780262Y-66585081D01*
X74780071Y-66585080D01*
X74736523Y-66584853D01*
X74735728Y-66584906D01*
X74140878Y-66582571D01*
X74140671Y-66582563D01*
X74140448Y-66582531D01*
X74139778Y-66582529D01*
X74139775Y-66582529D01*
X74105547Y-66582433D01*
X74070131Y-66582294D01*
X74070109Y-66582294D01*
X74069421Y-66582292D01*
X74069186Y-66582324D01*
X74068983Y-66582331D01*
X73420688Y-66580525D01*
X73420506Y-66580518D01*
X73420296Y-66580488D01*
X73419683Y-66580486D01*
X73419659Y-66580486D01*
X73384993Y-66580426D01*
X73384992Y-66580426D01*
X73349222Y-66580327D01*
X73349220Y-66580327D01*
X73340817Y-66580304D01*
X73340172Y-66580348D01*
X72669629Y-66579183D01*
X72669016Y-66579138D01*
X72624425Y-66579104D01*
X72590060Y-66579045D01*
X72590059Y-66579045D01*
X72589468Y-66579044D01*
X72589275Y-66579071D01*
X72589097Y-66579077D01*
X71866983Y-66578533D01*
X71866883Y-66578529D01*
X71866773Y-66578514D01*
X71866461Y-66578513D01*
X71866436Y-66578513D01*
X71831173Y-66578506D01*
X71795795Y-66578480D01*
X71795787Y-66578480D01*
X71795452Y-66578480D01*
X71795345Y-66578494D01*
X71795240Y-66578498D01*
X71742224Y-66578489D01*
X71742192Y-66578487D01*
X71742173Y-66578485D01*
X71742131Y-66578484D01*
X71742108Y-66578484D01*
X71705662Y-66578481D01*
X71670702Y-66578475D01*
X71670701Y-66578475D01*
X71670633Y-66578475D01*
X71670617Y-66578477D01*
X71670585Y-66578478D01*
X70899441Y-66578414D01*
X70899414Y-66578413D01*
X70899380Y-66578409D01*
X70899277Y-66578409D01*
X70864710Y-66578412D01*
X70827977Y-66578409D01*
X70827976Y-66578409D01*
X70827868Y-66578409D01*
X70827831Y-66578413D01*
X70827800Y-66578415D01*
X70144508Y-66578474D01*
X70144440Y-66578471D01*
X70144382Y-66578464D01*
X70144186Y-66578464D01*
X70144184Y-66578464D01*
X70108223Y-66578478D01*
X70073143Y-66578481D01*
X70073116Y-66578481D01*
X70072946Y-66578482D01*
X70072882Y-66578490D01*
X70072822Y-66578493D01*
X69472520Y-66578739D01*
X69472422Y-66578735D01*
X69472323Y-66578722D01*
X69472009Y-66578722D01*
X69472001Y-66578722D01*
X69436922Y-66578755D01*
X69401319Y-66578769D01*
X69401295Y-66578769D01*
X69400989Y-66578770D01*
X69400881Y-66578785D01*
X69400785Y-66578789D01*
X68887362Y-66579270D01*
X68886862Y-66579235D01*
X68842225Y-66579313D01*
X68807632Y-66579345D01*
X68807616Y-66579345D01*
X68807139Y-66579346D01*
X68806975Y-66579369D01*
X68806839Y-66579374D01*
X68366537Y-66580143D01*
X68365789Y-66580092D01*
X68322224Y-66580221D01*
X68321996Y-66580222D01*
X68321913Y-66580222D01*
X68287259Y-66580282D01*
X68287238Y-66580282D01*
X68286529Y-66580284D01*
X68286287Y-66580318D01*
X68286060Y-66580327D01*
X67905664Y-66581452D01*
X67905339Y-66581441D01*
X67904986Y-66581393D01*
X67903964Y-66581397D01*
X67903939Y-66581397D01*
X67869781Y-66581559D01*
X67835348Y-66581660D01*
X67835325Y-66581660D01*
X67834271Y-66581664D01*
X67833905Y-66581717D01*
X67833607Y-66581729D01*
X67525071Y-66583184D01*
X67523505Y-66583081D01*
X67480639Y-66583394D01*
X67437713Y-66583596D01*
X67436143Y-66583718D01*
X67194354Y-66585480D01*
X67192077Y-66585339D01*
X67150877Y-66585794D01*
X67150044Y-66585804D01*
X67118821Y-66586031D01*
X67107863Y-66586112D01*
X67105595Y-66586294D01*
X66916959Y-66588379D01*
X66913633Y-66588187D01*
X66872615Y-66588869D01*
X66831699Y-66589320D01*
X66828372Y-66589604D01*
X66687532Y-66591944D01*
X66682651Y-66591697D01*
X66643432Y-66592677D01*
X66604182Y-66593329D01*
X66599301Y-66593780D01*
X66500539Y-66596248D01*
X66493215Y-66595956D01*
X66456671Y-66597345D01*
X66420190Y-66598257D01*
X66412918Y-66599007D01*
X66349732Y-66601409D01*
X66338648Y-66601156D01*
X66307693Y-66602982D01*
X66305106Y-66603107D01*
X66274200Y-66604282D01*
X66263188Y-66605607D01*
X66227591Y-66607708D01*
X66214317Y-66607779D01*
X66212026Y-66607668D01*
X66187462Y-66609997D01*
X66183071Y-66610334D01*
X66158420Y-66611789D01*
X66156144Y-66612255D01*
X66143030Y-66614211D01*
X66123391Y-66616074D01*
X66113784Y-66616610D01*
X66102250Y-66616805D01*
X66087003Y-66619261D01*
X66079002Y-66620284D01*
X66063605Y-66621744D01*
X66052384Y-66624459D01*
X66042958Y-66626355D01*
X66017710Y-66630423D01*
X65982259Y-66635718D01*
X65961035Y-66642341D01*
X65942853Y-66646543D01*
X65915828Y-66650677D01*
X65886250Y-66664506D01*
X65875538Y-66668663D01*
X65866578Y-66673704D01*
X65851519Y-66680746D01*
X65813669Y-66698283D01*
X65785234Y-66711457D01*
X65753616Y-66737715D01*
X65742385Y-66746020D01*
X65741944Y-66746309D01*
X65722115Y-66763804D01*
X65719300Y-66766214D01*
X65665944Y-66810525D01*
X65664730Y-66811908D01*
X65650112Y-66835110D01*
X65638546Y-66849544D01*
X65625711Y-66872856D01*
X65619981Y-66882251D01*
X65610978Y-66895636D01*
X65610748Y-66896114D01*
X65603982Y-66908326D01*
X65584424Y-66939370D01*
X65583305Y-66943311D01*
X65572652Y-66969233D01*
X65567289Y-66978975D01*
X65557747Y-67022121D01*
X65554893Y-67032762D01*
X65540117Y-67079445D01*
X65539672Y-67138412D01*
X65539329Y-67146746D01*
X65538223Y-67161491D01*
X47760000Y-67161491D01*
X47760000Y-65962706D01*
X47760118Y-65957297D01*
X47761231Y-65931808D01*
X47778791Y-65529605D01*
X47779731Y-65518872D01*
X47835255Y-65097121D01*
X47837128Y-65086491D01*
X47929202Y-64671175D01*
X47932000Y-64660737D01*
X47972343Y-64532786D01*
X48011275Y-64474770D01*
X48075393Y-64447011D01*
X48144341Y-64458324D01*
X48196227Y-64505117D01*
X48202801Y-64517278D01*
X48263456Y-64646176D01*
X48263462Y-64646188D01*
X48265119Y-64649708D01*
X48267201Y-64652989D01*
X48267204Y-64652994D01*
X48431618Y-64912070D01*
X48431622Y-64912076D01*
X48433709Y-64915364D01*
X48436188Y-64918361D01*
X48436192Y-64918366D01*
X48504585Y-65001038D01*
X48634266Y-65157795D01*
X48863626Y-65373179D01*
X48866781Y-65375471D01*
X48866782Y-65375472D01*
X48884782Y-65388550D01*
X49118172Y-65558117D01*
X49121579Y-65559990D01*
X49388729Y-65706858D01*
X49393890Y-65709695D01*
X49686431Y-65825520D01*
X49991183Y-65903767D01*
X50303338Y-65943201D01*
X50307233Y-65943201D01*
X50614079Y-65943201D01*
X50617974Y-65943201D01*
X50930129Y-65903767D01*
X51234881Y-65825520D01*
X51527422Y-65709695D01*
X51803140Y-65558117D01*
X52057686Y-65373179D01*
X52287046Y-65157795D01*
X52487603Y-64915364D01*
X52656193Y-64649708D01*
X52790159Y-64365016D01*
X52887387Y-64065780D01*
X52946344Y-63756716D01*
X52966100Y-63442701D01*
X52946344Y-63128686D01*
X52887387Y-62819622D01*
X52790159Y-62520386D01*
X52656193Y-62235694D01*
X52501420Y-61991810D01*
X52489693Y-61973331D01*
X52489691Y-61973328D01*
X52487603Y-61970038D01*
X52287046Y-61727607D01*
X52057686Y-61512223D01*
X51803140Y-61327285D01*
X51799737Y-61325414D01*
X51799732Y-61325411D01*
X51739301Y-61292189D01*
X51690037Y-61242643D01*
X51675381Y-61174327D01*
X51699985Y-61108933D01*
X51756038Y-61067222D01*
X51772194Y-61062468D01*
X51886487Y-61037129D01*
X51897121Y-61035255D01*
X52318872Y-60979731D01*
X52329605Y-60978791D01*
X52757297Y-60960117D01*
X52762706Y-60960000D01*
X223097294Y-60960000D01*
X223102702Y-60960117D01*
G37*
%TD.AperFunction*%
%TD*%
%TA.AperFunction,Conductor*%
%TO.N,/Row1*%
G36*
X164945294Y-64404728D02*
G01*
X164951280Y-64410890D01*
X165099123Y-64765498D01*
X165099144Y-64774452D01*
X165099123Y-64774502D01*
X164951280Y-65129109D01*
X164944933Y-65135427D01*
X164936344Y-65135551D01*
X164307563Y-64897858D01*
X164301036Y-64891727D01*
X164300000Y-64886914D01*
X164300000Y-64653085D01*
X164303427Y-64644812D01*
X164307563Y-64642141D01*
X164936345Y-64404448D01*
X164945294Y-64404728D01*
G37*
%TD.AperFunction*%
%TD*%
%TA.AperFunction,Conductor*%
%TO.N,/Row1*%
G36*
X111964199Y-84390701D02*
G01*
X111971502Y-84395883D01*
X111972828Y-84398836D01*
X112126625Y-84926879D01*
X112125649Y-84935781D01*
X112119891Y-84940951D01*
X111764279Y-85089098D01*
X111755325Y-85089116D01*
X111755276Y-85089096D01*
X111402577Y-84941986D01*
X111396261Y-84935639D01*
X111396283Y-84926684D01*
X111396872Y-84925473D01*
X111722896Y-84344228D01*
X111729931Y-84338691D01*
X111735701Y-84338547D01*
X111964199Y-84390701D01*
G37*
%TD.AperFunction*%
%TD*%
%TA.AperFunction,Conductor*%
%TO.N,/Col1*%
G36*
X111940696Y-98700890D02*
G01*
X112552437Y-98932141D01*
X112558964Y-98938272D01*
X112560000Y-98943085D01*
X112560000Y-99176914D01*
X112556573Y-99185187D01*
X112552437Y-99187858D01*
X111923655Y-99425551D01*
X111914705Y-99425271D01*
X111908719Y-99419109D01*
X111812306Y-99187858D01*
X111760875Y-99064499D01*
X111760855Y-99055550D01*
X111908719Y-98700889D01*
X111915066Y-98694572D01*
X111923654Y-98694448D01*
X111940696Y-98700890D01*
G37*
%TD.AperFunction*%
%TD*%
%TA.AperFunction,Conductor*%
%TO.N,/Col1*%
G36*
X175330075Y-114783089D02*
G01*
X175340705Y-114787470D01*
X175687121Y-114930245D01*
X175693463Y-114936565D01*
X175693483Y-114936611D01*
X175827972Y-115263605D01*
X175838639Y-115289539D01*
X175838616Y-115298493D01*
X175832268Y-115304810D01*
X175830674Y-115305335D01*
X175111485Y-115486375D01*
X175102626Y-115485071D01*
X175097820Y-115479506D01*
X175067502Y-115406314D01*
X175008389Y-115263604D01*
X175008389Y-115254651D01*
X175009427Y-115252692D01*
X175315847Y-114787469D01*
X175323259Y-114782446D01*
X175330075Y-114783089D01*
G37*
%TD.AperFunction*%
%TD*%
%TA.AperFunction,Conductor*%
%TO.N,/Col2*%
G36*
X111940696Y-101240890D02*
G01*
X112552437Y-101472141D01*
X112558964Y-101478272D01*
X112560000Y-101483085D01*
X112560000Y-101716914D01*
X112556573Y-101725187D01*
X112552437Y-101727858D01*
X111923655Y-101965551D01*
X111914705Y-101965271D01*
X111908719Y-101959109D01*
X111812306Y-101727858D01*
X111760875Y-101604499D01*
X111760855Y-101595550D01*
X111908719Y-101240889D01*
X111915066Y-101234572D01*
X111923654Y-101234448D01*
X111940696Y-101240890D01*
G37*
%TD.AperFunction*%
%TD*%
%TA.AperFunction,Conductor*%
%TO.N,/Col2*%
G36*
X191331001Y-114783466D02*
G01*
X191344045Y-114788838D01*
X191687027Y-114930073D01*
X191693372Y-114936392D01*
X191693392Y-114936441D01*
X191838881Y-115290131D01*
X191838859Y-115299086D01*
X191832512Y-115305402D01*
X191831461Y-115305777D01*
X191198228Y-115498082D01*
X191189316Y-115497207D01*
X191185100Y-115493387D01*
X191054895Y-115298525D01*
X191053149Y-115289745D01*
X191054268Y-115286582D01*
X191316194Y-114788836D01*
X191323078Y-114783112D01*
X191331001Y-114783466D01*
G37*
%TD.AperFunction*%
%TD*%
%TA.AperFunction,Conductor*%
%TO.N,/Col3*%
G36*
X111940696Y-103780890D02*
G01*
X112552437Y-104012141D01*
X112558964Y-104018272D01*
X112560000Y-104023085D01*
X112560000Y-104256914D01*
X112556573Y-104265187D01*
X112552437Y-104267858D01*
X111923655Y-104505551D01*
X111914705Y-104505271D01*
X111908719Y-104499109D01*
X111812306Y-104267858D01*
X111760875Y-104144499D01*
X111760855Y-104135550D01*
X111908719Y-103780889D01*
X111915066Y-103774572D01*
X111923654Y-103774448D01*
X111940696Y-103780890D01*
G37*
%TD.AperFunction*%
%TD*%
%TA.AperFunction,Conductor*%
%TO.N,/Col3*%
G36*
X207332154Y-114783940D02*
G01*
X207686968Y-114929994D01*
X207693314Y-114936312D01*
X207693334Y-114936361D01*
X207839247Y-115291023D01*
X207839226Y-115299978D01*
X207832879Y-115306295D01*
X207832686Y-115306372D01*
X207271828Y-115525588D01*
X207262875Y-115525408D01*
X207258527Y-115522114D01*
X207109654Y-115340712D01*
X207107055Y-115332144D01*
X207107792Y-115329057D01*
X207119080Y-115299978D01*
X207316834Y-114790539D01*
X207323021Y-114784069D01*
X207331974Y-114783868D01*
X207332154Y-114783940D01*
G37*
%TD.AperFunction*%
%TD*%
%TA.AperFunction,Conductor*%
%TO.N,/Row4*%
G36*
X164945294Y-80914728D02*
G01*
X164951280Y-80920890D01*
X165099123Y-81275498D01*
X165099144Y-81284452D01*
X165099123Y-81284502D01*
X164951280Y-81639109D01*
X164944933Y-81645427D01*
X164936344Y-81645551D01*
X164307563Y-81407858D01*
X164301036Y-81401727D01*
X164300000Y-81396914D01*
X164300000Y-81163085D01*
X164303427Y-81154812D01*
X164307563Y-81152141D01*
X164936345Y-80914448D01*
X164945294Y-80914728D01*
G37*
%TD.AperFunction*%
%TD*%
%TA.AperFunction,Conductor*%
%TO.N,/Row4*%
G36*
X112243014Y-86981643D02*
G01*
X112408356Y-87146985D01*
X112411783Y-87155258D01*
X112410747Y-87160071D01*
X112134206Y-87772760D01*
X112127679Y-87778891D01*
X112119090Y-87778767D01*
X111763804Y-87632563D01*
X111757457Y-87626245D01*
X111757436Y-87626195D01*
X111611232Y-87270909D01*
X111611253Y-87261955D01*
X111617237Y-87255794D01*
X112229928Y-86979251D01*
X112238878Y-86978972D01*
X112243014Y-86981643D01*
G37*
%TD.AperFunction*%
%TD*%
%TA.AperFunction,Conductor*%
%TO.N,/Row7*%
G36*
X111940696Y-92350890D02*
G01*
X112552437Y-92582141D01*
X112558964Y-92588272D01*
X112560000Y-92593085D01*
X112560000Y-92826914D01*
X112556573Y-92835187D01*
X112552437Y-92837858D01*
X111923655Y-93075551D01*
X111914705Y-93075271D01*
X111908719Y-93069109D01*
X111812306Y-92837858D01*
X111760875Y-92714499D01*
X111760855Y-92705550D01*
X111908719Y-92350889D01*
X111915066Y-92344572D01*
X111923654Y-92344448D01*
X111940696Y-92350890D01*
G37*
%TD.AperFunction*%
%TD*%
%TA.AperFunction,Conductor*%
%TO.N,/Row7*%
G36*
X164744560Y-96006377D02*
G01*
X165240449Y-96146871D01*
X165247475Y-96152423D01*
X165248517Y-96161317D01*
X165248080Y-96162580D01*
X165102600Y-96516155D01*
X165096283Y-96522502D01*
X165096233Y-96522522D01*
X164742064Y-96668291D01*
X164733109Y-96668271D01*
X164726792Y-96661925D01*
X164726503Y-96661146D01*
X164573059Y-96197215D01*
X164573714Y-96188286D01*
X164575438Y-96185753D01*
X164732647Y-96009837D01*
X164740715Y-96005952D01*
X164744560Y-96006377D01*
G37*
%TD.AperFunction*%
%TD*%
%TA.AperFunction,Conductor*%
%TO.N,/Row\u002A*%
G36*
X111940696Y-94890890D02*
G01*
X112552437Y-95122141D01*
X112558964Y-95128272D01*
X112560000Y-95133085D01*
X112560000Y-95366914D01*
X112556573Y-95375187D01*
X112552437Y-95377858D01*
X111923655Y-95615551D01*
X111914705Y-95615271D01*
X111908719Y-95609109D01*
X111812306Y-95377858D01*
X111760875Y-95254499D01*
X111760855Y-95245550D01*
X111908719Y-94890889D01*
X111915066Y-94884572D01*
X111923654Y-94884448D01*
X111940696Y-94890890D01*
G37*
%TD.AperFunction*%
%TD*%
%TA.AperFunction,Conductor*%
%TO.N,/Row\u002A*%
G36*
X164630071Y-112379252D02*
G01*
X165242760Y-112655793D01*
X165248891Y-112662320D01*
X165248767Y-112670909D01*
X165102563Y-113026195D01*
X165096245Y-113032542D01*
X165096195Y-113032563D01*
X164740909Y-113178767D01*
X164731955Y-113178746D01*
X164725793Y-113172760D01*
X164661676Y-113030707D01*
X164499279Y-112670909D01*
X164449252Y-112560071D01*
X164448972Y-112551121D01*
X164451641Y-112546987D01*
X164616986Y-112381642D01*
X164625258Y-112378216D01*
X164630071Y-112379252D01*
G37*
%TD.AperFunction*%
%TD*%
%TA.AperFunction,Conductor*%
%TO.N,/ColA*%
G36*
X111940696Y-106320890D02*
G01*
X112552437Y-106552141D01*
X112558964Y-106558272D01*
X112560000Y-106563085D01*
X112560000Y-106796914D01*
X112556573Y-106805187D01*
X112552437Y-106807858D01*
X111923655Y-107045551D01*
X111914705Y-107045271D01*
X111908719Y-107039109D01*
X111812306Y-106807858D01*
X111760875Y-106684499D01*
X111760855Y-106675550D01*
X111908719Y-106320889D01*
X111915066Y-106314572D01*
X111923654Y-106314448D01*
X111940696Y-106320890D01*
G37*
%TD.AperFunction*%
%TD*%
%TA.AperFunction,Conductor*%
%TO.N,/ColA*%
G36*
X223331615Y-114783717D02*
G01*
X223474469Y-114842503D01*
X223686901Y-114929921D01*
X223693248Y-114936239D01*
X223693269Y-114936289D01*
X223839473Y-115291575D01*
X223839452Y-115300529D01*
X223833466Y-115306691D01*
X223220777Y-115583232D01*
X223211827Y-115583512D01*
X223207691Y-115580841D01*
X223042349Y-115415499D01*
X223038922Y-115407226D01*
X223039958Y-115402413D01*
X223085944Y-115300529D01*
X223316500Y-114789723D01*
X223323026Y-114783593D01*
X223331615Y-114783717D01*
G37*
%TD.AperFunction*%
%TD*%
%TA.AperFunction,Conductor*%
%TO.N,/RightLED*%
G36*
X158595294Y-89804728D02*
G01*
X158601280Y-89810890D01*
X158749123Y-90165498D01*
X158749144Y-90174452D01*
X158749123Y-90174502D01*
X158601280Y-90529109D01*
X158594933Y-90535427D01*
X158586344Y-90535551D01*
X157957563Y-90297858D01*
X157951036Y-90291727D01*
X157950000Y-90286914D01*
X157950000Y-90053085D01*
X157953427Y-90044812D01*
X157957563Y-90042141D01*
X158586345Y-89804448D01*
X158595294Y-89804728D01*
G37*
%TD.AperFunction*%
%TD*%
%TA.AperFunction,Conductor*%
%TO.N,/RightLED*%
G36*
X76705315Y-90858642D02*
G01*
X76709753Y-90862578D01*
X76839879Y-91057322D01*
X76841626Y-91066104D01*
X76840543Y-91069198D01*
X76574480Y-91583545D01*
X76567635Y-91589318D01*
X76559633Y-91588988D01*
X76203678Y-91442411D01*
X76197333Y-91436092D01*
X76197313Y-91436043D01*
X76051720Y-91082100D01*
X76051742Y-91073145D01*
X76058089Y-91066829D01*
X76058877Y-91066538D01*
X76696388Y-90857958D01*
X76705315Y-90858642D01*
G37*
%TD.AperFunction*%
%TD*%
M02*
