M48
; DRILL file {KiCad 7.0.2-0} date 2023 September 13, Wednesday 20:52:34
; FORMAT={-:-/ absolute / metric / decimal}
; #@! TF.CreationDate,2023-09-13T20:52:34-05:00
; #@! TF.GenerationSoftware,Kicad,Pcbnew,7.0.2-0
; #@! TF.FileFunction,Plated,1,2,PTH
FMAT,2
METRIC
; #@! TA.AperFunction,Plated,PTH,ViaDrill
T1C0.400
; #@! TA.AperFunction,Plated,PTH,ComponentDrill
T2C1.050
; #@! TA.AperFunction,Plated,PTH,ComponentDrill
T3C3.000
%
G90
G05
T1
X50.8Y-83.82
X55.88Y-113.03
X68.58Y-113.03
X76.2Y-91.44
X92.71Y-92.71
X111.76Y-85.09
X111.76Y-87.63
X111.76Y-92.71
X111.76Y-95.25
X111.76Y-99.06
X111.76Y-101.6
X111.76Y-104.14
X111.76Y-106.68
X135.89Y-78.74
X152.4Y-125.73
X155.207Y-114.569
X158.75Y-90.17
X159.047Y-108.9
X160.02Y-73.66
X165.1Y-64.77
X165.1Y-81.28
X165.1Y-96.52
X165.1Y-113.03
X175.691Y-66.932
X175.691Y-82.932
X175.691Y-98.932
X175.691Y-114.932
X191.691Y-66.932
X191.691Y-82.932
X191.691Y-98.932
X191.691Y-114.932
X207.691Y-66.932
X207.691Y-82.932
X207.691Y-98.932
X207.691Y-114.932
X210.82Y-67.31
X210.82Y-125.73
X223.691Y-66.932
X223.691Y-82.932
X223.691Y-98.932
X223.691Y-114.932
T2
X89.831Y-101.272
X92.371Y-101.272
X94.911Y-101.272
X97.451Y-101.272
T3
X50.461Y-63.443
X50.461Y-128.213
X225.721Y-63.443
X225.721Y-128.213
T0
M30
