M48
; DRILL file {KiCad 7.0.2-0} date 2023 December 08, Friday 09:20:54
; FORMAT={-:-/ absolute / metric / decimal}
; #@! TF.CreationDate,2023-12-08T09:20:54-06:00
; #@! TF.GenerationSoftware,Kicad,Pcbnew,7.0.2-0
; #@! TF.FileFunction,Plated,1,2,PTH
FMAT,2
METRIC
; #@! TA.AperFunction,Plated,PTH,ViaDrill
T1C0.400
; #@! TA.AperFunction,Plated,PTH,ComponentDrill
T2C1.020
; #@! TA.AperFunction,Plated,PTH,ComponentDrill
T3C1.100
; #@! TA.AperFunction,Plated,PTH,ComponentDrill
T4C3.000
%
G90
G05
T1
X53.34Y-100.33
X53.34Y-105.41
X53.34Y-110.49
X53.34Y-115.57
X53.34Y-120.65
X55.88Y-86.36
X57.15Y-71.12
X59.69Y-73.66
X59.69Y-87.63
X59.69Y-100.33
X59.69Y-105.41
X59.69Y-110.49
X59.69Y-115.57
X59.69Y-120.646
X65.403Y-62.509
X67.31Y-67.31
X77.804Y-62.509
X78.74Y-93.98
X82.55Y-69.85
X82.55Y-111.76
X86.36Y-96.52
X90.731Y-85.373
X99.06Y-72.39
X113.03Y-77.47
X113.03Y-119.38
X114.3Y-120.65
X115.57Y-80.01
X115.57Y-121.92
X116.84Y-64.77
X116.84Y-74.93
X116.84Y-123.19
X118.11Y-124.46
X123.19Y-115.57
X128.27Y-81.28
X138.43Y-110.49
X138.43Y-113.03
X139.7Y-105.547
X139.7Y-113.03
X143.457Y-113.524
X144.78Y-91.44
X159.226Y-93.599
X165.1Y-64.77
X165.1Y-81.28
X165.1Y-96.52
X165.1Y-113.03
X175.691Y-66.932
X175.691Y-82.932
X175.691Y-98.932
X175.691Y-114.932
X191.691Y-66.932
X191.691Y-82.932
X191.691Y-98.932
X191.691Y-114.932
X207.691Y-66.932
X207.691Y-82.932
X207.691Y-98.932
X207.691Y-114.932
X223.691Y-66.932
X223.691Y-82.932
X223.691Y-98.932
X223.691Y-114.932
T2
X135.89Y-62.23
X135.89Y-64.77
X135.89Y-67.31
X135.89Y-69.85
X135.89Y-72.39
X135.89Y-74.93
X135.89Y-77.47
X135.89Y-80.01
X135.89Y-82.55
X135.89Y-85.09
X135.89Y-87.63
X135.89Y-90.17
X135.89Y-92.71
X135.89Y-95.25
X135.89Y-97.79
X135.89Y-100.33
X135.89Y-102.87
X135.89Y-105.41
X135.89Y-107.95
X135.89Y-110.49
X142.24Y-110.26
X144.78Y-110.26
X147.32Y-110.26
X153.67Y-62.23
X153.67Y-64.77
X153.67Y-67.31
X153.67Y-69.85
X153.67Y-72.39
X153.67Y-74.93
X153.67Y-77.47
X153.67Y-80.01
X153.67Y-82.55
X153.67Y-85.09
X153.67Y-87.63
X153.67Y-90.17
X153.67Y-92.71
X153.67Y-95.25
X153.67Y-97.79
X153.67Y-100.33
X153.67Y-102.87
X153.67Y-105.41
X153.67Y-107.95
X153.67Y-110.49
T3
X107.95Y-102.87
X110.49Y-102.87
X113.03Y-102.87
X115.57Y-102.87
T4
X50.461Y-62.443
X50.461Y-128.213
X161.29Y-65.443
X161.29Y-125.213
X225.721Y-62.443
X225.721Y-128.213
T0
M30
