%TF.GenerationSoftware,KiCad,Pcbnew,7.0.2-0*%
%TF.CreationDate,2023-10-18T21:21:33-05:00*%
%TF.ProjectId,CowPi-mk4b-natural,436f7750-692d-46d6-9b34-622d6e617475,mk4b*%
%TF.SameCoordinates,Original*%
%TF.FileFunction,Soldermask,Bot*%
%TF.FilePolarity,Negative*%
%FSLAX46Y46*%
G04 Gerber Fmt 4.6, Leading zero omitted, Abs format (unit mm)*
G04 Created by KiCad (PCBNEW 7.0.2-0) date 2023-10-18 21:21:33*
%MOMM*%
%LPD*%
G01*
G04 APERTURE LIST*
%ADD10R,1.700000X1.700000*%
%ADD11C,1.700000*%
%ADD12O,1.800000X1.800000*%
%ADD13O,1.500000X1.500000*%
%ADD14O,1.700000X1.700000*%
%ADD15C,4.000000*%
%ADD16C,0.900025*%
G04 APERTURE END LIST*
D10*
%TO.C,J1*%
X107949984Y-102870000D03*
D11*
X110489989Y-102870000D03*
X113029995Y-102870000D03*
X115570000Y-102870000D03*
%TD*%
D12*
%TO.C,U45*%
X142055000Y-62360000D03*
D13*
X142355000Y-65390000D03*
X147205000Y-65390000D03*
D12*
X147505000Y-62360000D03*
D14*
X135890000Y-62230000D03*
X135890000Y-64770000D03*
D10*
X135890000Y-67310000D03*
D14*
X135890000Y-69850000D03*
X135890000Y-72390000D03*
X135890000Y-74930000D03*
X135890000Y-77470000D03*
D10*
X135890000Y-80010000D03*
D14*
X135890000Y-82550000D03*
X135890000Y-85090000D03*
X135890000Y-87630000D03*
X135890000Y-90170000D03*
D10*
X135890000Y-92710000D03*
D14*
X135890000Y-95250000D03*
X135890000Y-97790000D03*
X135890000Y-100330000D03*
X135890000Y-102870000D03*
D10*
X135890000Y-105410000D03*
D14*
X135890000Y-107950000D03*
X135890000Y-110490000D03*
X153670000Y-110490000D03*
X153670000Y-107950000D03*
D10*
X153670000Y-105410000D03*
D14*
X153670000Y-102870000D03*
X153670000Y-100330000D03*
X153670000Y-97790000D03*
X153670000Y-95250000D03*
D10*
X153670000Y-92710000D03*
D14*
X153670000Y-90170000D03*
X153670000Y-87630000D03*
X153670000Y-85090000D03*
X153670000Y-82550000D03*
D10*
X153670000Y-80010000D03*
D14*
X153670000Y-77470000D03*
X153670000Y-74930000D03*
X153670000Y-72390000D03*
X153670000Y-69850000D03*
D10*
X153670000Y-67310000D03*
D14*
X153670000Y-64770000D03*
X153670000Y-62230000D03*
X142240000Y-110260000D03*
D10*
X144780000Y-110260000D03*
D14*
X147320000Y-110260000D03*
%TD*%
D15*
%TO.C,H4*%
X225720656Y-62442701D03*
%TD*%
%TO.C,H1*%
X50460656Y-128212701D03*
%TD*%
D16*
%TO.C,U35*%
X75280318Y-123652650D03*
X78280318Y-123652650D03*
%TD*%
D15*
%TO.C,H3*%
X50460656Y-62442701D03*
%TD*%
%TO.C,H6*%
X161290000Y-125212701D03*
%TD*%
%TO.C,H5*%
X161290000Y-65442701D03*
%TD*%
%TO.C,H2*%
X225720656Y-128212701D03*
%TD*%
D16*
%TO.C,U36*%
X86710318Y-123652650D03*
X89710318Y-123652650D03*
%TD*%
M02*
