M48
; DRILL file {KiCad 8.0.7} date 2025-01-13T12:33:03-0600
; FORMAT={-:-/ absolute / inch / decimal}
; #@! TF.CreationDate,2025-01-13T12:33:03-06:00
; #@! TF.GenerationSoftware,Kicad,Pcbnew,8.0.7
; #@! TF.FileFunction,Plated,1,2,PTH
FMAT,2
INCH
; #@! TA.AperFunction,Plated,PTH,ViaDrill
T1C0.0157
; #@! TA.AperFunction,Plated,PTH,ComponentDrill
T2C0.0402
; #@! TA.AperFunction,Plated,PTH,ComponentDrill
T3C0.0433
; #@! TA.AperFunction,Plated,PTH,ComponentDrill
T4C0.1181
%
G90
G05
T1
X2.1Y-3.95
X2.1Y-4.15
X2.1Y-4.35
X2.1Y-4.55
X2.1Y-4.75
X2.2Y-3.4
X2.25Y-2.8
X2.35Y-2.9
X2.35Y-3.45
X2.35Y-3.95
X2.35Y-4.15
X2.35Y-4.35
X2.35Y-4.55
X2.35Y-4.7498
X2.5749Y-2.461
X2.65Y-2.65
X3.0632Y-2.461
X3.1Y-3.7
X3.25Y-2.75
X3.25Y-4.4
X3.4Y-3.8
X3.5721Y-3.3611
X3.9Y-2.85
X4.45Y-3.05
X4.45Y-4.7
X4.5Y-4.75
X4.55Y-3.15
X4.55Y-4.8
X4.6Y-2.55
X4.6Y-2.95
X4.6Y-4.85
X4.65Y-4.9
X4.85Y-4.55
X5.05Y-3.2
X5.45Y-4.35
X5.45Y-4.45
X5.5Y-4.1554
X5.5Y-4.45
X5.6479Y-4.4694
X5.7Y-3.6
X6.2687Y-3.685
X6.5Y-2.55
X6.5Y-3.2
X6.5Y-3.8
X6.5Y-4.45
X6.917Y-2.6351
X6.917Y-3.2651
X6.917Y-3.895
X6.917Y-4.5249
X7.5469Y-2.6351
X7.5469Y-3.2651
X7.5469Y-3.895
X7.5469Y-4.5249
X8.1768Y-2.6351
X8.1768Y-3.2651
X8.1768Y-3.895
X8.1768Y-4.5249
X8.8067Y-2.6351
X8.8067Y-3.2651
X8.8067Y-3.895
X8.8067Y-4.5249
T2
X5.35Y-2.45
X5.35Y-2.55
X5.35Y-2.65
X5.35Y-2.75
X5.35Y-2.85
X5.35Y-2.95
X5.35Y-3.05
X5.35Y-3.15
X5.35Y-3.25
X5.35Y-3.35
X5.35Y-3.45
X5.35Y-3.55
X5.35Y-3.65
X5.35Y-3.75
X5.35Y-3.85
X5.35Y-3.95
X5.35Y-4.05
X5.35Y-4.15
X5.35Y-4.25
X5.35Y-4.35
X5.6Y-4.3409
X5.7Y-4.3409
X5.8Y-4.3409
X6.05Y-2.45
X6.05Y-2.55
X6.05Y-2.65
X6.05Y-2.75
X6.05Y-2.85
X6.05Y-2.95
X6.05Y-3.05
X6.05Y-3.15
X6.05Y-3.25
X6.05Y-3.35
X6.05Y-3.45
X6.05Y-3.55
X6.05Y-3.65
X6.05Y-3.75
X6.05Y-3.85
X6.05Y-3.95
X6.05Y-4.05
X6.05Y-4.15
X6.05Y-4.25
X6.05Y-4.35
T3
X4.25Y-4.05
X4.35Y-4.05
X4.45Y-4.05
X4.55Y-4.05
T4
X1.9866Y-2.4584
X1.9866Y-5.0477
X6.35Y-2.5765
X6.35Y-4.9296
X8.8866Y-2.4584
X8.8866Y-5.0477
M30
