M48
; DRILL file {KiCad 7.0.2-0} date 2023 July 30, Sunday 12:28:52
; FORMAT={-:-/ absolute / metric / decimal}
; #@! TF.CreationDate,2023-07-30T12:28:52-05:00
; #@! TF.GenerationSoftware,Kicad,Pcbnew,7.0.2-0
; #@! TF.FileFunction,Plated,1,2,PTH
FMAT,2
METRIC
; #@! TA.AperFunction,Plated,PTH,ViaDrill
T1C0.400
; #@! TA.AperFunction,Plated,PTH,ComponentDrill
T2C0.800
; #@! TA.AperFunction,Plated,PTH,ComponentDrill
T3C0.900
; #@! TA.AperFunction,Plated,PTH,ComponentDrill
T4C1.000
; #@! TA.AperFunction,Plated,PTH,ComponentDrill
T5C1.100
; #@! TA.AperFunction,Plated,PTH,ComponentDrill
T6C3.000
%
G90
G05
T1
X103.24Y-123.227
X104.51Y-123.227
X105.78Y-123.227
X117.21Y-73.697
X118.48Y-74.967
X135.455Y-76.227
X136.26Y-102.907
X155.31Y-100.367
X156.58Y-97.827
T2
X88.58Y-146.087
X91.12Y-146.087
X93.66Y-146.087
X95.777Y-122.083
X95.777Y-124.623
X108.147Y-122.083
X108.147Y-124.623
X108.9Y-146.087
X111.44Y-146.087
X113.98Y-146.087
T3
X88.29Y-121.957
X88.29Y-124.497
X114.96Y-121.957
X114.96Y-124.497
T4
X94.35Y-91.855
X96.89Y-91.855
X99.43Y-91.855
X101.97Y-91.855
X138.8Y-83.857
X138.8Y-94.017
X140.07Y-67.347
X140.07Y-69.887
X140.07Y-87.667
X140.07Y-90.207
X141.34Y-83.857
X141.34Y-94.017
X142.61Y-67.347
X142.61Y-69.887
X142.61Y-87.667
X142.61Y-90.207
X143.88Y-83.857
X143.88Y-94.017
X145.15Y-67.347
X145.15Y-69.887
X145.15Y-87.667
X145.15Y-90.207
X146.42Y-83.857
X146.42Y-94.017
X147.69Y-67.347
X147.69Y-69.887
X147.69Y-87.667
X147.69Y-90.207
X148.96Y-83.857
X148.96Y-94.017
X150.23Y-67.347
X150.23Y-69.887
X150.23Y-87.667
X150.23Y-90.207
X151.5Y-83.857
X151.5Y-94.017
X152.77Y-67.347
X152.77Y-69.887
X152.77Y-87.667
X152.77Y-90.207
X155.31Y-67.347
X155.31Y-69.887
X155.31Y-87.667
X155.31Y-90.207
X157.85Y-67.347
X157.85Y-69.887
X157.85Y-87.667
X157.85Y-90.207
X160.39Y-67.347
X160.39Y-69.887
X160.39Y-87.667
X160.39Y-90.207
X162.93Y-67.347
X162.93Y-69.887
X162.93Y-87.667
X162.93Y-90.207
X165.47Y-67.347
X165.47Y-69.887
X165.47Y-87.667
X165.47Y-90.207
X168.01Y-67.347
X168.01Y-69.887
X168.01Y-87.667
X168.01Y-90.207
X170.55Y-67.347
X170.55Y-69.887
X170.55Y-87.667
X170.55Y-90.207
X173.09Y-67.347
X173.09Y-69.887
X173.09Y-87.667
X173.09Y-90.207
X175.63Y-67.347
X175.63Y-69.887
X175.63Y-87.667
X175.63Y-90.207
X178.17Y-67.347
X178.17Y-69.887
X178.17Y-87.667
X178.17Y-90.207
X180.71Y-67.347
X180.71Y-69.887
X180.71Y-87.667
X180.71Y-90.207
X183.25Y-67.347
X183.25Y-69.887
X183.25Y-87.667
X183.25Y-90.207
X185.79Y-67.347
X185.79Y-69.887
X185.79Y-87.667
X185.79Y-90.207
X188.33Y-67.347
X188.33Y-69.887
X188.33Y-87.667
X188.33Y-90.207
T5
X89.56Y-129.427
X89.56Y-135.927
X94.06Y-129.427
X94.06Y-135.927
X109.88Y-129.427
X109.88Y-135.927
X114.38Y-129.427
X114.38Y-135.927
X114.773Y-105.304
X114.773Y-111.804
X119.273Y-105.304
X119.273Y-111.804
X122.65Y-113.897
X122.65Y-125.897
X122.65Y-137.897
X122.65Y-149.897
X126.46Y-113.897
X126.46Y-125.897
X126.46Y-137.897
X126.46Y-149.897
X126.65Y-107.897
X126.65Y-119.897
X126.65Y-131.897
X126.65Y-143.897
X130.46Y-107.897
X130.46Y-119.897
X130.46Y-131.897
X130.46Y-143.897
X130.65Y-113.897
X130.65Y-125.897
X130.65Y-137.897
X130.65Y-149.897
X134.46Y-113.897
X134.46Y-125.897
X134.46Y-137.897
X134.46Y-149.897
X134.65Y-107.897
X134.65Y-119.897
X134.65Y-131.897
X134.65Y-143.897
X138.46Y-107.897
X138.46Y-119.897
X138.46Y-131.897
X138.46Y-143.897
X144.94Y-108.847
X144.94Y-113.347
X144.94Y-120.847
X144.94Y-125.347
X144.94Y-132.847
X144.94Y-137.347
X144.94Y-144.847
X144.94Y-149.347
X151.44Y-108.847
X151.44Y-113.347
X151.44Y-120.847
X151.44Y-125.347
X151.44Y-132.847
X151.44Y-137.347
X151.44Y-144.847
X151.44Y-149.347
X156.94Y-108.847
X156.94Y-113.347
X156.94Y-120.847
X156.94Y-125.347
X156.94Y-132.847
X156.94Y-137.347
X156.94Y-144.847
X156.94Y-149.347
X163.44Y-108.847
X163.44Y-113.347
X163.44Y-120.847
X163.44Y-125.347
X163.44Y-132.847
X163.44Y-137.347
X163.44Y-144.847
X163.44Y-149.347
X168.94Y-108.847
X168.94Y-113.347
X168.94Y-120.847
X168.94Y-125.347
X168.94Y-132.847
X168.94Y-137.347
X168.94Y-144.847
X168.94Y-149.347
X175.44Y-108.847
X175.44Y-113.347
X175.44Y-120.847
X175.44Y-125.347
X175.44Y-132.847
X175.44Y-137.347
X175.44Y-144.847
X175.44Y-149.347
X180.94Y-108.847
X180.94Y-113.347
X180.94Y-120.847
X180.94Y-125.347
X180.94Y-132.847
X180.94Y-137.347
X180.94Y-144.847
X180.94Y-149.347
X187.44Y-108.847
X187.44Y-113.347
X187.44Y-120.847
X187.44Y-125.347
X187.44Y-132.847
X187.44Y-137.347
X187.44Y-144.847
X187.44Y-149.347
T6
X81.65Y-55.917
X81.65Y-152.437
X192.14Y-55.917
X192.14Y-152.437
T0
M30
