M48
; DRILL file {KiCad 7.0.2-0} date 2023 May 27, Saturday 13:50:34
; FORMAT={-:-/ absolute / metric / decimal}
; #@! TF.CreationDate,2023-05-27T13:50:34-05:00
; #@! TF.GenerationSoftware,Kicad,Pcbnew,7.0.2-0
; #@! TF.FileFunction,Plated,1,2,PTH
FMAT,2
METRIC
; #@! TA.AperFunction,Plated,PTH,ViaDrill
T1C0.400
; #@! TA.AperFunction,Plated,PTH,ComponentDrill
T2C0.800
; #@! TA.AperFunction,Plated,PTH,ComponentDrill
T3C0.900
; #@! TA.AperFunction,Plated,PTH,ComponentDrill
T4C1.000
; #@! TA.AperFunction,Plated,PTH,ComponentDrill
T5C1.016
; #@! TA.AperFunction,Plated,PTH,ComponentDrill
T6C1.100
%
G90
G05
T1
X137.497Y-115.963
X140.97Y-92.71
X140.97Y-102.87
X140.97Y-111.76
X140.97Y-123.19
X153.67Y-119.38
X166.37Y-129.54
X167.64Y-113.03
X173.99Y-81.28
T2
X99.04Y-81.15
X99.04Y-83.69
X103.656Y-130.41
X105.656Y-130.41
X107.656Y-130.41
X111.276Y-130.41
X115.65Y-81.15
X115.65Y-83.69
X116.957Y-130.41
X118.957Y-130.41
X120.957Y-130.41
X124.577Y-130.41
T3
X102.85Y-82.42
X105.39Y-82.42
X109.3Y-82.42
X111.84Y-82.42
T4
X160.0Y-111.56
X160.0Y-116.21
X162.54Y-111.56
X162.54Y-116.21
X164.325Y-95.1
X164.325Y-97.64
X165.08Y-111.56
X165.08Y-116.21
X166.865Y-95.1
X166.865Y-97.64
X166.885Y-82.4
X166.885Y-84.94
X166.885Y-87.48
X169.405Y-90.02
X169.405Y-92.56
X169.405Y-95.1
X169.405Y-97.64
X169.405Y-100.18
X169.405Y-102.72
X169.405Y-105.26
X169.405Y-107.8
X169.405Y-110.34
X169.425Y-82.4
X169.425Y-84.94
X169.425Y-87.48
T5
X118.74Y-82.124
X121.28Y-82.124
X123.82Y-82.124
X126.36Y-82.124
X127.884Y-130.384
X128.9Y-82.124
X130.424Y-130.384
X131.44Y-82.124
X132.964Y-130.384
X133.98Y-82.124
X135.504Y-130.384
X136.52Y-82.124
X138.044Y-130.384
X139.06Y-82.124
X140.584Y-130.384
X141.6Y-82.124
X143.124Y-130.384
X145.664Y-82.124
X145.664Y-130.384
X148.204Y-82.124
X150.744Y-82.124
X150.744Y-130.384
X153.284Y-82.124
X153.284Y-130.384
X155.824Y-82.124
X155.824Y-130.384
X158.364Y-82.124
X158.364Y-130.384
X160.904Y-82.124
X160.904Y-130.384
X163.444Y-82.124
X163.444Y-130.384
X163.571Y-102.444
X163.571Y-104.984
X163.571Y-107.524
X166.111Y-102.444
X166.111Y-104.984
X166.111Y-107.524
T6
X101.37Y-89.06
X101.37Y-93.56
X101.37Y-99.06
X101.37Y-103.56
X101.37Y-109.06
X101.37Y-113.56
X101.37Y-119.06
X101.37Y-123.56
X107.87Y-89.06
X107.87Y-93.56
X107.87Y-99.06
X107.87Y-103.56
X107.87Y-109.06
X107.87Y-113.56
X107.87Y-119.06
X107.87Y-123.56
X111.37Y-89.06
X111.37Y-93.56
X111.37Y-99.06
X111.37Y-103.56
X111.37Y-109.06
X111.37Y-113.56
X111.37Y-119.06
X111.37Y-123.56
X117.87Y-89.06
X117.87Y-93.56
X117.87Y-99.06
X117.87Y-103.56
X117.87Y-109.06
X117.87Y-113.56
X117.87Y-119.06
X117.87Y-123.56
X121.37Y-89.06
X121.37Y-93.56
X121.37Y-99.06
X121.37Y-103.56
X121.37Y-109.06
X121.37Y-113.56
X121.37Y-119.06
X121.37Y-123.56
X127.87Y-89.06
X127.87Y-93.56
X127.87Y-99.06
X127.87Y-103.56
X127.87Y-109.06
X127.87Y-113.56
X127.87Y-119.06
X127.87Y-123.56
X131.37Y-89.06
X131.37Y-93.56
X131.37Y-99.06
X131.37Y-103.56
X131.37Y-109.06
X131.37Y-113.56
X131.37Y-119.06
X131.37Y-123.56
X137.87Y-89.06
X137.87Y-93.56
X137.87Y-99.06
X137.87Y-103.56
X137.87Y-109.06
X137.87Y-113.56
X137.87Y-119.06
X137.87Y-123.56
X142.72Y-88.77
X142.72Y-96.93
X142.72Y-105.09
X142.72Y-113.25
X144.0Y-122.37
X144.0Y-126.87
X145.26Y-92.85
X145.26Y-101.01
X145.26Y-109.17
X145.26Y-117.33
X146.53Y-88.77
X146.53Y-96.93
X146.53Y-105.09
X146.53Y-113.25
X149.07Y-92.85
X149.07Y-101.01
X149.07Y-109.17
X149.07Y-117.33
X150.34Y-88.77
X150.34Y-96.77
X150.34Y-104.77
X150.34Y-112.77
X150.5Y-122.37
X150.5Y-126.87
X152.88Y-92.85
X152.88Y-100.85
X152.88Y-108.85
X152.88Y-116.85
X154.0Y-122.37
X154.0Y-126.87
X154.15Y-88.77
X154.15Y-96.77
X154.15Y-104.77
X154.15Y-112.77
X156.46Y-94.153
X156.69Y-100.85
X156.69Y-108.85
X156.69Y-116.85
X156.98Y-85.02
X156.98Y-91.52
X160.5Y-122.37
X160.5Y-126.87
X161.48Y-85.02
X161.48Y-91.52
T0
M30
