%TF.GenerationSoftware,KiCad,Pcbnew,7.0.2-0*%
%TF.CreationDate,2023-05-27T13:50:35-05:00*%
%TF.ProjectId,CowPi-Shield,436f7750-692d-4536-9869-656c642e6b69,mk3b*%
%TF.SameCoordinates,Original*%
%TF.FileFunction,Drillmap*%
%TF.FilePolarity,Positive*%
%FSLAX45Y45*%
G04 Gerber Fmt 4.5, Leading zero omitted, Abs format (unit mm)*
G04 Created by KiCad (PCBNEW 7.0.2-0) date 2023-05-27 13:50:35*
%MOMM*%
%LPD*%
G01*
G04 APERTURE LIST*
%ADD10C,0.100000*%
%ADD11C,0.200000*%
%ADD12C,0.040000*%
%ADD13C,0.080000*%
%ADD14C,0.090000*%
%ADD15C,0.101600*%
%ADD16C,0.110000*%
G04 APERTURE END LIST*
D10*
X9779000Y-7874000D02*
G75*
G03*
X9652000Y-8001000I0J-127000D01*
G01*
X17602000Y-12118000D02*
X16544803Y-13297803D01*
X9652000Y-12319000D02*
X9652000Y-8001000D01*
X17653000Y-8001000D02*
X17654605Y-11991000D01*
X16455000Y-13335000D02*
X10668000Y-13335000D01*
X9652000Y-12319000D02*
G75*
G03*
X10668000Y-13335000I1016000J0D01*
G01*
X17653000Y-8001000D02*
G75*
G03*
X17526000Y-7874000I-127000J0D01*
G01*
X9779000Y-7874000D02*
X17526000Y-7874000D01*
X16455000Y-13335000D02*
G75*
G03*
X16544803Y-13297803I0J127000D01*
G01*
X17602000Y-12118000D02*
G75*
G03*
X17654605Y-11991000I-127000J127000D01*
G01*
D11*
D12*
X13729654Y-11576263D02*
X13769654Y-11616263D01*
X13769654Y-11576263D02*
X13729654Y-11616263D01*
X14077000Y-9251000D02*
X14117000Y-9291000D01*
X14117000Y-9251000D02*
X14077000Y-9291000D01*
X14077000Y-10267000D02*
X14117000Y-10307000D01*
X14117000Y-10267000D02*
X14077000Y-10307000D01*
X14077000Y-11156000D02*
X14117000Y-11196000D01*
X14117000Y-11156000D02*
X14077000Y-11196000D01*
X14077000Y-12299000D02*
X14117000Y-12339000D01*
X14117000Y-12299000D02*
X14077000Y-12339000D01*
X15347000Y-11918000D02*
X15387000Y-11958000D01*
X15387000Y-11918000D02*
X15347000Y-11958000D01*
X16617000Y-12934000D02*
X16657000Y-12974000D01*
X16657000Y-12934000D02*
X16617000Y-12974000D01*
X16744000Y-11283000D02*
X16784000Y-11323000D01*
X16784000Y-11283000D02*
X16744000Y-11323000D01*
X17379000Y-8108000D02*
X17419000Y-8148000D01*
X17419000Y-8108000D02*
X17379000Y-8148000D01*
D13*
X9944000Y-8115000D02*
G75*
G03*
X9944000Y-8115000I-40000J0D01*
G01*
X9944000Y-8369000D02*
G75*
G03*
X9944000Y-8369000I-40000J0D01*
G01*
X10405645Y-13041000D02*
G75*
G03*
X10405645Y-13041000I-40000J0D01*
G01*
X10605645Y-13041000D02*
G75*
G03*
X10605645Y-13041000I-40000J0D01*
G01*
X10805645Y-13041000D02*
G75*
G03*
X10805645Y-13041000I-40000J0D01*
G01*
X11167645Y-13041000D02*
G75*
G03*
X11167645Y-13041000I-40000J0D01*
G01*
X11605000Y-8115000D02*
G75*
G03*
X11605000Y-8115000I-40000J0D01*
G01*
X11605000Y-8369000D02*
G75*
G03*
X11605000Y-8369000I-40000J0D01*
G01*
X11735687Y-13041000D02*
G75*
G03*
X11735687Y-13041000I-40000J0D01*
G01*
X11935687Y-13041000D02*
G75*
G03*
X11935687Y-13041000I-40000J0D01*
G01*
X12135687Y-13041000D02*
G75*
G03*
X12135687Y-13041000I-40000J0D01*
G01*
X12497687Y-13041000D02*
G75*
G03*
X12497687Y-13041000I-40000J0D01*
G01*
D14*
X10285000Y-8197000D02*
X10285000Y-8287000D01*
X10240000Y-8242000D02*
X10330000Y-8242000D01*
X10539000Y-8197000D02*
X10539000Y-8287000D01*
X10494000Y-8242000D02*
X10584000Y-8242000D01*
X10930000Y-8197000D02*
X10930000Y-8287000D01*
X10885000Y-8242000D02*
X10975000Y-8242000D01*
X11184000Y-8197000D02*
X11184000Y-8287000D01*
X11139000Y-8242000D02*
X11229000Y-8242000D01*
D10*
X16035356Y-11191356D02*
X16035356Y-11120644D01*
X15964644Y-11120644D01*
X15964644Y-11191356D01*
X16035356Y-11191356D01*
X16035356Y-11656356D02*
X16035356Y-11585644D01*
X15964644Y-11585644D01*
X15964644Y-11656356D01*
X16035356Y-11656356D01*
X16289356Y-11191356D02*
X16289356Y-11120644D01*
X16218644Y-11120644D01*
X16218644Y-11191356D01*
X16289356Y-11191356D01*
X16289356Y-11656356D02*
X16289356Y-11585644D01*
X16218644Y-11585644D01*
X16218644Y-11656356D01*
X16289356Y-11656356D01*
X16467856Y-9545356D02*
X16467856Y-9474644D01*
X16397144Y-9474644D01*
X16397144Y-9545356D01*
X16467856Y-9545356D01*
X16467856Y-9799356D02*
X16467856Y-9728644D01*
X16397144Y-9728644D01*
X16397144Y-9799356D01*
X16467856Y-9799356D01*
X16543356Y-11191356D02*
X16543356Y-11120644D01*
X16472644Y-11120644D01*
X16472644Y-11191356D01*
X16543356Y-11191356D01*
X16543356Y-11656356D02*
X16543356Y-11585644D01*
X16472644Y-11585644D01*
X16472644Y-11656356D01*
X16543356Y-11656356D01*
X16721856Y-9545356D02*
X16721856Y-9474644D01*
X16651144Y-9474644D01*
X16651144Y-9545356D01*
X16721856Y-9545356D01*
X16721856Y-9799356D02*
X16721856Y-9728644D01*
X16651144Y-9728644D01*
X16651144Y-9799356D01*
X16721856Y-9799356D01*
X16723856Y-8275356D02*
X16723856Y-8204644D01*
X16653144Y-8204644D01*
X16653144Y-8275356D01*
X16723856Y-8275356D01*
X16723856Y-8529356D02*
X16723856Y-8458644D01*
X16653144Y-8458644D01*
X16653144Y-8529356D01*
X16723856Y-8529356D01*
X16723856Y-8783356D02*
X16723856Y-8712644D01*
X16653144Y-8712644D01*
X16653144Y-8783356D01*
X16723856Y-8783356D01*
X16975856Y-9037356D02*
X16975856Y-8966644D01*
X16905144Y-8966644D01*
X16905144Y-9037356D01*
X16975856Y-9037356D01*
X16975856Y-9291356D02*
X16975856Y-9220644D01*
X16905144Y-9220644D01*
X16905144Y-9291356D01*
X16975856Y-9291356D01*
X16975856Y-9545356D02*
X16975856Y-9474644D01*
X16905144Y-9474644D01*
X16905144Y-9545356D01*
X16975856Y-9545356D01*
X16975856Y-9799356D02*
X16975856Y-9728644D01*
X16905144Y-9728644D01*
X16905144Y-9799356D01*
X16975856Y-9799356D01*
X16975856Y-10053356D02*
X16975856Y-9982644D01*
X16905144Y-9982644D01*
X16905144Y-10053356D01*
X16975856Y-10053356D01*
X16975856Y-10307356D02*
X16975856Y-10236644D01*
X16905144Y-10236644D01*
X16905144Y-10307356D01*
X16975856Y-10307356D01*
X16975856Y-10561356D02*
X16975856Y-10490644D01*
X16905144Y-10490644D01*
X16905144Y-10561356D01*
X16975856Y-10561356D01*
X16975856Y-10815356D02*
X16975856Y-10744644D01*
X16905144Y-10744644D01*
X16905144Y-10815356D01*
X16975856Y-10815356D01*
X16975856Y-11069356D02*
X16975856Y-10998644D01*
X16905144Y-10998644D01*
X16905144Y-11069356D01*
X16975856Y-11069356D01*
X16977856Y-8275356D02*
X16977856Y-8204644D01*
X16907144Y-8204644D01*
X16907144Y-8275356D01*
X16977856Y-8275356D01*
X16977856Y-8529356D02*
X16977856Y-8458644D01*
X16907144Y-8458644D01*
X16907144Y-8529356D01*
X16977856Y-8529356D01*
X16977856Y-8783356D02*
X16977856Y-8712644D01*
X16907144Y-8712644D01*
X16907144Y-8783356D01*
X16977856Y-8783356D01*
D15*
X11874000Y-8263224D02*
X11924800Y-8212424D01*
X11874000Y-8161624D01*
X11823200Y-8212424D01*
X11874000Y-8263224D01*
X12128000Y-8263224D02*
X12178800Y-8212424D01*
X12128000Y-8161624D01*
X12077200Y-8212424D01*
X12128000Y-8263224D01*
X12382000Y-8263224D02*
X12432800Y-8212424D01*
X12382000Y-8161624D01*
X12331200Y-8212424D01*
X12382000Y-8263224D01*
X12636000Y-8263224D02*
X12686800Y-8212424D01*
X12636000Y-8161624D01*
X12585200Y-8212424D01*
X12636000Y-8263224D01*
X12788400Y-13089224D02*
X12839200Y-13038424D01*
X12788400Y-12987624D01*
X12737600Y-13038424D01*
X12788400Y-13089224D01*
X12890000Y-8263224D02*
X12940800Y-8212424D01*
X12890000Y-8161624D01*
X12839200Y-8212424D01*
X12890000Y-8263224D01*
X13042400Y-13089224D02*
X13093200Y-13038424D01*
X13042400Y-12987624D01*
X12991600Y-13038424D01*
X13042400Y-13089224D01*
X13144000Y-8263224D02*
X13194800Y-8212424D01*
X13144000Y-8161624D01*
X13093200Y-8212424D01*
X13144000Y-8263224D01*
X13296400Y-13089224D02*
X13347200Y-13038424D01*
X13296400Y-12987624D01*
X13245600Y-13038424D01*
X13296400Y-13089224D01*
X13398000Y-8263224D02*
X13448800Y-8212424D01*
X13398000Y-8161624D01*
X13347200Y-8212424D01*
X13398000Y-8263224D01*
X13550400Y-13089224D02*
X13601200Y-13038424D01*
X13550400Y-12987624D01*
X13499600Y-13038424D01*
X13550400Y-13089224D01*
X13652000Y-8263224D02*
X13702800Y-8212424D01*
X13652000Y-8161624D01*
X13601200Y-8212424D01*
X13652000Y-8263224D01*
X13804400Y-13089224D02*
X13855200Y-13038424D01*
X13804400Y-12987624D01*
X13753600Y-13038424D01*
X13804400Y-13089224D01*
X13906000Y-8263224D02*
X13956800Y-8212424D01*
X13906000Y-8161624D01*
X13855200Y-8212424D01*
X13906000Y-8263224D01*
X14058400Y-13089224D02*
X14109200Y-13038424D01*
X14058400Y-12987624D01*
X14007600Y-13038424D01*
X14058400Y-13089224D01*
X14160000Y-8263224D02*
X14210800Y-8212424D01*
X14160000Y-8161624D01*
X14109200Y-8212424D01*
X14160000Y-8263224D01*
X14312400Y-13089224D02*
X14363200Y-13038424D01*
X14312400Y-12987624D01*
X14261600Y-13038424D01*
X14312400Y-13089224D01*
X14566400Y-8263224D02*
X14617200Y-8212424D01*
X14566400Y-8161624D01*
X14515600Y-8212424D01*
X14566400Y-8263224D01*
X14566400Y-13089224D02*
X14617200Y-13038424D01*
X14566400Y-12987624D01*
X14515600Y-13038424D01*
X14566400Y-13089224D01*
X14820400Y-8263224D02*
X14871200Y-8212424D01*
X14820400Y-8161624D01*
X14769600Y-8212424D01*
X14820400Y-8263224D01*
X15074400Y-8263224D02*
X15125200Y-8212424D01*
X15074400Y-8161624D01*
X15023600Y-8212424D01*
X15074400Y-8263224D01*
X15074400Y-13089224D02*
X15125200Y-13038424D01*
X15074400Y-12987624D01*
X15023600Y-13038424D01*
X15074400Y-13089224D01*
X15328400Y-8263224D02*
X15379200Y-8212424D01*
X15328400Y-8161624D01*
X15277600Y-8212424D01*
X15328400Y-8263224D01*
X15328400Y-13089224D02*
X15379200Y-13038424D01*
X15328400Y-12987624D01*
X15277600Y-13038424D01*
X15328400Y-13089224D01*
X15582400Y-8263224D02*
X15633200Y-8212424D01*
X15582400Y-8161624D01*
X15531600Y-8212424D01*
X15582400Y-8263224D01*
X15582400Y-13089224D02*
X15633200Y-13038424D01*
X15582400Y-12987624D01*
X15531600Y-13038424D01*
X15582400Y-13089224D01*
X15836400Y-8263224D02*
X15887200Y-8212424D01*
X15836400Y-8161624D01*
X15785600Y-8212424D01*
X15836400Y-8263224D01*
X15836400Y-13089224D02*
X15887200Y-13038424D01*
X15836400Y-12987624D01*
X15785600Y-13038424D01*
X15836400Y-13089224D01*
X16090400Y-8263224D02*
X16141200Y-8212424D01*
X16090400Y-8161624D01*
X16039600Y-8212424D01*
X16090400Y-8263224D01*
X16090400Y-13089224D02*
X16141200Y-13038424D01*
X16090400Y-12987624D01*
X16039600Y-13038424D01*
X16090400Y-13089224D01*
X16344400Y-8263224D02*
X16395200Y-8212424D01*
X16344400Y-8161624D01*
X16293600Y-8212424D01*
X16344400Y-8263224D01*
X16344400Y-13089224D02*
X16395200Y-13038424D01*
X16344400Y-12987624D01*
X16293600Y-13038424D01*
X16344400Y-13089224D01*
X16357100Y-10295224D02*
X16407900Y-10244424D01*
X16357100Y-10193624D01*
X16306300Y-10244424D01*
X16357100Y-10295224D01*
X16357100Y-10549224D02*
X16407900Y-10498424D01*
X16357100Y-10447624D01*
X16306300Y-10498424D01*
X16357100Y-10549224D01*
X16357100Y-10803224D02*
X16407900Y-10752424D01*
X16357100Y-10701624D01*
X16306300Y-10752424D01*
X16357100Y-10803224D01*
X16611100Y-10295224D02*
X16661900Y-10244424D01*
X16611100Y-10193624D01*
X16560300Y-10244424D01*
X16611100Y-10295224D01*
X16611100Y-10549224D02*
X16661900Y-10498424D01*
X16611100Y-10447624D01*
X16560300Y-10498424D01*
X16611100Y-10549224D01*
X16611100Y-10803224D02*
X16661900Y-10752424D01*
X16611100Y-10701624D01*
X16560300Y-10752424D01*
X16611100Y-10803224D01*
D16*
X10082000Y-8851000D02*
X10192000Y-8961000D01*
X10192000Y-8851000D02*
X10082000Y-8961000D01*
X10192000Y-8906000D02*
G75*
G03*
X10192000Y-8906000I-55000J0D01*
G01*
X10082000Y-9301000D02*
X10192000Y-9411000D01*
X10192000Y-9301000D02*
X10082000Y-9411000D01*
X10192000Y-9356000D02*
G75*
G03*
X10192000Y-9356000I-55000J0D01*
G01*
X10082000Y-9851000D02*
X10192000Y-9961000D01*
X10192000Y-9851000D02*
X10082000Y-9961000D01*
X10192000Y-9906000D02*
G75*
G03*
X10192000Y-9906000I-55000J0D01*
G01*
X10082000Y-10301000D02*
X10192000Y-10411000D01*
X10192000Y-10301000D02*
X10082000Y-10411000D01*
X10192000Y-10356000D02*
G75*
G03*
X10192000Y-10356000I-55000J0D01*
G01*
X10082000Y-10851000D02*
X10192000Y-10961000D01*
X10192000Y-10851000D02*
X10082000Y-10961000D01*
X10192000Y-10906000D02*
G75*
G03*
X10192000Y-10906000I-55000J0D01*
G01*
X10082000Y-11301000D02*
X10192000Y-11411000D01*
X10192000Y-11301000D02*
X10082000Y-11411000D01*
X10192000Y-11356000D02*
G75*
G03*
X10192000Y-11356000I-55000J0D01*
G01*
X10082000Y-11851000D02*
X10192000Y-11961000D01*
X10192000Y-11851000D02*
X10082000Y-11961000D01*
X10192000Y-11906000D02*
G75*
G03*
X10192000Y-11906000I-55000J0D01*
G01*
X10082000Y-12301000D02*
X10192000Y-12411000D01*
X10192000Y-12301000D02*
X10082000Y-12411000D01*
X10192000Y-12356000D02*
G75*
G03*
X10192000Y-12356000I-55000J0D01*
G01*
X10732000Y-8851000D02*
X10842000Y-8961000D01*
X10842000Y-8851000D02*
X10732000Y-8961000D01*
X10842000Y-8906000D02*
G75*
G03*
X10842000Y-8906000I-55000J0D01*
G01*
X10732000Y-9301000D02*
X10842000Y-9411000D01*
X10842000Y-9301000D02*
X10732000Y-9411000D01*
X10842000Y-9356000D02*
G75*
G03*
X10842000Y-9356000I-55000J0D01*
G01*
X10732000Y-9851000D02*
X10842000Y-9961000D01*
X10842000Y-9851000D02*
X10732000Y-9961000D01*
X10842000Y-9906000D02*
G75*
G03*
X10842000Y-9906000I-55000J0D01*
G01*
X10732000Y-10301000D02*
X10842000Y-10411000D01*
X10842000Y-10301000D02*
X10732000Y-10411000D01*
X10842000Y-10356000D02*
G75*
G03*
X10842000Y-10356000I-55000J0D01*
G01*
X10732000Y-10851000D02*
X10842000Y-10961000D01*
X10842000Y-10851000D02*
X10732000Y-10961000D01*
X10842000Y-10906000D02*
G75*
G03*
X10842000Y-10906000I-55000J0D01*
G01*
X10732000Y-11301000D02*
X10842000Y-11411000D01*
X10842000Y-11301000D02*
X10732000Y-11411000D01*
X10842000Y-11356000D02*
G75*
G03*
X10842000Y-11356000I-55000J0D01*
G01*
X10732000Y-11851000D02*
X10842000Y-11961000D01*
X10842000Y-11851000D02*
X10732000Y-11961000D01*
X10842000Y-11906000D02*
G75*
G03*
X10842000Y-11906000I-55000J0D01*
G01*
X10732000Y-12301000D02*
X10842000Y-12411000D01*
X10842000Y-12301000D02*
X10732000Y-12411000D01*
X10842000Y-12356000D02*
G75*
G03*
X10842000Y-12356000I-55000J0D01*
G01*
X11082000Y-8851000D02*
X11192000Y-8961000D01*
X11192000Y-8851000D02*
X11082000Y-8961000D01*
X11192000Y-8906000D02*
G75*
G03*
X11192000Y-8906000I-55000J0D01*
G01*
X11082000Y-9301000D02*
X11192000Y-9411000D01*
X11192000Y-9301000D02*
X11082000Y-9411000D01*
X11192000Y-9356000D02*
G75*
G03*
X11192000Y-9356000I-55000J0D01*
G01*
X11082000Y-9851000D02*
X11192000Y-9961000D01*
X11192000Y-9851000D02*
X11082000Y-9961000D01*
X11192000Y-9906000D02*
G75*
G03*
X11192000Y-9906000I-55000J0D01*
G01*
X11082000Y-10301000D02*
X11192000Y-10411000D01*
X11192000Y-10301000D02*
X11082000Y-10411000D01*
X11192000Y-10356000D02*
G75*
G03*
X11192000Y-10356000I-55000J0D01*
G01*
X11082000Y-10851000D02*
X11192000Y-10961000D01*
X11192000Y-10851000D02*
X11082000Y-10961000D01*
X11192000Y-10906000D02*
G75*
G03*
X11192000Y-10906000I-55000J0D01*
G01*
X11082000Y-11301000D02*
X11192000Y-11411000D01*
X11192000Y-11301000D02*
X11082000Y-11411000D01*
X11192000Y-11356000D02*
G75*
G03*
X11192000Y-11356000I-55000J0D01*
G01*
X11082000Y-11851000D02*
X11192000Y-11961000D01*
X11192000Y-11851000D02*
X11082000Y-11961000D01*
X11192000Y-11906000D02*
G75*
G03*
X11192000Y-11906000I-55000J0D01*
G01*
X11082000Y-12301000D02*
X11192000Y-12411000D01*
X11192000Y-12301000D02*
X11082000Y-12411000D01*
X11192000Y-12356000D02*
G75*
G03*
X11192000Y-12356000I-55000J0D01*
G01*
X11732000Y-8851000D02*
X11842000Y-8961000D01*
X11842000Y-8851000D02*
X11732000Y-8961000D01*
X11842000Y-8906000D02*
G75*
G03*
X11842000Y-8906000I-55000J0D01*
G01*
X11732000Y-9301000D02*
X11842000Y-9411000D01*
X11842000Y-9301000D02*
X11732000Y-9411000D01*
X11842000Y-9356000D02*
G75*
G03*
X11842000Y-9356000I-55000J0D01*
G01*
X11732000Y-9851000D02*
X11842000Y-9961000D01*
X11842000Y-9851000D02*
X11732000Y-9961000D01*
X11842000Y-9906000D02*
G75*
G03*
X11842000Y-9906000I-55000J0D01*
G01*
X11732000Y-10301000D02*
X11842000Y-10411000D01*
X11842000Y-10301000D02*
X11732000Y-10411000D01*
X11842000Y-10356000D02*
G75*
G03*
X11842000Y-10356000I-55000J0D01*
G01*
X11732000Y-10851000D02*
X11842000Y-10961000D01*
X11842000Y-10851000D02*
X11732000Y-10961000D01*
X11842000Y-10906000D02*
G75*
G03*
X11842000Y-10906000I-55000J0D01*
G01*
X11732000Y-11301000D02*
X11842000Y-11411000D01*
X11842000Y-11301000D02*
X11732000Y-11411000D01*
X11842000Y-11356000D02*
G75*
G03*
X11842000Y-11356000I-55000J0D01*
G01*
X11732000Y-11851000D02*
X11842000Y-11961000D01*
X11842000Y-11851000D02*
X11732000Y-11961000D01*
X11842000Y-11906000D02*
G75*
G03*
X11842000Y-11906000I-55000J0D01*
G01*
X11732000Y-12301000D02*
X11842000Y-12411000D01*
X11842000Y-12301000D02*
X11732000Y-12411000D01*
X11842000Y-12356000D02*
G75*
G03*
X11842000Y-12356000I-55000J0D01*
G01*
X12082000Y-8851000D02*
X12192000Y-8961000D01*
X12192000Y-8851000D02*
X12082000Y-8961000D01*
X12192000Y-8906000D02*
G75*
G03*
X12192000Y-8906000I-55000J0D01*
G01*
X12082000Y-9301000D02*
X12192000Y-9411000D01*
X12192000Y-9301000D02*
X12082000Y-9411000D01*
X12192000Y-9356000D02*
G75*
G03*
X12192000Y-9356000I-55000J0D01*
G01*
X12082000Y-9851000D02*
X12192000Y-9961000D01*
X12192000Y-9851000D02*
X12082000Y-9961000D01*
X12192000Y-9906000D02*
G75*
G03*
X12192000Y-9906000I-55000J0D01*
G01*
X12082000Y-10301000D02*
X12192000Y-10411000D01*
X12192000Y-10301000D02*
X12082000Y-10411000D01*
X12192000Y-10356000D02*
G75*
G03*
X12192000Y-10356000I-55000J0D01*
G01*
X12082000Y-10851000D02*
X12192000Y-10961000D01*
X12192000Y-10851000D02*
X12082000Y-10961000D01*
X12192000Y-10906000D02*
G75*
G03*
X12192000Y-10906000I-55000J0D01*
G01*
X12082000Y-11301000D02*
X12192000Y-11411000D01*
X12192000Y-11301000D02*
X12082000Y-11411000D01*
X12192000Y-11356000D02*
G75*
G03*
X12192000Y-11356000I-55000J0D01*
G01*
X12082000Y-11851000D02*
X12192000Y-11961000D01*
X12192000Y-11851000D02*
X12082000Y-11961000D01*
X12192000Y-11906000D02*
G75*
G03*
X12192000Y-11906000I-55000J0D01*
G01*
X12082000Y-12301000D02*
X12192000Y-12411000D01*
X12192000Y-12301000D02*
X12082000Y-12411000D01*
X12192000Y-12356000D02*
G75*
G03*
X12192000Y-12356000I-55000J0D01*
G01*
X12732000Y-8851000D02*
X12842000Y-8961000D01*
X12842000Y-8851000D02*
X12732000Y-8961000D01*
X12842000Y-8906000D02*
G75*
G03*
X12842000Y-8906000I-55000J0D01*
G01*
X12732000Y-9301000D02*
X12842000Y-9411000D01*
X12842000Y-9301000D02*
X12732000Y-9411000D01*
X12842000Y-9356000D02*
G75*
G03*
X12842000Y-9356000I-55000J0D01*
G01*
X12732000Y-9851000D02*
X12842000Y-9961000D01*
X12842000Y-9851000D02*
X12732000Y-9961000D01*
X12842000Y-9906000D02*
G75*
G03*
X12842000Y-9906000I-55000J0D01*
G01*
X12732000Y-10301000D02*
X12842000Y-10411000D01*
X12842000Y-10301000D02*
X12732000Y-10411000D01*
X12842000Y-10356000D02*
G75*
G03*
X12842000Y-10356000I-55000J0D01*
G01*
X12732000Y-10851000D02*
X12842000Y-10961000D01*
X12842000Y-10851000D02*
X12732000Y-10961000D01*
X12842000Y-10906000D02*
G75*
G03*
X12842000Y-10906000I-55000J0D01*
G01*
X12732000Y-11301000D02*
X12842000Y-11411000D01*
X12842000Y-11301000D02*
X12732000Y-11411000D01*
X12842000Y-11356000D02*
G75*
G03*
X12842000Y-11356000I-55000J0D01*
G01*
X12732000Y-11851000D02*
X12842000Y-11961000D01*
X12842000Y-11851000D02*
X12732000Y-11961000D01*
X12842000Y-11906000D02*
G75*
G03*
X12842000Y-11906000I-55000J0D01*
G01*
X12732000Y-12301000D02*
X12842000Y-12411000D01*
X12842000Y-12301000D02*
X12732000Y-12411000D01*
X12842000Y-12356000D02*
G75*
G03*
X12842000Y-12356000I-55000J0D01*
G01*
X13082000Y-8851000D02*
X13192000Y-8961000D01*
X13192000Y-8851000D02*
X13082000Y-8961000D01*
X13192000Y-8906000D02*
G75*
G03*
X13192000Y-8906000I-55000J0D01*
G01*
X13082000Y-9301000D02*
X13192000Y-9411000D01*
X13192000Y-9301000D02*
X13082000Y-9411000D01*
X13192000Y-9356000D02*
G75*
G03*
X13192000Y-9356000I-55000J0D01*
G01*
X13082000Y-9851000D02*
X13192000Y-9961000D01*
X13192000Y-9851000D02*
X13082000Y-9961000D01*
X13192000Y-9906000D02*
G75*
G03*
X13192000Y-9906000I-55000J0D01*
G01*
X13082000Y-10301000D02*
X13192000Y-10411000D01*
X13192000Y-10301000D02*
X13082000Y-10411000D01*
X13192000Y-10356000D02*
G75*
G03*
X13192000Y-10356000I-55000J0D01*
G01*
X13082000Y-10851000D02*
X13192000Y-10961000D01*
X13192000Y-10851000D02*
X13082000Y-10961000D01*
X13192000Y-10906000D02*
G75*
G03*
X13192000Y-10906000I-55000J0D01*
G01*
X13082000Y-11301000D02*
X13192000Y-11411000D01*
X13192000Y-11301000D02*
X13082000Y-11411000D01*
X13192000Y-11356000D02*
G75*
G03*
X13192000Y-11356000I-55000J0D01*
G01*
X13082000Y-11851000D02*
X13192000Y-11961000D01*
X13192000Y-11851000D02*
X13082000Y-11961000D01*
X13192000Y-11906000D02*
G75*
G03*
X13192000Y-11906000I-55000J0D01*
G01*
X13082000Y-12301000D02*
X13192000Y-12411000D01*
X13192000Y-12301000D02*
X13082000Y-12411000D01*
X13192000Y-12356000D02*
G75*
G03*
X13192000Y-12356000I-55000J0D01*
G01*
X13732000Y-8851000D02*
X13842000Y-8961000D01*
X13842000Y-8851000D02*
X13732000Y-8961000D01*
X13842000Y-8906000D02*
G75*
G03*
X13842000Y-8906000I-55000J0D01*
G01*
X13732000Y-9301000D02*
X13842000Y-9411000D01*
X13842000Y-9301000D02*
X13732000Y-9411000D01*
X13842000Y-9356000D02*
G75*
G03*
X13842000Y-9356000I-55000J0D01*
G01*
X13732000Y-9851000D02*
X13842000Y-9961000D01*
X13842000Y-9851000D02*
X13732000Y-9961000D01*
X13842000Y-9906000D02*
G75*
G03*
X13842000Y-9906000I-55000J0D01*
G01*
X13732000Y-10301000D02*
X13842000Y-10411000D01*
X13842000Y-10301000D02*
X13732000Y-10411000D01*
X13842000Y-10356000D02*
G75*
G03*
X13842000Y-10356000I-55000J0D01*
G01*
X13732000Y-10851000D02*
X13842000Y-10961000D01*
X13842000Y-10851000D02*
X13732000Y-10961000D01*
X13842000Y-10906000D02*
G75*
G03*
X13842000Y-10906000I-55000J0D01*
G01*
X13732000Y-11301000D02*
X13842000Y-11411000D01*
X13842000Y-11301000D02*
X13732000Y-11411000D01*
X13842000Y-11356000D02*
G75*
G03*
X13842000Y-11356000I-55000J0D01*
G01*
X13732000Y-11851000D02*
X13842000Y-11961000D01*
X13842000Y-11851000D02*
X13732000Y-11961000D01*
X13842000Y-11906000D02*
G75*
G03*
X13842000Y-11906000I-55000J0D01*
G01*
X13732000Y-12301000D02*
X13842000Y-12411000D01*
X13842000Y-12301000D02*
X13732000Y-12411000D01*
X13842000Y-12356000D02*
G75*
G03*
X13842000Y-12356000I-55000J0D01*
G01*
X14217000Y-8822000D02*
X14327000Y-8932000D01*
X14327000Y-8822000D02*
X14217000Y-8932000D01*
X14327000Y-8877000D02*
G75*
G03*
X14327000Y-8877000I-55000J0D01*
G01*
X14217000Y-9638000D02*
X14327000Y-9748000D01*
X14327000Y-9638000D02*
X14217000Y-9748000D01*
X14327000Y-9693000D02*
G75*
G03*
X14327000Y-9693000I-55000J0D01*
G01*
X14217000Y-10454000D02*
X14327000Y-10564000D01*
X14327000Y-10454000D02*
X14217000Y-10564000D01*
X14327000Y-10509000D02*
G75*
G03*
X14327000Y-10509000I-55000J0D01*
G01*
X14217000Y-11270000D02*
X14327000Y-11380000D01*
X14327000Y-11270000D02*
X14217000Y-11380000D01*
X14327000Y-11325000D02*
G75*
G03*
X14327000Y-11325000I-55000J0D01*
G01*
X14345000Y-12182000D02*
X14455000Y-12292000D01*
X14455000Y-12182000D02*
X14345000Y-12292000D01*
X14455000Y-12237000D02*
G75*
G03*
X14455000Y-12237000I-55000J0D01*
G01*
X14345000Y-12632000D02*
X14455000Y-12742000D01*
X14455000Y-12632000D02*
X14345000Y-12742000D01*
X14455000Y-12687000D02*
G75*
G03*
X14455000Y-12687000I-55000J0D01*
G01*
X14471000Y-9230000D02*
X14581000Y-9340000D01*
X14581000Y-9230000D02*
X14471000Y-9340000D01*
X14581000Y-9285000D02*
G75*
G03*
X14581000Y-9285000I-55000J0D01*
G01*
X14471000Y-10046000D02*
X14581000Y-10156000D01*
X14581000Y-10046000D02*
X14471000Y-10156000D01*
X14581000Y-10101000D02*
G75*
G03*
X14581000Y-10101000I-55000J0D01*
G01*
X14471000Y-10862000D02*
X14581000Y-10972000D01*
X14581000Y-10862000D02*
X14471000Y-10972000D01*
X14581000Y-10917000D02*
G75*
G03*
X14581000Y-10917000I-55000J0D01*
G01*
X14471000Y-11678000D02*
X14581000Y-11788000D01*
X14581000Y-11678000D02*
X14471000Y-11788000D01*
X14581000Y-11733000D02*
G75*
G03*
X14581000Y-11733000I-55000J0D01*
G01*
X14598000Y-8822000D02*
X14708000Y-8932000D01*
X14708000Y-8822000D02*
X14598000Y-8932000D01*
X14708000Y-8877000D02*
G75*
G03*
X14708000Y-8877000I-55000J0D01*
G01*
X14598000Y-9638000D02*
X14708000Y-9748000D01*
X14708000Y-9638000D02*
X14598000Y-9748000D01*
X14708000Y-9693000D02*
G75*
G03*
X14708000Y-9693000I-55000J0D01*
G01*
X14598000Y-10454000D02*
X14708000Y-10564000D01*
X14708000Y-10454000D02*
X14598000Y-10564000D01*
X14708000Y-10509000D02*
G75*
G03*
X14708000Y-10509000I-55000J0D01*
G01*
X14598000Y-11270000D02*
X14708000Y-11380000D01*
X14708000Y-11270000D02*
X14598000Y-11380000D01*
X14708000Y-11325000D02*
G75*
G03*
X14708000Y-11325000I-55000J0D01*
G01*
X14852000Y-9230000D02*
X14962000Y-9340000D01*
X14962000Y-9230000D02*
X14852000Y-9340000D01*
X14962000Y-9285000D02*
G75*
G03*
X14962000Y-9285000I-55000J0D01*
G01*
X14852000Y-10046000D02*
X14962000Y-10156000D01*
X14962000Y-10046000D02*
X14852000Y-10156000D01*
X14962000Y-10101000D02*
G75*
G03*
X14962000Y-10101000I-55000J0D01*
G01*
X14852000Y-10862000D02*
X14962000Y-10972000D01*
X14962000Y-10862000D02*
X14852000Y-10972000D01*
X14962000Y-10917000D02*
G75*
G03*
X14962000Y-10917000I-55000J0D01*
G01*
X14852000Y-11678000D02*
X14962000Y-11788000D01*
X14962000Y-11678000D02*
X14852000Y-11788000D01*
X14962000Y-11733000D02*
G75*
G03*
X14962000Y-11733000I-55000J0D01*
G01*
X14979000Y-8822000D02*
X15089000Y-8932000D01*
X15089000Y-8822000D02*
X14979000Y-8932000D01*
X15089000Y-8877000D02*
G75*
G03*
X15089000Y-8877000I-55000J0D01*
G01*
X14979000Y-9622000D02*
X15089000Y-9732000D01*
X15089000Y-9622000D02*
X14979000Y-9732000D01*
X15089000Y-9677000D02*
G75*
G03*
X15089000Y-9677000I-55000J0D01*
G01*
X14979000Y-10422000D02*
X15089000Y-10532000D01*
X15089000Y-10422000D02*
X14979000Y-10532000D01*
X15089000Y-10477000D02*
G75*
G03*
X15089000Y-10477000I-55000J0D01*
G01*
X14979000Y-11222000D02*
X15089000Y-11332000D01*
X15089000Y-11222000D02*
X14979000Y-11332000D01*
X15089000Y-11277000D02*
G75*
G03*
X15089000Y-11277000I-55000J0D01*
G01*
X14995000Y-12182000D02*
X15105000Y-12292000D01*
X15105000Y-12182000D02*
X14995000Y-12292000D01*
X15105000Y-12237000D02*
G75*
G03*
X15105000Y-12237000I-55000J0D01*
G01*
X14995000Y-12632000D02*
X15105000Y-12742000D01*
X15105000Y-12632000D02*
X14995000Y-12742000D01*
X15105000Y-12687000D02*
G75*
G03*
X15105000Y-12687000I-55000J0D01*
G01*
X15233000Y-9230000D02*
X15343000Y-9340000D01*
X15343000Y-9230000D02*
X15233000Y-9340000D01*
X15343000Y-9285000D02*
G75*
G03*
X15343000Y-9285000I-55000J0D01*
G01*
X15233000Y-10030000D02*
X15343000Y-10140000D01*
X15343000Y-10030000D02*
X15233000Y-10140000D01*
X15343000Y-10085000D02*
G75*
G03*
X15343000Y-10085000I-55000J0D01*
G01*
X15233000Y-10830000D02*
X15343000Y-10940000D01*
X15343000Y-10830000D02*
X15233000Y-10940000D01*
X15343000Y-10885000D02*
G75*
G03*
X15343000Y-10885000I-55000J0D01*
G01*
X15233000Y-11630000D02*
X15343000Y-11740000D01*
X15343000Y-11630000D02*
X15233000Y-11740000D01*
X15343000Y-11685000D02*
G75*
G03*
X15343000Y-11685000I-55000J0D01*
G01*
X15345000Y-12182000D02*
X15455000Y-12292000D01*
X15455000Y-12182000D02*
X15345000Y-12292000D01*
X15455000Y-12237000D02*
G75*
G03*
X15455000Y-12237000I-55000J0D01*
G01*
X15345000Y-12632000D02*
X15455000Y-12742000D01*
X15455000Y-12632000D02*
X15345000Y-12742000D01*
X15455000Y-12687000D02*
G75*
G03*
X15455000Y-12687000I-55000J0D01*
G01*
X15360000Y-8822000D02*
X15470000Y-8932000D01*
X15470000Y-8822000D02*
X15360000Y-8932000D01*
X15470000Y-8877000D02*
G75*
G03*
X15470000Y-8877000I-55000J0D01*
G01*
X15360000Y-9622000D02*
X15470000Y-9732000D01*
X15470000Y-9622000D02*
X15360000Y-9732000D01*
X15470000Y-9677000D02*
G75*
G03*
X15470000Y-9677000I-55000J0D01*
G01*
X15360000Y-10422000D02*
X15470000Y-10532000D01*
X15470000Y-10422000D02*
X15360000Y-10532000D01*
X15470000Y-10477000D02*
G75*
G03*
X15470000Y-10477000I-55000J0D01*
G01*
X15360000Y-11222000D02*
X15470000Y-11332000D01*
X15470000Y-11222000D02*
X15360000Y-11332000D01*
X15470000Y-11277000D02*
G75*
G03*
X15470000Y-11277000I-55000J0D01*
G01*
X15591023Y-9360310D02*
X15701023Y-9470310D01*
X15701023Y-9360310D02*
X15591023Y-9470310D01*
X15701023Y-9415310D02*
G75*
G03*
X15701023Y-9415310I-55000J0D01*
G01*
X15614000Y-10030000D02*
X15724000Y-10140000D01*
X15724000Y-10030000D02*
X15614000Y-10140000D01*
X15724000Y-10085000D02*
G75*
G03*
X15724000Y-10085000I-55000J0D01*
G01*
X15614000Y-10830000D02*
X15724000Y-10940000D01*
X15724000Y-10830000D02*
X15614000Y-10940000D01*
X15724000Y-10885000D02*
G75*
G03*
X15724000Y-10885000I-55000J0D01*
G01*
X15614000Y-11630000D02*
X15724000Y-11740000D01*
X15724000Y-11630000D02*
X15614000Y-11740000D01*
X15724000Y-11685000D02*
G75*
G03*
X15724000Y-11685000I-55000J0D01*
G01*
X15643000Y-8447000D02*
X15753000Y-8557000D01*
X15753000Y-8447000D02*
X15643000Y-8557000D01*
X15753000Y-8502000D02*
G75*
G03*
X15753000Y-8502000I-55000J0D01*
G01*
X15643000Y-9097000D02*
X15753000Y-9207000D01*
X15753000Y-9097000D02*
X15643000Y-9207000D01*
X15753000Y-9152000D02*
G75*
G03*
X15753000Y-9152000I-55000J0D01*
G01*
X15995000Y-12182000D02*
X16105000Y-12292000D01*
X16105000Y-12182000D02*
X15995000Y-12292000D01*
X16105000Y-12237000D02*
G75*
G03*
X16105000Y-12237000I-55000J0D01*
G01*
X15995000Y-12632000D02*
X16105000Y-12742000D01*
X16105000Y-12632000D02*
X15995000Y-12742000D01*
X16105000Y-12687000D02*
G75*
G03*
X16105000Y-12687000I-55000J0D01*
G01*
X16093000Y-8447000D02*
X16203000Y-8557000D01*
X16203000Y-8447000D02*
X16093000Y-8557000D01*
X16203000Y-8502000D02*
G75*
G03*
X16203000Y-8502000I-55000J0D01*
G01*
X16093000Y-9097000D02*
X16203000Y-9207000D01*
X16203000Y-9097000D02*
X16093000Y-9207000D01*
X16203000Y-9152000D02*
G75*
G03*
X16203000Y-9152000I-55000J0D01*
G01*
D11*
X9894619Y-13652524D02*
X9894619Y-13452524D01*
X9894619Y-13452524D02*
X9942238Y-13452524D01*
X9942238Y-13452524D02*
X9970810Y-13462048D01*
X9970810Y-13462048D02*
X9989857Y-13481095D01*
X9989857Y-13481095D02*
X9999381Y-13500143D01*
X9999381Y-13500143D02*
X10008905Y-13538238D01*
X10008905Y-13538238D02*
X10008905Y-13566809D01*
X10008905Y-13566809D02*
X9999381Y-13604905D01*
X9999381Y-13604905D02*
X9989857Y-13623952D01*
X9989857Y-13623952D02*
X9970810Y-13643000D01*
X9970810Y-13643000D02*
X9942238Y-13652524D01*
X9942238Y-13652524D02*
X9894619Y-13652524D01*
X10094619Y-13652524D02*
X10094619Y-13519190D01*
X10094619Y-13557286D02*
X10104143Y-13538238D01*
X10104143Y-13538238D02*
X10113667Y-13528714D01*
X10113667Y-13528714D02*
X10132714Y-13519190D01*
X10132714Y-13519190D02*
X10151762Y-13519190D01*
X10218429Y-13652524D02*
X10218429Y-13519190D01*
X10218429Y-13452524D02*
X10208905Y-13462048D01*
X10208905Y-13462048D02*
X10218429Y-13471571D01*
X10218429Y-13471571D02*
X10227952Y-13462048D01*
X10227952Y-13462048D02*
X10218429Y-13452524D01*
X10218429Y-13452524D02*
X10218429Y-13471571D01*
X10342238Y-13652524D02*
X10323190Y-13643000D01*
X10323190Y-13643000D02*
X10313667Y-13623952D01*
X10313667Y-13623952D02*
X10313667Y-13452524D01*
X10447000Y-13652524D02*
X10427952Y-13643000D01*
X10427952Y-13643000D02*
X10418429Y-13623952D01*
X10418429Y-13623952D02*
X10418429Y-13452524D01*
X10675571Y-13652524D02*
X10675571Y-13452524D01*
X10675571Y-13452524D02*
X10742238Y-13595381D01*
X10742238Y-13595381D02*
X10808905Y-13452524D01*
X10808905Y-13452524D02*
X10808905Y-13652524D01*
X10989857Y-13652524D02*
X10989857Y-13547762D01*
X10989857Y-13547762D02*
X10980333Y-13528714D01*
X10980333Y-13528714D02*
X10961286Y-13519190D01*
X10961286Y-13519190D02*
X10923190Y-13519190D01*
X10923190Y-13519190D02*
X10904143Y-13528714D01*
X10989857Y-13643000D02*
X10970810Y-13652524D01*
X10970810Y-13652524D02*
X10923190Y-13652524D01*
X10923190Y-13652524D02*
X10904143Y-13643000D01*
X10904143Y-13643000D02*
X10894619Y-13623952D01*
X10894619Y-13623952D02*
X10894619Y-13604905D01*
X10894619Y-13604905D02*
X10904143Y-13585857D01*
X10904143Y-13585857D02*
X10923190Y-13576333D01*
X10923190Y-13576333D02*
X10970810Y-13576333D01*
X10970810Y-13576333D02*
X10989857Y-13566809D01*
X11085095Y-13519190D02*
X11085095Y-13719190D01*
X11085095Y-13528714D02*
X11104143Y-13519190D01*
X11104143Y-13519190D02*
X11142238Y-13519190D01*
X11142238Y-13519190D02*
X11161286Y-13528714D01*
X11161286Y-13528714D02*
X11170810Y-13538238D01*
X11170810Y-13538238D02*
X11180333Y-13557286D01*
X11180333Y-13557286D02*
X11180333Y-13614428D01*
X11180333Y-13614428D02*
X11170810Y-13633476D01*
X11170810Y-13633476D02*
X11161286Y-13643000D01*
X11161286Y-13643000D02*
X11142238Y-13652524D01*
X11142238Y-13652524D02*
X11104143Y-13652524D01*
X11104143Y-13652524D02*
X11085095Y-13643000D01*
X11266048Y-13633476D02*
X11275571Y-13643000D01*
X11275571Y-13643000D02*
X11266048Y-13652524D01*
X11266048Y-13652524D02*
X11256524Y-13643000D01*
X11256524Y-13643000D02*
X11266048Y-13633476D01*
X11266048Y-13633476D02*
X11266048Y-13652524D01*
X11266048Y-13528714D02*
X11275571Y-13538238D01*
X11275571Y-13538238D02*
X11266048Y-13547762D01*
X11266048Y-13547762D02*
X11256524Y-13538238D01*
X11256524Y-13538238D02*
X11266048Y-13528714D01*
X11266048Y-13528714D02*
X11266048Y-13547762D01*
D12*
X9607000Y-13960000D02*
X9647000Y-14000000D01*
X9647000Y-13960000D02*
X9607000Y-14000000D01*
D11*
X9932714Y-13872524D02*
X9951762Y-13872524D01*
X9951762Y-13872524D02*
X9970810Y-13882048D01*
X9970810Y-13882048D02*
X9980333Y-13891571D01*
X9980333Y-13891571D02*
X9989857Y-13910619D01*
X9989857Y-13910619D02*
X9999381Y-13948714D01*
X9999381Y-13948714D02*
X9999381Y-13996333D01*
X9999381Y-13996333D02*
X9989857Y-14034428D01*
X9989857Y-14034428D02*
X9980333Y-14053476D01*
X9980333Y-14053476D02*
X9970810Y-14063000D01*
X9970810Y-14063000D02*
X9951762Y-14072524D01*
X9951762Y-14072524D02*
X9932714Y-14072524D01*
X9932714Y-14072524D02*
X9913667Y-14063000D01*
X9913667Y-14063000D02*
X9904143Y-14053476D01*
X9904143Y-14053476D02*
X9894619Y-14034428D01*
X9894619Y-14034428D02*
X9885095Y-13996333D01*
X9885095Y-13996333D02*
X9885095Y-13948714D01*
X9885095Y-13948714D02*
X9894619Y-13910619D01*
X9894619Y-13910619D02*
X9904143Y-13891571D01*
X9904143Y-13891571D02*
X9913667Y-13882048D01*
X9913667Y-13882048D02*
X9932714Y-13872524D01*
X10085095Y-14053476D02*
X10094619Y-14063000D01*
X10094619Y-14063000D02*
X10085095Y-14072524D01*
X10085095Y-14072524D02*
X10075571Y-14063000D01*
X10075571Y-14063000D02*
X10085095Y-14053476D01*
X10085095Y-14053476D02*
X10085095Y-14072524D01*
X10266048Y-13939190D02*
X10266048Y-14072524D01*
X10218429Y-13863000D02*
X10170810Y-14005857D01*
X10170810Y-14005857D02*
X10294619Y-14005857D01*
X10408905Y-13872524D02*
X10427952Y-13872524D01*
X10427952Y-13872524D02*
X10447000Y-13882048D01*
X10447000Y-13882048D02*
X10456524Y-13891571D01*
X10456524Y-13891571D02*
X10466048Y-13910619D01*
X10466048Y-13910619D02*
X10475571Y-13948714D01*
X10475571Y-13948714D02*
X10475571Y-13996333D01*
X10475571Y-13996333D02*
X10466048Y-14034428D01*
X10466048Y-14034428D02*
X10456524Y-14053476D01*
X10456524Y-14053476D02*
X10447000Y-14063000D01*
X10447000Y-14063000D02*
X10427952Y-14072524D01*
X10427952Y-14072524D02*
X10408905Y-14072524D01*
X10408905Y-14072524D02*
X10389857Y-14063000D01*
X10389857Y-14063000D02*
X10380333Y-14053476D01*
X10380333Y-14053476D02*
X10370810Y-14034428D01*
X10370810Y-14034428D02*
X10361286Y-13996333D01*
X10361286Y-13996333D02*
X10361286Y-13948714D01*
X10361286Y-13948714D02*
X10370810Y-13910619D01*
X10370810Y-13910619D02*
X10380333Y-13891571D01*
X10380333Y-13891571D02*
X10389857Y-13882048D01*
X10389857Y-13882048D02*
X10408905Y-13872524D01*
X10599381Y-13872524D02*
X10618429Y-13872524D01*
X10618429Y-13872524D02*
X10637476Y-13882048D01*
X10637476Y-13882048D02*
X10647000Y-13891571D01*
X10647000Y-13891571D02*
X10656524Y-13910619D01*
X10656524Y-13910619D02*
X10666048Y-13948714D01*
X10666048Y-13948714D02*
X10666048Y-13996333D01*
X10666048Y-13996333D02*
X10656524Y-14034428D01*
X10656524Y-14034428D02*
X10647000Y-14053476D01*
X10647000Y-14053476D02*
X10637476Y-14063000D01*
X10637476Y-14063000D02*
X10618429Y-14072524D01*
X10618429Y-14072524D02*
X10599381Y-14072524D01*
X10599381Y-14072524D02*
X10580333Y-14063000D01*
X10580333Y-14063000D02*
X10570810Y-14053476D01*
X10570810Y-14053476D02*
X10561286Y-14034428D01*
X10561286Y-14034428D02*
X10551762Y-13996333D01*
X10551762Y-13996333D02*
X10551762Y-13948714D01*
X10551762Y-13948714D02*
X10561286Y-13910619D01*
X10561286Y-13910619D02*
X10570810Y-13891571D01*
X10570810Y-13891571D02*
X10580333Y-13882048D01*
X10580333Y-13882048D02*
X10599381Y-13872524D01*
X10751762Y-14072524D02*
X10751762Y-13939190D01*
X10751762Y-13958238D02*
X10761286Y-13948714D01*
X10761286Y-13948714D02*
X10780333Y-13939190D01*
X10780333Y-13939190D02*
X10808905Y-13939190D01*
X10808905Y-13939190D02*
X10827952Y-13948714D01*
X10827952Y-13948714D02*
X10837476Y-13967762D01*
X10837476Y-13967762D02*
X10837476Y-14072524D01*
X10837476Y-13967762D02*
X10847000Y-13948714D01*
X10847000Y-13948714D02*
X10866048Y-13939190D01*
X10866048Y-13939190D02*
X10894619Y-13939190D01*
X10894619Y-13939190D02*
X10913667Y-13948714D01*
X10913667Y-13948714D02*
X10923191Y-13967762D01*
X10923191Y-13967762D02*
X10923191Y-14072524D01*
X11018429Y-14072524D02*
X11018429Y-13939190D01*
X11018429Y-13958238D02*
X11027952Y-13948714D01*
X11027952Y-13948714D02*
X11047000Y-13939190D01*
X11047000Y-13939190D02*
X11075572Y-13939190D01*
X11075572Y-13939190D02*
X11094619Y-13948714D01*
X11094619Y-13948714D02*
X11104143Y-13967762D01*
X11104143Y-13967762D02*
X11104143Y-14072524D01*
X11104143Y-13967762D02*
X11113667Y-13948714D01*
X11113667Y-13948714D02*
X11132714Y-13939190D01*
X11132714Y-13939190D02*
X11161286Y-13939190D01*
X11161286Y-13939190D02*
X11180333Y-13948714D01*
X11180333Y-13948714D02*
X11189857Y-13967762D01*
X11189857Y-13967762D02*
X11189857Y-14072524D01*
X11580333Y-13863000D02*
X11408905Y-14120143D01*
X11837476Y-13872524D02*
X11856524Y-13872524D01*
X11856524Y-13872524D02*
X11875572Y-13882048D01*
X11875572Y-13882048D02*
X11885095Y-13891571D01*
X11885095Y-13891571D02*
X11894619Y-13910619D01*
X11894619Y-13910619D02*
X11904143Y-13948714D01*
X11904143Y-13948714D02*
X11904143Y-13996333D01*
X11904143Y-13996333D02*
X11894619Y-14034428D01*
X11894619Y-14034428D02*
X11885095Y-14053476D01*
X11885095Y-14053476D02*
X11875572Y-14063000D01*
X11875572Y-14063000D02*
X11856524Y-14072524D01*
X11856524Y-14072524D02*
X11837476Y-14072524D01*
X11837476Y-14072524D02*
X11818429Y-14063000D01*
X11818429Y-14063000D02*
X11808905Y-14053476D01*
X11808905Y-14053476D02*
X11799381Y-14034428D01*
X11799381Y-14034428D02*
X11789857Y-13996333D01*
X11789857Y-13996333D02*
X11789857Y-13948714D01*
X11789857Y-13948714D02*
X11799381Y-13910619D01*
X11799381Y-13910619D02*
X11808905Y-13891571D01*
X11808905Y-13891571D02*
X11818429Y-13882048D01*
X11818429Y-13882048D02*
X11837476Y-13872524D01*
X11989857Y-14053476D02*
X11999381Y-14063000D01*
X11999381Y-14063000D02*
X11989857Y-14072524D01*
X11989857Y-14072524D02*
X11980333Y-14063000D01*
X11980333Y-14063000D02*
X11989857Y-14053476D01*
X11989857Y-14053476D02*
X11989857Y-14072524D01*
X12123191Y-13872524D02*
X12142238Y-13872524D01*
X12142238Y-13872524D02*
X12161286Y-13882048D01*
X12161286Y-13882048D02*
X12170810Y-13891571D01*
X12170810Y-13891571D02*
X12180333Y-13910619D01*
X12180333Y-13910619D02*
X12189857Y-13948714D01*
X12189857Y-13948714D02*
X12189857Y-13996333D01*
X12189857Y-13996333D02*
X12180333Y-14034428D01*
X12180333Y-14034428D02*
X12170810Y-14053476D01*
X12170810Y-14053476D02*
X12161286Y-14063000D01*
X12161286Y-14063000D02*
X12142238Y-14072524D01*
X12142238Y-14072524D02*
X12123191Y-14072524D01*
X12123191Y-14072524D02*
X12104143Y-14063000D01*
X12104143Y-14063000D02*
X12094619Y-14053476D01*
X12094619Y-14053476D02*
X12085095Y-14034428D01*
X12085095Y-14034428D02*
X12075572Y-13996333D01*
X12075572Y-13996333D02*
X12075572Y-13948714D01*
X12075572Y-13948714D02*
X12085095Y-13910619D01*
X12085095Y-13910619D02*
X12094619Y-13891571D01*
X12094619Y-13891571D02*
X12104143Y-13882048D01*
X12104143Y-13882048D02*
X12123191Y-13872524D01*
X12380333Y-14072524D02*
X12266048Y-14072524D01*
X12323191Y-14072524D02*
X12323191Y-13872524D01*
X12323191Y-13872524D02*
X12304143Y-13901095D01*
X12304143Y-13901095D02*
X12285095Y-13920143D01*
X12285095Y-13920143D02*
X12266048Y-13929667D01*
X12561286Y-13872524D02*
X12466048Y-13872524D01*
X12466048Y-13872524D02*
X12456524Y-13967762D01*
X12456524Y-13967762D02*
X12466048Y-13958238D01*
X12466048Y-13958238D02*
X12485095Y-13948714D01*
X12485095Y-13948714D02*
X12532714Y-13948714D01*
X12532714Y-13948714D02*
X12551762Y-13958238D01*
X12551762Y-13958238D02*
X12561286Y-13967762D01*
X12561286Y-13967762D02*
X12570810Y-13986809D01*
X12570810Y-13986809D02*
X12570810Y-14034428D01*
X12570810Y-14034428D02*
X12561286Y-14053476D01*
X12561286Y-14053476D02*
X12551762Y-14063000D01*
X12551762Y-14063000D02*
X12532714Y-14072524D01*
X12532714Y-14072524D02*
X12485095Y-14072524D01*
X12485095Y-14072524D02*
X12466048Y-14063000D01*
X12466048Y-14063000D02*
X12456524Y-14053476D01*
X12637476Y-13872524D02*
X12770810Y-13872524D01*
X12770810Y-13872524D02*
X12685095Y-14072524D01*
X12837476Y-13872524D02*
X12837476Y-13910619D01*
X12913667Y-13872524D02*
X12913667Y-13910619D01*
X13208905Y-14148714D02*
X13199381Y-14139190D01*
X13199381Y-14139190D02*
X13180334Y-14110619D01*
X13180334Y-14110619D02*
X13170810Y-14091571D01*
X13170810Y-14091571D02*
X13161286Y-14063000D01*
X13161286Y-14063000D02*
X13151762Y-14015381D01*
X13151762Y-14015381D02*
X13151762Y-13977286D01*
X13151762Y-13977286D02*
X13161286Y-13929667D01*
X13161286Y-13929667D02*
X13170810Y-13901095D01*
X13170810Y-13901095D02*
X13180334Y-13882048D01*
X13180334Y-13882048D02*
X13199381Y-13853476D01*
X13199381Y-13853476D02*
X13208905Y-13843952D01*
X13294619Y-14072524D02*
X13332714Y-14072524D01*
X13332714Y-14072524D02*
X13351762Y-14063000D01*
X13351762Y-14063000D02*
X13361286Y-14053476D01*
X13361286Y-14053476D02*
X13380334Y-14024905D01*
X13380334Y-14024905D02*
X13389857Y-13986809D01*
X13389857Y-13986809D02*
X13389857Y-13910619D01*
X13389857Y-13910619D02*
X13380334Y-13891571D01*
X13380334Y-13891571D02*
X13370810Y-13882048D01*
X13370810Y-13882048D02*
X13351762Y-13872524D01*
X13351762Y-13872524D02*
X13313667Y-13872524D01*
X13313667Y-13872524D02*
X13294619Y-13882048D01*
X13294619Y-13882048D02*
X13285095Y-13891571D01*
X13285095Y-13891571D02*
X13275572Y-13910619D01*
X13275572Y-13910619D02*
X13275572Y-13958238D01*
X13275572Y-13958238D02*
X13285095Y-13977286D01*
X13285095Y-13977286D02*
X13294619Y-13986809D01*
X13294619Y-13986809D02*
X13313667Y-13996333D01*
X13313667Y-13996333D02*
X13351762Y-13996333D01*
X13351762Y-13996333D02*
X13370810Y-13986809D01*
X13370810Y-13986809D02*
X13380334Y-13977286D01*
X13380334Y-13977286D02*
X13389857Y-13958238D01*
X13627953Y-14072524D02*
X13627953Y-13872524D01*
X13713667Y-14072524D02*
X13713667Y-13967762D01*
X13713667Y-13967762D02*
X13704143Y-13948714D01*
X13704143Y-13948714D02*
X13685096Y-13939190D01*
X13685096Y-13939190D02*
X13656524Y-13939190D01*
X13656524Y-13939190D02*
X13637476Y-13948714D01*
X13637476Y-13948714D02*
X13627953Y-13958238D01*
X13837476Y-14072524D02*
X13818429Y-14063000D01*
X13818429Y-14063000D02*
X13808905Y-14053476D01*
X13808905Y-14053476D02*
X13799381Y-14034428D01*
X13799381Y-14034428D02*
X13799381Y-13977286D01*
X13799381Y-13977286D02*
X13808905Y-13958238D01*
X13808905Y-13958238D02*
X13818429Y-13948714D01*
X13818429Y-13948714D02*
X13837476Y-13939190D01*
X13837476Y-13939190D02*
X13866048Y-13939190D01*
X13866048Y-13939190D02*
X13885096Y-13948714D01*
X13885096Y-13948714D02*
X13894619Y-13958238D01*
X13894619Y-13958238D02*
X13904143Y-13977286D01*
X13904143Y-13977286D02*
X13904143Y-14034428D01*
X13904143Y-14034428D02*
X13894619Y-14053476D01*
X13894619Y-14053476D02*
X13885096Y-14063000D01*
X13885096Y-14063000D02*
X13866048Y-14072524D01*
X13866048Y-14072524D02*
X13837476Y-14072524D01*
X14018429Y-14072524D02*
X13999381Y-14063000D01*
X13999381Y-14063000D02*
X13989857Y-14043952D01*
X13989857Y-14043952D02*
X13989857Y-13872524D01*
X14170810Y-14063000D02*
X14151762Y-14072524D01*
X14151762Y-14072524D02*
X14113667Y-14072524D01*
X14113667Y-14072524D02*
X14094619Y-14063000D01*
X14094619Y-14063000D02*
X14085096Y-14043952D01*
X14085096Y-14043952D02*
X14085096Y-13967762D01*
X14085096Y-13967762D02*
X14094619Y-13948714D01*
X14094619Y-13948714D02*
X14113667Y-13939190D01*
X14113667Y-13939190D02*
X14151762Y-13939190D01*
X14151762Y-13939190D02*
X14170810Y-13948714D01*
X14170810Y-13948714D02*
X14180334Y-13967762D01*
X14180334Y-13967762D02*
X14180334Y-13986809D01*
X14180334Y-13986809D02*
X14085096Y-14005857D01*
X14256524Y-14063000D02*
X14275572Y-14072524D01*
X14275572Y-14072524D02*
X14313667Y-14072524D01*
X14313667Y-14072524D02*
X14332715Y-14063000D01*
X14332715Y-14063000D02*
X14342238Y-14043952D01*
X14342238Y-14043952D02*
X14342238Y-14034428D01*
X14342238Y-14034428D02*
X14332715Y-14015381D01*
X14332715Y-14015381D02*
X14313667Y-14005857D01*
X14313667Y-14005857D02*
X14285096Y-14005857D01*
X14285096Y-14005857D02*
X14266048Y-13996333D01*
X14266048Y-13996333D02*
X14256524Y-13977286D01*
X14256524Y-13977286D02*
X14256524Y-13967762D01*
X14256524Y-13967762D02*
X14266048Y-13948714D01*
X14266048Y-13948714D02*
X14285096Y-13939190D01*
X14285096Y-13939190D02*
X14313667Y-13939190D01*
X14313667Y-13939190D02*
X14332715Y-13948714D01*
X14408905Y-14148714D02*
X14418429Y-14139190D01*
X14418429Y-14139190D02*
X14437477Y-14110619D01*
X14437477Y-14110619D02*
X14447000Y-14091571D01*
X14447000Y-14091571D02*
X14456524Y-14063000D01*
X14456524Y-14063000D02*
X14466048Y-14015381D01*
X14466048Y-14015381D02*
X14466048Y-13977286D01*
X14466048Y-13977286D02*
X14456524Y-13929667D01*
X14456524Y-13929667D02*
X14447000Y-13901095D01*
X14447000Y-13901095D02*
X14437477Y-13882048D01*
X14437477Y-13882048D02*
X14418429Y-13853476D01*
X14418429Y-13853476D02*
X14408905Y-13843952D01*
D13*
X9647000Y-14244000D02*
G75*
G03*
X9647000Y-14244000I-40000J0D01*
G01*
D11*
X9932714Y-14136524D02*
X9951762Y-14136524D01*
X9951762Y-14136524D02*
X9970810Y-14146048D01*
X9970810Y-14146048D02*
X9980333Y-14155571D01*
X9980333Y-14155571D02*
X9989857Y-14174619D01*
X9989857Y-14174619D02*
X9999381Y-14212714D01*
X9999381Y-14212714D02*
X9999381Y-14260333D01*
X9999381Y-14260333D02*
X9989857Y-14298428D01*
X9989857Y-14298428D02*
X9980333Y-14317476D01*
X9980333Y-14317476D02*
X9970810Y-14327000D01*
X9970810Y-14327000D02*
X9951762Y-14336524D01*
X9951762Y-14336524D02*
X9932714Y-14336524D01*
X9932714Y-14336524D02*
X9913667Y-14327000D01*
X9913667Y-14327000D02*
X9904143Y-14317476D01*
X9904143Y-14317476D02*
X9894619Y-14298428D01*
X9894619Y-14298428D02*
X9885095Y-14260333D01*
X9885095Y-14260333D02*
X9885095Y-14212714D01*
X9885095Y-14212714D02*
X9894619Y-14174619D01*
X9894619Y-14174619D02*
X9904143Y-14155571D01*
X9904143Y-14155571D02*
X9913667Y-14146048D01*
X9913667Y-14146048D02*
X9932714Y-14136524D01*
X10085095Y-14317476D02*
X10094619Y-14327000D01*
X10094619Y-14327000D02*
X10085095Y-14336524D01*
X10085095Y-14336524D02*
X10075571Y-14327000D01*
X10075571Y-14327000D02*
X10085095Y-14317476D01*
X10085095Y-14317476D02*
X10085095Y-14336524D01*
X10208905Y-14222238D02*
X10189857Y-14212714D01*
X10189857Y-14212714D02*
X10180333Y-14203190D01*
X10180333Y-14203190D02*
X10170810Y-14184143D01*
X10170810Y-14184143D02*
X10170810Y-14174619D01*
X10170810Y-14174619D02*
X10180333Y-14155571D01*
X10180333Y-14155571D02*
X10189857Y-14146048D01*
X10189857Y-14146048D02*
X10208905Y-14136524D01*
X10208905Y-14136524D02*
X10247000Y-14136524D01*
X10247000Y-14136524D02*
X10266048Y-14146048D01*
X10266048Y-14146048D02*
X10275571Y-14155571D01*
X10275571Y-14155571D02*
X10285095Y-14174619D01*
X10285095Y-14174619D02*
X10285095Y-14184143D01*
X10285095Y-14184143D02*
X10275571Y-14203190D01*
X10275571Y-14203190D02*
X10266048Y-14212714D01*
X10266048Y-14212714D02*
X10247000Y-14222238D01*
X10247000Y-14222238D02*
X10208905Y-14222238D01*
X10208905Y-14222238D02*
X10189857Y-14231762D01*
X10189857Y-14231762D02*
X10180333Y-14241286D01*
X10180333Y-14241286D02*
X10170810Y-14260333D01*
X10170810Y-14260333D02*
X10170810Y-14298428D01*
X10170810Y-14298428D02*
X10180333Y-14317476D01*
X10180333Y-14317476D02*
X10189857Y-14327000D01*
X10189857Y-14327000D02*
X10208905Y-14336524D01*
X10208905Y-14336524D02*
X10247000Y-14336524D01*
X10247000Y-14336524D02*
X10266048Y-14327000D01*
X10266048Y-14327000D02*
X10275571Y-14317476D01*
X10275571Y-14317476D02*
X10285095Y-14298428D01*
X10285095Y-14298428D02*
X10285095Y-14260333D01*
X10285095Y-14260333D02*
X10275571Y-14241286D01*
X10275571Y-14241286D02*
X10266048Y-14231762D01*
X10266048Y-14231762D02*
X10247000Y-14222238D01*
X10408905Y-14136524D02*
X10427952Y-14136524D01*
X10427952Y-14136524D02*
X10447000Y-14146048D01*
X10447000Y-14146048D02*
X10456524Y-14155571D01*
X10456524Y-14155571D02*
X10466048Y-14174619D01*
X10466048Y-14174619D02*
X10475571Y-14212714D01*
X10475571Y-14212714D02*
X10475571Y-14260333D01*
X10475571Y-14260333D02*
X10466048Y-14298428D01*
X10466048Y-14298428D02*
X10456524Y-14317476D01*
X10456524Y-14317476D02*
X10447000Y-14327000D01*
X10447000Y-14327000D02*
X10427952Y-14336524D01*
X10427952Y-14336524D02*
X10408905Y-14336524D01*
X10408905Y-14336524D02*
X10389857Y-14327000D01*
X10389857Y-14327000D02*
X10380333Y-14317476D01*
X10380333Y-14317476D02*
X10370810Y-14298428D01*
X10370810Y-14298428D02*
X10361286Y-14260333D01*
X10361286Y-14260333D02*
X10361286Y-14212714D01*
X10361286Y-14212714D02*
X10370810Y-14174619D01*
X10370810Y-14174619D02*
X10380333Y-14155571D01*
X10380333Y-14155571D02*
X10389857Y-14146048D01*
X10389857Y-14146048D02*
X10408905Y-14136524D01*
X10599381Y-14136524D02*
X10618429Y-14136524D01*
X10618429Y-14136524D02*
X10637476Y-14146048D01*
X10637476Y-14146048D02*
X10647000Y-14155571D01*
X10647000Y-14155571D02*
X10656524Y-14174619D01*
X10656524Y-14174619D02*
X10666048Y-14212714D01*
X10666048Y-14212714D02*
X10666048Y-14260333D01*
X10666048Y-14260333D02*
X10656524Y-14298428D01*
X10656524Y-14298428D02*
X10647000Y-14317476D01*
X10647000Y-14317476D02*
X10637476Y-14327000D01*
X10637476Y-14327000D02*
X10618429Y-14336524D01*
X10618429Y-14336524D02*
X10599381Y-14336524D01*
X10599381Y-14336524D02*
X10580333Y-14327000D01*
X10580333Y-14327000D02*
X10570810Y-14317476D01*
X10570810Y-14317476D02*
X10561286Y-14298428D01*
X10561286Y-14298428D02*
X10551762Y-14260333D01*
X10551762Y-14260333D02*
X10551762Y-14212714D01*
X10551762Y-14212714D02*
X10561286Y-14174619D01*
X10561286Y-14174619D02*
X10570810Y-14155571D01*
X10570810Y-14155571D02*
X10580333Y-14146048D01*
X10580333Y-14146048D02*
X10599381Y-14136524D01*
X10751762Y-14336524D02*
X10751762Y-14203190D01*
X10751762Y-14222238D02*
X10761286Y-14212714D01*
X10761286Y-14212714D02*
X10780333Y-14203190D01*
X10780333Y-14203190D02*
X10808905Y-14203190D01*
X10808905Y-14203190D02*
X10827952Y-14212714D01*
X10827952Y-14212714D02*
X10837476Y-14231762D01*
X10837476Y-14231762D02*
X10837476Y-14336524D01*
X10837476Y-14231762D02*
X10847000Y-14212714D01*
X10847000Y-14212714D02*
X10866048Y-14203190D01*
X10866048Y-14203190D02*
X10894619Y-14203190D01*
X10894619Y-14203190D02*
X10913667Y-14212714D01*
X10913667Y-14212714D02*
X10923191Y-14231762D01*
X10923191Y-14231762D02*
X10923191Y-14336524D01*
X11018429Y-14336524D02*
X11018429Y-14203190D01*
X11018429Y-14222238D02*
X11027952Y-14212714D01*
X11027952Y-14212714D02*
X11047000Y-14203190D01*
X11047000Y-14203190D02*
X11075572Y-14203190D01*
X11075572Y-14203190D02*
X11094619Y-14212714D01*
X11094619Y-14212714D02*
X11104143Y-14231762D01*
X11104143Y-14231762D02*
X11104143Y-14336524D01*
X11104143Y-14231762D02*
X11113667Y-14212714D01*
X11113667Y-14212714D02*
X11132714Y-14203190D01*
X11132714Y-14203190D02*
X11161286Y-14203190D01*
X11161286Y-14203190D02*
X11180333Y-14212714D01*
X11180333Y-14212714D02*
X11189857Y-14231762D01*
X11189857Y-14231762D02*
X11189857Y-14336524D01*
X11580333Y-14127000D02*
X11408905Y-14384143D01*
X11837476Y-14136524D02*
X11856524Y-14136524D01*
X11856524Y-14136524D02*
X11875572Y-14146048D01*
X11875572Y-14146048D02*
X11885095Y-14155571D01*
X11885095Y-14155571D02*
X11894619Y-14174619D01*
X11894619Y-14174619D02*
X11904143Y-14212714D01*
X11904143Y-14212714D02*
X11904143Y-14260333D01*
X11904143Y-14260333D02*
X11894619Y-14298428D01*
X11894619Y-14298428D02*
X11885095Y-14317476D01*
X11885095Y-14317476D02*
X11875572Y-14327000D01*
X11875572Y-14327000D02*
X11856524Y-14336524D01*
X11856524Y-14336524D02*
X11837476Y-14336524D01*
X11837476Y-14336524D02*
X11818429Y-14327000D01*
X11818429Y-14327000D02*
X11808905Y-14317476D01*
X11808905Y-14317476D02*
X11799381Y-14298428D01*
X11799381Y-14298428D02*
X11789857Y-14260333D01*
X11789857Y-14260333D02*
X11789857Y-14212714D01*
X11789857Y-14212714D02*
X11799381Y-14174619D01*
X11799381Y-14174619D02*
X11808905Y-14155571D01*
X11808905Y-14155571D02*
X11818429Y-14146048D01*
X11818429Y-14146048D02*
X11837476Y-14136524D01*
X11989857Y-14317476D02*
X11999381Y-14327000D01*
X11999381Y-14327000D02*
X11989857Y-14336524D01*
X11989857Y-14336524D02*
X11980333Y-14327000D01*
X11980333Y-14327000D02*
X11989857Y-14317476D01*
X11989857Y-14317476D02*
X11989857Y-14336524D01*
X12123191Y-14136524D02*
X12142238Y-14136524D01*
X12142238Y-14136524D02*
X12161286Y-14146048D01*
X12161286Y-14146048D02*
X12170810Y-14155571D01*
X12170810Y-14155571D02*
X12180333Y-14174619D01*
X12180333Y-14174619D02*
X12189857Y-14212714D01*
X12189857Y-14212714D02*
X12189857Y-14260333D01*
X12189857Y-14260333D02*
X12180333Y-14298428D01*
X12180333Y-14298428D02*
X12170810Y-14317476D01*
X12170810Y-14317476D02*
X12161286Y-14327000D01*
X12161286Y-14327000D02*
X12142238Y-14336524D01*
X12142238Y-14336524D02*
X12123191Y-14336524D01*
X12123191Y-14336524D02*
X12104143Y-14327000D01*
X12104143Y-14327000D02*
X12094619Y-14317476D01*
X12094619Y-14317476D02*
X12085095Y-14298428D01*
X12085095Y-14298428D02*
X12075572Y-14260333D01*
X12075572Y-14260333D02*
X12075572Y-14212714D01*
X12075572Y-14212714D02*
X12085095Y-14174619D01*
X12085095Y-14174619D02*
X12094619Y-14155571D01*
X12094619Y-14155571D02*
X12104143Y-14146048D01*
X12104143Y-14146048D02*
X12123191Y-14136524D01*
X12256524Y-14136524D02*
X12380333Y-14136524D01*
X12380333Y-14136524D02*
X12313667Y-14212714D01*
X12313667Y-14212714D02*
X12342238Y-14212714D01*
X12342238Y-14212714D02*
X12361286Y-14222238D01*
X12361286Y-14222238D02*
X12370810Y-14231762D01*
X12370810Y-14231762D02*
X12380333Y-14250809D01*
X12380333Y-14250809D02*
X12380333Y-14298428D01*
X12380333Y-14298428D02*
X12370810Y-14317476D01*
X12370810Y-14317476D02*
X12361286Y-14327000D01*
X12361286Y-14327000D02*
X12342238Y-14336524D01*
X12342238Y-14336524D02*
X12285095Y-14336524D01*
X12285095Y-14336524D02*
X12266048Y-14327000D01*
X12266048Y-14327000D02*
X12256524Y-14317476D01*
X12570810Y-14336524D02*
X12456524Y-14336524D01*
X12513667Y-14336524D02*
X12513667Y-14136524D01*
X12513667Y-14136524D02*
X12494619Y-14165095D01*
X12494619Y-14165095D02*
X12475572Y-14184143D01*
X12475572Y-14184143D02*
X12456524Y-14193667D01*
X12751762Y-14136524D02*
X12656524Y-14136524D01*
X12656524Y-14136524D02*
X12647000Y-14231762D01*
X12647000Y-14231762D02*
X12656524Y-14222238D01*
X12656524Y-14222238D02*
X12675572Y-14212714D01*
X12675572Y-14212714D02*
X12723191Y-14212714D01*
X12723191Y-14212714D02*
X12742238Y-14222238D01*
X12742238Y-14222238D02*
X12751762Y-14231762D01*
X12751762Y-14231762D02*
X12761286Y-14250809D01*
X12761286Y-14250809D02*
X12761286Y-14298428D01*
X12761286Y-14298428D02*
X12751762Y-14317476D01*
X12751762Y-14317476D02*
X12742238Y-14327000D01*
X12742238Y-14327000D02*
X12723191Y-14336524D01*
X12723191Y-14336524D02*
X12675572Y-14336524D01*
X12675572Y-14336524D02*
X12656524Y-14327000D01*
X12656524Y-14327000D02*
X12647000Y-14317476D01*
X12837476Y-14136524D02*
X12837476Y-14174619D01*
X12913667Y-14136524D02*
X12913667Y-14174619D01*
X13208905Y-14412714D02*
X13199381Y-14403190D01*
X13199381Y-14403190D02*
X13180334Y-14374619D01*
X13180334Y-14374619D02*
X13170810Y-14355571D01*
X13170810Y-14355571D02*
X13161286Y-14327000D01*
X13161286Y-14327000D02*
X13151762Y-14279381D01*
X13151762Y-14279381D02*
X13151762Y-14241286D01*
X13151762Y-14241286D02*
X13161286Y-14193667D01*
X13161286Y-14193667D02*
X13170810Y-14165095D01*
X13170810Y-14165095D02*
X13180334Y-14146048D01*
X13180334Y-14146048D02*
X13199381Y-14117476D01*
X13199381Y-14117476D02*
X13208905Y-14107952D01*
X13389857Y-14336524D02*
X13275572Y-14336524D01*
X13332714Y-14336524D02*
X13332714Y-14136524D01*
X13332714Y-14136524D02*
X13313667Y-14165095D01*
X13313667Y-14165095D02*
X13294619Y-14184143D01*
X13294619Y-14184143D02*
X13275572Y-14193667D01*
X13466048Y-14155571D02*
X13475572Y-14146048D01*
X13475572Y-14146048D02*
X13494619Y-14136524D01*
X13494619Y-14136524D02*
X13542238Y-14136524D01*
X13542238Y-14136524D02*
X13561286Y-14146048D01*
X13561286Y-14146048D02*
X13570810Y-14155571D01*
X13570810Y-14155571D02*
X13580334Y-14174619D01*
X13580334Y-14174619D02*
X13580334Y-14193667D01*
X13580334Y-14193667D02*
X13570810Y-14222238D01*
X13570810Y-14222238D02*
X13456524Y-14336524D01*
X13456524Y-14336524D02*
X13580334Y-14336524D01*
X13818429Y-14336524D02*
X13818429Y-14136524D01*
X13904143Y-14336524D02*
X13904143Y-14231762D01*
X13904143Y-14231762D02*
X13894619Y-14212714D01*
X13894619Y-14212714D02*
X13875572Y-14203190D01*
X13875572Y-14203190D02*
X13847000Y-14203190D01*
X13847000Y-14203190D02*
X13827953Y-14212714D01*
X13827953Y-14212714D02*
X13818429Y-14222238D01*
X14027953Y-14336524D02*
X14008905Y-14327000D01*
X14008905Y-14327000D02*
X13999381Y-14317476D01*
X13999381Y-14317476D02*
X13989857Y-14298428D01*
X13989857Y-14298428D02*
X13989857Y-14241286D01*
X13989857Y-14241286D02*
X13999381Y-14222238D01*
X13999381Y-14222238D02*
X14008905Y-14212714D01*
X14008905Y-14212714D02*
X14027953Y-14203190D01*
X14027953Y-14203190D02*
X14056524Y-14203190D01*
X14056524Y-14203190D02*
X14075572Y-14212714D01*
X14075572Y-14212714D02*
X14085096Y-14222238D01*
X14085096Y-14222238D02*
X14094619Y-14241286D01*
X14094619Y-14241286D02*
X14094619Y-14298428D01*
X14094619Y-14298428D02*
X14085096Y-14317476D01*
X14085096Y-14317476D02*
X14075572Y-14327000D01*
X14075572Y-14327000D02*
X14056524Y-14336524D01*
X14056524Y-14336524D02*
X14027953Y-14336524D01*
X14208905Y-14336524D02*
X14189857Y-14327000D01*
X14189857Y-14327000D02*
X14180334Y-14307952D01*
X14180334Y-14307952D02*
X14180334Y-14136524D01*
X14361286Y-14327000D02*
X14342238Y-14336524D01*
X14342238Y-14336524D02*
X14304143Y-14336524D01*
X14304143Y-14336524D02*
X14285096Y-14327000D01*
X14285096Y-14327000D02*
X14275572Y-14307952D01*
X14275572Y-14307952D02*
X14275572Y-14231762D01*
X14275572Y-14231762D02*
X14285096Y-14212714D01*
X14285096Y-14212714D02*
X14304143Y-14203190D01*
X14304143Y-14203190D02*
X14342238Y-14203190D01*
X14342238Y-14203190D02*
X14361286Y-14212714D01*
X14361286Y-14212714D02*
X14370810Y-14231762D01*
X14370810Y-14231762D02*
X14370810Y-14250809D01*
X14370810Y-14250809D02*
X14275572Y-14269857D01*
X14447000Y-14327000D02*
X14466048Y-14336524D01*
X14466048Y-14336524D02*
X14504143Y-14336524D01*
X14504143Y-14336524D02*
X14523191Y-14327000D01*
X14523191Y-14327000D02*
X14532715Y-14307952D01*
X14532715Y-14307952D02*
X14532715Y-14298428D01*
X14532715Y-14298428D02*
X14523191Y-14279381D01*
X14523191Y-14279381D02*
X14504143Y-14269857D01*
X14504143Y-14269857D02*
X14475572Y-14269857D01*
X14475572Y-14269857D02*
X14456524Y-14260333D01*
X14456524Y-14260333D02*
X14447000Y-14241286D01*
X14447000Y-14241286D02*
X14447000Y-14231762D01*
X14447000Y-14231762D02*
X14456524Y-14212714D01*
X14456524Y-14212714D02*
X14475572Y-14203190D01*
X14475572Y-14203190D02*
X14504143Y-14203190D01*
X14504143Y-14203190D02*
X14523191Y-14212714D01*
X14599381Y-14412714D02*
X14608905Y-14403190D01*
X14608905Y-14403190D02*
X14627953Y-14374619D01*
X14627953Y-14374619D02*
X14637477Y-14355571D01*
X14637477Y-14355571D02*
X14647000Y-14327000D01*
X14647000Y-14327000D02*
X14656524Y-14279381D01*
X14656524Y-14279381D02*
X14656524Y-14241286D01*
X14656524Y-14241286D02*
X14647000Y-14193667D01*
X14647000Y-14193667D02*
X14637477Y-14165095D01*
X14637477Y-14165095D02*
X14627953Y-14146048D01*
X14627953Y-14146048D02*
X14608905Y-14117476D01*
X14608905Y-14117476D02*
X14599381Y-14107952D01*
D14*
X9602000Y-14463000D02*
X9602000Y-14553000D01*
X9557000Y-14508000D02*
X9647000Y-14508000D01*
D11*
X9932714Y-14400524D02*
X9951762Y-14400524D01*
X9951762Y-14400524D02*
X9970810Y-14410048D01*
X9970810Y-14410048D02*
X9980333Y-14419571D01*
X9980333Y-14419571D02*
X9989857Y-14438619D01*
X9989857Y-14438619D02*
X9999381Y-14476714D01*
X9999381Y-14476714D02*
X9999381Y-14524333D01*
X9999381Y-14524333D02*
X9989857Y-14562428D01*
X9989857Y-14562428D02*
X9980333Y-14581476D01*
X9980333Y-14581476D02*
X9970810Y-14591000D01*
X9970810Y-14591000D02*
X9951762Y-14600524D01*
X9951762Y-14600524D02*
X9932714Y-14600524D01*
X9932714Y-14600524D02*
X9913667Y-14591000D01*
X9913667Y-14591000D02*
X9904143Y-14581476D01*
X9904143Y-14581476D02*
X9894619Y-14562428D01*
X9894619Y-14562428D02*
X9885095Y-14524333D01*
X9885095Y-14524333D02*
X9885095Y-14476714D01*
X9885095Y-14476714D02*
X9894619Y-14438619D01*
X9894619Y-14438619D02*
X9904143Y-14419571D01*
X9904143Y-14419571D02*
X9913667Y-14410048D01*
X9913667Y-14410048D02*
X9932714Y-14400524D01*
X10085095Y-14581476D02*
X10094619Y-14591000D01*
X10094619Y-14591000D02*
X10085095Y-14600524D01*
X10085095Y-14600524D02*
X10075571Y-14591000D01*
X10075571Y-14591000D02*
X10085095Y-14581476D01*
X10085095Y-14581476D02*
X10085095Y-14600524D01*
X10189857Y-14600524D02*
X10227952Y-14600524D01*
X10227952Y-14600524D02*
X10247000Y-14591000D01*
X10247000Y-14591000D02*
X10256524Y-14581476D01*
X10256524Y-14581476D02*
X10275571Y-14552905D01*
X10275571Y-14552905D02*
X10285095Y-14514809D01*
X10285095Y-14514809D02*
X10285095Y-14438619D01*
X10285095Y-14438619D02*
X10275571Y-14419571D01*
X10275571Y-14419571D02*
X10266048Y-14410048D01*
X10266048Y-14410048D02*
X10247000Y-14400524D01*
X10247000Y-14400524D02*
X10208905Y-14400524D01*
X10208905Y-14400524D02*
X10189857Y-14410048D01*
X10189857Y-14410048D02*
X10180333Y-14419571D01*
X10180333Y-14419571D02*
X10170810Y-14438619D01*
X10170810Y-14438619D02*
X10170810Y-14486238D01*
X10170810Y-14486238D02*
X10180333Y-14505286D01*
X10180333Y-14505286D02*
X10189857Y-14514809D01*
X10189857Y-14514809D02*
X10208905Y-14524333D01*
X10208905Y-14524333D02*
X10247000Y-14524333D01*
X10247000Y-14524333D02*
X10266048Y-14514809D01*
X10266048Y-14514809D02*
X10275571Y-14505286D01*
X10275571Y-14505286D02*
X10285095Y-14486238D01*
X10408905Y-14400524D02*
X10427952Y-14400524D01*
X10427952Y-14400524D02*
X10447000Y-14410048D01*
X10447000Y-14410048D02*
X10456524Y-14419571D01*
X10456524Y-14419571D02*
X10466048Y-14438619D01*
X10466048Y-14438619D02*
X10475571Y-14476714D01*
X10475571Y-14476714D02*
X10475571Y-14524333D01*
X10475571Y-14524333D02*
X10466048Y-14562428D01*
X10466048Y-14562428D02*
X10456524Y-14581476D01*
X10456524Y-14581476D02*
X10447000Y-14591000D01*
X10447000Y-14591000D02*
X10427952Y-14600524D01*
X10427952Y-14600524D02*
X10408905Y-14600524D01*
X10408905Y-14600524D02*
X10389857Y-14591000D01*
X10389857Y-14591000D02*
X10380333Y-14581476D01*
X10380333Y-14581476D02*
X10370810Y-14562428D01*
X10370810Y-14562428D02*
X10361286Y-14524333D01*
X10361286Y-14524333D02*
X10361286Y-14476714D01*
X10361286Y-14476714D02*
X10370810Y-14438619D01*
X10370810Y-14438619D02*
X10380333Y-14419571D01*
X10380333Y-14419571D02*
X10389857Y-14410048D01*
X10389857Y-14410048D02*
X10408905Y-14400524D01*
X10599381Y-14400524D02*
X10618429Y-14400524D01*
X10618429Y-14400524D02*
X10637476Y-14410048D01*
X10637476Y-14410048D02*
X10647000Y-14419571D01*
X10647000Y-14419571D02*
X10656524Y-14438619D01*
X10656524Y-14438619D02*
X10666048Y-14476714D01*
X10666048Y-14476714D02*
X10666048Y-14524333D01*
X10666048Y-14524333D02*
X10656524Y-14562428D01*
X10656524Y-14562428D02*
X10647000Y-14581476D01*
X10647000Y-14581476D02*
X10637476Y-14591000D01*
X10637476Y-14591000D02*
X10618429Y-14600524D01*
X10618429Y-14600524D02*
X10599381Y-14600524D01*
X10599381Y-14600524D02*
X10580333Y-14591000D01*
X10580333Y-14591000D02*
X10570810Y-14581476D01*
X10570810Y-14581476D02*
X10561286Y-14562428D01*
X10561286Y-14562428D02*
X10551762Y-14524333D01*
X10551762Y-14524333D02*
X10551762Y-14476714D01*
X10551762Y-14476714D02*
X10561286Y-14438619D01*
X10561286Y-14438619D02*
X10570810Y-14419571D01*
X10570810Y-14419571D02*
X10580333Y-14410048D01*
X10580333Y-14410048D02*
X10599381Y-14400524D01*
X10751762Y-14600524D02*
X10751762Y-14467190D01*
X10751762Y-14486238D02*
X10761286Y-14476714D01*
X10761286Y-14476714D02*
X10780333Y-14467190D01*
X10780333Y-14467190D02*
X10808905Y-14467190D01*
X10808905Y-14467190D02*
X10827952Y-14476714D01*
X10827952Y-14476714D02*
X10837476Y-14495762D01*
X10837476Y-14495762D02*
X10837476Y-14600524D01*
X10837476Y-14495762D02*
X10847000Y-14476714D01*
X10847000Y-14476714D02*
X10866048Y-14467190D01*
X10866048Y-14467190D02*
X10894619Y-14467190D01*
X10894619Y-14467190D02*
X10913667Y-14476714D01*
X10913667Y-14476714D02*
X10923191Y-14495762D01*
X10923191Y-14495762D02*
X10923191Y-14600524D01*
X11018429Y-14600524D02*
X11018429Y-14467190D01*
X11018429Y-14486238D02*
X11027952Y-14476714D01*
X11027952Y-14476714D02*
X11047000Y-14467190D01*
X11047000Y-14467190D02*
X11075572Y-14467190D01*
X11075572Y-14467190D02*
X11094619Y-14476714D01*
X11094619Y-14476714D02*
X11104143Y-14495762D01*
X11104143Y-14495762D02*
X11104143Y-14600524D01*
X11104143Y-14495762D02*
X11113667Y-14476714D01*
X11113667Y-14476714D02*
X11132714Y-14467190D01*
X11132714Y-14467190D02*
X11161286Y-14467190D01*
X11161286Y-14467190D02*
X11180333Y-14476714D01*
X11180333Y-14476714D02*
X11189857Y-14495762D01*
X11189857Y-14495762D02*
X11189857Y-14600524D01*
X11580333Y-14391000D02*
X11408905Y-14648143D01*
X11837476Y-14400524D02*
X11856524Y-14400524D01*
X11856524Y-14400524D02*
X11875572Y-14410048D01*
X11875572Y-14410048D02*
X11885095Y-14419571D01*
X11885095Y-14419571D02*
X11894619Y-14438619D01*
X11894619Y-14438619D02*
X11904143Y-14476714D01*
X11904143Y-14476714D02*
X11904143Y-14524333D01*
X11904143Y-14524333D02*
X11894619Y-14562428D01*
X11894619Y-14562428D02*
X11885095Y-14581476D01*
X11885095Y-14581476D02*
X11875572Y-14591000D01*
X11875572Y-14591000D02*
X11856524Y-14600524D01*
X11856524Y-14600524D02*
X11837476Y-14600524D01*
X11837476Y-14600524D02*
X11818429Y-14591000D01*
X11818429Y-14591000D02*
X11808905Y-14581476D01*
X11808905Y-14581476D02*
X11799381Y-14562428D01*
X11799381Y-14562428D02*
X11789857Y-14524333D01*
X11789857Y-14524333D02*
X11789857Y-14476714D01*
X11789857Y-14476714D02*
X11799381Y-14438619D01*
X11799381Y-14438619D02*
X11808905Y-14419571D01*
X11808905Y-14419571D02*
X11818429Y-14410048D01*
X11818429Y-14410048D02*
X11837476Y-14400524D01*
X11989857Y-14581476D02*
X11999381Y-14591000D01*
X11999381Y-14591000D02*
X11989857Y-14600524D01*
X11989857Y-14600524D02*
X11980333Y-14591000D01*
X11980333Y-14591000D02*
X11989857Y-14581476D01*
X11989857Y-14581476D02*
X11989857Y-14600524D01*
X12123191Y-14400524D02*
X12142238Y-14400524D01*
X12142238Y-14400524D02*
X12161286Y-14410048D01*
X12161286Y-14410048D02*
X12170810Y-14419571D01*
X12170810Y-14419571D02*
X12180333Y-14438619D01*
X12180333Y-14438619D02*
X12189857Y-14476714D01*
X12189857Y-14476714D02*
X12189857Y-14524333D01*
X12189857Y-14524333D02*
X12180333Y-14562428D01*
X12180333Y-14562428D02*
X12170810Y-14581476D01*
X12170810Y-14581476D02*
X12161286Y-14591000D01*
X12161286Y-14591000D02*
X12142238Y-14600524D01*
X12142238Y-14600524D02*
X12123191Y-14600524D01*
X12123191Y-14600524D02*
X12104143Y-14591000D01*
X12104143Y-14591000D02*
X12094619Y-14581476D01*
X12094619Y-14581476D02*
X12085095Y-14562428D01*
X12085095Y-14562428D02*
X12075572Y-14524333D01*
X12075572Y-14524333D02*
X12075572Y-14476714D01*
X12075572Y-14476714D02*
X12085095Y-14438619D01*
X12085095Y-14438619D02*
X12094619Y-14419571D01*
X12094619Y-14419571D02*
X12104143Y-14410048D01*
X12104143Y-14410048D02*
X12123191Y-14400524D01*
X12256524Y-14400524D02*
X12380333Y-14400524D01*
X12380333Y-14400524D02*
X12313667Y-14476714D01*
X12313667Y-14476714D02*
X12342238Y-14476714D01*
X12342238Y-14476714D02*
X12361286Y-14486238D01*
X12361286Y-14486238D02*
X12370810Y-14495762D01*
X12370810Y-14495762D02*
X12380333Y-14514809D01*
X12380333Y-14514809D02*
X12380333Y-14562428D01*
X12380333Y-14562428D02*
X12370810Y-14581476D01*
X12370810Y-14581476D02*
X12361286Y-14591000D01*
X12361286Y-14591000D02*
X12342238Y-14600524D01*
X12342238Y-14600524D02*
X12285095Y-14600524D01*
X12285095Y-14600524D02*
X12266048Y-14591000D01*
X12266048Y-14591000D02*
X12256524Y-14581476D01*
X12561286Y-14400524D02*
X12466048Y-14400524D01*
X12466048Y-14400524D02*
X12456524Y-14495762D01*
X12456524Y-14495762D02*
X12466048Y-14486238D01*
X12466048Y-14486238D02*
X12485095Y-14476714D01*
X12485095Y-14476714D02*
X12532714Y-14476714D01*
X12532714Y-14476714D02*
X12551762Y-14486238D01*
X12551762Y-14486238D02*
X12561286Y-14495762D01*
X12561286Y-14495762D02*
X12570810Y-14514809D01*
X12570810Y-14514809D02*
X12570810Y-14562428D01*
X12570810Y-14562428D02*
X12561286Y-14581476D01*
X12561286Y-14581476D02*
X12551762Y-14591000D01*
X12551762Y-14591000D02*
X12532714Y-14600524D01*
X12532714Y-14600524D02*
X12485095Y-14600524D01*
X12485095Y-14600524D02*
X12466048Y-14591000D01*
X12466048Y-14591000D02*
X12456524Y-14581476D01*
X12742238Y-14467190D02*
X12742238Y-14600524D01*
X12694619Y-14391000D02*
X12647000Y-14533857D01*
X12647000Y-14533857D02*
X12770810Y-14533857D01*
X12837476Y-14400524D02*
X12837476Y-14438619D01*
X12913667Y-14400524D02*
X12913667Y-14438619D01*
X13208905Y-14676714D02*
X13199381Y-14667190D01*
X13199381Y-14667190D02*
X13180334Y-14638619D01*
X13180334Y-14638619D02*
X13170810Y-14619571D01*
X13170810Y-14619571D02*
X13161286Y-14591000D01*
X13161286Y-14591000D02*
X13151762Y-14543381D01*
X13151762Y-14543381D02*
X13151762Y-14505286D01*
X13151762Y-14505286D02*
X13161286Y-14457667D01*
X13161286Y-14457667D02*
X13170810Y-14429095D01*
X13170810Y-14429095D02*
X13180334Y-14410048D01*
X13180334Y-14410048D02*
X13199381Y-14381476D01*
X13199381Y-14381476D02*
X13208905Y-14371952D01*
X13370810Y-14467190D02*
X13370810Y-14600524D01*
X13323191Y-14391000D02*
X13275572Y-14533857D01*
X13275572Y-14533857D02*
X13399381Y-14533857D01*
X13627953Y-14600524D02*
X13627953Y-14400524D01*
X13713667Y-14600524D02*
X13713667Y-14495762D01*
X13713667Y-14495762D02*
X13704143Y-14476714D01*
X13704143Y-14476714D02*
X13685096Y-14467190D01*
X13685096Y-14467190D02*
X13656524Y-14467190D01*
X13656524Y-14467190D02*
X13637476Y-14476714D01*
X13637476Y-14476714D02*
X13627953Y-14486238D01*
X13837476Y-14600524D02*
X13818429Y-14591000D01*
X13818429Y-14591000D02*
X13808905Y-14581476D01*
X13808905Y-14581476D02*
X13799381Y-14562428D01*
X13799381Y-14562428D02*
X13799381Y-14505286D01*
X13799381Y-14505286D02*
X13808905Y-14486238D01*
X13808905Y-14486238D02*
X13818429Y-14476714D01*
X13818429Y-14476714D02*
X13837476Y-14467190D01*
X13837476Y-14467190D02*
X13866048Y-14467190D01*
X13866048Y-14467190D02*
X13885096Y-14476714D01*
X13885096Y-14476714D02*
X13894619Y-14486238D01*
X13894619Y-14486238D02*
X13904143Y-14505286D01*
X13904143Y-14505286D02*
X13904143Y-14562428D01*
X13904143Y-14562428D02*
X13894619Y-14581476D01*
X13894619Y-14581476D02*
X13885096Y-14591000D01*
X13885096Y-14591000D02*
X13866048Y-14600524D01*
X13866048Y-14600524D02*
X13837476Y-14600524D01*
X14018429Y-14600524D02*
X13999381Y-14591000D01*
X13999381Y-14591000D02*
X13989857Y-14571952D01*
X13989857Y-14571952D02*
X13989857Y-14400524D01*
X14170810Y-14591000D02*
X14151762Y-14600524D01*
X14151762Y-14600524D02*
X14113667Y-14600524D01*
X14113667Y-14600524D02*
X14094619Y-14591000D01*
X14094619Y-14591000D02*
X14085096Y-14571952D01*
X14085096Y-14571952D02*
X14085096Y-14495762D01*
X14085096Y-14495762D02*
X14094619Y-14476714D01*
X14094619Y-14476714D02*
X14113667Y-14467190D01*
X14113667Y-14467190D02*
X14151762Y-14467190D01*
X14151762Y-14467190D02*
X14170810Y-14476714D01*
X14170810Y-14476714D02*
X14180334Y-14495762D01*
X14180334Y-14495762D02*
X14180334Y-14514809D01*
X14180334Y-14514809D02*
X14085096Y-14533857D01*
X14256524Y-14591000D02*
X14275572Y-14600524D01*
X14275572Y-14600524D02*
X14313667Y-14600524D01*
X14313667Y-14600524D02*
X14332715Y-14591000D01*
X14332715Y-14591000D02*
X14342238Y-14571952D01*
X14342238Y-14571952D02*
X14342238Y-14562428D01*
X14342238Y-14562428D02*
X14332715Y-14543381D01*
X14332715Y-14543381D02*
X14313667Y-14533857D01*
X14313667Y-14533857D02*
X14285096Y-14533857D01*
X14285096Y-14533857D02*
X14266048Y-14524333D01*
X14266048Y-14524333D02*
X14256524Y-14505286D01*
X14256524Y-14505286D02*
X14256524Y-14495762D01*
X14256524Y-14495762D02*
X14266048Y-14476714D01*
X14266048Y-14476714D02*
X14285096Y-14467190D01*
X14285096Y-14467190D02*
X14313667Y-14467190D01*
X14313667Y-14467190D02*
X14332715Y-14476714D01*
X14408905Y-14676714D02*
X14418429Y-14667190D01*
X14418429Y-14667190D02*
X14437477Y-14638619D01*
X14437477Y-14638619D02*
X14447000Y-14619571D01*
X14447000Y-14619571D02*
X14456524Y-14591000D01*
X14456524Y-14591000D02*
X14466048Y-14543381D01*
X14466048Y-14543381D02*
X14466048Y-14505286D01*
X14466048Y-14505286D02*
X14456524Y-14457667D01*
X14456524Y-14457667D02*
X14447000Y-14429095D01*
X14447000Y-14429095D02*
X14437477Y-14410048D01*
X14437477Y-14410048D02*
X14418429Y-14381476D01*
X14418429Y-14381476D02*
X14408905Y-14371952D01*
D10*
X9632356Y-14807356D02*
X9632356Y-14736644D01*
X9561644Y-14736644D01*
X9561644Y-14807356D01*
X9632356Y-14807356D01*
D11*
X9999381Y-14864524D02*
X9885095Y-14864524D01*
X9942238Y-14864524D02*
X9942238Y-14664524D01*
X9942238Y-14664524D02*
X9923190Y-14693095D01*
X9923190Y-14693095D02*
X9904143Y-14712143D01*
X9904143Y-14712143D02*
X9885095Y-14721667D01*
X10085095Y-14845476D02*
X10094619Y-14855000D01*
X10094619Y-14855000D02*
X10085095Y-14864524D01*
X10085095Y-14864524D02*
X10075571Y-14855000D01*
X10075571Y-14855000D02*
X10085095Y-14845476D01*
X10085095Y-14845476D02*
X10085095Y-14864524D01*
X10218429Y-14664524D02*
X10237476Y-14664524D01*
X10237476Y-14664524D02*
X10256524Y-14674048D01*
X10256524Y-14674048D02*
X10266048Y-14683571D01*
X10266048Y-14683571D02*
X10275571Y-14702619D01*
X10275571Y-14702619D02*
X10285095Y-14740714D01*
X10285095Y-14740714D02*
X10285095Y-14788333D01*
X10285095Y-14788333D02*
X10275571Y-14826428D01*
X10275571Y-14826428D02*
X10266048Y-14845476D01*
X10266048Y-14845476D02*
X10256524Y-14855000D01*
X10256524Y-14855000D02*
X10237476Y-14864524D01*
X10237476Y-14864524D02*
X10218429Y-14864524D01*
X10218429Y-14864524D02*
X10199381Y-14855000D01*
X10199381Y-14855000D02*
X10189857Y-14845476D01*
X10189857Y-14845476D02*
X10180333Y-14826428D01*
X10180333Y-14826428D02*
X10170810Y-14788333D01*
X10170810Y-14788333D02*
X10170810Y-14740714D01*
X10170810Y-14740714D02*
X10180333Y-14702619D01*
X10180333Y-14702619D02*
X10189857Y-14683571D01*
X10189857Y-14683571D02*
X10199381Y-14674048D01*
X10199381Y-14674048D02*
X10218429Y-14664524D01*
X10408905Y-14664524D02*
X10427952Y-14664524D01*
X10427952Y-14664524D02*
X10447000Y-14674048D01*
X10447000Y-14674048D02*
X10456524Y-14683571D01*
X10456524Y-14683571D02*
X10466048Y-14702619D01*
X10466048Y-14702619D02*
X10475571Y-14740714D01*
X10475571Y-14740714D02*
X10475571Y-14788333D01*
X10475571Y-14788333D02*
X10466048Y-14826428D01*
X10466048Y-14826428D02*
X10456524Y-14845476D01*
X10456524Y-14845476D02*
X10447000Y-14855000D01*
X10447000Y-14855000D02*
X10427952Y-14864524D01*
X10427952Y-14864524D02*
X10408905Y-14864524D01*
X10408905Y-14864524D02*
X10389857Y-14855000D01*
X10389857Y-14855000D02*
X10380333Y-14845476D01*
X10380333Y-14845476D02*
X10370810Y-14826428D01*
X10370810Y-14826428D02*
X10361286Y-14788333D01*
X10361286Y-14788333D02*
X10361286Y-14740714D01*
X10361286Y-14740714D02*
X10370810Y-14702619D01*
X10370810Y-14702619D02*
X10380333Y-14683571D01*
X10380333Y-14683571D02*
X10389857Y-14674048D01*
X10389857Y-14674048D02*
X10408905Y-14664524D01*
X10599381Y-14664524D02*
X10618429Y-14664524D01*
X10618429Y-14664524D02*
X10637476Y-14674048D01*
X10637476Y-14674048D02*
X10647000Y-14683571D01*
X10647000Y-14683571D02*
X10656524Y-14702619D01*
X10656524Y-14702619D02*
X10666048Y-14740714D01*
X10666048Y-14740714D02*
X10666048Y-14788333D01*
X10666048Y-14788333D02*
X10656524Y-14826428D01*
X10656524Y-14826428D02*
X10647000Y-14845476D01*
X10647000Y-14845476D02*
X10637476Y-14855000D01*
X10637476Y-14855000D02*
X10618429Y-14864524D01*
X10618429Y-14864524D02*
X10599381Y-14864524D01*
X10599381Y-14864524D02*
X10580333Y-14855000D01*
X10580333Y-14855000D02*
X10570810Y-14845476D01*
X10570810Y-14845476D02*
X10561286Y-14826428D01*
X10561286Y-14826428D02*
X10551762Y-14788333D01*
X10551762Y-14788333D02*
X10551762Y-14740714D01*
X10551762Y-14740714D02*
X10561286Y-14702619D01*
X10561286Y-14702619D02*
X10570810Y-14683571D01*
X10570810Y-14683571D02*
X10580333Y-14674048D01*
X10580333Y-14674048D02*
X10599381Y-14664524D01*
X10751762Y-14864524D02*
X10751762Y-14731190D01*
X10751762Y-14750238D02*
X10761286Y-14740714D01*
X10761286Y-14740714D02*
X10780333Y-14731190D01*
X10780333Y-14731190D02*
X10808905Y-14731190D01*
X10808905Y-14731190D02*
X10827952Y-14740714D01*
X10827952Y-14740714D02*
X10837476Y-14759762D01*
X10837476Y-14759762D02*
X10837476Y-14864524D01*
X10837476Y-14759762D02*
X10847000Y-14740714D01*
X10847000Y-14740714D02*
X10866048Y-14731190D01*
X10866048Y-14731190D02*
X10894619Y-14731190D01*
X10894619Y-14731190D02*
X10913667Y-14740714D01*
X10913667Y-14740714D02*
X10923191Y-14759762D01*
X10923191Y-14759762D02*
X10923191Y-14864524D01*
X11018429Y-14864524D02*
X11018429Y-14731190D01*
X11018429Y-14750238D02*
X11027952Y-14740714D01*
X11027952Y-14740714D02*
X11047000Y-14731190D01*
X11047000Y-14731190D02*
X11075572Y-14731190D01*
X11075572Y-14731190D02*
X11094619Y-14740714D01*
X11094619Y-14740714D02*
X11104143Y-14759762D01*
X11104143Y-14759762D02*
X11104143Y-14864524D01*
X11104143Y-14759762D02*
X11113667Y-14740714D01*
X11113667Y-14740714D02*
X11132714Y-14731190D01*
X11132714Y-14731190D02*
X11161286Y-14731190D01*
X11161286Y-14731190D02*
X11180333Y-14740714D01*
X11180333Y-14740714D02*
X11189857Y-14759762D01*
X11189857Y-14759762D02*
X11189857Y-14864524D01*
X11580333Y-14655000D02*
X11408905Y-14912143D01*
X11837476Y-14664524D02*
X11856524Y-14664524D01*
X11856524Y-14664524D02*
X11875572Y-14674048D01*
X11875572Y-14674048D02*
X11885095Y-14683571D01*
X11885095Y-14683571D02*
X11894619Y-14702619D01*
X11894619Y-14702619D02*
X11904143Y-14740714D01*
X11904143Y-14740714D02*
X11904143Y-14788333D01*
X11904143Y-14788333D02*
X11894619Y-14826428D01*
X11894619Y-14826428D02*
X11885095Y-14845476D01*
X11885095Y-14845476D02*
X11875572Y-14855000D01*
X11875572Y-14855000D02*
X11856524Y-14864524D01*
X11856524Y-14864524D02*
X11837476Y-14864524D01*
X11837476Y-14864524D02*
X11818429Y-14855000D01*
X11818429Y-14855000D02*
X11808905Y-14845476D01*
X11808905Y-14845476D02*
X11799381Y-14826428D01*
X11799381Y-14826428D02*
X11789857Y-14788333D01*
X11789857Y-14788333D02*
X11789857Y-14740714D01*
X11789857Y-14740714D02*
X11799381Y-14702619D01*
X11799381Y-14702619D02*
X11808905Y-14683571D01*
X11808905Y-14683571D02*
X11818429Y-14674048D01*
X11818429Y-14674048D02*
X11837476Y-14664524D01*
X11989857Y-14845476D02*
X11999381Y-14855000D01*
X11999381Y-14855000D02*
X11989857Y-14864524D01*
X11989857Y-14864524D02*
X11980333Y-14855000D01*
X11980333Y-14855000D02*
X11989857Y-14845476D01*
X11989857Y-14845476D02*
X11989857Y-14864524D01*
X12123191Y-14664524D02*
X12142238Y-14664524D01*
X12142238Y-14664524D02*
X12161286Y-14674048D01*
X12161286Y-14674048D02*
X12170810Y-14683571D01*
X12170810Y-14683571D02*
X12180333Y-14702619D01*
X12180333Y-14702619D02*
X12189857Y-14740714D01*
X12189857Y-14740714D02*
X12189857Y-14788333D01*
X12189857Y-14788333D02*
X12180333Y-14826428D01*
X12180333Y-14826428D02*
X12170810Y-14845476D01*
X12170810Y-14845476D02*
X12161286Y-14855000D01*
X12161286Y-14855000D02*
X12142238Y-14864524D01*
X12142238Y-14864524D02*
X12123191Y-14864524D01*
X12123191Y-14864524D02*
X12104143Y-14855000D01*
X12104143Y-14855000D02*
X12094619Y-14845476D01*
X12094619Y-14845476D02*
X12085095Y-14826428D01*
X12085095Y-14826428D02*
X12075572Y-14788333D01*
X12075572Y-14788333D02*
X12075572Y-14740714D01*
X12075572Y-14740714D02*
X12085095Y-14702619D01*
X12085095Y-14702619D02*
X12094619Y-14683571D01*
X12094619Y-14683571D02*
X12104143Y-14674048D01*
X12104143Y-14674048D02*
X12123191Y-14664524D01*
X12256524Y-14664524D02*
X12380333Y-14664524D01*
X12380333Y-14664524D02*
X12313667Y-14740714D01*
X12313667Y-14740714D02*
X12342238Y-14740714D01*
X12342238Y-14740714D02*
X12361286Y-14750238D01*
X12361286Y-14750238D02*
X12370810Y-14759762D01*
X12370810Y-14759762D02*
X12380333Y-14778809D01*
X12380333Y-14778809D02*
X12380333Y-14826428D01*
X12380333Y-14826428D02*
X12370810Y-14845476D01*
X12370810Y-14845476D02*
X12361286Y-14855000D01*
X12361286Y-14855000D02*
X12342238Y-14864524D01*
X12342238Y-14864524D02*
X12285095Y-14864524D01*
X12285095Y-14864524D02*
X12266048Y-14855000D01*
X12266048Y-14855000D02*
X12256524Y-14845476D01*
X12475572Y-14864524D02*
X12513667Y-14864524D01*
X12513667Y-14864524D02*
X12532714Y-14855000D01*
X12532714Y-14855000D02*
X12542238Y-14845476D01*
X12542238Y-14845476D02*
X12561286Y-14816905D01*
X12561286Y-14816905D02*
X12570810Y-14778809D01*
X12570810Y-14778809D02*
X12570810Y-14702619D01*
X12570810Y-14702619D02*
X12561286Y-14683571D01*
X12561286Y-14683571D02*
X12551762Y-14674048D01*
X12551762Y-14674048D02*
X12532714Y-14664524D01*
X12532714Y-14664524D02*
X12494619Y-14664524D01*
X12494619Y-14664524D02*
X12475572Y-14674048D01*
X12475572Y-14674048D02*
X12466048Y-14683571D01*
X12466048Y-14683571D02*
X12456524Y-14702619D01*
X12456524Y-14702619D02*
X12456524Y-14750238D01*
X12456524Y-14750238D02*
X12466048Y-14769286D01*
X12466048Y-14769286D02*
X12475572Y-14778809D01*
X12475572Y-14778809D02*
X12494619Y-14788333D01*
X12494619Y-14788333D02*
X12532714Y-14788333D01*
X12532714Y-14788333D02*
X12551762Y-14778809D01*
X12551762Y-14778809D02*
X12561286Y-14769286D01*
X12561286Y-14769286D02*
X12570810Y-14750238D01*
X12742238Y-14731190D02*
X12742238Y-14864524D01*
X12694619Y-14655000D02*
X12647000Y-14797857D01*
X12647000Y-14797857D02*
X12770810Y-14797857D01*
X12837476Y-14664524D02*
X12837476Y-14702619D01*
X12913667Y-14664524D02*
X12913667Y-14702619D01*
X13208905Y-14940714D02*
X13199381Y-14931190D01*
X13199381Y-14931190D02*
X13180334Y-14902619D01*
X13180334Y-14902619D02*
X13170810Y-14883571D01*
X13170810Y-14883571D02*
X13161286Y-14855000D01*
X13161286Y-14855000D02*
X13151762Y-14807381D01*
X13151762Y-14807381D02*
X13151762Y-14769286D01*
X13151762Y-14769286D02*
X13161286Y-14721667D01*
X13161286Y-14721667D02*
X13170810Y-14693095D01*
X13170810Y-14693095D02*
X13180334Y-14674048D01*
X13180334Y-14674048D02*
X13199381Y-14645476D01*
X13199381Y-14645476D02*
X13208905Y-14635952D01*
X13275572Y-14683571D02*
X13285095Y-14674048D01*
X13285095Y-14674048D02*
X13304143Y-14664524D01*
X13304143Y-14664524D02*
X13351762Y-14664524D01*
X13351762Y-14664524D02*
X13370810Y-14674048D01*
X13370810Y-14674048D02*
X13380334Y-14683571D01*
X13380334Y-14683571D02*
X13389857Y-14702619D01*
X13389857Y-14702619D02*
X13389857Y-14721667D01*
X13389857Y-14721667D02*
X13380334Y-14750238D01*
X13380334Y-14750238D02*
X13266048Y-14864524D01*
X13266048Y-14864524D02*
X13389857Y-14864524D01*
X13570810Y-14664524D02*
X13475572Y-14664524D01*
X13475572Y-14664524D02*
X13466048Y-14759762D01*
X13466048Y-14759762D02*
X13475572Y-14750238D01*
X13475572Y-14750238D02*
X13494619Y-14740714D01*
X13494619Y-14740714D02*
X13542238Y-14740714D01*
X13542238Y-14740714D02*
X13561286Y-14750238D01*
X13561286Y-14750238D02*
X13570810Y-14759762D01*
X13570810Y-14759762D02*
X13580334Y-14778809D01*
X13580334Y-14778809D02*
X13580334Y-14826428D01*
X13580334Y-14826428D02*
X13570810Y-14845476D01*
X13570810Y-14845476D02*
X13561286Y-14855000D01*
X13561286Y-14855000D02*
X13542238Y-14864524D01*
X13542238Y-14864524D02*
X13494619Y-14864524D01*
X13494619Y-14864524D02*
X13475572Y-14855000D01*
X13475572Y-14855000D02*
X13466048Y-14845476D01*
X13818429Y-14864524D02*
X13818429Y-14664524D01*
X13904143Y-14864524D02*
X13904143Y-14759762D01*
X13904143Y-14759762D02*
X13894619Y-14740714D01*
X13894619Y-14740714D02*
X13875572Y-14731190D01*
X13875572Y-14731190D02*
X13847000Y-14731190D01*
X13847000Y-14731190D02*
X13827953Y-14740714D01*
X13827953Y-14740714D02*
X13818429Y-14750238D01*
X14027953Y-14864524D02*
X14008905Y-14855000D01*
X14008905Y-14855000D02*
X13999381Y-14845476D01*
X13999381Y-14845476D02*
X13989857Y-14826428D01*
X13989857Y-14826428D02*
X13989857Y-14769286D01*
X13989857Y-14769286D02*
X13999381Y-14750238D01*
X13999381Y-14750238D02*
X14008905Y-14740714D01*
X14008905Y-14740714D02*
X14027953Y-14731190D01*
X14027953Y-14731190D02*
X14056524Y-14731190D01*
X14056524Y-14731190D02*
X14075572Y-14740714D01*
X14075572Y-14740714D02*
X14085096Y-14750238D01*
X14085096Y-14750238D02*
X14094619Y-14769286D01*
X14094619Y-14769286D02*
X14094619Y-14826428D01*
X14094619Y-14826428D02*
X14085096Y-14845476D01*
X14085096Y-14845476D02*
X14075572Y-14855000D01*
X14075572Y-14855000D02*
X14056524Y-14864524D01*
X14056524Y-14864524D02*
X14027953Y-14864524D01*
X14208905Y-14864524D02*
X14189857Y-14855000D01*
X14189857Y-14855000D02*
X14180334Y-14835952D01*
X14180334Y-14835952D02*
X14180334Y-14664524D01*
X14361286Y-14855000D02*
X14342238Y-14864524D01*
X14342238Y-14864524D02*
X14304143Y-14864524D01*
X14304143Y-14864524D02*
X14285096Y-14855000D01*
X14285096Y-14855000D02*
X14275572Y-14835952D01*
X14275572Y-14835952D02*
X14275572Y-14759762D01*
X14275572Y-14759762D02*
X14285096Y-14740714D01*
X14285096Y-14740714D02*
X14304143Y-14731190D01*
X14304143Y-14731190D02*
X14342238Y-14731190D01*
X14342238Y-14731190D02*
X14361286Y-14740714D01*
X14361286Y-14740714D02*
X14370810Y-14759762D01*
X14370810Y-14759762D02*
X14370810Y-14778809D01*
X14370810Y-14778809D02*
X14275572Y-14797857D01*
X14447000Y-14855000D02*
X14466048Y-14864524D01*
X14466048Y-14864524D02*
X14504143Y-14864524D01*
X14504143Y-14864524D02*
X14523191Y-14855000D01*
X14523191Y-14855000D02*
X14532715Y-14835952D01*
X14532715Y-14835952D02*
X14532715Y-14826428D01*
X14532715Y-14826428D02*
X14523191Y-14807381D01*
X14523191Y-14807381D02*
X14504143Y-14797857D01*
X14504143Y-14797857D02*
X14475572Y-14797857D01*
X14475572Y-14797857D02*
X14456524Y-14788333D01*
X14456524Y-14788333D02*
X14447000Y-14769286D01*
X14447000Y-14769286D02*
X14447000Y-14759762D01*
X14447000Y-14759762D02*
X14456524Y-14740714D01*
X14456524Y-14740714D02*
X14475572Y-14731190D01*
X14475572Y-14731190D02*
X14504143Y-14731190D01*
X14504143Y-14731190D02*
X14523191Y-14740714D01*
X14599381Y-14940714D02*
X14608905Y-14931190D01*
X14608905Y-14931190D02*
X14627953Y-14902619D01*
X14627953Y-14902619D02*
X14637477Y-14883571D01*
X14637477Y-14883571D02*
X14647000Y-14855000D01*
X14647000Y-14855000D02*
X14656524Y-14807381D01*
X14656524Y-14807381D02*
X14656524Y-14769286D01*
X14656524Y-14769286D02*
X14647000Y-14721667D01*
X14647000Y-14721667D02*
X14637477Y-14693095D01*
X14637477Y-14693095D02*
X14627953Y-14674048D01*
X14627953Y-14674048D02*
X14608905Y-14645476D01*
X14608905Y-14645476D02*
X14599381Y-14635952D01*
D15*
X9596200Y-15086800D02*
X9647000Y-15036000D01*
X9596200Y-14985200D01*
X9545400Y-15036000D01*
X9596200Y-15086800D01*
D11*
X9999381Y-15128524D02*
X9885095Y-15128524D01*
X9942238Y-15128524D02*
X9942238Y-14928524D01*
X9942238Y-14928524D02*
X9923190Y-14957095D01*
X9923190Y-14957095D02*
X9904143Y-14976143D01*
X9904143Y-14976143D02*
X9885095Y-14985667D01*
X10085095Y-15109476D02*
X10094619Y-15119000D01*
X10094619Y-15119000D02*
X10085095Y-15128524D01*
X10085095Y-15128524D02*
X10075571Y-15119000D01*
X10075571Y-15119000D02*
X10085095Y-15109476D01*
X10085095Y-15109476D02*
X10085095Y-15128524D01*
X10218429Y-14928524D02*
X10237476Y-14928524D01*
X10237476Y-14928524D02*
X10256524Y-14938048D01*
X10256524Y-14938048D02*
X10266048Y-14947571D01*
X10266048Y-14947571D02*
X10275571Y-14966619D01*
X10275571Y-14966619D02*
X10285095Y-15004714D01*
X10285095Y-15004714D02*
X10285095Y-15052333D01*
X10285095Y-15052333D02*
X10275571Y-15090428D01*
X10275571Y-15090428D02*
X10266048Y-15109476D01*
X10266048Y-15109476D02*
X10256524Y-15119000D01*
X10256524Y-15119000D02*
X10237476Y-15128524D01*
X10237476Y-15128524D02*
X10218429Y-15128524D01*
X10218429Y-15128524D02*
X10199381Y-15119000D01*
X10199381Y-15119000D02*
X10189857Y-15109476D01*
X10189857Y-15109476D02*
X10180333Y-15090428D01*
X10180333Y-15090428D02*
X10170810Y-15052333D01*
X10170810Y-15052333D02*
X10170810Y-15004714D01*
X10170810Y-15004714D02*
X10180333Y-14966619D01*
X10180333Y-14966619D02*
X10189857Y-14947571D01*
X10189857Y-14947571D02*
X10199381Y-14938048D01*
X10199381Y-14938048D02*
X10218429Y-14928524D01*
X10475571Y-15128524D02*
X10361286Y-15128524D01*
X10418429Y-15128524D02*
X10418429Y-14928524D01*
X10418429Y-14928524D02*
X10399381Y-14957095D01*
X10399381Y-14957095D02*
X10380333Y-14976143D01*
X10380333Y-14976143D02*
X10361286Y-14985667D01*
X10647000Y-14928524D02*
X10608905Y-14928524D01*
X10608905Y-14928524D02*
X10589857Y-14938048D01*
X10589857Y-14938048D02*
X10580333Y-14947571D01*
X10580333Y-14947571D02*
X10561286Y-14976143D01*
X10561286Y-14976143D02*
X10551762Y-15014238D01*
X10551762Y-15014238D02*
X10551762Y-15090428D01*
X10551762Y-15090428D02*
X10561286Y-15109476D01*
X10561286Y-15109476D02*
X10570810Y-15119000D01*
X10570810Y-15119000D02*
X10589857Y-15128524D01*
X10589857Y-15128524D02*
X10627952Y-15128524D01*
X10627952Y-15128524D02*
X10647000Y-15119000D01*
X10647000Y-15119000D02*
X10656524Y-15109476D01*
X10656524Y-15109476D02*
X10666048Y-15090428D01*
X10666048Y-15090428D02*
X10666048Y-15042809D01*
X10666048Y-15042809D02*
X10656524Y-15023762D01*
X10656524Y-15023762D02*
X10647000Y-15014238D01*
X10647000Y-15014238D02*
X10627952Y-15004714D01*
X10627952Y-15004714D02*
X10589857Y-15004714D01*
X10589857Y-15004714D02*
X10570810Y-15014238D01*
X10570810Y-15014238D02*
X10561286Y-15023762D01*
X10561286Y-15023762D02*
X10551762Y-15042809D01*
X10751762Y-15128524D02*
X10751762Y-14995190D01*
X10751762Y-15014238D02*
X10761286Y-15004714D01*
X10761286Y-15004714D02*
X10780333Y-14995190D01*
X10780333Y-14995190D02*
X10808905Y-14995190D01*
X10808905Y-14995190D02*
X10827952Y-15004714D01*
X10827952Y-15004714D02*
X10837476Y-15023762D01*
X10837476Y-15023762D02*
X10837476Y-15128524D01*
X10837476Y-15023762D02*
X10847000Y-15004714D01*
X10847000Y-15004714D02*
X10866048Y-14995190D01*
X10866048Y-14995190D02*
X10894619Y-14995190D01*
X10894619Y-14995190D02*
X10913667Y-15004714D01*
X10913667Y-15004714D02*
X10923191Y-15023762D01*
X10923191Y-15023762D02*
X10923191Y-15128524D01*
X11018429Y-15128524D02*
X11018429Y-14995190D01*
X11018429Y-15014238D02*
X11027952Y-15004714D01*
X11027952Y-15004714D02*
X11047000Y-14995190D01*
X11047000Y-14995190D02*
X11075572Y-14995190D01*
X11075572Y-14995190D02*
X11094619Y-15004714D01*
X11094619Y-15004714D02*
X11104143Y-15023762D01*
X11104143Y-15023762D02*
X11104143Y-15128524D01*
X11104143Y-15023762D02*
X11113667Y-15004714D01*
X11113667Y-15004714D02*
X11132714Y-14995190D01*
X11132714Y-14995190D02*
X11161286Y-14995190D01*
X11161286Y-14995190D02*
X11180333Y-15004714D01*
X11180333Y-15004714D02*
X11189857Y-15023762D01*
X11189857Y-15023762D02*
X11189857Y-15128524D01*
X11580333Y-14919000D02*
X11408905Y-15176143D01*
X11837476Y-14928524D02*
X11856524Y-14928524D01*
X11856524Y-14928524D02*
X11875572Y-14938048D01*
X11875572Y-14938048D02*
X11885095Y-14947571D01*
X11885095Y-14947571D02*
X11894619Y-14966619D01*
X11894619Y-14966619D02*
X11904143Y-15004714D01*
X11904143Y-15004714D02*
X11904143Y-15052333D01*
X11904143Y-15052333D02*
X11894619Y-15090428D01*
X11894619Y-15090428D02*
X11885095Y-15109476D01*
X11885095Y-15109476D02*
X11875572Y-15119000D01*
X11875572Y-15119000D02*
X11856524Y-15128524D01*
X11856524Y-15128524D02*
X11837476Y-15128524D01*
X11837476Y-15128524D02*
X11818429Y-15119000D01*
X11818429Y-15119000D02*
X11808905Y-15109476D01*
X11808905Y-15109476D02*
X11799381Y-15090428D01*
X11799381Y-15090428D02*
X11789857Y-15052333D01*
X11789857Y-15052333D02*
X11789857Y-15004714D01*
X11789857Y-15004714D02*
X11799381Y-14966619D01*
X11799381Y-14966619D02*
X11808905Y-14947571D01*
X11808905Y-14947571D02*
X11818429Y-14938048D01*
X11818429Y-14938048D02*
X11837476Y-14928524D01*
X11989857Y-15109476D02*
X11999381Y-15119000D01*
X11999381Y-15119000D02*
X11989857Y-15128524D01*
X11989857Y-15128524D02*
X11980333Y-15119000D01*
X11980333Y-15119000D02*
X11989857Y-15109476D01*
X11989857Y-15109476D02*
X11989857Y-15128524D01*
X12123191Y-14928524D02*
X12142238Y-14928524D01*
X12142238Y-14928524D02*
X12161286Y-14938048D01*
X12161286Y-14938048D02*
X12170810Y-14947571D01*
X12170810Y-14947571D02*
X12180333Y-14966619D01*
X12180333Y-14966619D02*
X12189857Y-15004714D01*
X12189857Y-15004714D02*
X12189857Y-15052333D01*
X12189857Y-15052333D02*
X12180333Y-15090428D01*
X12180333Y-15090428D02*
X12170810Y-15109476D01*
X12170810Y-15109476D02*
X12161286Y-15119000D01*
X12161286Y-15119000D02*
X12142238Y-15128524D01*
X12142238Y-15128524D02*
X12123191Y-15128524D01*
X12123191Y-15128524D02*
X12104143Y-15119000D01*
X12104143Y-15119000D02*
X12094619Y-15109476D01*
X12094619Y-15109476D02*
X12085095Y-15090428D01*
X12085095Y-15090428D02*
X12075572Y-15052333D01*
X12075572Y-15052333D02*
X12075572Y-15004714D01*
X12075572Y-15004714D02*
X12085095Y-14966619D01*
X12085095Y-14966619D02*
X12094619Y-14947571D01*
X12094619Y-14947571D02*
X12104143Y-14938048D01*
X12104143Y-14938048D02*
X12123191Y-14928524D01*
X12361286Y-14995190D02*
X12361286Y-15128524D01*
X12313667Y-14919000D02*
X12266048Y-15061857D01*
X12266048Y-15061857D02*
X12389857Y-15061857D01*
X12504143Y-14928524D02*
X12523191Y-14928524D01*
X12523191Y-14928524D02*
X12542238Y-14938048D01*
X12542238Y-14938048D02*
X12551762Y-14947571D01*
X12551762Y-14947571D02*
X12561286Y-14966619D01*
X12561286Y-14966619D02*
X12570810Y-15004714D01*
X12570810Y-15004714D02*
X12570810Y-15052333D01*
X12570810Y-15052333D02*
X12561286Y-15090428D01*
X12561286Y-15090428D02*
X12551762Y-15109476D01*
X12551762Y-15109476D02*
X12542238Y-15119000D01*
X12542238Y-15119000D02*
X12523191Y-15128524D01*
X12523191Y-15128524D02*
X12504143Y-15128524D01*
X12504143Y-15128524D02*
X12485095Y-15119000D01*
X12485095Y-15119000D02*
X12475572Y-15109476D01*
X12475572Y-15109476D02*
X12466048Y-15090428D01*
X12466048Y-15090428D02*
X12456524Y-15052333D01*
X12456524Y-15052333D02*
X12456524Y-15004714D01*
X12456524Y-15004714D02*
X12466048Y-14966619D01*
X12466048Y-14966619D02*
X12475572Y-14947571D01*
X12475572Y-14947571D02*
X12485095Y-14938048D01*
X12485095Y-14938048D02*
X12504143Y-14928524D01*
X12694619Y-14928524D02*
X12713667Y-14928524D01*
X12713667Y-14928524D02*
X12732714Y-14938048D01*
X12732714Y-14938048D02*
X12742238Y-14947571D01*
X12742238Y-14947571D02*
X12751762Y-14966619D01*
X12751762Y-14966619D02*
X12761286Y-15004714D01*
X12761286Y-15004714D02*
X12761286Y-15052333D01*
X12761286Y-15052333D02*
X12751762Y-15090428D01*
X12751762Y-15090428D02*
X12742238Y-15109476D01*
X12742238Y-15109476D02*
X12732714Y-15119000D01*
X12732714Y-15119000D02*
X12713667Y-15128524D01*
X12713667Y-15128524D02*
X12694619Y-15128524D01*
X12694619Y-15128524D02*
X12675572Y-15119000D01*
X12675572Y-15119000D02*
X12666048Y-15109476D01*
X12666048Y-15109476D02*
X12656524Y-15090428D01*
X12656524Y-15090428D02*
X12647000Y-15052333D01*
X12647000Y-15052333D02*
X12647000Y-15004714D01*
X12647000Y-15004714D02*
X12656524Y-14966619D01*
X12656524Y-14966619D02*
X12666048Y-14947571D01*
X12666048Y-14947571D02*
X12675572Y-14938048D01*
X12675572Y-14938048D02*
X12694619Y-14928524D01*
X12837476Y-14928524D02*
X12837476Y-14966619D01*
X12913667Y-14928524D02*
X12913667Y-14966619D01*
X13208905Y-15204714D02*
X13199381Y-15195190D01*
X13199381Y-15195190D02*
X13180334Y-15166619D01*
X13180334Y-15166619D02*
X13170810Y-15147571D01*
X13170810Y-15147571D02*
X13161286Y-15119000D01*
X13161286Y-15119000D02*
X13151762Y-15071381D01*
X13151762Y-15071381D02*
X13151762Y-15033286D01*
X13151762Y-15033286D02*
X13161286Y-14985667D01*
X13161286Y-14985667D02*
X13170810Y-14957095D01*
X13170810Y-14957095D02*
X13180334Y-14938048D01*
X13180334Y-14938048D02*
X13199381Y-14909476D01*
X13199381Y-14909476D02*
X13208905Y-14899952D01*
X13266048Y-14928524D02*
X13389857Y-14928524D01*
X13389857Y-14928524D02*
X13323191Y-15004714D01*
X13323191Y-15004714D02*
X13351762Y-15004714D01*
X13351762Y-15004714D02*
X13370810Y-15014238D01*
X13370810Y-15014238D02*
X13380334Y-15023762D01*
X13380334Y-15023762D02*
X13389857Y-15042809D01*
X13389857Y-15042809D02*
X13389857Y-15090428D01*
X13389857Y-15090428D02*
X13380334Y-15109476D01*
X13380334Y-15109476D02*
X13370810Y-15119000D01*
X13370810Y-15119000D02*
X13351762Y-15128524D01*
X13351762Y-15128524D02*
X13294619Y-15128524D01*
X13294619Y-15128524D02*
X13275572Y-15119000D01*
X13275572Y-15119000D02*
X13266048Y-15109476D01*
X13504143Y-15014238D02*
X13485095Y-15004714D01*
X13485095Y-15004714D02*
X13475572Y-14995190D01*
X13475572Y-14995190D02*
X13466048Y-14976143D01*
X13466048Y-14976143D02*
X13466048Y-14966619D01*
X13466048Y-14966619D02*
X13475572Y-14947571D01*
X13475572Y-14947571D02*
X13485095Y-14938048D01*
X13485095Y-14938048D02*
X13504143Y-14928524D01*
X13504143Y-14928524D02*
X13542238Y-14928524D01*
X13542238Y-14928524D02*
X13561286Y-14938048D01*
X13561286Y-14938048D02*
X13570810Y-14947571D01*
X13570810Y-14947571D02*
X13580334Y-14966619D01*
X13580334Y-14966619D02*
X13580334Y-14976143D01*
X13580334Y-14976143D02*
X13570810Y-14995190D01*
X13570810Y-14995190D02*
X13561286Y-15004714D01*
X13561286Y-15004714D02*
X13542238Y-15014238D01*
X13542238Y-15014238D02*
X13504143Y-15014238D01*
X13504143Y-15014238D02*
X13485095Y-15023762D01*
X13485095Y-15023762D02*
X13475572Y-15033286D01*
X13475572Y-15033286D02*
X13466048Y-15052333D01*
X13466048Y-15052333D02*
X13466048Y-15090428D01*
X13466048Y-15090428D02*
X13475572Y-15109476D01*
X13475572Y-15109476D02*
X13485095Y-15119000D01*
X13485095Y-15119000D02*
X13504143Y-15128524D01*
X13504143Y-15128524D02*
X13542238Y-15128524D01*
X13542238Y-15128524D02*
X13561286Y-15119000D01*
X13561286Y-15119000D02*
X13570810Y-15109476D01*
X13570810Y-15109476D02*
X13580334Y-15090428D01*
X13580334Y-15090428D02*
X13580334Y-15052333D01*
X13580334Y-15052333D02*
X13570810Y-15033286D01*
X13570810Y-15033286D02*
X13561286Y-15023762D01*
X13561286Y-15023762D02*
X13542238Y-15014238D01*
X13818429Y-15128524D02*
X13818429Y-14928524D01*
X13904143Y-15128524D02*
X13904143Y-15023762D01*
X13904143Y-15023762D02*
X13894619Y-15004714D01*
X13894619Y-15004714D02*
X13875572Y-14995190D01*
X13875572Y-14995190D02*
X13847000Y-14995190D01*
X13847000Y-14995190D02*
X13827953Y-15004714D01*
X13827953Y-15004714D02*
X13818429Y-15014238D01*
X14027953Y-15128524D02*
X14008905Y-15119000D01*
X14008905Y-15119000D02*
X13999381Y-15109476D01*
X13999381Y-15109476D02*
X13989857Y-15090428D01*
X13989857Y-15090428D02*
X13989857Y-15033286D01*
X13989857Y-15033286D02*
X13999381Y-15014238D01*
X13999381Y-15014238D02*
X14008905Y-15004714D01*
X14008905Y-15004714D02*
X14027953Y-14995190D01*
X14027953Y-14995190D02*
X14056524Y-14995190D01*
X14056524Y-14995190D02*
X14075572Y-15004714D01*
X14075572Y-15004714D02*
X14085096Y-15014238D01*
X14085096Y-15014238D02*
X14094619Y-15033286D01*
X14094619Y-15033286D02*
X14094619Y-15090428D01*
X14094619Y-15090428D02*
X14085096Y-15109476D01*
X14085096Y-15109476D02*
X14075572Y-15119000D01*
X14075572Y-15119000D02*
X14056524Y-15128524D01*
X14056524Y-15128524D02*
X14027953Y-15128524D01*
X14208905Y-15128524D02*
X14189857Y-15119000D01*
X14189857Y-15119000D02*
X14180334Y-15099952D01*
X14180334Y-15099952D02*
X14180334Y-14928524D01*
X14361286Y-15119000D02*
X14342238Y-15128524D01*
X14342238Y-15128524D02*
X14304143Y-15128524D01*
X14304143Y-15128524D02*
X14285096Y-15119000D01*
X14285096Y-15119000D02*
X14275572Y-15099952D01*
X14275572Y-15099952D02*
X14275572Y-15023762D01*
X14275572Y-15023762D02*
X14285096Y-15004714D01*
X14285096Y-15004714D02*
X14304143Y-14995190D01*
X14304143Y-14995190D02*
X14342238Y-14995190D01*
X14342238Y-14995190D02*
X14361286Y-15004714D01*
X14361286Y-15004714D02*
X14370810Y-15023762D01*
X14370810Y-15023762D02*
X14370810Y-15042809D01*
X14370810Y-15042809D02*
X14275572Y-15061857D01*
X14447000Y-15119000D02*
X14466048Y-15128524D01*
X14466048Y-15128524D02*
X14504143Y-15128524D01*
X14504143Y-15128524D02*
X14523191Y-15119000D01*
X14523191Y-15119000D02*
X14532715Y-15099952D01*
X14532715Y-15099952D02*
X14532715Y-15090428D01*
X14532715Y-15090428D02*
X14523191Y-15071381D01*
X14523191Y-15071381D02*
X14504143Y-15061857D01*
X14504143Y-15061857D02*
X14475572Y-15061857D01*
X14475572Y-15061857D02*
X14456524Y-15052333D01*
X14456524Y-15052333D02*
X14447000Y-15033286D01*
X14447000Y-15033286D02*
X14447000Y-15023762D01*
X14447000Y-15023762D02*
X14456524Y-15004714D01*
X14456524Y-15004714D02*
X14475572Y-14995190D01*
X14475572Y-14995190D02*
X14504143Y-14995190D01*
X14504143Y-14995190D02*
X14523191Y-15004714D01*
X14599381Y-15204714D02*
X14608905Y-15195190D01*
X14608905Y-15195190D02*
X14627953Y-15166619D01*
X14627953Y-15166619D02*
X14637477Y-15147571D01*
X14637477Y-15147571D02*
X14647000Y-15119000D01*
X14647000Y-15119000D02*
X14656524Y-15071381D01*
X14656524Y-15071381D02*
X14656524Y-15033286D01*
X14656524Y-15033286D02*
X14647000Y-14985667D01*
X14647000Y-14985667D02*
X14637477Y-14957095D01*
X14637477Y-14957095D02*
X14627953Y-14938048D01*
X14627953Y-14938048D02*
X14608905Y-14909476D01*
X14608905Y-14909476D02*
X14599381Y-14899952D01*
D16*
X9537000Y-15245000D02*
X9647000Y-15355000D01*
X9647000Y-15245000D02*
X9537000Y-15355000D01*
X9647000Y-15300000D02*
G75*
G03*
X9647000Y-15300000I-55000J0D01*
G01*
D11*
X9999381Y-15392524D02*
X9885095Y-15392524D01*
X9942238Y-15392524D02*
X9942238Y-15192524D01*
X9942238Y-15192524D02*
X9923190Y-15221095D01*
X9923190Y-15221095D02*
X9904143Y-15240143D01*
X9904143Y-15240143D02*
X9885095Y-15249667D01*
X10085095Y-15373476D02*
X10094619Y-15383000D01*
X10094619Y-15383000D02*
X10085095Y-15392524D01*
X10085095Y-15392524D02*
X10075571Y-15383000D01*
X10075571Y-15383000D02*
X10085095Y-15373476D01*
X10085095Y-15373476D02*
X10085095Y-15392524D01*
X10285095Y-15392524D02*
X10170810Y-15392524D01*
X10227952Y-15392524D02*
X10227952Y-15192524D01*
X10227952Y-15192524D02*
X10208905Y-15221095D01*
X10208905Y-15221095D02*
X10189857Y-15240143D01*
X10189857Y-15240143D02*
X10170810Y-15249667D01*
X10408905Y-15192524D02*
X10427952Y-15192524D01*
X10427952Y-15192524D02*
X10447000Y-15202048D01*
X10447000Y-15202048D02*
X10456524Y-15211571D01*
X10456524Y-15211571D02*
X10466048Y-15230619D01*
X10466048Y-15230619D02*
X10475571Y-15268714D01*
X10475571Y-15268714D02*
X10475571Y-15316333D01*
X10475571Y-15316333D02*
X10466048Y-15354428D01*
X10466048Y-15354428D02*
X10456524Y-15373476D01*
X10456524Y-15373476D02*
X10447000Y-15383000D01*
X10447000Y-15383000D02*
X10427952Y-15392524D01*
X10427952Y-15392524D02*
X10408905Y-15392524D01*
X10408905Y-15392524D02*
X10389857Y-15383000D01*
X10389857Y-15383000D02*
X10380333Y-15373476D01*
X10380333Y-15373476D02*
X10370810Y-15354428D01*
X10370810Y-15354428D02*
X10361286Y-15316333D01*
X10361286Y-15316333D02*
X10361286Y-15268714D01*
X10361286Y-15268714D02*
X10370810Y-15230619D01*
X10370810Y-15230619D02*
X10380333Y-15211571D01*
X10380333Y-15211571D02*
X10389857Y-15202048D01*
X10389857Y-15202048D02*
X10408905Y-15192524D01*
X10599381Y-15192524D02*
X10618429Y-15192524D01*
X10618429Y-15192524D02*
X10637476Y-15202048D01*
X10637476Y-15202048D02*
X10647000Y-15211571D01*
X10647000Y-15211571D02*
X10656524Y-15230619D01*
X10656524Y-15230619D02*
X10666048Y-15268714D01*
X10666048Y-15268714D02*
X10666048Y-15316333D01*
X10666048Y-15316333D02*
X10656524Y-15354428D01*
X10656524Y-15354428D02*
X10647000Y-15373476D01*
X10647000Y-15373476D02*
X10637476Y-15383000D01*
X10637476Y-15383000D02*
X10618429Y-15392524D01*
X10618429Y-15392524D02*
X10599381Y-15392524D01*
X10599381Y-15392524D02*
X10580333Y-15383000D01*
X10580333Y-15383000D02*
X10570810Y-15373476D01*
X10570810Y-15373476D02*
X10561286Y-15354428D01*
X10561286Y-15354428D02*
X10551762Y-15316333D01*
X10551762Y-15316333D02*
X10551762Y-15268714D01*
X10551762Y-15268714D02*
X10561286Y-15230619D01*
X10561286Y-15230619D02*
X10570810Y-15211571D01*
X10570810Y-15211571D02*
X10580333Y-15202048D01*
X10580333Y-15202048D02*
X10599381Y-15192524D01*
X10751762Y-15392524D02*
X10751762Y-15259190D01*
X10751762Y-15278238D02*
X10761286Y-15268714D01*
X10761286Y-15268714D02*
X10780333Y-15259190D01*
X10780333Y-15259190D02*
X10808905Y-15259190D01*
X10808905Y-15259190D02*
X10827952Y-15268714D01*
X10827952Y-15268714D02*
X10837476Y-15287762D01*
X10837476Y-15287762D02*
X10837476Y-15392524D01*
X10837476Y-15287762D02*
X10847000Y-15268714D01*
X10847000Y-15268714D02*
X10866048Y-15259190D01*
X10866048Y-15259190D02*
X10894619Y-15259190D01*
X10894619Y-15259190D02*
X10913667Y-15268714D01*
X10913667Y-15268714D02*
X10923191Y-15287762D01*
X10923191Y-15287762D02*
X10923191Y-15392524D01*
X11018429Y-15392524D02*
X11018429Y-15259190D01*
X11018429Y-15278238D02*
X11027952Y-15268714D01*
X11027952Y-15268714D02*
X11047000Y-15259190D01*
X11047000Y-15259190D02*
X11075572Y-15259190D01*
X11075572Y-15259190D02*
X11094619Y-15268714D01*
X11094619Y-15268714D02*
X11104143Y-15287762D01*
X11104143Y-15287762D02*
X11104143Y-15392524D01*
X11104143Y-15287762D02*
X11113667Y-15268714D01*
X11113667Y-15268714D02*
X11132714Y-15259190D01*
X11132714Y-15259190D02*
X11161286Y-15259190D01*
X11161286Y-15259190D02*
X11180333Y-15268714D01*
X11180333Y-15268714D02*
X11189857Y-15287762D01*
X11189857Y-15287762D02*
X11189857Y-15392524D01*
X11580333Y-15183000D02*
X11408905Y-15440143D01*
X11837476Y-15192524D02*
X11856524Y-15192524D01*
X11856524Y-15192524D02*
X11875572Y-15202048D01*
X11875572Y-15202048D02*
X11885095Y-15211571D01*
X11885095Y-15211571D02*
X11894619Y-15230619D01*
X11894619Y-15230619D02*
X11904143Y-15268714D01*
X11904143Y-15268714D02*
X11904143Y-15316333D01*
X11904143Y-15316333D02*
X11894619Y-15354428D01*
X11894619Y-15354428D02*
X11885095Y-15373476D01*
X11885095Y-15373476D02*
X11875572Y-15383000D01*
X11875572Y-15383000D02*
X11856524Y-15392524D01*
X11856524Y-15392524D02*
X11837476Y-15392524D01*
X11837476Y-15392524D02*
X11818429Y-15383000D01*
X11818429Y-15383000D02*
X11808905Y-15373476D01*
X11808905Y-15373476D02*
X11799381Y-15354428D01*
X11799381Y-15354428D02*
X11789857Y-15316333D01*
X11789857Y-15316333D02*
X11789857Y-15268714D01*
X11789857Y-15268714D02*
X11799381Y-15230619D01*
X11799381Y-15230619D02*
X11808905Y-15211571D01*
X11808905Y-15211571D02*
X11818429Y-15202048D01*
X11818429Y-15202048D02*
X11837476Y-15192524D01*
X11989857Y-15373476D02*
X11999381Y-15383000D01*
X11999381Y-15383000D02*
X11989857Y-15392524D01*
X11989857Y-15392524D02*
X11980333Y-15383000D01*
X11980333Y-15383000D02*
X11989857Y-15373476D01*
X11989857Y-15373476D02*
X11989857Y-15392524D01*
X12123191Y-15192524D02*
X12142238Y-15192524D01*
X12142238Y-15192524D02*
X12161286Y-15202048D01*
X12161286Y-15202048D02*
X12170810Y-15211571D01*
X12170810Y-15211571D02*
X12180333Y-15230619D01*
X12180333Y-15230619D02*
X12189857Y-15268714D01*
X12189857Y-15268714D02*
X12189857Y-15316333D01*
X12189857Y-15316333D02*
X12180333Y-15354428D01*
X12180333Y-15354428D02*
X12170810Y-15373476D01*
X12170810Y-15373476D02*
X12161286Y-15383000D01*
X12161286Y-15383000D02*
X12142238Y-15392524D01*
X12142238Y-15392524D02*
X12123191Y-15392524D01*
X12123191Y-15392524D02*
X12104143Y-15383000D01*
X12104143Y-15383000D02*
X12094619Y-15373476D01*
X12094619Y-15373476D02*
X12085095Y-15354428D01*
X12085095Y-15354428D02*
X12075572Y-15316333D01*
X12075572Y-15316333D02*
X12075572Y-15268714D01*
X12075572Y-15268714D02*
X12085095Y-15230619D01*
X12085095Y-15230619D02*
X12094619Y-15211571D01*
X12094619Y-15211571D02*
X12104143Y-15202048D01*
X12104143Y-15202048D02*
X12123191Y-15192524D01*
X12361286Y-15259190D02*
X12361286Y-15392524D01*
X12313667Y-15183000D02*
X12266048Y-15325857D01*
X12266048Y-15325857D02*
X12389857Y-15325857D01*
X12447000Y-15192524D02*
X12570810Y-15192524D01*
X12570810Y-15192524D02*
X12504143Y-15268714D01*
X12504143Y-15268714D02*
X12532714Y-15268714D01*
X12532714Y-15268714D02*
X12551762Y-15278238D01*
X12551762Y-15278238D02*
X12561286Y-15287762D01*
X12561286Y-15287762D02*
X12570810Y-15306809D01*
X12570810Y-15306809D02*
X12570810Y-15354428D01*
X12570810Y-15354428D02*
X12561286Y-15373476D01*
X12561286Y-15373476D02*
X12551762Y-15383000D01*
X12551762Y-15383000D02*
X12532714Y-15392524D01*
X12532714Y-15392524D02*
X12475572Y-15392524D01*
X12475572Y-15392524D02*
X12456524Y-15383000D01*
X12456524Y-15383000D02*
X12447000Y-15373476D01*
X12637476Y-15192524D02*
X12761286Y-15192524D01*
X12761286Y-15192524D02*
X12694619Y-15268714D01*
X12694619Y-15268714D02*
X12723191Y-15268714D01*
X12723191Y-15268714D02*
X12742238Y-15278238D01*
X12742238Y-15278238D02*
X12751762Y-15287762D01*
X12751762Y-15287762D02*
X12761286Y-15306809D01*
X12761286Y-15306809D02*
X12761286Y-15354428D01*
X12761286Y-15354428D02*
X12751762Y-15373476D01*
X12751762Y-15373476D02*
X12742238Y-15383000D01*
X12742238Y-15383000D02*
X12723191Y-15392524D01*
X12723191Y-15392524D02*
X12666048Y-15392524D01*
X12666048Y-15392524D02*
X12647000Y-15383000D01*
X12647000Y-15383000D02*
X12637476Y-15373476D01*
X12837476Y-15192524D02*
X12837476Y-15230619D01*
X12913667Y-15192524D02*
X12913667Y-15230619D01*
X13208905Y-15468714D02*
X13199381Y-15459190D01*
X13199381Y-15459190D02*
X13180334Y-15430619D01*
X13180334Y-15430619D02*
X13170810Y-15411571D01*
X13170810Y-15411571D02*
X13161286Y-15383000D01*
X13161286Y-15383000D02*
X13151762Y-15335381D01*
X13151762Y-15335381D02*
X13151762Y-15297286D01*
X13151762Y-15297286D02*
X13161286Y-15249667D01*
X13161286Y-15249667D02*
X13170810Y-15221095D01*
X13170810Y-15221095D02*
X13180334Y-15202048D01*
X13180334Y-15202048D02*
X13199381Y-15173476D01*
X13199381Y-15173476D02*
X13208905Y-15163952D01*
X13389857Y-15392524D02*
X13275572Y-15392524D01*
X13332714Y-15392524D02*
X13332714Y-15192524D01*
X13332714Y-15192524D02*
X13313667Y-15221095D01*
X13313667Y-15221095D02*
X13294619Y-15240143D01*
X13294619Y-15240143D02*
X13275572Y-15249667D01*
X13513667Y-15192524D02*
X13532715Y-15192524D01*
X13532715Y-15192524D02*
X13551762Y-15202048D01*
X13551762Y-15202048D02*
X13561286Y-15211571D01*
X13561286Y-15211571D02*
X13570810Y-15230619D01*
X13570810Y-15230619D02*
X13580334Y-15268714D01*
X13580334Y-15268714D02*
X13580334Y-15316333D01*
X13580334Y-15316333D02*
X13570810Y-15354428D01*
X13570810Y-15354428D02*
X13561286Y-15373476D01*
X13561286Y-15373476D02*
X13551762Y-15383000D01*
X13551762Y-15383000D02*
X13532715Y-15392524D01*
X13532715Y-15392524D02*
X13513667Y-15392524D01*
X13513667Y-15392524D02*
X13494619Y-15383000D01*
X13494619Y-15383000D02*
X13485095Y-15373476D01*
X13485095Y-15373476D02*
X13475572Y-15354428D01*
X13475572Y-15354428D02*
X13466048Y-15316333D01*
X13466048Y-15316333D02*
X13466048Y-15268714D01*
X13466048Y-15268714D02*
X13475572Y-15230619D01*
X13475572Y-15230619D02*
X13485095Y-15211571D01*
X13485095Y-15211571D02*
X13494619Y-15202048D01*
X13494619Y-15202048D02*
X13513667Y-15192524D01*
X13694619Y-15278238D02*
X13675572Y-15268714D01*
X13675572Y-15268714D02*
X13666048Y-15259190D01*
X13666048Y-15259190D02*
X13656524Y-15240143D01*
X13656524Y-15240143D02*
X13656524Y-15230619D01*
X13656524Y-15230619D02*
X13666048Y-15211571D01*
X13666048Y-15211571D02*
X13675572Y-15202048D01*
X13675572Y-15202048D02*
X13694619Y-15192524D01*
X13694619Y-15192524D02*
X13732715Y-15192524D01*
X13732715Y-15192524D02*
X13751762Y-15202048D01*
X13751762Y-15202048D02*
X13761286Y-15211571D01*
X13761286Y-15211571D02*
X13770810Y-15230619D01*
X13770810Y-15230619D02*
X13770810Y-15240143D01*
X13770810Y-15240143D02*
X13761286Y-15259190D01*
X13761286Y-15259190D02*
X13751762Y-15268714D01*
X13751762Y-15268714D02*
X13732715Y-15278238D01*
X13732715Y-15278238D02*
X13694619Y-15278238D01*
X13694619Y-15278238D02*
X13675572Y-15287762D01*
X13675572Y-15287762D02*
X13666048Y-15297286D01*
X13666048Y-15297286D02*
X13656524Y-15316333D01*
X13656524Y-15316333D02*
X13656524Y-15354428D01*
X13656524Y-15354428D02*
X13666048Y-15373476D01*
X13666048Y-15373476D02*
X13675572Y-15383000D01*
X13675572Y-15383000D02*
X13694619Y-15392524D01*
X13694619Y-15392524D02*
X13732715Y-15392524D01*
X13732715Y-15392524D02*
X13751762Y-15383000D01*
X13751762Y-15383000D02*
X13761286Y-15373476D01*
X13761286Y-15373476D02*
X13770810Y-15354428D01*
X13770810Y-15354428D02*
X13770810Y-15316333D01*
X13770810Y-15316333D02*
X13761286Y-15297286D01*
X13761286Y-15297286D02*
X13751762Y-15287762D01*
X13751762Y-15287762D02*
X13732715Y-15278238D01*
X14008905Y-15392524D02*
X14008905Y-15192524D01*
X14094619Y-15392524D02*
X14094619Y-15287762D01*
X14094619Y-15287762D02*
X14085096Y-15268714D01*
X14085096Y-15268714D02*
X14066048Y-15259190D01*
X14066048Y-15259190D02*
X14037476Y-15259190D01*
X14037476Y-15259190D02*
X14018429Y-15268714D01*
X14018429Y-15268714D02*
X14008905Y-15278238D01*
X14218429Y-15392524D02*
X14199381Y-15383000D01*
X14199381Y-15383000D02*
X14189857Y-15373476D01*
X14189857Y-15373476D02*
X14180334Y-15354428D01*
X14180334Y-15354428D02*
X14180334Y-15297286D01*
X14180334Y-15297286D02*
X14189857Y-15278238D01*
X14189857Y-15278238D02*
X14199381Y-15268714D01*
X14199381Y-15268714D02*
X14218429Y-15259190D01*
X14218429Y-15259190D02*
X14247000Y-15259190D01*
X14247000Y-15259190D02*
X14266048Y-15268714D01*
X14266048Y-15268714D02*
X14275572Y-15278238D01*
X14275572Y-15278238D02*
X14285096Y-15297286D01*
X14285096Y-15297286D02*
X14285096Y-15354428D01*
X14285096Y-15354428D02*
X14275572Y-15373476D01*
X14275572Y-15373476D02*
X14266048Y-15383000D01*
X14266048Y-15383000D02*
X14247000Y-15392524D01*
X14247000Y-15392524D02*
X14218429Y-15392524D01*
X14399381Y-15392524D02*
X14380334Y-15383000D01*
X14380334Y-15383000D02*
X14370810Y-15363952D01*
X14370810Y-15363952D02*
X14370810Y-15192524D01*
X14551762Y-15383000D02*
X14532715Y-15392524D01*
X14532715Y-15392524D02*
X14494619Y-15392524D01*
X14494619Y-15392524D02*
X14475572Y-15383000D01*
X14475572Y-15383000D02*
X14466048Y-15363952D01*
X14466048Y-15363952D02*
X14466048Y-15287762D01*
X14466048Y-15287762D02*
X14475572Y-15268714D01*
X14475572Y-15268714D02*
X14494619Y-15259190D01*
X14494619Y-15259190D02*
X14532715Y-15259190D01*
X14532715Y-15259190D02*
X14551762Y-15268714D01*
X14551762Y-15268714D02*
X14561286Y-15287762D01*
X14561286Y-15287762D02*
X14561286Y-15306809D01*
X14561286Y-15306809D02*
X14466048Y-15325857D01*
X14637477Y-15383000D02*
X14656524Y-15392524D01*
X14656524Y-15392524D02*
X14694619Y-15392524D01*
X14694619Y-15392524D02*
X14713667Y-15383000D01*
X14713667Y-15383000D02*
X14723191Y-15363952D01*
X14723191Y-15363952D02*
X14723191Y-15354428D01*
X14723191Y-15354428D02*
X14713667Y-15335381D01*
X14713667Y-15335381D02*
X14694619Y-15325857D01*
X14694619Y-15325857D02*
X14666048Y-15325857D01*
X14666048Y-15325857D02*
X14647000Y-15316333D01*
X14647000Y-15316333D02*
X14637477Y-15297286D01*
X14637477Y-15297286D02*
X14637477Y-15287762D01*
X14637477Y-15287762D02*
X14647000Y-15268714D01*
X14647000Y-15268714D02*
X14666048Y-15259190D01*
X14666048Y-15259190D02*
X14694619Y-15259190D01*
X14694619Y-15259190D02*
X14713667Y-15268714D01*
X14789858Y-15468714D02*
X14799381Y-15459190D01*
X14799381Y-15459190D02*
X14818429Y-15430619D01*
X14818429Y-15430619D02*
X14827953Y-15411571D01*
X14827953Y-15411571D02*
X14837477Y-15383000D01*
X14837477Y-15383000D02*
X14847000Y-15335381D01*
X14847000Y-15335381D02*
X14847000Y-15297286D01*
X14847000Y-15297286D02*
X14837477Y-15249667D01*
X14837477Y-15249667D02*
X14827953Y-15221095D01*
X14827953Y-15221095D02*
X14818429Y-15202048D01*
X14818429Y-15202048D02*
X14799381Y-15173476D01*
X14799381Y-15173476D02*
X14789858Y-15163952D01*
M02*
