%TF.GenerationSoftware,KiCad,Pcbnew,7.0.2-0*%
%TF.CreationDate,2023-05-27T13:50:35-05:00*%
%TF.ProjectId,CowPi-Shield,436f7750-692d-4536-9869-656c642e6b69,mk3b*%
%TF.SameCoordinates,Original*%
%TF.FileFunction,Drillmap*%
%TF.FilePolarity,Positive*%
%FSLAX45Y45*%
G04 Gerber Fmt 4.5, Leading zero omitted, Abs format (unit mm)*
G04 Created by KiCad (PCBNEW 7.0.2-0) date 2023-05-27 13:50:35*
%MOMM*%
%LPD*%
G01*
G04 APERTURE LIST*
%ADD10C,0.100000*%
%ADD11C,0.200000*%
G04 APERTURE END LIST*
D10*
X9779000Y-7874000D02*
G75*
G03*
X9652000Y-8001000I0J-127000D01*
G01*
X17602000Y-12118000D02*
X16544803Y-13297803D01*
X9652000Y-12319000D02*
X9652000Y-8001000D01*
X17653000Y-8001000D02*
X17654605Y-11991000D01*
X16455000Y-13335000D02*
X10668000Y-13335000D01*
X9652000Y-12319000D02*
G75*
G03*
X10668000Y-13335000I1016000J0D01*
G01*
X17653000Y-8001000D02*
G75*
G03*
X17526000Y-7874000I-127000J0D01*
G01*
X9779000Y-7874000D02*
X17526000Y-7874000D01*
X16455000Y-13335000D02*
G75*
G03*
X16544803Y-13297803I0J127000D01*
G01*
X17602000Y-12118000D02*
G75*
G03*
X17654605Y-11991000I-127000J127000D01*
G01*
D11*
X9894619Y-13652524D02*
X9894619Y-13452524D01*
X9894619Y-13452524D02*
X9942238Y-13452524D01*
X9942238Y-13452524D02*
X9970810Y-13462048D01*
X9970810Y-13462048D02*
X9989857Y-13481095D01*
X9989857Y-13481095D02*
X9999381Y-13500143D01*
X9999381Y-13500143D02*
X10008905Y-13538238D01*
X10008905Y-13538238D02*
X10008905Y-13566809D01*
X10008905Y-13566809D02*
X9999381Y-13604905D01*
X9999381Y-13604905D02*
X9989857Y-13623952D01*
X9989857Y-13623952D02*
X9970810Y-13643000D01*
X9970810Y-13643000D02*
X9942238Y-13652524D01*
X9942238Y-13652524D02*
X9894619Y-13652524D01*
X10094619Y-13652524D02*
X10094619Y-13519190D01*
X10094619Y-13557286D02*
X10104143Y-13538238D01*
X10104143Y-13538238D02*
X10113667Y-13528714D01*
X10113667Y-13528714D02*
X10132714Y-13519190D01*
X10132714Y-13519190D02*
X10151762Y-13519190D01*
X10218429Y-13652524D02*
X10218429Y-13519190D01*
X10218429Y-13452524D02*
X10208905Y-13462048D01*
X10208905Y-13462048D02*
X10218429Y-13471571D01*
X10218429Y-13471571D02*
X10227952Y-13462048D01*
X10227952Y-13462048D02*
X10218429Y-13452524D01*
X10218429Y-13452524D02*
X10218429Y-13471571D01*
X10342238Y-13652524D02*
X10323190Y-13643000D01*
X10323190Y-13643000D02*
X10313667Y-13623952D01*
X10313667Y-13623952D02*
X10313667Y-13452524D01*
X10447000Y-13652524D02*
X10427952Y-13643000D01*
X10427952Y-13643000D02*
X10418429Y-13623952D01*
X10418429Y-13623952D02*
X10418429Y-13452524D01*
X10675571Y-13652524D02*
X10675571Y-13452524D01*
X10675571Y-13452524D02*
X10742238Y-13595381D01*
X10742238Y-13595381D02*
X10808905Y-13452524D01*
X10808905Y-13452524D02*
X10808905Y-13652524D01*
X10989857Y-13652524D02*
X10989857Y-13547762D01*
X10989857Y-13547762D02*
X10980333Y-13528714D01*
X10980333Y-13528714D02*
X10961286Y-13519190D01*
X10961286Y-13519190D02*
X10923190Y-13519190D01*
X10923190Y-13519190D02*
X10904143Y-13528714D01*
X10989857Y-13643000D02*
X10970810Y-13652524D01*
X10970810Y-13652524D02*
X10923190Y-13652524D01*
X10923190Y-13652524D02*
X10904143Y-13643000D01*
X10904143Y-13643000D02*
X10894619Y-13623952D01*
X10894619Y-13623952D02*
X10894619Y-13604905D01*
X10894619Y-13604905D02*
X10904143Y-13585857D01*
X10904143Y-13585857D02*
X10923190Y-13576333D01*
X10923190Y-13576333D02*
X10970810Y-13576333D01*
X10970810Y-13576333D02*
X10989857Y-13566809D01*
X11085095Y-13519190D02*
X11085095Y-13719190D01*
X11085095Y-13528714D02*
X11104143Y-13519190D01*
X11104143Y-13519190D02*
X11142238Y-13519190D01*
X11142238Y-13519190D02*
X11161286Y-13528714D01*
X11161286Y-13528714D02*
X11170810Y-13538238D01*
X11170810Y-13538238D02*
X11180333Y-13557286D01*
X11180333Y-13557286D02*
X11180333Y-13614428D01*
X11180333Y-13614428D02*
X11170810Y-13633476D01*
X11170810Y-13633476D02*
X11161286Y-13643000D01*
X11161286Y-13643000D02*
X11142238Y-13652524D01*
X11142238Y-13652524D02*
X11104143Y-13652524D01*
X11104143Y-13652524D02*
X11085095Y-13643000D01*
X11266048Y-13633476D02*
X11275571Y-13643000D01*
X11275571Y-13643000D02*
X11266048Y-13652524D01*
X11266048Y-13652524D02*
X11256524Y-13643000D01*
X11256524Y-13643000D02*
X11266048Y-13633476D01*
X11266048Y-13633476D02*
X11266048Y-13652524D01*
X11266048Y-13528714D02*
X11275571Y-13538238D01*
X11275571Y-13538238D02*
X11266048Y-13547762D01*
X11266048Y-13547762D02*
X11256524Y-13538238D01*
X11256524Y-13538238D02*
X11266048Y-13528714D01*
X11266048Y-13528714D02*
X11266048Y-13547762D01*
M02*
