%TF.GenerationSoftware,KiCad,Pcbnew,7.0.2-0*%
%TF.CreationDate,2023-05-27T13:50:39-05:00*%
%TF.ProjectId,CowPi-Shield,436f7750-692d-4536-9869-656c642e6b69,mk3b*%
%TF.SameCoordinates,Original*%
%TF.FileFunction,Soldermask,Bot*%
%TF.FilePolarity,Negative*%
%FSLAX46Y46*%
G04 Gerber Fmt 4.6, Leading zero omitted, Abs format (unit mm)*
G04 Created by KiCad (PCBNEW 7.0.2-0) date 2023-05-27 13:50:39*
%MOMM*%
%LPD*%
G01*
G04 APERTURE LIST*
G04 Aperture macros list*
%AMHorizOval*
0 Thick line with rounded ends*
0 $1 width*
0 $2 $3 position (X,Y) of the first rounded end (center of the circle)*
0 $4 $5 position (X,Y) of the second rounded end (center of the circle)*
0 Add line between two ends*
20,1,$1,$2,$3,$4,$5,0*
0 Add two circle primitives to create the rounded ends*
1,1,$1,$2,$3*
1,1,$1,$4,$5*%
%AMRotRect*
0 Rectangle, with rotation*
0 The origin of the aperture is its center*
0 $1 length*
0 $2 width*
0 $3 Rotation angle, in degrees counterclockwise*
0 Add horizontal line*
21,1,$1,$2,0,0,$3*%
G04 Aperture macros list end*
%ADD10R,2.200000X2.200000*%
%ADD11O,2.200000X2.200000*%
%ADD12O,1.727200X1.727200*%
%ADD13R,1.727200X1.727200*%
%ADD14O,1.700000X1.700000*%
%ADD15R,1.500000X2.500000*%
%ADD16O,1.500000X2.500000*%
%ADD17R,2.000000X2.000000*%
%ADD18C,2.000000*%
%ADD19R,1.800000X1.800000*%
%ADD20C,1.800000*%
%ADD21R,1.700000X1.700000*%
%ADD22C,1.600000*%
%ADD23O,1.600000X1.600000*%
%ADD24RotRect,2.200000X2.200000X340.000000*%
%ADD25HorizOval,2.200000X0.000000X0.000000X0.000000X0.000000X0*%
G04 APERTURE END LIST*
D10*
%TO.C,D11*%
X150340000Y-104770000D03*
D11*
X154150000Y-104770000D03*
%TD*%
D10*
%TO.C,D4*%
X142720000Y-113250000D03*
D11*
X146530000Y-113250000D03*
%TD*%
D12*
%TO.C,XA1*%
X127884000Y-130384237D03*
X135504000Y-130384237D03*
X138044000Y-130384237D03*
X166111000Y-102444237D03*
X150744000Y-130384237D03*
X153284000Y-130384237D03*
X155824000Y-130384237D03*
X158364000Y-130384237D03*
X160904000Y-130384237D03*
X163444000Y-130384237D03*
X123820000Y-82124237D03*
X163444000Y-82124237D03*
X160904000Y-82124237D03*
X158364000Y-82124237D03*
X155824000Y-82124237D03*
X153284000Y-82124237D03*
X150744000Y-82124237D03*
X148204000Y-82124237D03*
X145664000Y-82124237D03*
X141600000Y-82124237D03*
X139060000Y-82124237D03*
X136520000Y-82124237D03*
X133980000Y-82124237D03*
X131440000Y-82124237D03*
X128900000Y-82124237D03*
D13*
X126360000Y-82124237D03*
X140584000Y-130384237D03*
X143124000Y-130384237D03*
X166111000Y-107524237D03*
D12*
X130424000Y-130384237D03*
X163571000Y-102444237D03*
X166111000Y-104984237D03*
X132964000Y-130384237D03*
X163571000Y-107524237D03*
X163571000Y-104984237D03*
X118740000Y-82124237D03*
X121280000Y-82124237D03*
X145664000Y-130384237D03*
%TD*%
D10*
%TO.C,D7*%
X145260000Y-109170000D03*
D11*
X149070000Y-109170000D03*
%TD*%
D14*
%TO.C,JP1*%
X160000000Y-116210000D03*
X162540000Y-116210000D03*
X165080000Y-116210000D03*
%TD*%
D15*
%TO.C,SW21*%
X116956870Y-130410000D03*
D16*
X118956870Y-130410000D03*
X120956870Y-130410000D03*
X124576870Y-130410000D03*
%TD*%
D17*
%TO.C,SW17*%
X150500000Y-126870000D03*
X144000000Y-126870000D03*
D18*
X150500000Y-122370000D03*
X144000000Y-122370000D03*
%TD*%
D10*
%TO.C,D16*%
X152880000Y-116850000D03*
D11*
X156690000Y-116850000D03*
%TD*%
D19*
%TO.C,D17*%
X105390000Y-82420000D03*
D20*
X102850000Y-82420000D03*
%TD*%
D18*
%TO.C,2*%
X117870000Y-93560000D03*
X111370000Y-93560000D03*
X111370000Y-89060000D03*
X117870000Y-89060000D03*
%TD*%
%TO.C,SW18*%
X154000000Y-122370000D03*
X160500000Y-122370000D03*
D17*
X154000000Y-126870000D03*
X160500000Y-126870000D03*
%TD*%
D10*
%TO.C,D1*%
X142720000Y-88770000D03*
D11*
X146530000Y-88770000D03*
%TD*%
D18*
%TO.C,8*%
X117870000Y-113560000D03*
X111370000Y-113560000D03*
X111370000Y-109060000D03*
X117870000Y-109060000D03*
%TD*%
%TO.C,9*%
X127870000Y-113560000D03*
X121370000Y-113560000D03*
X121370000Y-109060000D03*
X127870000Y-109060000D03*
%TD*%
D10*
%TO.C,D9*%
X150340000Y-88770000D03*
D11*
X154150000Y-88770000D03*
%TD*%
D18*
%TO.C,4*%
X107870000Y-103560000D03*
X101370000Y-103560000D03*
X101370000Y-99060000D03*
X107870000Y-99060000D03*
%TD*%
D21*
%TO.C,J3*%
X169405000Y-90020000D03*
D14*
X169405000Y-92560000D03*
%TD*%
D18*
%TO.C,#*%
X127870000Y-123560000D03*
X121370000Y-123560000D03*
X121370000Y-119060000D03*
X127870000Y-119060000D03*
%TD*%
%TO.C,0*%
X117870000Y-123560000D03*
X111370000Y-123560000D03*
X111370000Y-119060000D03*
X117870000Y-119060000D03*
%TD*%
D15*
%TO.C,SW20*%
X103656449Y-130410000D03*
D16*
X105656449Y-130410000D03*
X107656449Y-130410000D03*
X111276449Y-130410000D03*
%TD*%
D10*
%TO.C,D10*%
X150340000Y-96770000D03*
D11*
X154150000Y-96770000D03*
%TD*%
D10*
%TO.C,D8*%
X145260000Y-117330000D03*
D11*
X149070000Y-117330000D03*
%TD*%
D10*
%TO.C,D3*%
X142720000Y-105090000D03*
D11*
X146530000Y-105090000D03*
%TD*%
D18*
%TO.C,A*%
X137870000Y-93560000D03*
X131370000Y-93560000D03*
X131370000Y-89060000D03*
X137870000Y-89060000D03*
%TD*%
%TO.C,B*%
X137870000Y-103560000D03*
X131370000Y-103560000D03*
X131370000Y-99060000D03*
X137870000Y-99060000D03*
%TD*%
D10*
%TO.C,D2*%
X142720000Y-96930000D03*
D11*
X146530000Y-96930000D03*
%TD*%
D22*
%TO.C,R*%
X99040000Y-81150000D03*
D23*
X99040000Y-83690000D03*
%TD*%
D14*
%TO.C,J1*%
X169425000Y-82400000D03*
X166885000Y-82400000D03*
X169425000Y-84940000D03*
D21*
X166885000Y-84940000D03*
D14*
X169425000Y-87480000D03*
X166885000Y-87480000D03*
%TD*%
%TO.C,JP2*%
X160000000Y-111560000D03*
X162540000Y-111560000D03*
X165080000Y-111560000D03*
%TD*%
D18*
%TO.C,\u002A*%
X107870000Y-123560000D03*
X101370000Y-123560000D03*
X101370000Y-119060000D03*
X107870000Y-119060000D03*
%TD*%
D19*
%TO.C,D18*%
X109300000Y-82420000D03*
D20*
X111840000Y-82420000D03*
%TD*%
D18*
%TO.C,D*%
X137870000Y-123560000D03*
X131370000Y-123560000D03*
X131370000Y-119060000D03*
X137870000Y-119060000D03*
%TD*%
D22*
%TO.C,R*%
X115650000Y-81150000D03*
D23*
X115650000Y-83690000D03*
%TD*%
D18*
%TO.C,5*%
X117870000Y-103560000D03*
X111370000Y-103560000D03*
X111370000Y-99060000D03*
X117870000Y-99060000D03*
%TD*%
%TO.C,6*%
X127870000Y-103560000D03*
X121370000Y-103560000D03*
X121370000Y-99060000D03*
X127870000Y-99060000D03*
%TD*%
D14*
%TO.C,J4*%
X169405000Y-100180000D03*
D21*
X169405000Y-102720000D03*
D14*
X169405000Y-105260000D03*
X169405000Y-107800000D03*
X169405000Y-110340000D03*
%TD*%
D24*
%TO.C,D13*%
X152880000Y-92850000D03*
D25*
X156460229Y-94153097D03*
%TD*%
D10*
%TO.C,D6*%
X145260000Y-101010000D03*
D11*
X149070000Y-101010000D03*
%TD*%
D10*
%TO.C,D12*%
X150340000Y-112770000D03*
D11*
X154150000Y-112770000D03*
%TD*%
D17*
%TO.C,RESET*%
X161480000Y-85020000D03*
X161480000Y-91520000D03*
D18*
X156980000Y-91520000D03*
X156980000Y-85020000D03*
%TD*%
D10*
%TO.C,D14*%
X152880000Y-100850000D03*
D11*
X156690000Y-100850000D03*
%TD*%
D18*
%TO.C,3*%
X127870000Y-93560000D03*
X121370000Y-93560000D03*
X121370000Y-89060000D03*
X127870000Y-89060000D03*
%TD*%
%TO.C,C*%
X137870000Y-113560000D03*
X131370000Y-113560000D03*
X131370000Y-109060000D03*
X137870000Y-109060000D03*
%TD*%
%TO.C,1*%
X107870000Y-93560000D03*
X101370000Y-93560000D03*
X101370000Y-89060000D03*
X107870000Y-89060000D03*
%TD*%
%TO.C,7*%
X107870000Y-113560000D03*
X101370000Y-113560000D03*
X101370000Y-109060000D03*
X107870000Y-109060000D03*
%TD*%
D10*
%TO.C,D15*%
X152880000Y-108850000D03*
D11*
X156690000Y-108850000D03*
%TD*%
D14*
%TO.C,J2*%
X164325000Y-95100000D03*
X164325000Y-97640000D03*
X166865000Y-95100000D03*
D21*
X166865000Y-97640000D03*
D14*
X169405000Y-95100000D03*
X169405000Y-97640000D03*
%TD*%
D10*
%TO.C,D5*%
X145260000Y-92850000D03*
D11*
X149070000Y-92850000D03*
%TD*%
M02*
