%TF.GenerationSoftware,KiCad,Pcbnew,7.0.2-0*%
%TF.CreationDate,2023-05-27T13:50:39-05:00*%
%TF.ProjectId,CowPi-Shield,436f7750-692d-4536-9869-656c642e6b69,mk3b*%
%TF.SameCoordinates,Original*%
%TF.FileFunction,Legend,Bot*%
%TF.FilePolarity,Positive*%
%FSLAX46Y46*%
G04 Gerber Fmt 4.6, Leading zero omitted, Abs format (unit mm)*
G04 Created by KiCad (PCBNEW 7.0.2-0) date 2023-05-27 13:50:39*
%MOMM*%
%LPD*%
G01*
G04 APERTURE LIST*
%ADD10C,0.150000*%
%ADD11C,0.125000*%
%ADD12C,0.075000*%
G04 APERTURE END LIST*
D10*
X134736189Y-84633227D02*
X134736189Y-85240370D01*
X134736189Y-85240370D02*
X134776666Y-85361798D01*
X134776666Y-85361798D02*
X134857618Y-85442751D01*
X134857618Y-85442751D02*
X134979047Y-85483227D01*
X134979047Y-85483227D02*
X135059999Y-85483227D01*
X133926666Y-85483227D02*
X134331428Y-85483227D01*
X134331428Y-85483227D02*
X134331428Y-84633227D01*
X133157618Y-85402274D02*
X133198094Y-85442751D01*
X133198094Y-85442751D02*
X133319523Y-85483227D01*
X133319523Y-85483227D02*
X133400475Y-85483227D01*
X133400475Y-85483227D02*
X133521904Y-85442751D01*
X133521904Y-85442751D02*
X133602856Y-85361798D01*
X133602856Y-85361798D02*
X133643333Y-85280846D01*
X133643333Y-85280846D02*
X133683809Y-85118941D01*
X133683809Y-85118941D02*
X133683809Y-84997512D01*
X133683809Y-84997512D02*
X133643333Y-84835608D01*
X133643333Y-84835608D02*
X133602856Y-84754655D01*
X133602856Y-84754655D02*
X133521904Y-84673703D01*
X133521904Y-84673703D02*
X133400475Y-84633227D01*
X133400475Y-84633227D02*
X133319523Y-84633227D01*
X133319523Y-84633227D02*
X133198094Y-84673703D01*
X133198094Y-84673703D02*
X133157618Y-84714179D01*
X132550475Y-84633227D02*
X132550475Y-85240370D01*
X132550475Y-85240370D02*
X132590952Y-85361798D01*
X132590952Y-85361798D02*
X132671904Y-85442751D01*
X132671904Y-85442751D02*
X132793333Y-85483227D01*
X132793333Y-85483227D02*
X132874285Y-85483227D01*
X131740952Y-85483227D02*
X132145714Y-85483227D01*
X132145714Y-85483227D02*
X132145714Y-84633227D01*
X130971904Y-85402274D02*
X131012380Y-85442751D01*
X131012380Y-85442751D02*
X131133809Y-85483227D01*
X131133809Y-85483227D02*
X131214761Y-85483227D01*
X131214761Y-85483227D02*
X131336190Y-85442751D01*
X131336190Y-85442751D02*
X131417142Y-85361798D01*
X131417142Y-85361798D02*
X131457619Y-85280846D01*
X131457619Y-85280846D02*
X131498095Y-85118941D01*
X131498095Y-85118941D02*
X131498095Y-84997512D01*
X131498095Y-84997512D02*
X131457619Y-84835608D01*
X131457619Y-84835608D02*
X131417142Y-84754655D01*
X131417142Y-84754655D02*
X131336190Y-84673703D01*
X131336190Y-84673703D02*
X131214761Y-84633227D01*
X131214761Y-84633227D02*
X131133809Y-84633227D01*
X131133809Y-84633227D02*
X131012380Y-84673703D01*
X131012380Y-84673703D02*
X130971904Y-84714179D01*
X130364761Y-84633227D02*
X130364761Y-85240370D01*
X130364761Y-85240370D02*
X130405238Y-85361798D01*
X130405238Y-85361798D02*
X130486190Y-85442751D01*
X130486190Y-85442751D02*
X130607619Y-85483227D01*
X130607619Y-85483227D02*
X130688571Y-85483227D01*
X129555238Y-85483227D02*
X129960000Y-85483227D01*
X129960000Y-85483227D02*
X129960000Y-84633227D01*
X128786190Y-85402274D02*
X128826666Y-85442751D01*
X128826666Y-85442751D02*
X128948095Y-85483227D01*
X128948095Y-85483227D02*
X129029047Y-85483227D01*
X129029047Y-85483227D02*
X129150476Y-85442751D01*
X129150476Y-85442751D02*
X129231428Y-85361798D01*
X129231428Y-85361798D02*
X129271905Y-85280846D01*
X129271905Y-85280846D02*
X129312381Y-85118941D01*
X129312381Y-85118941D02*
X129312381Y-84997512D01*
X129312381Y-84997512D02*
X129271905Y-84835608D01*
X129271905Y-84835608D02*
X129231428Y-84754655D01*
X129231428Y-84754655D02*
X129150476Y-84673703D01*
X129150476Y-84673703D02*
X129029047Y-84633227D01*
X129029047Y-84633227D02*
X128948095Y-84633227D01*
X128948095Y-84633227D02*
X128826666Y-84673703D01*
X128826666Y-84673703D02*
X128786190Y-84714179D01*
X128179047Y-84633227D02*
X128179047Y-85240370D01*
X128179047Y-85240370D02*
X128219524Y-85361798D01*
X128219524Y-85361798D02*
X128300476Y-85442751D01*
X128300476Y-85442751D02*
X128421905Y-85483227D01*
X128421905Y-85483227D02*
X128502857Y-85483227D01*
X127369524Y-85483227D02*
X127774286Y-85483227D01*
X127774286Y-85483227D02*
X127774286Y-84633227D01*
X126600476Y-85402274D02*
X126640952Y-85442751D01*
X126640952Y-85442751D02*
X126762381Y-85483227D01*
X126762381Y-85483227D02*
X126843333Y-85483227D01*
X126843333Y-85483227D02*
X126964762Y-85442751D01*
X126964762Y-85442751D02*
X127045714Y-85361798D01*
X127045714Y-85361798D02*
X127086191Y-85280846D01*
X127086191Y-85280846D02*
X127126667Y-85118941D01*
X127126667Y-85118941D02*
X127126667Y-84997512D01*
X127126667Y-84997512D02*
X127086191Y-84835608D01*
X127086191Y-84835608D02*
X127045714Y-84754655D01*
X127045714Y-84754655D02*
X126964762Y-84673703D01*
X126964762Y-84673703D02*
X126843333Y-84633227D01*
X126843333Y-84633227D02*
X126762381Y-84633227D01*
X126762381Y-84633227D02*
X126640952Y-84673703D01*
X126640952Y-84673703D02*
X126600476Y-84714179D01*
D11*
X161995041Y-104273863D02*
X161495041Y-104273863D01*
X161947422Y-104797672D02*
X161971232Y-104773863D01*
X161971232Y-104773863D02*
X161995041Y-104702434D01*
X161995041Y-104702434D02*
X161995041Y-104654815D01*
X161995041Y-104654815D02*
X161971232Y-104583387D01*
X161971232Y-104583387D02*
X161923612Y-104535768D01*
X161923612Y-104535768D02*
X161875993Y-104511958D01*
X161875993Y-104511958D02*
X161780755Y-104488149D01*
X161780755Y-104488149D02*
X161709327Y-104488149D01*
X161709327Y-104488149D02*
X161614089Y-104511958D01*
X161614089Y-104511958D02*
X161566470Y-104535768D01*
X161566470Y-104535768D02*
X161518851Y-104583387D01*
X161518851Y-104583387D02*
X161495041Y-104654815D01*
X161495041Y-104654815D02*
X161495041Y-104702434D01*
X161495041Y-104702434D02*
X161518851Y-104773863D01*
X161518851Y-104773863D02*
X161542660Y-104797672D01*
X161971232Y-104988149D02*
X161995041Y-105059577D01*
X161995041Y-105059577D02*
X161995041Y-105178625D01*
X161995041Y-105178625D02*
X161971232Y-105226244D01*
X161971232Y-105226244D02*
X161947422Y-105250053D01*
X161947422Y-105250053D02*
X161899803Y-105273863D01*
X161899803Y-105273863D02*
X161852184Y-105273863D01*
X161852184Y-105273863D02*
X161804565Y-105250053D01*
X161804565Y-105250053D02*
X161780755Y-105226244D01*
X161780755Y-105226244D02*
X161756946Y-105178625D01*
X161756946Y-105178625D02*
X161733136Y-105083387D01*
X161733136Y-105083387D02*
X161709327Y-105035768D01*
X161709327Y-105035768D02*
X161685517Y-105011958D01*
X161685517Y-105011958D02*
X161637898Y-104988149D01*
X161637898Y-104988149D02*
X161590279Y-104988149D01*
X161590279Y-104988149D02*
X161542660Y-105011958D01*
X161542660Y-105011958D02*
X161518851Y-105035768D01*
X161518851Y-105035768D02*
X161495041Y-105083387D01*
X161495041Y-105083387D02*
X161495041Y-105202434D01*
X161495041Y-105202434D02*
X161518851Y-105273863D01*
X161995041Y-105488148D02*
X161495041Y-105488148D01*
X161495041Y-105488148D02*
X161495041Y-105678624D01*
X161495041Y-105678624D02*
X161518851Y-105726243D01*
X161518851Y-105726243D02*
X161542660Y-105750053D01*
X161542660Y-105750053D02*
X161590279Y-105773862D01*
X161590279Y-105773862D02*
X161661708Y-105773862D01*
X161661708Y-105773862D02*
X161709327Y-105750053D01*
X161709327Y-105750053D02*
X161733136Y-105726243D01*
X161733136Y-105726243D02*
X161756946Y-105678624D01*
X161756946Y-105678624D02*
X161756946Y-105488148D01*
D12*
%TO.C,XA1*%
X163813047Y-84260546D02*
X163813047Y-83760546D01*
X163813047Y-83760546D02*
X163693999Y-83760546D01*
X163693999Y-83760546D02*
X163622571Y-83784356D01*
X163622571Y-83784356D02*
X163574952Y-83831975D01*
X163574952Y-83831975D02*
X163551142Y-83879594D01*
X163551142Y-83879594D02*
X163527333Y-83974832D01*
X163527333Y-83974832D02*
X163527333Y-84046260D01*
X163527333Y-84046260D02*
X163551142Y-84141498D01*
X163551142Y-84141498D02*
X163574952Y-84189117D01*
X163574952Y-84189117D02*
X163622571Y-84236737D01*
X163622571Y-84236737D02*
X163693999Y-84260546D01*
X163693999Y-84260546D02*
X163813047Y-84260546D01*
X163217809Y-83760546D02*
X163170190Y-83760546D01*
X163170190Y-83760546D02*
X163122571Y-83784356D01*
X163122571Y-83784356D02*
X163098761Y-83808165D01*
X163098761Y-83808165D02*
X163074952Y-83855784D01*
X163074952Y-83855784D02*
X163051142Y-83951022D01*
X163051142Y-83951022D02*
X163051142Y-84070070D01*
X163051142Y-84070070D02*
X163074952Y-84165308D01*
X163074952Y-84165308D02*
X163098761Y-84212927D01*
X163098761Y-84212927D02*
X163122571Y-84236737D01*
X163122571Y-84236737D02*
X163170190Y-84260546D01*
X163170190Y-84260546D02*
X163217809Y-84260546D01*
X163217809Y-84260546D02*
X163265428Y-84236737D01*
X163265428Y-84236737D02*
X163289237Y-84212927D01*
X163289237Y-84212927D02*
X163313047Y-84165308D01*
X163313047Y-84165308D02*
X163336856Y-84070070D01*
X163336856Y-84070070D02*
X163336856Y-83951022D01*
X163336856Y-83951022D02*
X163313047Y-83855784D01*
X163313047Y-83855784D02*
X163289237Y-83808165D01*
X163289237Y-83808165D02*
X163265428Y-83784356D01*
X163265428Y-83784356D02*
X163217809Y-83760546D01*
D10*
X99944000Y-79584237D02*
X99944000Y-132924237D01*
X99944000Y-79584237D02*
X164460000Y-79584237D01*
X99944000Y-132924237D02*
X165984000Y-132924237D01*
X164460000Y-79584237D02*
X165984000Y-81108237D01*
X165984000Y-92284237D02*
X165984000Y-81108237D01*
X165984000Y-131654237D02*
X168524000Y-129114237D01*
X165984000Y-132924237D02*
X165984000Y-131654237D01*
X168524000Y-94824237D02*
X165984000Y-92284237D01*
X168524000Y-129114237D02*
X168524000Y-94824237D01*
%TD*%
M02*
